<svg width="301" height="200" viewBox="0 0 301 200" fill="none" xmlns="http://www.w3.org/2000/svg">
<path fill-rule="evenodd" clip-rule="evenodd" d="M159.605 200C238.002 194.877 300.002 129.75 300.002 50.1624C300.002 -32.77 232.682 -100 149.639 -100C71.6127 -100 7.46755 -40.6477 0.00195312 35.3152C17.4844 -14.7695 65.1908 -50.7068 121.302 -50.7068C192.229 -50.7068 249.727 6.71451 249.727 77.5473C249.727 135.057 211.825 183.726 159.605 200Z" fill="white" fill-opacity="0.15"/>
<path d="M103.289 46.0545L195.152 4.97668L153.562 96.2608L143.051 71.1577L121.57 92.6094L107.402 78.4604L128.426 57.465L103.289 46.0545Z" fill="white" fill-opacity="0.15"/>
<path fill-rule="evenodd" clip-rule="evenodd" d="M234.494 87.266C222.409 127.792 184.814 157.343 140.307 157.343C86.0387 157.343 42.0457 113.408 42.0457 59.2122C42.0457 13.0951 73.9003 -25.5917 116.835 -36.101C55.9658 -33.8553 7.31055 16.1324 7.31055 77.469C7.31055 140.235 58.2607 191.118 121.111 191.118C180.656 191.118 229.52 145.446 234.494 87.266Z" fill="white" fill-opacity="0.15"/>
</svg>
