<svg width="1440" height="290" viewBox="0 0 1440 290" fill="none" xmlns="http://www.w3.org/2000/svg">
<rect width="1440" height="290" fill="#E03632"/>
<mask id="mask0" mask-type="alpha" maskUnits="userSpaceOnUse" x="0" y="0" width="1440" height="290">
<rect width="1440" height="290" fill="white"/>
</mask>
<g mask="url(#mask0)">
<rect y="-119" width="1440" height="657" fill="url(#paint0_radial)"/>
<g style="mix-blend-mode:multiply" opacity="0.4">
<path fill-rule="evenodd" clip-rule="evenodd" d="M1685.9 14.8569C1685.9 14.8569 1632.3 4.08901 1206.23 76.6519C780.152 149.215 644.074 295.751 334.797 236.138C25.5197 176.524 -107.742 66.0256 -490.842 106.174C-873.942 146.322 -456.003 568.845 -456.003 568.845L854.201 462.224L1682.97 239.421L1685.9 14.8569Z" fill="#D10602"/>
</g>
<g style="mix-blend-mode:multiply" opacity="0.4">
<path fill-rule="evenodd" clip-rule="evenodd" d="M-371.821 -18.3069C-371.821 -18.3069 -318.53 -47.0712 80.7984 25.9898C480.127 99.0508 588.739 357.714 895.829 196.547C1202.92 35.3796 1348.25 -195.854 1711.15 -178.037C2074.06 -160.22 1606.61 709.918 1606.61 709.918L360.774 707.52L-403.451 409.631L-371.821 -18.3069Z" fill="#D10602"/>
</g>
<g style="mix-blend-mode:soft-light" opacity="0.7">
<rect x="1440" y="504" width="1440" height="622" transform="rotate(-180 1440 504)" fill="url(#paint1_linear)"/>
</g>
</g>
<defs>
<radialGradient id="paint0_radial" cx="0" cy="0" r="1" gradientUnits="userSpaceOnUse" gradientTransform="translate(700.796 504.534) rotate(90) scale(509.517 2595.65)">
<stop stop-color="white"/>
<stop offset="1" stop-color="#E2342A" stop-opacity="0.01"/>
</radialGradient>
<linearGradient id="paint1_linear" x1="1440" y1="504" x2="1440" y2="1126" gradientUnits="userSpaceOnUse">
<stop stop-color="white" stop-opacity="0.01"/>
<stop offset="0.968969" stop-color="white"/>
</linearGradient>
</defs>
</svg>
