<svg width="20" height="20" viewBox="0 0 20 20" fill="none" xmlns="http://www.w3.org/2000/svg">
<path fill-rule="evenodd" clip-rule="evenodd" d="M17.8515 0H1.83594C1.52344 0 1.25 0.273437 1.25 0.585936V2.53906C1.25 2.85155 1.52344 3.12499 1.83594 3.12499H17.8515C18.164 3.12499 18.4375 2.85155 18.4375 2.53906V0.585936C18.4375 0.273437 18.164 0 17.8515 0ZM5.35155 4.68745H1.83594C1.52344 4.68745 1.25 4.96089 1.25 5.27339V6.44526C1.25 6.75776 1.52344 7.0312 1.83594 7.0312H5.35155C5.66405 7.0312 5.93749 6.75776 5.93749 6.44526V5.27339C5.93749 4.96089 5.66405 4.68745 5.35155 4.68745ZM11.6016 4.68745H8.08598C7.77348 4.68745 7.50004 4.96089 7.50004 5.27339V6.44526C7.50004 6.75776 7.77348 7.0312 8.08598 7.0312H11.6016C11.9141 7.0312 12.1875 6.75776 12.1875 6.44526V5.27339C12.1875 4.96089 11.9141 4.68745 11.6016 4.68745ZM17.8516 4.68745H14.336C14.0235 4.68745 13.7501 4.96089 13.7501 5.27339V6.44526C13.7501 6.75776 14.0235 7.0312 14.336 7.0312H17.8516C18.1641 7.0312 18.4376 6.75776 18.4376 6.44526V5.27339C18.4376 4.96089 18.1641 4.68745 17.8516 4.68745ZM5.35155 8.5937H1.83594C1.52344 8.5937 1.25 8.86713 1.25 9.17963V10.3515C1.25 10.664 1.52344 10.9374 1.83594 10.9374H5.35155C5.66405 10.9374 5.93749 10.664 5.93749 10.3515V9.17963C5.93749 8.86713 5.66405 8.5937 5.35155 8.5937ZM11.6016 8.5937H8.08598C7.77348 8.5937 7.50004 8.86713 7.50004 9.17963V10.3515C7.50004 10.664 7.77348 10.9374 8.08598 10.9374H11.6016C11.9141 10.9374 12.1875 10.664 12.1875 10.3515V9.17963C12.1875 8.86713 11.9141 8.5937 11.6016 8.5937ZM17.8516 8.5937H14.336C14.0235 8.5937 13.7501 8.86713 13.7501 9.17963V10.3515C13.7501 10.664 14.0235 10.9374 14.336 10.9374H17.8516C18.1641 10.9374 18.4376 10.664 18.4376 10.3515V9.17963C18.4376 8.86713 18.1641 8.5937 17.8516 8.5937ZM5.35155 12.4999H1.83594C1.52344 12.4999 1.25 12.7734 1.25 13.0859V14.2578C1.25 14.5703 1.52344 14.8437 1.83594 14.8437H5.35155C5.66405 14.8437 5.93749 14.5703 5.93749 14.2578V13.0859C5.93749 12.7734 5.66405 12.4999 5.35155 12.4999ZM11.6016 12.4999H8.08598C7.77348 12.4999 7.50004 12.7734 7.50004 13.0859V14.2578C7.50004 14.5703 7.77348 14.8437 8.08598 14.8437H11.6016C11.9141 14.8437 12.1875 14.5703 12.1875 14.2578V13.0859C12.1875 12.7734 11.9141 12.4999 11.6016 12.4999ZM17.8516 12.4999H14.336C14.0235 12.4999 13.7501 12.7734 13.7501 13.0859V14.2578C13.7501 14.5703 14.0235 14.8437 14.336 14.8437H17.8516C18.1641 14.8437 18.4376 14.5703 18.4376 14.2578V13.0859C18.4376 12.7734 18.1641 12.4999 17.8516 12.4999ZM5.35155 16.4062H1.83594C1.52344 16.4062 1.25 16.6796 1.25 16.9921V18.164C1.25 18.4765 1.52344 18.7499 1.83594 18.7499H5.35155C5.66405 18.7499 5.93749 18.4765 5.93749 18.164V16.9921C5.93749 16.6796 5.66405 16.4062 5.35155 16.4062ZM11.6016 16.4062H8.08598C7.77348 16.4062 7.50004 16.6796 7.50004 16.9921V18.164C7.50004 18.4765 7.77348 18.7499 8.08598 18.7499H11.6016C11.9141 18.7499 12.1875 18.4765 12.1875 18.164V16.9921C12.1875 16.6796 11.9141 16.4062 11.6016 16.4062ZM17.8516 16.4062H14.336C14.0235 16.4062 13.7501 16.6796 13.7501 16.9921V18.164C13.7501 18.4765 14.0235 18.7499 14.336 18.7499H17.8516C18.1641 18.7499 18.4376 18.4765 18.4376 18.164V16.9921C18.4376 16.6796 18.1641 16.4062 17.8516 16.4062Z" fill="#E03632"/>
<mask id="mask0" mask-type="alpha" maskUnits="userSpaceOnUse" x="0" y="0" width="20" height="20">
<rect width="20" height="20" fill="#C4C4C4"/>
</mask>
<g mask="url(#mask0)">
</g>
</svg>
