<svg width="16" height="16" viewBox="0 0 16 16" fill="none" xmlns="http://www.w3.org/2000/svg">
<path d="M12.85 4.65016L9.35 1.15016C9.30596 1.10136 9.25187 1.06268 9.19145 1.03679C9.13103 1.01089 9.06571 0.998399 9 1.00016H4C3.73478 1.00016 3.48043 1.10552 3.29289 1.29306C3.10536 1.48059 3 1.73495 3 2.00016V14.0002C3 14.2654 3.10536 14.5197 3.29289 14.7073C3.48043 14.8948 3.73478 15.0002 4 15.0002H12C12.2652 15.0002 12.5196 14.8948 12.7071 14.7073C12.8946 14.5197 13 14.2654 13 14.0002V5.00016C13.0018 4.93445 12.9893 4.86914 12.9634 4.80872C12.9375 4.7483 12.8988 4.69421 12.85 4.65016ZM9 2.20016L11.8 5.00016H9V2.20016ZM12 14.0002H4V2.00016H8V5.00016C8 5.26538 8.10536 5.51973 8.29289 5.70727C8.48043 5.89481 8.73478 6.00016 9 6.00016H12V14.0002Z" fill="#2E97DF"/>
<path d="M5.5 11H10.5V12H5.5V11ZM5.5 8H10.5V9H5.5V8Z" fill="#2E97DF"/>
</svg>
