<svg width="16" height="16" viewBox="0 0 16 16" fill="none" xmlns="http://www.w3.org/2000/svg">
<rect width="16" height="16" rx="2" fill="#AFBAC1"/>
<path d="M6.29341 1.87502C5.45438 1.87217 4.63295 2.11556 3.93091 2.57502L6.73091 5.37503C6.82416 5.45459 6.90055 5.55201 6.95557 5.66155C7.01059 5.77108 7.04314 5.89052 7.05129 6.01283C7.05945 6.13514 7.04304 6.25785 7.00305 6.37372C6.96305 6.48959 6.90027 6.59629 6.81841 6.68753C6.72717 6.76939 6.62047 6.83217 6.5046 6.87216C6.38873 6.91216 6.26603 6.92856 6.14372 6.92041C6.02141 6.91226 5.90197 6.87971 5.79243 6.82469C5.68289 6.76966 5.58547 6.69328 5.50591 6.60003L2.61841 3.80002C2.11918 4.53465 1.85939 5.4057 1.87466 6.29378C1.87927 7.46428 2.34629 8.58553 3.17397 9.41321C4.00165 10.2409 5.1229 10.7079 6.29341 10.7125C6.67647 10.7146 7.05839 10.6706 7.43091 10.5813L10.3622 13.5125C10.7741 13.9244 11.3327 14.1559 11.9153 14.1559C12.4978 14.1559 13.0565 13.9244 13.4684 13.5125C13.8803 13.1006 14.1117 12.5419 14.1117 11.9594C14.1117 11.3769 13.8803 10.8182 13.4684 10.4063L10.5372 7.47503C10.6264 7.10251 10.6705 6.72059 10.6684 6.33753C10.68 5.75567 10.5755 5.17734 10.3608 4.6364C10.1462 4.09546 9.82577 3.60278 9.41835 3.18721C9.01093 2.77164 8.52469 2.44154 7.98811 2.21622C7.45153 1.9909 6.87538 1.87491 6.29341 1.87502ZM9.79341 6.29378C9.79277 6.60465 9.74859 6.9139 9.66216 7.21253L9.53091 7.69378L9.88091 8.04378L12.8122 10.975C12.937 11.0932 13.0363 11.2357 13.104 11.3937C13.1718 11.5517 13.2064 11.7219 13.2059 11.8938C13.2108 12.0663 13.1782 12.2378 13.1102 12.3965C13.0422 12.5551 12.9405 12.6971 12.8122 12.8125C12.6937 12.9369 12.5511 13.036 12.3932 13.1037C12.2353 13.1714 12.0652 13.2063 11.8934 13.2063C11.7216 13.2063 11.5516 13.1714 11.3936 13.1037C11.2357 13.036 11.0932 12.9369 10.9747 12.8125L8.04341 9.88128L7.69341 9.53128L7.21216 9.66253C6.91354 9.74895 6.60429 9.79313 6.29341 9.79378C5.36375 9.79119 4.47076 9.43086 3.79966 8.78753C3.46027 8.46818 3.1915 8.0813 3.01066 7.65181C2.82982 7.22231 2.74091 6.75971 2.74966 6.29378C2.75026 5.96852 2.79441 5.64481 2.88091 5.33127L4.80591 7.25628C4.96857 7.43328 5.16484 7.57614 5.38327 7.67651C5.60171 7.77689 5.83794 7.83278 6.0782 7.84093C6.31846 7.84907 6.55793 7.80931 6.78266 7.72395C7.00739 7.6386 7.21289 7.50936 7.38716 7.34378C7.55274 7.1695 7.68198 6.96401 7.76734 6.73928C7.85269 6.51455 7.89245 6.27507 7.88431 6.03481C7.87617 5.79456 7.82028 5.55833 7.7199 5.33989C7.61952 5.12145 7.47667 4.92519 7.29966 4.76253L5.37466 2.83752C5.65761 2.74804 5.95291 2.70374 6.24966 2.70627C7.17932 2.70886 8.0723 3.06919 8.74341 3.71252C9.41513 4.40407 9.79166 5.3297 9.79341 6.29378Z" fill="white" stroke="white" stroke-width="0.2"/>
</svg>
