<svg width="32px" height="12px" viewBox="0 0 32 12" version="1.1" xmlns="http://www.w3.org/2000/svg" xmlns:xlink="http://www.w3.org/1999/xlink">
    <!-- Generator: Sketch 47.1 (45422) - http://www.bohemiancoding.com/sketch -->
    <title>visa</title>
    <desc>Created with Sketch.</desc>
    <defs></defs>
    <g id="Symbols" stroke="none" stroke-width="1" fill="none" fill-rule="evenodd">
        <g id="footer" transform="translate(-508.000000, -336.000000)">
            <g id="visa" transform="translate(508.000000, 326.000000)">
                <g id="Group-5" transform="translate(0.000000, 10.666667)">
                    <path d="M12.9058355,0.238614719 L11.2805541,10.2270476 L13.8808658,10.2270476 L15.506355,0.238614719 L12.9058355,0.238614719 L12.9058355,0.238614719 Z M9.09270996,0.238614719 L6.61347186,7.10857143 L6.32020779,5.62922944 L6.32041558,5.62971429 L6.25579221,5.29814719 C5.95574026,4.65149784 5.26081385,3.42247619 3.94860606,2.37361039 C3.56065801,2.06358442 3.16959307,1.79899567 2.79154978,1.57298701 L5.04477922,10.2270476 L7.75411255,10.2270476 L11.8914632,0.238614719 L9.09270996,0.238614719 L9.09270996,0.238614719 Z M19.2413506,3.01160173 C19.2413506,1.88232035 21.7738528,2.02742857 22.8866494,2.64062338 L23.257697,0.495376623 C23.257697,0.495376623 22.1124848,0.0598441558 20.9187879,0.0598441558 C19.6282597,0.0598441558 16.5638095,0.624207792 16.5638095,3.36644156 C16.5638095,5.94722078 20.1605541,5.97929004 20.1605541,7.33423377 C20.1605541,8.68917749 16.9346494,8.4470303 15.8700606,7.59231169 L15.4831515,9.8345974 C15.4831515,9.8345974 16.6442251,10.398961 18.4187013,10.398961 C20.1929697,10.398961 22.8704416,9.47975758 22.8704416,6.97939394 C22.8704416,4.38247619 19.2413506,4.14060606 19.2413506,3.01160173 L19.2413506,3.01160173 Z M29.8526061,0.238614719 L27.7618701,0.238614719 C26.7964675,0.238614719 26.5613853,0.982995671 26.5613853,0.982995671 L22.6834286,10.2270476 L25.3938009,10.2270476 L25.936,8.74348052 L29.2418355,8.74348052 L29.5468052,10.2270476 L31.9344762,10.2270476 L29.8526061,0.238614719 L29.8526061,0.238614719 Z M26.685368,6.69374892 L28.0518095,2.95584416 L28.8205022,6.69374892 L26.685368,6.69374892 L26.685368,6.69374892 Z" id="Shape" fill="#1575CB"></path>
                    <path d="M5.48100433,1.17901299 C5.48100433,1.17901299 5.37336797,0.277541126 4.22427706,0.277541126 L0.0495238095,0.277541126 L0.000623376623,0.446961039 C0.000623376623,0.446961039 2.00734199,0.856034632 3.9325368,2.38864069 C5.772329,3.85343723 6.37250216,5.67937662 6.37250216,5.67937662 L5.48100433,1.17901299 L5.48100433,1.17901299 Z" id="Shape" fill="#F6AC1D"></path>
                </g>
                <rect id="Rectangle-3" opacity="0.5" x="0" y="0" width="32" height="32"></rect>
            </g>
        </g>
    </g>
</svg>