<svg width="16" height="16" viewBox="2 2 16 16" fill="none" xmlns="http://www.w3.org/2000/svg">
<rect x="2" y="2" width="16" height="16" rx="2" fill="#AFBAC1"/>
<path d="M14.6748 8.125H11.5498V9.375H14.6748V10.625H12.1748C11.8433 10.625 11.5253 10.7567 11.2909 10.9911C11.0565 11.2255 10.9248 11.5435 10.9248 11.875V13.125C10.9248 13.4565 11.0565 13.7745 11.2909 14.0089C11.5253 14.2433 11.8433 14.375 12.1748 14.375H15.9248V9.375C15.9248 9.04348 15.7931 8.72554 15.5587 8.49112C15.3243 8.2567 15.0063 8.125 14.6748 8.125ZM14.6748 13.125H12.1748V11.875H14.6748V13.125ZM8.4248 5.625H5.9248C5.59328 5.625 5.27534 5.7567 5.04092 5.99112C4.8065 6.22554 4.6748 6.54348 4.6748 6.875V14.375H5.9248V11.25H8.4248V14.375H9.6748V6.875C9.6748 6.54348 9.54311 6.22554 9.30869 5.99112C9.07427 5.7567 8.75633 5.625 8.4248 5.625ZM5.9248 10V6.875H8.4248V10H5.9248Z" fill="white" stroke="white" stroke-width="0.1"/>
</svg>
