<svg width="120" height="120" viewBox="0 0 120 120" fill="none" xmlns="http://www.w3.org/2000/svg">
    <path d="M120 60C120 93.1371 93.1371 120 60 120C26.8629 120 0 93.1371 0 60C0 26.8629 26.8629 0 60 0C93.1371 0 120 26.8629 120 60ZM15 60C15 84.8528 35.1472 105 60 105C84.8528 105 105 84.8528 105 60C105 35.1472 84.8528 15 60 15C35.1472 15 15 35.1472 15 60Z" fill="#F1F1F1"/>
    <path d="M120 60C120 93.1371 93.1371 120 60 120C26.8629 120 0 93.1371 0 60C0 26.8629 26.8629 0 60 0C93.1371 0 120 26.8629 120 60ZM15 60C15 84.8528 35.1472 105 60 105C84.8528 105 105 84.8528 105 60C105 35.1472 84.8528 15 60 15C35.1472 15 15 35.1472 15 60Z" fill="#F1F1F1"/>
    <path d="M60 0C73.8004 1.64568e-07 87.179 4.75732 97.8812 13.4703C108.583 22.1832 115.955 34.3191 118.753 47.8328C121.552 61.3465 119.606 75.4118 113.245 87.6585C106.883 99.9052 96.4943 109.584 83.8289 115.065C71.1635 120.546 56.9959 121.493 43.7136 117.747C30.4313 114.001 18.8463 105.791 10.911 94.5003C2.97569 83.2095 -0.824853 69.5283 0.149833 55.7624C1.12452 41.9964 6.81485 28.9872 16.2619 18.9272L27.1964 29.1954C20.1111 36.7404 15.8434 46.4973 15.1124 56.8218C14.3814 67.1462 17.2318 77.4071 23.1833 85.8752C29.1347 94.3433 37.8235 100.501 47.7852 103.31C57.7469 106.12 68.3726 105.41 77.8717 101.299C87.3707 97.1884 95.1624 89.9289 99.9336 80.7439C104.705 71.5588 106.164 61.0098 104.065 50.8746C101.966 40.7393 96.4375 31.6374 88.4109 25.1027C80.3842 18.568 70.3503 15 60 15V0Z" fill="#F6CC13"/>
</svg>
