<svg width="16" height="16" viewBox="0 0 16 16" fill="none" xmlns="http://www.w3.org/2000/svg">
<rect width="16" height="16" rx="2" fill="#AFBAC1"/>
<path d="M13.7965 3.95737C13.5526 3.71265 13.2628 3.51848 12.9438 3.38599C12.6247 3.2535 12.2826 3.1853 11.9371 3.1853C11.5916 3.1853 11.2495 3.2535 10.9305 3.38599C10.6114 3.51848 10.3216 3.71265 10.0777 3.95737L10.699 4.57862C10.8619 4.41574 11.0552 4.28654 11.268 4.19839C11.4809 4.11024 11.7089 4.06487 11.9393 4.06487C12.1696 4.06487 12.3977 4.11024 12.6105 4.19839C12.8234 4.28654 13.0167 4.41574 13.1796 4.57862C13.3425 4.7415 13.4717 4.93487 13.5598 5.14768C13.648 5.3605 13.6934 5.58859 13.6934 5.81894C13.6934 6.04928 13.648 6.27737 13.5598 6.49019C13.4717 6.703 13.3425 6.89637 13.1796 7.05925L9.67961 10.5592C9.35124 10.8882 8.90564 11.0732 8.44084 11.0736C7.97605 11.0741 7.53012 10.8898 7.20117 10.5614C6.87222 10.2331 6.68719 9.78747 6.68678 9.32267C6.68637 8.85787 6.87061 8.41195 7.19898 8.083L7.81586 7.46175L7.19898 6.8405L6.57773 7.46175C6.33301 7.70562 6.13884 7.9954 6.00635 8.31447C5.87386 8.63355 5.80566 8.97564 5.80566 9.32112C5.80566 9.66661 5.87386 10.0087 6.00635 10.3278C6.13884 10.6468 6.33301 10.9366 6.57773 11.1805C7.07276 11.6692 7.74152 11.9414 8.43711 11.9374C8.78392 11.9388 9.12758 11.8715 9.44823 11.7393C9.76887 11.6072 10.0602 11.4128 10.3052 11.1674L13.8052 7.66737C14.2957 7.17403 14.5702 6.50619 14.5686 5.81056C14.5669 5.11493 14.2892 4.4484 13.7965 3.95737Z" fill="white" stroke="white" stroke-width="0.3"/>
<path d="M2.83247 11.8589C2.66911 11.6963 2.53947 11.503 2.45102 11.2902C2.36256 11.0773 2.31703 10.8491 2.31703 10.6186C2.31703 10.3881 2.36256 10.1599 2.45102 9.94703C2.53947 9.73418 2.66911 9.5409 2.83247 9.37829L6.33247 5.87829C6.49508 5.71493 6.68836 5.58529 6.90121 5.49684C7.11406 5.40838 7.34228 5.36285 7.57278 5.36285C7.80328 5.36285 8.03151 5.40838 8.24436 5.49684C8.45721 5.58529 8.65049 5.71493 8.8131 5.87829C8.97543 6.04218 9.10322 6.23698 9.18889 6.45116C9.27456 6.66534 9.31637 6.89453 9.31185 7.12517C9.31318 7.35652 9.26863 7.58584 9.18077 7.79986C9.0929 8.01388 8.96348 8.20836 8.79997 8.37204L7.87247 9.31267L8.49372 9.93392L9.42122 9.00642C9.91494 8.5127 10.1923 7.84307 10.1923 7.14485C10.1923 6.44663 9.91494 5.77701 9.42122 5.28329C8.9275 4.78957 8.25788 4.51221 7.55966 4.51221C6.86144 4.51221 6.19181 4.78957 5.6981 5.28329L2.1981 8.78329C1.95272 9.02724 1.75799 9.3173 1.62511 9.63677C1.49223 9.95625 1.42383 10.2988 1.42383 10.6449C1.42383 10.9909 1.49223 11.3335 1.62511 11.6529C1.75799 11.9724 1.95272 12.2625 2.1981 12.5064C2.69633 12.9914 3.36661 13.2589 4.06185 13.2502C4.7632 13.2508 5.43635 12.974 5.93435 12.4802L5.3131 11.8589C5.15049 12.0223 4.95721 12.1519 4.74436 12.2404C4.53151 12.3288 4.30328 12.3744 4.07278 12.3744C3.84228 12.3744 3.61406 12.3288 3.40121 12.2404C3.18836 12.1519 2.99508 12.0223 2.83247 11.8589Z" fill="white" stroke="white" stroke-width="0.3"/>
</svg>
