<svg width="28px" height="17px" viewBox="0 0 28 17" version="1.1" xmlns="http://www.w3.org/2000/svg" xmlns:xlink="http://www.w3.org/1999/xlink">
    <!-- Generator: Sketch 47.1 (45422) - http://www.bohemiancoding.com/sketch -->
    <title>master</title>
    <desc>Created with Sketch.</desc>
    <defs></defs>
    <g id="Symbols" stroke="none" stroke-width="1" fill="none" fill-rule="evenodd">
        <g id="footer" transform="translate(-552.000000, -334.000000)">
            <g id="master" transform="translate(550.000000, 326.000000)">
                <g id="Group-6" transform="translate(2.666667, 8.000000)">
                    <path d="M26.6666667,8.0952381 C26.6666667,12.5675899 23.0418491,16.1904762 18.5714286,16.1904762 C14.1010081,16.1904762 10.4761905,12.5675899 10.4761905,8.0952381 C10.4761905,3.62288626 14.0953707,0 18.5657912,0 C23.0362117,0 26.6666667,3.62288626 26.6666667,8.0952381 L26.6666667,8.0952381 L26.6666667,8.0952381 Z" id="path2997" fill="#F79F1A"></path>
                    <path d="M16.1904762,8.0952381 C16.1904762,12.5675899 12.5656586,16.1904762 8.0952381,16.1904762 C3.62481762,16.1904762 0,12.5675899 0,8.0952381 C0,3.62288626 3.62481762,0 8.0952381,0 C12.5656586,0 16.1904762,3.62288626 16.1904762,8.0952381 L16.1904762,8.0952381 L16.1904762,8.0952381 Z" id="path2995" fill="#EA001B"></path>
                    <path d="M13.8095238,1.9047619 C11.7792208,3.34173917 10.4761905,5.58189383 10.4761905,8.0952381 C10.4761905,10.6085824 11.7792208,12.848737 13.8095238,14.2857143 C15.8398268,12.848737 17.1428571,10.6085824 17.1428571,8.0952381 C17.1428571,5.58189383 15.8398268,3.34720296 13.8095238,1.9047619 L13.8095238,1.9047619 Z" id="path2999" fill="#FF5F01"></path>
                </g>
                <rect id="Rectangle-3" opacity="0.5" x="0" y="0" width="32" height="32"></rect>
            </g>
        </g>
    </g>
</svg>