<svg width="227" height="227" viewBox="0 0 227 227" fill="none" xmlns="http://www.w3.org/2000/svg">
<g opacity="0.7">
<path d="M49.9277 6.99451H177.074V121.809L183.399 117.43V3.84736C183.399 3.01357 183.067 2.21337 182.474 1.62296C181.881 1.03245 181.077 0.700195 180.237 0.700195H46.7653C45.9257 0.700195 45.121 1.03245 44.5281 1.62296C43.9353 2.21338 43.6028 3.01358 43.6028 3.84736V117.43L49.9277 121.809V6.99451Z" fill="#AFBAC1"/>
<path fill-rule="evenodd" clip-rule="evenodd" d="M1.74495 106.83L1.74271 106.832C1.41209 107.129 1.14787 107.494 0.96857 107.9C0.78894 108.306 0.697869 108.746 0.701263 109.19L0.701357 109.202L0.70131 222.67C0.711762 223.635 1.10316 224.557 1.79177 225.236C2.48203 225.918 3.41508 226.3 4.38812 226.3H222.614C223.587 226.3 224.52 225.918 225.211 225.236C225.899 224.557 226.291 223.635 226.301 222.67V109.19C226.304 108.746 226.213 108.306 226.034 107.9C225.854 107.494 225.591 107.13 225.26 106.832L225.258 106.83L196.142 81.0035V89.4442L218.053 108.882L113.501 181.326L8.94921 108.882L30.8604 89.4442V81.0035L1.74495 106.83ZM11.132 220.006L69.0395 158.186L111.359 187.458L111.362 187.461C111.992 187.893 112.739 188.125 113.504 188.127L113.524 188.127L113.531 188.127C114.278 188.141 115.009 187.913 115.615 187.479L115.616 187.478L115.631 187.467L157.963 158.186L215.87 220.006H11.132ZM219.976 215.347L163.166 154.57L219.976 115.21V215.347ZM7.02623 115.21L63.8368 154.57L7.02623 215.347V115.21Z" fill="#AFBAC1"/>
</g>
<path d="M162.647 31.1152H64.3516V23.4209H162.647V31.1152Z" fill="#E03632"/>
<path d="M162.647 52.481H64.3516V44.7867H162.647V52.481Z" fill="#E03632"/>
<path d="M162.647 73.8468H64.3516V66.1525H162.647V73.8468Z" fill="#E03632"/>
</svg>
