<svg width="32" height="32" viewBox="0 0 32 32" fill="none" xmlns="http://www.w3.org/2000/svg">
<path d="M16 17V25H6V17H16ZM16 15H6C5.46957 15 4.96086 15.2107 4.58579 15.5858C4.21071 15.9609 4 16.4696 4 17V25C4 25.5304 4.21071 26.0391 4.58579 26.4142C4.96086 26.7893 5.46957 27 6 27H16C16.5304 27 17.0391 26.7893 17.4142 26.4142C17.7893 26.0391 18 25.5304 18 25V17C18 16.4696 17.7893 15.9609 17.4142 15.5858C17.0391 15.2107 16.5304 15 16 15V15ZM27 6V11H17V6H27ZM27 4H17C16.4696 4 15.9609 4.21071 15.5858 4.58579C15.2107 4.96086 15 5.46957 15 6V11C15 11.5304 15.2107 12.0391 15.5858 12.4142C15.9609 12.7893 16.4696 13 17 13H27C27.5304 13 28.0391 12.7893 28.4142 12.4142C28.7893 12.0391 29 11.5304 29 11V6C29 5.46957 28.7893 4.96086 28.4142 4.58579C28.0391 4.21071 27.5304 4 27 4V4ZM27 17V22H22V17H27ZM27 15H22C21.4696 15 20.9609 15.2107 20.5858 15.5858C20.2107 15.9609 20 16.4696 20 17V22C20 22.5304 20.2107 23.0391 20.5858 23.4142C20.9609 23.7893 21.4696 24 22 24H27C27.5304 24 28.0391 23.7893 28.4142 23.4142C28.7893 23.0391 29 22.5304 29 22V17C29 16.4696 28.7893 15.9609 28.4142 15.5858C28.0391 15.2107 27.5304 15 27 15ZM11 6V11H6V6H11ZM11 4H6C5.46957 4 4.96086 4.21071 4.58579 4.58579C4.21071 4.96086 4 5.46957 4 6V11C4 11.5304 4.21071 12.0391 4.58579 12.4142C4.96086 12.7893 5.46957 13 6 13H11C11.5304 13 12.0391 12.7893 12.4142 12.4142C12.7893 12.0391 13 11.5304 13 11V6C13 5.46957 12.7893 4.96086 12.4142 4.58579C12.0391 4.21071 11.5304 4 11 4V4Z" fill="white"/>
</svg>
