<?xml version="1.0" encoding="UTF-8"?>
<!DOCTYPE svg PUBLIC "-//W3C//DTD SVG 1.1//EN" "http://www.w3.org/Graphics/SVG/1.1/DTD/svg11.dtd">
<!-- Creator: CorelDRAW 2018 (64-Bit) -->
<svg xmlns="http://www.w3.org/2000/svg" xml:space="preserve" width="486px" height="75px" version="1.1" style="shape-rendering:geometricPrecision; text-rendering:geometricPrecision; image-rendering:optimizeQuality; fill-rule:evenodd; clip-rule:evenodd"
viewBox="0 0 486 75"
 xmlns:xlink="http://www.w3.org/1999/xlink">
 <defs>
  <style type="text/css">
   <![CDATA[
    .fil0 {fill:white}
   ]]>
  </style>
 </defs>
 <g id="Слой_x0020_1">
  <metadata id="CorelCorpID_0Corel-Layer"/>
  <path class="fil0" d="M38.5 41.75l0 25 -31.25 0 0 -25 31.25 0zm0 -6.25l-31.25 0c-1.66,0 -3.25,0.66 -4.42,1.83 -1.17,1.17 -1.83,2.76 -1.83,4.42l0 25c0,1.66 0.66,3.25 1.83,4.42 1.17,1.17 2.76,1.83 4.42,1.83l31.25 0c1.66,0 3.25,-0.66 4.42,-1.83 1.17,-1.17 1.83,-2.76 1.83,-4.42l0 -25c0,-1.66 -0.66,-3.25 -1.83,-4.42 -1.17,-1.17 -2.76,-1.83 -4.42,-1.83l0 0zm34.37 -28.13l0 15.63 -31.25 0 0 -15.63 31.25 0zm0 -6.25l-31.25 0c-1.65,0 -3.24,0.66 -4.42,1.84 -1.17,1.17 -1.83,2.76 -1.83,4.41l0 15.63c0,1.66 0.66,3.25 1.83,4.42 1.18,1.17 2.77,1.83 4.42,1.83l31.25 0c1.66,0 3.25,-0.66 4.42,-1.83 1.18,-1.17 1.83,-2.76 1.83,-4.42l0 -15.63c0,-1.65 -0.65,-3.24 -1.83,-4.41 -1.17,-1.18 -2.76,-1.84 -4.42,-1.84l0 0zm0 40.63l0 15.62 -15.62 0 0 -15.62 15.62 0zm0 -6.25l-15.62 0c-1.66,0 -3.25,0.66 -4.42,1.83 -1.17,1.17 -1.83,2.76 -1.83,4.42l0 15.62c0,1.66 0.66,3.25 1.83,4.42 1.17,1.18 2.76,1.84 4.42,1.84l15.62 0c1.66,0 3.25,-0.66 4.42,-1.84 1.18,-1.17 1.83,-2.76 1.83,-4.42l0 -15.62c0,-1.66 -0.65,-3.25 -1.83,-4.42 -1.17,-1.17 -2.76,-1.83 -4.42,-1.83zm-50 -28.13l0 15.63 -15.62 0 0 -15.63 15.62 0zm0 -6.25l-15.62 0c-1.66,0 -3.25,0.66 -4.42,1.84 -1.17,1.17 -1.83,2.76 -1.83,4.41l0 15.63c0,1.66 0.66,3.25 1.83,4.42 1.17,1.17 2.76,1.83 4.42,1.83l15.62 0c1.66,0 3.25,-0.66 4.42,-1.83 1.17,-1.17 1.83,-2.76 1.83,-4.42l0 -15.63c0,-1.65 -0.66,-3.24 -1.83,-4.41 -1.17,-1.18 -2.76,-1.84 -4.42,-1.84l0 0z"/>
  <path class="fil0" d="M113.81 38.5c0,-10 3.63,-16.44 10.38,-16.44 5.43,0 8.68,2.25 10.87,3.81l1 -7.81c-4.5,-2.19 -9.06,-2.81 -12.62,-2.81 -10.94,0 -19.32,7.5 -19.32,23.12 0,13.88 5.63,23.01 18.82,23.01 6.18,0 9.5,-1.07 13.31,-2.82l-1.13 -7.56c-3.56,2.37 -7.37,3.56 -10.56,3.56 -7.19,0 -10.75,-4.94 -10.75,-16.06zm54.61 22l0 -21.25c0,-6.94 -2.5,-10.75 -11.69,-10.75 -3.62,0 -9.37,0.94 -14.37,3.37l1.56 6.13c3,-2 6.63,-3.5 10,-3.5 3.75,0 5.31,1.12 5.31,5.31l0 1.69 -2.56 0c-12.44,0 -16.06,5.5 -16.06,11.25 0,4.69 3.44,8.5 8.56,8.5 4.38,0 6.81,-0.88 10.25,-3.75l0.38 3 8.62 0zm-9.12 -14.12l0 5.68c-1.13,1.25 -3.13,3.13 -6,3.13 -2.5,0 -3.69,-1.31 -3.69,-3.5 0,-2.44 1.81,-5.31 8.12,-5.31l1.57 0zm36.23 -30.19c0,3.81 -2.56,4.37 -4.37,4.37 -1.81,0 -4.31,-0.56 -4.31,-4.37l-6.25 1.06c0.5,5.81 4.5,9 10.56,9 6.12,0 10.12,-3.25 10.56,-9.06l-6.19 -1zm-8.81 13.37l-2.94 0c-3.25,0 -8.81,0.31 -8.81,4.38 0,1.31 0.88,2.5 2.56,3.62l0 22.94 8.63 0 10.12 -17.56 0.32 0 0 17.56 9.18 0 0 -30.94 -8.62 0 -10.13 17.63 -0.31 0 0 -17.63zm24.35 6.56l8.75 0 0 24.38 9.19 0 0 -24.38 8.75 0 0 -6.56 -26.69 0 0 6.56zm39.91 14.38l14.44 0 3.44 10 9.31 0 -15.63 -44.31 -8.43 0 -15.63 44.31 9.25 0 3.25 -10zm12.38 -6.5l-10.32 0 4.88 -16.19 0.31 0 5.13 16.19zm29.98 -14.44l-1.75 0c-3.25,0 -10,0.31 -10,4.38 0,1.31 0.88,2.5 2.57,3.62l0 12.44c0,7.94 3.5,11.06 9.43,11.06 4.5,0 7.63,-2.44 8.88,-3.62l0 2.87c0,5.63 -3.38,7.69 -8.19,7.69 -2.69,0 -5.06,-0.75 -7.56,-1.75l-1 6.25c2.81,0.88 6.31,1.44 9.56,1.44 8.19,0 16.38,-3.25 16.38,-14.5l0 -29.88 -9.19 0 0 22.56c-0.88,0.94 -2.31,2.13 -4.94,2.13 -2.62,0 -4.19,-1.25 -4.19,-5.69l0 -19zm37.74 0c-3.26,0 -8.82,0.31 -8.82,4.38 0,1.31 0.88,2.5 2.56,3.62 -0.43,9 -1.87,13.63 -3.93,16.38l-3.19 0 0 14.87 7.75 0 0 -8.31 17.13 0 0 8.31 7.74 0 0 -14.87 -3.37 0 0 -24.38 -15.87 0zm6.87 24.69l-8.87 0c2.43,-4.19 3.12,-12.81 3.12,-18.38l5.75 0 0 18.38zm28.83 -24.69l-2.94 0c-3.25,0 -8.81,0.31 -8.81,4.38 0,1.31 0.87,2.5 2.56,3.62l0 22.94 8.62 0 10.13 -17.56 0.31 0 0 17.56 9.19 0 0 -30.94 -8.63 0 -10.12 17.63 -0.31 0 0 -17.63zm24.34 6.56l8.75 0 0 24.38 9.19 0 0 -24.38 8.75 0 0 -6.56 -26.69 0 0 6.56zm43.36 25.13c8.88,0 14.81,-5.38 14.81,-16.31 0,-11.25 -6.18,-16.44 -14.81,-16.44 -8.62,0 -14.81,5.19 -14.81,16.44 0,10.93 5.94,16.31 14.81,16.31zm0 -6c-3.5,0 -5.62,-3.19 -5.62,-10.31 0,-7.13 2.18,-10.44 5.62,-10.44 3.44,0 5.63,3.31 5.63,10.44 0,7.12 -2.13,10.31 -5.63,10.31zm22.41 17.75l9.18 0 0 -13.94c1.69,1 3.81,1.88 7.19,1.88 7.5,0 11.88,-5.88 11.88,-16.69 0,-10.88 -5.07,-15.75 -13.57,-15.75 -3.5,0 -8,0.56 -11.87,2.37 -2.57,1.19 -5.38,3.13 -5.38,5.38 0,1.25 0.82,2.62 2.57,3.87l0 32.88zm9.12 -37.19c1.38,-0.94 3.12,-1.31 4.25,-1.31 3.81,0 5.69,2.94 5.69,9.63 0,8.12 -1.75,10.74 -5,10.74 -1.63,0 -3.38,-0.5 -4.94,-1.81l0 -17.25z"/>
 </g>
</svg>
