<?xml version="1.0" encoding="UTF-8" standalone="no"?>
<!-- Created with Inkscape (http://www.inkscape.org/) -->

<svg
   xmlns:dc="http://purl.org/dc/elements/1.1/"
   xmlns:cc="http://creativecommons.org/ns#"
   xmlns:rdf="http://www.w3.org/1999/02/22-rdf-syntax-ns#"
   xmlns:svg="http://www.w3.org/2000/svg"
   xmlns="http://www.w3.org/2000/svg"
   xmlns:sodipodi="http://sodipodi.sourceforge.net/DTD/sodipodi-0.dtd"
   xmlns:inkscape="http://www.inkscape.org/namespaces/inkscape"
   width="500"
   height="150"
   viewBox="0 0 132.29166 39.687501"
   version="1.1"
   id="svg8"
   inkscape:version="0.92.3 (2405546, 2018-03-11)"
   sodipodi:docname="Сайтрепорт - Лого белый для сайта.svg">
  <defs
     id="defs2" />
  <sodipodi:namedview
     id="base"
     pagecolor="#ffffff"
     bordercolor="#666666"
     borderopacity="1.0"
     inkscape:pageopacity="0.0"
     inkscape:pageshadow="2"
     inkscape:zoom="1.4"
     inkscape:cx="340.9014"
     inkscape:cy="60.60894"
     inkscape:document-units="mm"
     inkscape:current-layer="Слой_x0020_1"
     showgrid="false"
     inkscape:window-width="1920"
     inkscape:window-height="1027"
     inkscape:window-x="-8"
     inkscape:window-y="-8"
     inkscape:window-maximized="1"
     units="px"
     inkscape:pagecheckerboard="true" />
  <metadata
     id="metadata5">
    <rdf:RDF>
      <cc:Work
         rdf:about="">
        <dc:format>image/svg+xml</dc:format>
        <dc:type
           rdf:resource="http://purl.org/dc/dcmitype/StillImage" />
        <dc:title></dc:title>
      </cc:Work>
    </rdf:RDF>
  </metadata>
  <g
     inkscape:label="Layer 1"
     inkscape:groupmode="layer"
     id="layer1"
     transform="translate(0,-257.31248)">
    <g
       style="clip-rule:evenodd;fill-rule:evenodd;image-rendering:optimizeQuality;shape-rendering:geometricPrecision;text-rendering:geometricPrecision"
       id="g842"
       transform="matrix(0.26458333,0,0,0.26458333,61.988093,129.19748)">
      <g
         id="Слой_x0020_1">
  <metadata
   id="CorelCorpID_0Corel-Layer" />

  <path
   id="path828"
   d="m -117.875,512.82945 c -12.375,-12.38016 -28.875,-19.25802 -45.37499,-19.25802 h -4.125 c -16.5,0 -33.00001,6.87786 -45.37501,19.25802 -11,11.00458 -17.87499,24.76032 -19.25,38.51603 2.75,-6.87786 6.875,-13.75571 12.375,-19.25801 5.5,-5.50228 12.37501,-9.62901 19.25,-12.38016 20.62501,-8.25344 46.75,-4.12672 63.25,12.38016 17.875,17.88244 22,42.64275 12.37501,64.65192 -2.75,6.87786 -6.875,12.38016 -12.37501,17.88244 -5.5,5.5023 -12.375,9.62901 -19.25,12.38016 13.75,-1.37557 27.5,-8.25344 38.5,-19.25802 26.124999,-26.13588 26.124999,-68.77865 0,-94.91452 z m -96.25,96.2901 c 19.25001,19.25801 52.25,19.25801 71.5,0 6.87501,-6.87788 12.375,-16.50688 13.75,-26.1359 -2.74999,4.12673 -5.5,9.62902 -9.625,13.75574 -16.5,16.50687 -45.37499,16.50687 -61.875,0 -17.87499,-17.88245 -17.87499,-45.39391 0,-63.27635 4.125,-4.12672 8.25,-6.87785 13.75,-9.62901 -9.625,1.37558 -19.25,6.87787 -27.5,13.75574 -19.25,20.63359 -19.25,52.27176 0,71.52978 z m 68.75,-68.77865 -1.375,1.37558 -38.5,17.88244 11,4.12672 -9.62499,9.62901 2.74999,2.75115 2.75,2.75114 9.625,-9.629 4.125,11.00457 19.25,-38.51603 z m 87.999999,28.88704 c 2.75,0 6.875001,-1.37558 9.624998,-4.12672 l 1.375,8.25343 c -2.749998,1.37557 -6.874997,2.75115 -13.749998,2.75115 -12.374999,0 -19.25,-9.62901 -19.25,-23.38474 0,-16.50687 9.625001,-23.38474 20.625001,-23.38474 2.75,0 8.25,0 12.374997,2.75115 l -1.375,8.25343 C -49.125001,537.58977 -53.25,536.21419 -58.75,536.21419 c -6.875001,0 -9.625001,5.50229 -9.625001,16.50687 0,11.00458 2.75,16.50688 11,16.50688 z m 32.999998,-8.25345 c -5.5,0 -8.25,2.75115 -8.25,5.5023 0,1.37557 1.375,2.75115 4.125,2.75115 2.75,0 5.5,-1.37558 5.5,-2.75115 v -5.5023 z m 2.75,13.75573 v -2.75115 c -4.125,2.75115 -6.875,4.12673 -11,4.12673 -5.5,0 -8.25,-4.12673 -8.25,-8.25344 0,-6.87787 2.75,-12.38016 15.125,-12.38016 h 2.75 v -1.37556 c 0,-4.12673 -1.375,-5.5023 -5.5,-5.5023 -2.75,0 -6.875,1.37557 -9.625,4.12672 l -1.375,-6.87786 c 5.5,-2.75115 11,-4.12672 15.125,-4.12672 8.25,0 11,4.12672 11,11.00458 v 22.00916 z m 41.25,-44.01832 c -1.375,5.50229 -5.5,9.629 -11.0000003,9.629 -6.875,0 -11,-4.12671 -11,-9.629 l 6.875,-1.37558 c 0,4.12672 1.375,5.5023 4.125,5.5023 1.375,0 4.1250003,-1.37558 4.1250003,-5.5023 z M 4.4999967,560.97449 v 0 l 9.6250003,-17.88244 h 9.625 v 31.63817 h -9.625 v -17.88244 0 L 3.1249968,574.73022 h -8.2500001 v -23.38474 c -2.75,-1.37557 -2.75,-2.75114 -2.75,-2.75114 0,-4.12672 5.5,-5.50229 8.24999999,-5.50229 H 4.4999967 Z M 29.249997,543.09205 h 26.125 v 6.87786 h -8.25 v 24.76031 h -9.625 v -24.76031 h -8.25 z m 46.749999,9.62901 c 5.5,0 8.25,-2.75115 8.25,-8.25344 0,-4.12672 -1.375,-8.25343 -8.25,-8.25343 h -4.125 v 16.50687 z m -4.125,22.00916 h -9.624999 v -37.14045 c -1.374999,0 -2.75,-1.37558 -2.75,-4.12673 0,-2.75114 4.125001,-4.12672 8.249999,-4.12672 h 6.875 c 6.875,0 19.249999,1.37558 19.249999,15.1313 0,8.25344 -5.499999,15.1313 -17.874999,15.1313 h -4.125 z M 104.875,555.4722 h 11 c 0,-5.50229 -2.75,-6.87786 -5.5,-6.87786 -2.75,0 -4.125,2.75114 -5.5,6.87786 z m 17.875,9.62902 1.375,6.87785 c -4.125,2.75115 -6.875,4.12673 -12.375,4.12673 -11,0 -16.500004,-6.87786 -16.500004,-16.50688 0,-9.62901 5.500004,-17.88244 15.125004,-17.88244 9.625,0 13.75,6.87786 13.75,16.50688 v 1.37556 h -19.25 c 0,6.87787 2.75,9.62902 8.25,9.62902 2.75,0 6.875,-1.37558 9.625,-4.12672 z m 37.125,-22.00917 v 31.63817 H 150.25 V 549.96991 H 142 v 24.76031 h -9.625 v -23.38474 c -2.75,-1.37557 -2.75,-2.75114 -2.75,-2.75114 0,-4.12672 5.5,-5.50229 8.25,-5.50229 z m 27.5,16.50687 c 0,-8.25344 -2.75,-11.00458 -5.49999,-11.00458 -4.12501,0 -6.87501,2.75114 -6.87501,11.00458 0,6.87787 2.75,9.62902 6.87501,9.62902 2.74999,0 5.49999,-2.75115 5.49999,-9.62902 z m -20.625,0 c 0,-12.38015 5.5,-17.88244 15.12501,-17.88244 8.24999,0 15.12499,5.50229 15.12499,17.88244 0,11.00458 -6.875,16.50688 -15.12499,16.50688 -9.62501,0 -15.12501,-5.5023 -15.12501,-16.50688 z m 45.375,8.25344 c 1.375,1.37558 4.125,1.37558 5.5,1.37558 2.75,0 5.5,-2.75115 5.5,-11.00458 0,-6.87788 -2.75,-9.62902 -6.875,-9.62902 -1.375,0 -2.75,0 -4.125,1.37557 z M 202.5,554.09664 c -1.375,-1.37558 -2.75,-2.75116 -2.75,-4.12673 0,-1.37557 4.125,-4.12671 5.5,-5.50229 4.125,-1.37557 9.625,-2.75114 12.375,-2.75114 9.62501,0 13.75,5.50229 13.75,16.50688 0,11.00458 -4.12499,17.88244 -11,17.88244 -4.125,0 -6.875,-1.37558 -8.25,-2.75115 v 15.1313 H 202.5 Z m 33,-11.00459 H 263 v 6.87786 h -9.62499 v 24.76031 H 245.125 V 549.96991 H 235.5 Z m -276.375003,53.64734 c -2.75,0 -4.125,1.37558 -4.125,2.75114 0,1.37557 1.375,1.37557 2.75,1.37557 1.375,0 2.75,0 2.75,-1.37557 v -2.75114 z m 2.75,6.87786 -1.375,-2.75115 c -1.375,2.75115 -2.75,2.75115 -4.125,2.75115 -2.75,0 -4.125,-1.37558 -4.125,-4.12672 0,-1.37556 1.375,-4.12672 6.875,-4.12672 h 1.375 v -1.37557 c 0,-2.75115 0,-2.75115 -2.75,-2.75115 -1.375,0 -2.75,0 -4.125,1.37558 v -1.37558 c 1.375,-1.37556 4.125,-1.37556 5.5,-1.37556 4.125,0 4.125,1.37556 4.125,4.12671 v 9.62901 z M 114.5,596.73939 c -2.75,0 -4.125,1.37558 -4.125,2.75114 0,1.37557 1.375,1.37557 1.375,1.37557 2.75,0 4.125,0 4.125,-1.37557 v -2.75114 z m 1.375,6.87786 v -2.75115 c -1.375,2.75115 -4.125,2.75115 -4.125,2.75115 -2.75,0 -4.125,-1.37558 -4.125,-4.12672 0,-1.37556 1.375,-4.12672 6.875,-4.12672 h 1.375 v -1.37557 c 0,-2.75115 -1.375,-2.75115 -2.75,-2.75115 -1.375,0 -2.75,0 -4.125,1.37558 v -1.37558 c 1.375,-1.37556 4.125,-1.37556 5.5,-1.37556 2.75,0 4.125,1.37556 4.125,4.12671 v 9.62901 z m 17.875,-1.37558 c 0,5.5023 -2.75,6.87788 -6.875,6.87788 0,0 -2.75,0 -2.75,-1.37558 v -1.37558 c 1.375,0 1.375,0 2.75,0 2.75,0 4.125,0 4.125,-4.12672 v -1.37557 c -1.375,1.37557 -2.75,2.75115 -4.125,2.75115 -2.75,0 -4.125,-1.37558 -4.125,-4.12672 v -6.87786 c 0,0 -1.375,-1.37558 -1.375,-1.37558 0,-1.37556 2.75,-1.37556 4.125,-1.37556 v 0 9.629 c 0,1.37557 1.375,1.37557 2.75,1.37557 1.375,0 2.75,0 2.75,-1.37557 v -9.629 h 2.75 z m 12.375,-11.00458 h -2.75 c 0,4.12672 -1.375,8.25344 -2.75,9.62901 h 5.5 z M 142,589.86153 h 6.875 v 11.00457 h 1.375 v 5.50229 h -2.75 v -2.75114 h -8.25 v 2.75114 h -2.75 v -5.50229 h 1.375 c 1.375,-1.37557 2.75,-4.12671 2.75,-8.25343 -1.375,0 -1.375,-1.37558 -1.375,-1.37558 0,-1.37556 1.375,-1.37556 2.75,-1.37556 z m 15.125,9.629 v 0 l 5.50001,-9.629 h 2.74999 v 13.75572 h -2.74999 v -9.62901 0 l -5.50001,9.62901 h -2.75 v -11.00458 c -1.375,0 -1.375,-1.37558 -1.375,-1.37558 0,-1.37556 1.375,-1.37556 2.75,-1.37556 h 1.375 z M -69.75,591.23709 h -4.125001 c 0,4.12672 0,8.25344 -1.374999,9.62901 h 5.5 z m -5.5,-1.37556 H -67 v 11.00457 h 1.374999 v 5.50229 h -2.75 v -2.75114 h -8.25 v 2.75114 h -2.75 v -5.50229 h 1.375 c 1.375,-1.37557 2.750001,-4.12671 2.750001,-8.25343 -1.375001,0 -1.375001,-1.37558 -1.375001,-1.37558 0,-1.37556 1.375001,-1.37556 1.375001,-1.37556 z m 16.5,9.629 v 0 l 5.5,-9.629 h 2.75 v 13.75572 h -2.75 v -9.62901 0 l -5.5,9.62901 h -2.75 v -11.00458 c -1.375001,0 -1.375001,-1.37558 -1.375001,-1.37558 0,-1.37556 1.375001,-1.37556 2.75,-1.37556 H -58.75 Z m 226.875,-9.629 h 11 v 1.37556 H 175 v 12.38016 h -2.75 v -12.38016 h -4.125 z m -78.375004,9.629 v 0 l 5.5,-9.629 h 2.750001 v 13.75572 h -2.750001 v -9.62901 0 l -5.5,9.62901 h -2.75 v -11.00458 c -1.375,0 -1.375,-1.37558 -1.375,-1.37558 0,-1.37556 1.375,-1.37556 2.75,-1.37556 h 1.375 z m -37.124999,-4.12672 h 1.375 c 1.375,0 1.375,-1.37557 2.75,-2.75114 0,-1.37558 1.375,-2.75114 4.125001,-2.75114 0,0 0,0 1.374999,0 v 1.37556 c -1.374999,0 -1.374999,0 -1.374999,0 -1.375001,0 -1.375001,1.37558 -2.750001,2.75115 0,0 0,1.37557 -1.375,1.37557 v 1.37558 c 1.375,0 1.375,1.37558 2.75,2.75114 0,1.37557 0,1.37557 1.375001,1.37557 0,0 1.374999,0 1.374999,0 v 1.37557 c -1.374999,1.37558 -1.374999,1.37558 -2.75,1.37558 -1.375,0 -2.75,-1.37558 -2.75,-2.75115 -1.375,-2.75113 -1.375,-4.12671 -2.75,-4.12671 h -1.375 v 6.87786 h -2.75 v -11.00458 c 0,0 -1.375,-1.37558 -1.375,-1.37558 0,-1.37556 2.75,-1.37556 4.125,-1.37556 v 0 z m -49.5000002,1.37558 c 0,-4.12672 -1.3750001,-5.5023 -2.75000011,-5.5023 -1.37500009,0 -2.74999999,1.37558 -2.74999999,5.5023 0,2.75114 1.3749999,4.12671 2.74999999,4.12671 1.37500001,0 2.75000011,-1.37557 2.75000011,-4.12671 z m -8.2500001,0 c 0,-5.5023 1.375,-6.87786 5.49999999,-6.87786 4.12500001,0 5.50000001,1.37556 5.50000001,6.87786 0,4.12671 -1.375,6.87786 -5.50000001,6.87786 -4.12499999,0 -5.49999999,-2.75115 -5.49999999,-6.87786 z m 23.3750003,4.12671 1.375,1.37557 c -1.375,1.37558 -2.75,1.37558 -5.5,1.37558 -2.75,0 -5.5000003,-2.75115 -5.5000003,-6.87786 0,-5.5023 2.7500003,-6.87786 5.5000003,-6.87786 2.75,0 4.125,0 4.125,0 v 2.75114 c -1.375,-1.37558 -1.375,-1.37558 -2.75,-1.37558 -2.75,0 -4.125,1.37558 -4.125,5.5023 0,4.12671 1.375,4.12671 4.125,4.12671 1.375,0 1.375,0 2.75,0 z m 53.624999,-4.12671 c -4.125,0 -5.499998,1.37558 -5.499998,2.75114 0,1.37557 1.374998,1.37557 2.749998,1.37557 1.375,0 2.75,0 4.125,-1.37557 v -2.75114 z m 1.375,6.87786 v -2.75115 c -2.75,2.75115 -4.125,2.75115 -5.5,2.75115 -2.749999,0 -4.124998,-1.37558 -4.124998,-4.12672 0,-1.37556 1.374999,-4.12672 6.874998,-4.12672 h 2.75 v -1.37557 c 0,-2.75115 -1.375,-2.75115 -2.75,-2.75115 -2.75,0 -4.124998,0 -5.499999,1.37558 v -1.37558 c 2.749999,-1.37556 4.124999,-1.37556 5.499999,-1.37556 4.125,0 5.5,1.37556 5.5,4.12671 v 9.62901 z M 20.999997,589.86153 h 11 v 1.37556 h -4.125 v 12.38016 h -2.75 v -12.38016 h -4.125 z m 16.5,9.629 v 0 l 6.875,-9.629 h 2.75 v 13.75572 h -2.75 v -9.62901 0 l -6.875,9.62901 h -2.75 v -11.00458 c 0,0 -1.375,-1.37558 -1.375,-1.37558 0,-1.37556 2.75,-1.37556 4.125,-1.37556 v 0 z m -55,-4.12672 h 6.875 v -5.50228 h 2.7499997 v 13.75572 h -2.7499997 v -6.87786 h -6.875 v 6.87786 h -2.75 v -11.00458 c 0,0 -1.375,-1.37558 -1.375,-1.37558 0,-1.37556 2.75,-1.37556 4.125,-1.37556 v 0 z m -6.875,-5.50228 v 1.37556 h -5.5 v 12.38016 h -2.75 v -11.00458 c 0,0 0,-1.37558 0,-1.37558 0,-1.37556 1.375,-1.37556 2.75,-1.37556 z"
   class="fil0"
   inkscape:connector-curvature="0"
   style="fill:#ffffff;fill-opacity:1;stroke-width:1.37528646" />

 </g>
    </g>
  </g>
</svg>
