<svg width="32" height="32" viewBox="0 0 32 32" fill="none" xmlns="http://www.w3.org/2000/svg">
<path fill-rule="evenodd" clip-rule="evenodd" d="M16.8962 30C24.2133 29.5219 29.9999 23.4434 29.9999 16.0152C29.9999 8.2748 23.7167 2 15.9661 2C8.68371 2 2.69688 7.53944 2 14.6292C3.63175 9.95476 8.08429 6.60071 13.3212 6.60071C19.9411 6.60071 25.3076 11.96 25.3076 18.5711C25.3076 23.9387 21.77 28.4811 16.8962 30Z" fill="white"/>
<path d="M11.6406 15.6318L20.2145 11.7979L16.3328 20.3177L15.3517 17.9747L13.3469 19.9769L12.0245 18.6563L13.9867 16.6968L11.6406 15.6318Z" fill="white"/>
<path fill-rule="evenodd" clip-rule="evenodd" d="M23.8856 19.4756C22.7584 23.2592 19.2489 26.0183 15.0942 26.0183C10.0291 26.0183 5.92313 21.9177 5.92313 16.8595C5.92313 12.5556 8.89561 8.94518 12.9022 7.96387C7.22188 8.17433 2.68164 12.8395 2.68164 18.5637C2.68164 24.4219 7.43698 29.1709 13.303 29.1709C18.8614 29.1709 23.4225 24.9069 23.8856 19.4756Z" fill="white"/>
</svg>
