<svg width="16" height="16" viewBox="0 0 16 16" fill="none" xmlns="http://www.w3.org/2000/svg">
<rect width="16" height="16" rx="2" fill="#AFBAC1"/>
<path d="M6.25 13.6875C6.16363 13.6871 6.07931 13.6611 6.00769 13.6128C5.93606 13.5645 5.88032 13.4961 5.8475 13.4163L3.76937 8.4375H1.875V7.5625H4.0625C4.14887 7.56293 4.23319 7.58892 4.30481 7.63719C4.37644 7.68546 4.43218 7.75386 4.465 7.83375L6.25 12.06L9.77625 2.59688C9.80754 2.51314 9.86372 2.441 9.93725 2.39015C10.0108 2.33931 10.0981 2.31221 10.1875 2.3125C10.2777 2.31408 10.3652 2.34351 10.4381 2.39677C10.5109 2.45003 10.5655 2.52451 10.5944 2.61L12.2525 7.5625H14.125V8.4375H11.9375C11.8458 8.43774 11.7563 8.40914 11.6817 8.35576C11.6071 8.30237 11.5512 8.2269 11.5219 8.14L10.1875 4.0625L6.66125 13.4031C6.62996 13.4869 6.57378 13.559 6.50025 13.6099C6.42673 13.6607 6.33939 13.6878 6.25 13.6875Z" fill="white" stroke="white" stroke-width="0.4"/>
</svg>
