<svg width="16" height="16" viewBox="0 0 16 16" fill="none" xmlns="http://www.w3.org/2000/svg">
<path fill-rule="evenodd" clip-rule="evenodd" d="M2.33333 0.49948C2.33333 0.233091 2.1 0 1.83333 0H0.5C0.233333 0 0 0.233091 0 0.49948V10.8221C0 11.0885 0.233333 11.3215 0.5 11.3215H1.83333C2.1 11.3215 2.33333 11.0885 2.33333 10.8221V0.49948ZM16 0.49948C16 0.233091 15.7667 0 15.5 0H14.1667C13.9 0 13.6667 0.233091 13.6667 0.49948V10.8221C13.6667 11.0885 13.9 11.3215 14.1667 11.3215H15.5C15.7667 11.3215 16 11.0885 16 10.8221V0.49948ZM11.8333 0H10.8333C10.5667 0 10.3333 0.266389 10.3333 0.532778V4.66181C10.3333 4.79501 10.4 4.8949 10.5333 4.9615C11.1 5.26119 11.6 5.62747 12.0333 6.06035C12.1333 6.16025 12.3333 6.09365 12.3333 5.96046V0.532778C12.3333 0.266389 12.1 0 11.8333 0V0ZM7.36666 4.39542C7.56666 4.36212 7.79999 4.36212 7.99999 4.36212C8.19999 4.36212 8.43332 4.36212 8.63332 4.39542C8.83332 4.42872 8.99999 4.26223 8.99999 4.06244V0.532779C8.99999 0.266389 8.76666 0 8.49999 0H7.49999C7.23332 0 6.99999 0.266389 6.99999 0.532779V4.06244C6.99999 4.26223 7.16666 4.42872 7.36666 4.39542ZM3.96666 6.06035C4.39999 5.59417 4.93333 5.22789 5.49999 4.9615C5.59999 4.8949 5.66666 4.79501 5.66666 4.66181V0.532778C5.66666 0.266389 5.43333 0 5.16666 0H4.16666C3.89999 0 3.66666 0.266389 3.66666 0.532778V5.96046C3.66666 6.09365 3.83333 6.16025 3.96666 6.06035V6.06035ZM8.00001 5.69407C5.60001 5.69407 3.66668 7.62539 3.66668 10.0229C3.66668 10.7555 3.86668 11.488 4.20001 12.0874L1.83334 14.4516C1.63334 14.6514 1.63334 14.9511 1.83334 15.1509L2.53334 15.8502C2.73334 16.05 3.03334 16.05 3.23334 15.8502L5.53334 13.5526C6.23334 14.052 7.10001 14.3517 8.00001 14.3517C10.4 14.3517 12.3333 12.4204 12.3333 10.0229C12.3333 7.62539 10.4 5.69407 8.00001 5.69407V5.69407ZM8 12.3538C6.7 12.3538 5.66666 11.3215 5.66666 10.0229C5.66666 8.72425 6.7 7.69199 8 7.69199C9.3 7.69199 10.3333 8.72425 10.3333 10.0229C10.3333 11.3215 9.3 12.3538 8 12.3538Z" fill="white"/>
<mask id="mask0" mask-type="alpha" maskUnits="userSpaceOnUse" x="0" y="0" width="17" height="17">
<path fill-rule="evenodd" clip-rule="evenodd" d="M2.33333 0.49948C2.33333 0.233091 2.1 0 1.83333 0H0.5C0.233333 0 0 0.233091 0 0.49948V10.8221C0 11.0885 0.233333 11.3215 0.5 11.3215H1.83333C2.1 11.3215 2.33333 11.0885 2.33333 10.8221V0.49948ZM16 0.49948C16 0.233091 15.7667 0 15.5 0H14.1667C13.9 0 13.6667 0.233091 13.6667 0.49948V10.8221C13.6667 11.0885 13.9 11.3215 14.1667 11.3215H15.5C15.7667 11.3215 16 11.0885 16 10.8221V0.49948ZM11.8333 0H10.8333C10.5667 0 10.3333 0.266389 10.3333 0.532778V4.66181C10.3333 4.79501 10.4 4.8949 10.5333 4.9615C11.1 5.26119 11.6 5.62747 12.0333 6.06035C12.1333 6.16025 12.3333 6.09365 12.3333 5.96046V0.532778C12.3333 0.266389 12.1 0 11.8333 0V0ZM7.36666 4.39542C7.56666 4.36212 7.79999 4.36212 7.99999 4.36212C8.19999 4.36212 8.43332 4.36212 8.63332 4.39542C8.83332 4.42872 8.99999 4.26223 8.99999 4.06244V0.532779C8.99999 0.266389 8.76666 0 8.49999 0H7.49999C7.23332 0 6.99999 0.266389 6.99999 0.532779V4.06244C6.99999 4.26223 7.16666 4.42872 7.36666 4.39542ZM3.96666 6.06035C4.39999 5.59417 4.93333 5.22789 5.49999 4.9615C5.59999 4.8949 5.66666 4.79501 5.66666 4.66181V0.532778C5.66666 0.266389 5.43333 0 5.16666 0H4.16666C3.89999 0 3.66666 0.266389 3.66666 0.532778V5.96046C3.66666 6.09365 3.83333 6.16025 3.96666 6.06035V6.06035ZM8.00001 5.69407C5.60001 5.69407 3.66668 7.62539 3.66668 10.0229C3.66668 10.7555 3.86668 11.488 4.20001 12.0874L1.83334 14.4516C1.63334 14.6514 1.63334 14.9511 1.83334 15.1509L2.53334 15.8502C2.73334 16.05 3.03334 16.05 3.23334 15.8502L5.53334 13.5526C6.23334 14.052 7.10001 14.3517 8.00001 14.3517C10.4 14.3517 12.3333 12.4204 12.3333 10.0229C12.3333 7.62539 10.4 5.69407 8.00001 5.69407V5.69407ZM8 12.3538C6.7 12.3538 5.66666 11.3215 5.66666 10.0229C5.66666 8.72425 6.7 7.69199 8 7.69199C9.3 7.69199 10.3333 8.72425 10.3333 10.0229C10.3333 11.3215 9.3 12.3538 8 12.3538Z" fill="white"/>
</mask>
<g mask="url(#mask0)">
</g>
</svg>
