<svg width="16" height="16" viewBox="0 0 16 16" fill="none" xmlns="http://www.w3.org/2000/svg">
<mask id="mask0" mask-type="alpha" maskUnits="userSpaceOnUse" x="1" y="1" width="15" height="14">
<path fill-rule="evenodd" clip-rule="evenodd" d="M8.37369 1C4.28138 1 1.01984 4.01538 1.01984 7.73846C1.01984 8.90769 1.3583 10.0154 1.91215 11C2.00446 11.1538 2.03523 11.3385 1.97369 11.5231L1.01984 14.1385C0.927534 14.3846 1.17369 14.6 1.41984 14.5385L4.066 13.5231C4.21984 13.4615 4.40446 13.4923 4.58907 13.5846C5.69676 14.2 7.01984 14.5692 8.43523 14.5692C12.466 14.5385 15.7583 11.5538 15.7583 7.8C15.7275 4.01538 12.4352 1 8.37369 1ZM4.68138 9C4.00446 9 3.45061 8.44615 3.45061 7.76923C3.45061 7.09231 4.00446 6.53846 4.68138 6.53846C5.3583 6.53846 5.91215 7.09231 5.91215 7.76923C5.91215 8.44615 5.3583 9 4.68138 9ZM8.37369 9C7.69676 9 7.14292 8.44615 7.14292 7.76923C7.14292 7.09231 7.69676 6.53846 8.37369 6.53846C9.05061 6.53846 9.60446 7.09231 9.60446 7.76923C9.60446 8.44615 9.05061 9 8.37369 9ZM12.066 9C11.3891 9 10.8352 8.44615 10.8352 7.76923C10.8352 7.09231 11.3891 6.53846 12.066 6.53846C12.7429 6.53846 13.2968 7.09231 13.2968 7.76923C13.2968 8.44615 12.7429 9 12.066 9Z" fill="white"/>
</mask>
<g mask="url(#mask0)">
<rect width="16" height="16" fill="white"/>
</g>
</svg>
