<svg width="16" height="16" viewBox="0 0 16 16" fill="none" xmlns="http://www.w3.org/2000/svg">
<mask id="mask0" mask-type="alpha" maskUnits="userSpaceOnUse" x="0" y="2" width="16" height="12">
<path fill-rule="evenodd" clip-rule="evenodd" d="M4.89231 8.46154C4.46154 7.81538 4.24615 7.07692 4.24615 6.24615C4.24615 4.83077 4.83077 3.66154 5.75385 2.95385C5.44615 2.4 4.83077 2 4.03077 2C2.67692 2 1.90769 3.10769 1.90769 4.36923C1.90769 5.04615 2.12308 5.63077 2.58462 6.03077C2.83077 6.27692 3.04615 6.58462 3.04615 6.89231C3.04615 7.2 2.92308 7.50769 2.15385 7.84615C1.04615 8.33846 0.0307692 9.01538 0 10.0308C0.0307692 10.7077 0.461538 11.2308 1.10769 11.2308H2.12308C2.27692 11.2308 2.43077 11.1385 2.52308 10.9846C3.01538 10.0923 3.93846 9.53846 4.70769 9.13846C4.98462 9.01538 5.04615 8.67692 4.89231 8.46154ZM13.8769 7.84615C13.1077 7.50769 12.9846 7.23077 12.9846 6.89231C12.9846 6.55385 13.2 6.24615 13.4462 6.03077C13.9077 5.6 14.1231 5.04615 14.1231 4.36923C14.1231 3.10769 13.3846 2 12 2C11.2 2 10.5846 2.4 10.2462 2.95385C11.1692 3.66154 11.7538 4.83077 11.7538 6.24615C11.7538 7.07692 11.5385 7.81538 11.1077 8.46154C10.9538 8.70769 11.0462 9.01538 11.2923 9.13846C12.0615 9.50769 12.9846 10.0923 13.4769 10.9846C13.5692 11.1385 13.7231 11.2308 13.8769 11.2308H14.8923C15.5385 11.2308 15.9692 10.7077 15.9692 10.0308C16 9.01538 14.9846 8.33846 13.8769 7.84615ZM10.0615 10.0923C9.23077 9.72308 9.07692 9.38462 9.07692 9.04615C9.07692 8.67692 9.32308 8.33846 9.6 8.09231C10.0923 7.63077 10.3692 6.98462 10.3692 6.24615C10.3692 4.86154 9.53846 3.66154 8.03077 3.66154C6.52308 3.66154 5.69231 4.86154 5.69231 6.24615C5.69231 6.98462 5.96923 7.63077 6.46154 8.09231C6.73846 8.36923 6.98462 8.70769 6.98462 9.04615C6.98462 9.41538 6.86154 9.72308 6 10.0923C4.76923 10.6154 3.6 11.2 3.56923 12.3077C3.56923 13.0462 4.12308 13.6615 4.83077 13.6615H11.2308C11.9385 13.6615 12.4923 13.0462 12.4923 12.3077C12.4615 11.2308 11.2923 10.6462 10.0615 10.0923Z" fill="#A8AAB7"/>
</mask>
<g mask="url(#mask0)">
<rect width="16" height="16" fill="white"/>
</g>
</svg>
