<svg width="16" height="16" viewBox="0 0 16 16" fill="none" xmlns="http://www.w3.org/2000/svg">
<path fill-rule="evenodd" clip-rule="evenodd" d="M2.92308 11.4872H6.92308C7.16923 11.4872 7.38462 11.2 7.38462 10.8718V1.23077C7.38462 0.533333 6.83077 0 6.4 0H2.92308C2.67692 0 2.46154 0.287179 2.46154 0.615385V10.8718C2.46154 11.2 2.67692 11.4872 2.92308 11.4872ZM15.1385 1.88719C14.9538 1.80514 14.7692 2.01026 14.7692 2.29744V12.5128C14.7692 12.841 14.5538 13.1282 14.3077 13.1282H1.69231C1.44615 13.1282 1.23077 12.841 1.23077 12.5128V2.33847C1.23077 2.05129 0.984615 1.84616 0.8 1.96924C0.338462 2.25642 0 2.91283 0 3.69232V13.1282C0 14.0308 0.553846 14.7692 1.23077 14.7692H6.30769C6.55385 14.7692 6.76923 15.0564 6.76923 15.3846C6.76923 15.7128 6.98462 16 7.23077 16H8.76923C9.01538 16 9.23077 15.7128 9.23077 15.3846C9.23077 15.0564 9.44615 14.7692 9.69231 14.7692H14.7692C15.4462 14.7692 16 14.0308 16 13.1282V3.69232C16 2.83078 15.7846 2.09232 15.1385 1.88719V1.88719ZM9.07692 11.4872H13.0769C13.3231 11.4872 13.5385 11.2 13.5385 10.8718V0.615385C13.5385 0.287179 13.3231 0 13.0769 0H9.6C9.13846 0 8.61539 0.533333 8.61539 1.23077V10.8718C8.61539 11.2 8.83077 11.4872 9.07692 11.4872V11.4872Z" fill="white"/>
<mask id="mask0" mask-type="alpha" maskUnits="userSpaceOnUse" x="0" y="0" width="16" height="17">
<path fill-rule="evenodd" clip-rule="evenodd" d="M2.92308 11.4872H6.92308C7.16923 11.4872 7.38462 11.2 7.38462 10.8718V1.23077C7.38462 0.533333 6.83077 0 6.4 0H2.92308C2.67692 0 2.46154 0.287179 2.46154 0.615385V10.8718C2.46154 11.2 2.67692 11.4872 2.92308 11.4872ZM15.1385 1.88719C14.9538 1.80514 14.7692 2.01026 14.7692 2.29744V12.5128C14.7692 12.841 14.5538 13.1282 14.3077 13.1282H1.69231C1.44615 13.1282 1.23077 12.841 1.23077 12.5128V2.33847C1.23077 2.05129 0.984615 1.84616 0.8 1.96924C0.338462 2.25642 0 2.91283 0 3.69232V13.1282C0 14.0308 0.553846 14.7692 1.23077 14.7692H6.30769C6.55385 14.7692 6.76923 15.0564 6.76923 15.3846C6.76923 15.7128 6.98462 16 7.23077 16H8.76923C9.01538 16 9.23077 15.7128 9.23077 15.3846C9.23077 15.0564 9.44615 14.7692 9.69231 14.7692H14.7692C15.4462 14.7692 16 14.0308 16 13.1282V3.69232C16 2.83078 15.7846 2.09232 15.1385 1.88719V1.88719ZM9.07692 11.4872H13.0769C13.3231 11.4872 13.5385 11.2 13.5385 10.8718V0.615385C13.5385 0.287179 13.3231 0 13.0769 0H9.6C9.13846 0 8.61539 0.533333 8.61539 1.23077V10.8718C8.61539 11.2 8.83077 11.4872 9.07692 11.4872V11.4872Z" fill="white"/>
</mask>
<g mask="url(#mask0)">
</g>
</svg>
