<svg width="16" height="16" viewBox="0 0 16 16" fill="none" xmlns="http://www.w3.org/2000/svg">
<path fill-rule="evenodd" clip-rule="evenodd" d="M5.99682 2.21875C6.05603 2.40625 6.23366 2.5 6.4113 2.5H8.80932C8.98695 2.5 9.16458 2.40625 9.2238 2.21875L10.1712 0.375C10.2304 0.1875 10.112 0 9.93432 0H5.3159C5.13827 0 5.01985 0.1875 5.10866 0.34375L5.99682 2.21875ZM9.01645 3.96875H6.23355C3.89474 3.96875 2 6 2 8.5V13.5C2 14.3125 2.62171 15 3.42105 15H11.8289C12.5987 15 13.25 14.3125 13.25 13.5V8.5C13.25 6 11.3257 3.96875 9.01645 3.96875ZM8.33552 12.4062V13.25C8.33552 13.4062 8.18749 13.5 8.03946 13.5H7.09209C6.94407 13.5 6.91446 13.4062 6.91446 13.25V12.4375C6.20394 12.2812 5.61183 11.9687 5.4638 11.8125C5.28617 11.625 5.22696 11.4687 5.37499 11.25L5.67104 10.75C5.73025 10.625 5.87828 10.5625 6.0263 10.5625C6.11512 10.5625 6.20394 10.5937 6.26315 10.625H6.29275C6.76644 10.9375 7.18091 11.0625 7.47696 11.0625C7.80262 11.0625 8.06907 10.875 8.06907 10.6875C8.06907 10.5312 7.98025 10.2812 7.09209 9.96872C6.29275 9.65622 5.31578 9.15622 5.31578 7.99997C5.31578 7.31247 5.73025 6.53122 6.91446 6.28122V5.53122C6.91446 5.37497 6.97367 5.28122 7.09209 5.28122H8.03946C8.18749 5.28122 8.33552 5.37497 8.33552 5.53122V6.24997C8.8092 6.37497 9.31249 6.62497 9.49012 6.74997C9.57894 6.81247 9.63815 6.93747 9.66775 7.06247C9.69736 7.18747 9.63815 7.31247 9.57894 7.37497L9.16446 7.81247C9.07565 7.93747 8.89802 8.03122 8.77959 8.03122C8.72038 8.03122 8.63157 7.99997 8.57236 7.96872C8.09867 7.68747 7.7138 7.53122 7.44736 7.53122C7.06249 7.53122 6.88486 7.71872 6.88486 7.84372C6.88486 8.03122 6.97367 8.21872 7.77302 8.53122C8.74999 8.87497 9.84538 9.43747 9.84538 10.625C9.87499 11.4375 9.25328 12.1562 8.33552 12.4062Z" fill="white"/>
<mask id="mask0" mask-type="alpha" maskUnits="userSpaceOnUse" x="2" y="0" width="12" height="15">
<path fill-rule="evenodd" clip-rule="evenodd" d="M5.99682 2.21875C6.05603 2.40625 6.23366 2.5 6.4113 2.5H8.80932C8.98695 2.5 9.16458 2.40625 9.2238 2.21875L10.1712 0.375C10.2304 0.1875 10.112 0 9.93432 0H5.3159C5.13827 0 5.01985 0.1875 5.10866 0.34375L5.99682 2.21875ZM9.01645 3.96875H6.23355C3.89474 3.96875 2 6 2 8.5V13.5C2 14.3125 2.62171 15 3.42105 15H11.8289C12.5987 15 13.25 14.3125 13.25 13.5V8.5C13.25 6 11.3257 3.96875 9.01645 3.96875ZM8.33552 12.4062V13.25C8.33552 13.4062 8.18749 13.5 8.03946 13.5H7.09209C6.94407 13.5 6.91446 13.4062 6.91446 13.25V12.4375C6.20394 12.2812 5.61183 11.9687 5.4638 11.8125C5.28617 11.625 5.22696 11.4687 5.37499 11.25L5.67104 10.75C5.73025 10.625 5.87828 10.5625 6.0263 10.5625C6.11512 10.5625 6.20394 10.5937 6.26315 10.625H6.29275C6.76644 10.9375 7.18091 11.0625 7.47696 11.0625C7.80262 11.0625 8.06907 10.875 8.06907 10.6875C8.06907 10.5312 7.98025 10.2812 7.09209 9.96872C6.29275 9.65622 5.31578 9.15622 5.31578 7.99997C5.31578 7.31247 5.73025 6.53122 6.91446 6.28122V5.53122C6.91446 5.37497 6.97367 5.28122 7.09209 5.28122H8.03946C8.18749 5.28122 8.33552 5.37497 8.33552 5.53122V6.24997C8.8092 6.37497 9.31249 6.62497 9.49012 6.74997C9.57894 6.81247 9.63815 6.93747 9.66775 7.06247C9.69736 7.18747 9.63815 7.31247 9.57894 7.37497L9.16446 7.81247C9.07565 7.93747 8.89802 8.03122 8.77959 8.03122C8.72038 8.03122 8.63157 7.99997 8.57236 7.96872C8.09867 7.68747 7.7138 7.53122 7.44736 7.53122C7.06249 7.53122 6.88486 7.71872 6.88486 7.84372C6.88486 8.03122 6.97367 8.21872 7.77302 8.53122C8.74999 8.87497 9.84538 9.43747 9.84538 10.625C9.87499 11.4375 9.25328 12.1562 8.33552 12.4062Z" fill="white"/>
</mask>
<g mask="url(#mask0)">
</g>
</svg>
