<svg width="16" height="16" viewBox="0 0 16 16" fill="none" xmlns="http://www.w3.org/2000/svg">
<path fill-rule="evenodd" clip-rule="evenodd" d="M16 8.66667C16 7.36667 15.1667 6.23333 14 5.83333C13.9 2.6 11.2667 0 8 0C4.73333 0 2.1 2.6 2 5.83333C0.833333 6.23333 0 7.36667 0 8.66667C0 10.0667 0.966667 11.2333 2.23333 11.5667C2.96667 14.1333 5.26667 16 8 16C10.7333 16 13.0333 14.1333 13.7667 11.5667C15.0333 11.2333 16 10.0667 16 8.66667V8.66667ZM12.6667 5.66667L12.6333 5.63333L12.7667 5.66667H12.6667ZM8 14.6667C5.43333 14.6667 3.33333 12.5 3.33333 9.86667C3.33333 9.2 3.46667 8.2 3.73333 7.6C3.76667 7.5 3.83333 7.4 3.86667 7.3C4.86667 6.9 5.73333 6.2 6.3 5.3C7.46666 6.76667 9.3 7.76667 11.3333 7.76667C12.0333 7.76667 12.2333 7.8 12.3 7.76667C12.4333 8.2 12.5667 8.73334 12.6 9.26667C12.4 10.1 11.1 10.9 9.26666 11C9.2 10.8333 9 10.6667 8.8 10.6667H7.13333C6.86666 10.6667 6.66666 10.9333 6.66666 11.2V12.2C6.66666 12.4667 6.86666 12.6667 7.13333 12.6667H8.8C9.03333 12.6667 9.2 12.5667 9.26666 12.3667C10.4667 12.3333 11.5333 12 12.3667 11.5C11.7333 13.3333 10.0333 14.6667 8 14.6667V14.6667Z" fill="white"/>
<mask id="mask0" mask-type="alpha" maskUnits="userSpaceOnUse" x="0" y="0" width="16" height="16">
<path fill-rule="evenodd" clip-rule="evenodd" d="M16 8.66667C16 7.36667 15.1667 6.23333 14 5.83333C13.9 2.6 11.2667 0 8 0C4.73333 0 2.1 2.6 2 5.83333C0.833333 6.23333 0 7.36667 0 8.66667C0 10.0667 0.966667 11.2333 2.23333 11.5667C2.96667 14.1333 5.26667 16 8 16C10.7333 16 13.0333 14.1333 13.7667 11.5667C15.0333 11.2333 16 10.0667 16 8.66667V8.66667ZM12.6667 5.66667L12.6333 5.63333L12.7667 5.66667H12.6667ZM8 14.6667C5.43333 14.6667 3.33333 12.5 3.33333 9.86667C3.33333 9.2 3.46667 8.2 3.73333 7.6C3.76667 7.5 3.83333 7.4 3.86667 7.3C4.86667 6.9 5.73333 6.2 6.3 5.3C7.46666 6.76667 9.3 7.76667 11.3333 7.76667C12.0333 7.76667 12.2333 7.8 12.3 7.76667C12.4333 8.2 12.5667 8.73334 12.6 9.26667C12.4 10.1 11.1 10.9 9.26666 11C9.2 10.8333 9 10.6667 8.8 10.6667H7.13333C6.86666 10.6667 6.66666 10.9333 6.66666 11.2V12.2C6.66666 12.4667 6.86666 12.6667 7.13333 12.6667H8.8C9.03333 12.6667 9.2 12.5667 9.26666 12.3667C10.4667 12.3333 11.5333 12 12.3667 11.5C11.7333 13.3333 10.0333 14.6667 8 14.6667V14.6667Z" fill="white"/>
</mask>
<g mask="url(#mask0)">
</g>
</svg>
