<svg width="16" height="16" viewBox="0 0 16 16" fill="none" xmlns="http://www.w3.org/2000/svg">
<path fill-rule="evenodd" clip-rule="evenodd" d="M14.2812 0H1.46875C1.21875 0 1 0.218749 1 0.468749V2.03124C1 2.28124 1.21875 2.49999 1.46875 2.49999H14.2812C14.5312 2.49999 14.75 2.28124 14.75 2.03124V0.468749C14.75 0.218749 14.5312 0 14.2812 0ZM4.28124 3.74997H1.46875C1.21875 3.74997 1 3.96872 1 4.21872V5.15621C1 5.40621 1.21875 5.62496 1.46875 5.62496H4.28124C4.53124 5.62496 4.74999 5.40621 4.74999 5.15621V4.21872C4.74999 3.96872 4.53124 3.74997 4.28124 3.74997ZM9.28128 3.74997H6.46879C6.21879 3.74997 6.00004 3.96872 6.00004 4.21872V5.15621C6.00004 5.40621 6.21879 5.62496 6.46879 5.62496H9.28128C9.53128 5.62496 9.75003 5.40621 9.75003 5.15621V4.21872C9.75003 3.96872 9.53128 3.74997 9.28128 3.74997ZM14.2813 3.74997H11.4688C11.2188 3.74997 11.0001 3.96872 11.0001 4.21872V5.15621C11.0001 5.40621 11.2188 5.62496 11.4688 5.62496H14.2813C14.5313 5.62496 14.7501 5.40621 14.7501 5.15621V4.21872C14.7501 3.96872 14.5313 3.74997 14.2813 3.74997ZM4.28124 6.87496H1.46875C1.21875 6.87496 1 7.09371 1 7.34371V8.28121C1 8.53121 1.21875 8.74996 1.46875 8.74996H4.28124C4.53124 8.74996 4.74999 8.53121 4.74999 8.28121V7.34371C4.74999 7.09371 4.53124 6.87496 4.28124 6.87496ZM9.28128 6.87496H6.46879C6.21879 6.87496 6.00004 7.09371 6.00004 7.34371V8.28121C6.00004 8.53121 6.21879 8.74996 6.46879 8.74996H9.28128C9.53128 8.74996 9.75003 8.53121 9.75003 8.28121V7.34371C9.75003 7.09371 9.53128 6.87496 9.28128 6.87496ZM14.2813 6.87496H11.4688C11.2188 6.87496 11.0001 7.09371 11.0001 7.34371V8.28121C11.0001 8.53121 11.2188 8.74996 11.4688 8.74996H14.2813C14.5313 8.74996 14.7501 8.53121 14.7501 8.28121V7.34371C14.7501 7.09371 14.5313 6.87496 14.2813 6.87496ZM4.28124 9.99996H1.46875C1.21875 9.99996 1 10.2187 1 10.4687V11.4062C1 11.6562 1.21875 11.875 1.46875 11.875H4.28124C4.53124 11.875 4.74999 11.6562 4.74999 11.4062V10.4687C4.74999 10.2187 4.53124 9.99996 4.28124 9.99996ZM9.28128 9.99996H6.46879C6.21879 9.99996 6.00004 10.2187 6.00004 10.4687V11.4062C6.00004 11.6562 6.21879 11.875 6.46879 11.875H9.28128C9.53128 11.875 9.75003 11.6562 9.75003 11.4062V10.4687C9.75003 10.2187 9.53128 9.99996 9.28128 9.99996ZM14.2813 9.99996H11.4688C11.2188 9.99996 11.0001 10.2187 11.0001 10.4687V11.4062C11.0001 11.6562 11.2188 11.875 11.4688 11.875H14.2813C14.5313 11.875 14.7501 11.6562 14.7501 11.4062V10.4687C14.7501 10.2187 14.5313 9.99996 14.2813 9.99996ZM4.28124 13.125H1.46875C1.21875 13.125 1 13.3437 1 13.5937V14.5312C1 14.7812 1.21875 14.9999 1.46875 14.9999H4.28124C4.53124 14.9999 4.74999 14.7812 4.74999 14.5312V13.5937C4.74999 13.3437 4.53124 13.125 4.28124 13.125ZM9.28128 13.125H6.46879C6.21879 13.125 6.00004 13.3437 6.00004 13.5937V14.5312C6.00004 14.7812 6.21879 14.9999 6.46879 14.9999H9.28128C9.53128 14.9999 9.75003 14.7812 9.75003 14.5312V13.5937C9.75003 13.3437 9.53128 13.125 9.28128 13.125ZM14.2813 13.125H11.4688C11.2188 13.125 11.0001 13.3437 11.0001 13.5937V14.5312C11.0001 14.7812 11.2188 14.9999 11.4688 14.9999H14.2813C14.5313 14.9999 14.7501 14.7812 14.7501 14.5312V13.5937C14.7501 13.3437 14.5313 13.125 14.2813 13.125Z" fill="white"/>
<mask id="mask0" mask-type="alpha" maskUnits="userSpaceOnUse" x="0" y="0" width="16" height="16">
<rect width="16" height="16" fill="#C4C4C4"/>
</mask>
<g mask="url(#mask0)">
</g>
</svg>
