<svg width="1440" height="60" viewBox="0 0 1440 60" fill="none" xmlns="http://www.w3.org/2000/svg">
<g clip-path="url(#clip0)">
<rect width="1440" height="60" fill="#E03632"/>
<g style="mix-blend-mode:multiply" opacity="0.4">
<path fill-rule="evenodd" clip-rule="evenodd" d="M-82 66.783C-82 66.783 -32.8937 -46.641 271.044 52.4294C574.981 151.5 760.832 248.431 977.099 138.488C1193.37 28.5455 1154.52 -107.738 1435.43 -128.521C1716.34 -149.304 1526.22 284.186 1526.22 284.186L569.003 386.33L-54.2346 293.658L-82 66.783Z" fill="#D10602"/>
</g>
<g style="mix-blend-mode:multiply" opacity="0.5">
<path fill-rule="evenodd" clip-rule="evenodd" d="M39 343.61C39 343.61 612.668 -66.5353 1281.49 -17.1481C1950.31 32.2391 1468.5 356.749 1468.5 356.749L361.377 431.746L39 343.61Z" fill="#E52929"/>
</g>
<rect width="350" height="60" fill="#E03632"/>
<rect y="59" width="1440" height="1" fill="white" fill-opacity="0.4"/>
</g>
<defs>
<clipPath id="clip0">
<rect width="1440" height="60" fill="white"/>
</clipPath>
</defs>
</svg>
