<svg width="340" height="100" viewBox="0 0 340 100" fill="none" xmlns="http://www.w3.org/2000/svg">
<rect width="340" height="100" fill="white"/>
<path fill-rule="evenodd" clip-rule="evenodd" d="M76.7822 68.523C58.5943 82.0923 31.5012 76.7753 20 55.9553C23.66 53.904 27.3217 51.8527 31.042 49.7676C35.0794 56.5028 40.7572 60.9437 48.3826 62.5953C55.9495 64.2352 62.9381 62.6923 69.3574 58.2354C71.8495 61.6889 74.3158 65.106 76.7822 68.523Z" fill="#01BFFE"/>
<path fill-rule="evenodd" clip-rule="evenodd" d="M68.1838 48.8516C63.9759 48.8516 59.8017 48.8516 55.5547 48.8516C55.5547 40.9224 55.5547 33.0048 55.5547 25C59.7173 25 63.9146 25 68.1838 25C68.1838 32.9149 68.1838 40.8583 68.1838 48.8516Z" fill="#2559AA"/>
<path fill-rule="evenodd" clip-rule="evenodd" d="M80.1458 65.8816C77.255 62.6845 74.4468 59.58 71.5879 56.4194C75.8358 52.4557 78.5472 47.6506 79.7497 41.8867C83.9266 42.6862 88.0146 43.4688 92.2545 44.2799C90.5644 52.8127 86.5448 59.9147 80.1458 65.8816Z" fill="#017DC4"/>
<path fill-rule="evenodd" clip-rule="evenodd" d="M52.3967 48.8516C48.1675 48.8516 43.9924 48.8516 39.748 48.8516C39.748 43.2105 39.748 37.5704 39.748 31.8599C43.9409 31.8599 48.1399 31.8599 52.3967 31.8599C52.3967 37.5285 52.3967 43.1633 52.3967 48.8516Z" fill="#017DC4"/>
<path fill-rule="evenodd" clip-rule="evenodd" d="M80.3573 39.035C80.1193 36.1451 79.8937 33.402 79.6602 30.5592C83.6221 29.5817 87.6879 28.58 91.8168 27.5615C92.8221 31.7238 93.1996 35.7872 92.8301 40.0304C88.592 39.6921 84.4418 39.3609 80.3573 39.035Z" fill="#2559AA"/>
<path fill-rule="evenodd" clip-rule="evenodd" d="M173.181 66.382C171.572 68.574 169.964 70.765 168.359 72.9516C167.839 72.9516 167.351 72.9516 166.805 72.9516C166.805 69.7634 166.805 66.6135 166.805 63.3718C167.332 63.3718 167.87 63.3718 168.505 63.3718C168.505 65.4294 168.505 67.4762 168.505 69.5239C168.581 69.5578 168.657 69.5925 168.733 69.6263C170.375 67.5821 171.828 65.3866 173.461 63.3291C174.003 63.3291 174.526 63.3291 175.12 63.3291C175.12 66.5512 175.12 69.7251 175.12 72.9454C174.561 72.9454 174.041 72.9454 173.434 72.9454C173.434 70.7704 173.434 68.614 173.434 66.4586C173.349 66.4336 173.266 66.4078 173.181 66.382ZM115.717 63.3594C115.13 63.3594 114.588 63.3594 113.961 63.3594C113.961 64.6699 113.961 65.9021 113.961 67.1868C112.449 67.1868 111.021 67.1868 109.511 67.1868C109.511 65.8763 109.511 64.6441 109.511 63.3638C108.884 63.3638 108.344 63.3638 107.799 63.3638C107.799 66.6001 107.799 69.7527 107.799 72.9481C108.375 72.9481 108.893 72.9481 109.542 72.9481C109.542 71.5823 109.542 70.2522 109.542 68.9034C111.072 68.9034 112.469 68.9034 114.001 68.9034C114.001 70.2985 114.001 71.6242 114.001 72.9668C114.628 72.9668 115.121 72.9668 115.717 72.9668C115.717 69.71 115.717 66.5583 115.717 63.3594ZM159.464 63.1956C156.686 63.1582 154.637 65.262 154.625 68.1635C154.613 71.066 156.648 73.1778 159.436 73.1537C162.184 73.1315 164.155 71.0597 164.159 68.1902C164.163 65.3216 162.199 63.2321 159.464 63.1956ZM160.168 71.5316C158.687 71.9438 157.257 71.2333 156.744 69.7901C156.416 68.8678 156.384 67.9116 156.635 66.9589C157.009 65.5371 158.007 64.7091 159.346 64.6859C160.72 64.6637 161.796 65.5202 162.159 66.9696C162.261 67.3774 162.268 67.8101 162.318 68.2312C162.273 70.0136 161.544 71.1496 160.168 71.5316ZM247.414 73.0113C248.804 73.2116 249.753 72.6498 250.214 71.4791C250.692 70.2673 251.027 68.9915 251.337 67.721C251.569 66.7693 251.658 65.7828 251.805 64.8462C252.427 64.8462 252.94 64.8462 253.58 64.8462C253.58 67.5928 253.58 70.2691 253.58 72.9249C254.226 72.9249 254.741 72.9249 255.284 72.9249C255.284 69.7091 255.284 66.561 255.284 63.3469C253.619 63.3469 252.003 63.3469 250.357 63.3469C250.329 63.4911 250.303 63.6265 250.278 63.7627C249.925 65.6786 249.625 67.6071 249.198 69.5079C248.989 70.4374 248.633 71.3936 247.414 71.4319C247.414 72.0551 247.414 72.5296 247.414 73.0113ZM192.078 67.2118C190.561 67.2118 189.13 67.2118 187.587 67.2118C187.587 65.8905 187.587 64.6272 187.587 63.371C186.987 63.371 186.501 63.371 185.977 63.371C185.977 66.5894 185.977 69.7643 185.977 72.9098C186.56 72.9098 187.07 72.9098 187.673 72.9098C187.673 71.5013 187.673 70.1685 187.673 68.8571C189.202 68.8571 190.632 68.8571 192.158 68.8571C192.158 70.2762 192.158 71.6126 192.158 72.9089C192.772 72.9089 193.286 72.9089 193.758 72.9089C193.758 69.6824 193.758 66.5325 193.758 63.3701C193.199 63.3701 192.713 63.3701 192.078 63.3701C192.078 64.726 192.078 65.9582 192.078 67.2118ZM119.521 72.9321C119.83 72.1281 120.119 71.3758 120.4 70.6439C121.574 70.6439 122.661 70.6439 123.766 70.6439C124.075 71.4328 124.37 72.1833 124.655 72.908C125.284 72.908 125.853 72.908 126.512 72.908C125.228 69.6183 123.984 66.4327 122.754 63.2819C122.224 63.2819 121.81 63.2819 121.356 63.2819C120.151 66.4915 118.956 69.6699 117.731 72.9321C118.422 72.9321 118.977 72.9321 119.521 72.9321ZM122.079 65.8033C122.487 66.9972 122.836 68.0184 123.204 69.0975C122.412 69.0975 121.716 69.0975 120.916 69.0975C121.31 67.981 121.66 66.9919 122.079 65.8033ZM274.516 72.9374C275.175 72.9374 275.728 72.9374 276.288 72.9374C276.601 72.1423 276.897 71.39 277.191 70.6404C278.343 70.6404 279.432 70.6404 280.54 70.6404C280.854 71.431 281.154 72.1851 281.447 72.924C282.074 72.924 282.653 72.924 283.303 72.924C282.022 69.645 280.771 66.4488 279.525 63.2614C279.037 63.2614 278.652 63.2614 278.143 63.2614C276.925 66.5093 275.733 69.6886 274.516 72.9374ZM279.978 69.0521C279.217 69.0521 278.539 69.0521 277.736 69.0521C278.088 68.0211 278.432 67.0195 278.862 65.7677C279.279 66.9981 279.612 67.9766 279.978 69.0521ZM200.88 63.2935C200.343 63.2935 199.928 63.2935 199.467 63.2935C198.262 66.5111 197.072 69.6913 195.857 72.9329C196.523 72.9329 197.075 72.9329 197.628 72.9329C197.943 72.1334 198.24 71.3811 198.53 70.6457C199.693 70.6457 200.781 70.6457 201.881 70.6457C202.197 71.4426 202.497 72.1958 202.8 72.9597C203.372 72.9597 203.899 72.9597 204.647 72.9597C203.354 69.6414 202.108 66.4452 200.88 63.2935ZM200.196 65.7757C200.617 67.0088 200.958 68.0095 201.324 69.077C200.534 69.077 199.846 69.077 199.056 69.077C199.425 68.0113 199.766 67.023 200.196 65.7757ZM261.333 72.9721C261.648 72.9659 261.967 72.9009 262.275 72.8243C263.981 72.3988 264.683 71.4363 264.602 69.6584C264.537 68.2036 263.628 67.2465 262.049 67.0034C261.427 66.9082 260.797 66.8637 260.059 66.7835C260.059 65.643 260.059 64.523 260.059 63.3772C259.424 63.3772 258.906 63.3772 258.34 63.3772C258.34 66.5832 258.34 69.7358 258.34 72.9784C259.366 72.9784 260.35 72.9899 261.333 72.9721ZM260.126 68.3478C261.096 68.3167 262.038 68.2045 262.656 69.0814C263.022 69.6041 263.007 70.2495 262.661 70.7882C262.05 71.7399 261.082 71.4755 260.126 71.4978C260.126 70.3751 260.126 69.3984 260.126 68.3478ZM148.344 71.3054C148.344 70.7846 148.344 70.2638 148.344 69.7314C148.978 69.6593 149.475 69.6334 149.962 69.5426C151.547 69.247 152.463 68.1635 152.494 66.585C152.526 64.8943 151.751 63.6861 150.222 63.4591C149.057 63.2873 147.847 63.4253 146.632 63.4253C146.632 66.6188 146.632 69.7705 146.632 72.9347C147.211 72.9347 147.729 72.9347 148.345 72.9347C148.344 72.3578 148.344 71.8316 148.344 71.3054ZM150.722 66.4114C150.78 67.6267 150.099 68.1813 148.438 68.1982C148.438 67.0907 148.438 65.9796 148.438 64.7946C149.972 64.7269 150.666 65.2317 150.722 66.4114ZM214.391 72.9303C214.978 72.9303 215.494 72.9303 216.135 72.9303C216.135 71.8298 216.135 70.7846 216.135 69.7296C216.748 69.6593 217.245 69.6334 217.73 69.5417C219.302 69.2461 220.228 68.1502 220.257 66.5877C220.288 64.9094 219.506 63.7119 217.993 63.4564C216.826 63.2588 215.617 63.3104 214.391 63.249C214.391 66.5868 214.391 69.7599 214.391 72.9303ZM216.095 64.9254C216.946 64.6397 217.642 64.775 218.084 65.3394C218.566 65.9538 218.631 66.6544 218.288 67.3329C217.853 68.1902 217.058 68.2784 216.095 68.1751C216.095 67.023 216.095 65.9725 216.095 64.9254ZM235.124 63.7565C233.82 62.9231 231.515 63.0308 230.189 64.0654C230.315 64.4349 230.449 64.8231 230.533 65.0706C231.503 64.9575 232.37 64.7536 233.228 64.7857C234.029 64.815 234.346 65.2531 234.375 65.9279C234.406 66.6491 234.071 67.0764 233.261 67.2385C232.681 67.3551 232.086 67.3934 231.504 67.4655C231.504 67.9107 231.504 68.3095 231.504 68.6763C232.26 68.7636 232.934 68.7948 233.589 68.9274C234.281 69.0681 234.569 69.4661 234.589 70.1151C234.609 70.757 234.336 71.2609 233.732 71.439C233.236 71.585 232.687 71.6277 232.169 71.5957C231.578 71.5601 230.997 71.3909 230.349 71.2672C230.349 71.7542 230.349 72.1993 230.349 72.6596C231.641 73.1813 232.919 73.314 234.231 72.9632C235.471 72.6311 236.266 71.7684 236.416 70.6235C236.572 69.4331 236.154 68.7289 234.79 67.9703C236.82 66.975 236.447 64.6014 235.124 63.7565ZM224.595 68.8286C225.588 68.8286 226.501 68.8286 227.465 68.8286C227.465 68.306 227.465 67.8608 227.465 67.3026C226.491 67.3026 225.552 67.3026 224.575 67.3026C224.575 66.4292 224.575 65.668 224.575 64.8239C225.579 64.8239 226.524 64.8239 227.531 64.8239C227.679 64.3182 227.808 63.8749 227.949 63.3923C226.159 63.3923 224.515 63.3923 222.845 63.3923C222.845 66.6037 222.845 69.7492 222.845 72.9053C224.602 72.9053 226.307 72.9053 228.003 72.9053C228.003 72.405 228.003 71.9937 228.003 71.52C226.859 71.52 225.768 71.52 224.595 71.52C224.595 70.5531 224.595 69.7287 224.595 68.8286ZM128.909 65.4881C127.67 67.5652 128.016 70.4837 129.617 71.999C130.924 73.2339 134.147 73.6799 135.874 72.234C135.748 71.8681 135.615 71.4773 135.482 71.0909C132.895 71.8939 131.579 71.7114 130.671 70.4543C129.794 69.2408 129.756 67.137 130.698 65.9333C132.054 64.2016 133.792 64.5934 135.574 65.2495C135.574 64.7162 135.574 64.2274 135.574 63.6745C132.781 62.6596 130.159 63.3914 128.909 65.4881ZM242.283 68.3727C241.464 66.6348 240.699 65.0065 239.947 63.4075C239.305 63.4075 238.734 63.4075 238.039 63.4075C239.185 65.7454 240.273 67.9659 241.336 70.1365C240.981 71.2022 240.3 71.7034 239.242 71.6188C239.242 72.1326 239.242 72.5768 239.242 73.0531C240.45 73.2828 241.412 72.9552 242.116 72.0328C242.5 71.5316 242.798 70.9538 243.068 70.3804C243.987 68.4217 244.88 66.4506 245.777 64.4821C245.933 64.1393 246.064 63.7858 246.235 63.3683C245.582 63.3683 245.025 63.3683 244.394 63.3683C243.709 64.9878 243.024 66.6144 242.283 68.3727ZM270.722 64.8275C271.596 64.8275 272.365 64.8275 273.185 64.8275C273.336 64.3031 273.466 63.8499 273.612 63.3416C271.062 63.3416 268.665 63.3416 266.219 63.3416C266.219 63.8464 266.219 64.2889 266.219 64.8658C267.135 64.8658 267.999 64.8658 268.963 64.8658C268.963 67.6462 268.963 70.2958 268.963 72.9641C269.561 72.9641 270.053 72.9641 270.721 72.9641C270.722 70.2095 270.722 67.5626 270.722 64.8275ZM140.016 72.9329C140.625 72.9329 141.142 72.9329 141.79 72.9329C141.79 70.2068 141.79 67.535 141.79 64.7901C142.692 64.7901 143.461 64.7901 144.263 64.7901C144.393 64.2987 144.506 63.874 144.636 63.3888C142.132 63.3888 139.745 63.3888 137.355 63.3888C137.355 63.8909 137.355 64.3272 137.355 64.84C138.234 64.84 139.039 64.84 140.016 64.84C140.016 67.6293 140.016 70.2798 140.016 72.9329ZM288.866 64.8052C289.757 64.8052 290.552 64.8052 291.36 64.8052C291.492 64.2764 291.599 63.8553 291.711 63.4003C289.192 63.4003 286.807 63.4003 284.415 63.4003C284.415 63.89 284.415 64.3031 284.415 64.8631C285.319 64.8631 286.176 64.8631 287.13 64.8631C287.13 67.6534 287.13 70.2976 287.13 72.9614C287.72 72.9614 288.21 72.9614 288.866 72.9614C288.866 70.2068 288.866 67.5617 288.866 64.8052Z" fill="#1084C7"/>
<path fill-rule="evenodd" clip-rule="evenodd" d="M273.584 38.775C271.551 42.0167 269.518 45.2583 267.458 48.5427C267.016 48.5427 266.563 48.5427 265.997 48.5427C263.804 45.2939 261.567 41.981 259.201 38.4759C259.201 44.0145 259.201 49.3288 259.201 54.6974C258.244 54.6974 257.368 54.6974 256.402 54.6974C256.402 47.6764 256.402 40.6509 256.402 33.5444C257.204 33.5444 258.038 33.5444 259.021 33.5444C261.514 37.265 264.076 41.0907 266.716 45.0277C269.183 41.1246 271.601 37.3015 273.991 33.5195C274.911 33.5195 275.751 33.5195 276.639 33.5195C276.639 40.5779 276.639 47.582 276.639 54.6689C275.745 54.6689 274.846 54.6689 273.845 54.6689C273.845 49.3805 273.845 44.0964 273.845 38.8133C273.758 38.8017 273.671 38.7884 273.584 38.775ZM194.534 33.531C193.6 33.531 192.765 33.531 191.94 33.531C191.94 40.6233 191.94 47.6515 191.94 54.6912C192.883 54.6912 193.754 54.6912 194.682 54.6912C194.682 49.2754 194.682 43.9202 194.682 38.402C197.031 41.8858 199.287 45.2307 201.527 48.5525C202.042 48.5525 202.495 48.5525 202.97 48.5525C205.062 45.2173 207.143 41.9018 209.223 38.5872C209.279 38.6103 209.335 38.6343 209.391 38.6584C209.391 43.9878 209.391 49.3164 209.391 54.6983C210.318 54.6983 211.188 54.6983 212.114 54.6983C212.114 47.6256 212.114 40.5966 212.114 33.5177C211.238 33.5177 210.402 33.5177 209.515 33.5177C207.108 37.3291 204.702 41.1406 202.24 45.0411C199.632 41.1441 197.065 37.3113 194.534 33.531ZM220.336 49.693C220.28 49.6671 220.224 49.6404 220.168 49.6146C220.168 44.2531 220.168 38.8916 220.168 33.5141C219.226 33.5141 218.353 33.5141 217.456 33.5141C217.456 40.5984 217.456 47.6346 217.456 54.7072C218.286 54.7072 219.056 54.7072 219.867 54.7072C224.017 49.1837 228.161 43.6691 232.442 37.9702C232.442 43.6931 232.442 49.1668 232.442 54.7509C232.943 54.7509 233.396 54.7509 233.848 54.7509C234.299 54.7509 234.75 54.7509 235.226 54.7509C235.226 47.5936 235.226 40.5637 235.226 33.4999C234.28 33.4999 233.399 33.4999 232.488 33.4999C228.435 38.9005 224.385 44.2968 220.336 49.693ZM171.752 49.6992C171.694 49.6805 171.633 49.6609 171.574 49.6413C171.574 44.2585 171.574 38.8756 171.574 33.5435C170.6 33.5435 169.729 33.5435 168.871 33.5435C168.871 40.6251 168.871 47.631 168.871 54.6939C169.681 54.6939 170.448 54.6939 171.294 54.6939C175.421 49.1997 179.57 43.678 183.717 38.158C183.772 38.1758 183.827 38.1936 183.882 38.2123C183.882 43.7056 183.882 49.1988 183.882 54.66C184.878 54.66 185.778 54.66 186.658 54.66C186.658 47.5669 186.658 40.5645 186.658 33.515C185.725 33.515 184.85 33.515 183.892 33.515C179.826 38.9353 175.789 44.3172 171.752 49.6992ZM105.775 45.3135C106.195 49.498 108.098 52.6533 112.089 54.3093C113.691 54.9734 115.388 55.1835 117.104 55.0179C121.239 54.62 124.227 52.5803 125.798 48.6629C126.637 46.5724 126.833 44.384 126.444 42.16C125.733 38.0868 123.613 35.1007 119.584 33.8435C115.468 32.5588 111.694 33.2996 108.604 36.4424C106.531 38.5515 105.753 41.2198 105.769 44.1392C105.769 44.5309 105.736 44.9262 105.775 45.3135ZM109.387 40.5485C110.46 37.395 113.021 35.7016 116.398 35.7675C119.636 35.8307 122.035 37.6123 123.046 40.7542C123.797 43.0904 123.785 45.4497 123.005 47.7717C121.987 50.8023 119.43 52.5927 116.215 52.6141C112.996 52.6355 110.417 50.8887 109.388 47.8464C108.996 46.6855 108.855 45.4381 108.593 44.2015C108.855 42.9559 108.992 41.7086 109.387 40.5485ZM143.791 36.0106C143.791 42.2615 143.791 48.4634 143.791 54.6796C144.815 54.6796 145.716 54.6796 146.604 54.6796C146.604 47.5802 146.604 40.5548 146.604 33.5435C141.268 33.5435 136.001 33.5435 130.779 33.5435C130.779 40.6447 130.779 47.6693 130.779 54.6778C131.724 54.6778 132.592 54.6778 133.538 54.6778C133.538 48.4252 133.538 42.2455 133.538 36.0106C136.97 36.0106 140.32 36.0106 143.791 36.0106ZM291.79 50.8691C291.79 49.6369 291.79 48.4038 291.79 47.079C292.281 47.079 292.667 47.1119 293.046 47.0728C294.066 46.9686 295.105 46.9276 296.098 46.6953C299.438 45.9118 301.243 43.3468 301.063 39.7615C300.897 36.4451 298.801 34.067 295.482 33.6824C293.589 33.4625 291.662 33.5257 289.75 33.4714C289.481 33.4643 289.212 33.5141 288.963 33.5364C288.963 40.6322 288.963 47.6524 288.963 54.709C289.906 54.709 290.779 54.709 291.791 54.709C291.79 53.3513 291.79 52.1093 291.79 50.8691ZM291.845 35.8824C293.084 35.7577 294.269 35.788 295.429 36.1753C296.658 36.5866 297.567 37.3968 297.818 38.6628C298.014 39.6466 298.048 40.7097 297.906 41.7024C297.717 43.0289 296.817 43.9086 295.549 44.3395C294.363 44.7419 293.137 44.7971 291.845 44.6627C291.845 41.7202 291.845 38.8258 291.845 35.8824ZM249.112 43.2827C250.236 42.6408 251.035 41.746 251.393 40.4684C252.228 37.4867 250.659 34.611 247.644 33.686C245.837 33.1313 244.008 33.1589 242.181 33.5969C241.126 33.8498 240.07 34.1 239.137 34.7891C239.411 35.5254 239.665 36.2064 239.925 36.9027C240.447 36.6872 240.868 36.5029 241.297 36.34C242.648 35.8263 244.048 35.6616 245.479 35.8094C247.27 35.9946 248.434 37.0603 248.593 38.6237C248.787 40.5521 247.938 41.908 246.071 42.3817C245.121 42.6221 244.11 42.6256 243.125 42.7147C242.748 42.7485 242.366 42.72 241.959 42.72C241.959 43.5605 241.959 44.3208 241.959 45.1034C242.638 45.1034 243.243 45.0633 243.841 45.1132C244.791 45.1915 245.765 45.2227 246.679 45.4657C248.524 45.9554 249.373 47.387 249.091 49.2807C248.83 51.0284 247.648 52.1698 245.727 52.4672C243.868 52.7548 242.053 52.5527 240.292 51.884C240.012 51.7781 239.723 51.6926 239.382 51.5778C239.382 52.4592 239.382 53.2329 239.382 54.0689C241.602 55.0117 243.894 55.2379 246.252 54.9298C247.495 54.766 248.678 54.3956 249.707 53.6513C251.648 52.2446 252.358 50.2868 252.088 47.9613C251.819 45.6616 250.407 44.3796 248.123 43.8302C248.506 43.6183 248.811 43.4545 249.112 43.2827ZM310.676 52.948C311.465 51.9633 312.126 50.8397 312.659 49.6912C315.005 44.644 317.284 39.5638 319.585 34.4962C319.726 34.1836 319.851 33.864 320 33.5124C318.924 33.5124 317.939 33.5124 316.919 33.5124C315.185 37.5223 313.461 41.5092 311.654 45.6892C309.664 41.4931 307.77 37.5027 305.879 33.5159C304.829 33.5159 303.818 33.5159 302.699 33.5159C305.212 38.6165 307.685 43.6361 310.16 48.6593C309.114 50.797 308.183 53.0174 305.109 52.3879C305.109 53.2284 305.109 53.9647 305.109 54.7909C307.408 55.2726 309.249 54.7304 310.676 52.948ZM159.029 35.9411C161.281 35.9411 163.458 35.9411 165.623 35.9411C165.623 35.0553 165.623 34.2914 165.623 33.5284C160.396 33.5284 155.238 33.5284 150.065 33.5284C150.065 34.3573 150.065 35.1212 150.065 35.9856C152.096 35.9856 154.061 35.9856 156.138 35.9856C156.138 42.2864 156.138 48.4857 156.138 54.7063C157.127 54.7063 158.001 54.7063 159.029 54.7063C159.029 48.4118 159.029 42.2357 159.029 35.9411ZM282.803 51.405C281.864 51.4131 281.054 52.2606 281.073 53.2151C281.092 54.1864 281.912 55.0171 282.837 55.0046C283.762 54.9912 284.58 54.133 284.573 53.1812C284.565 52.2277 283.739 51.397 282.803 51.405Z" fill="#323130"/>
<path fill-rule="evenodd" clip-rule="evenodd" d="M168.431 60.4488C168.907 60.4488 169.317 60.4488 169.802 60.4488C169.919 61.1085 170.246 61.6142 171.015 61.6258C171.811 61.6391 172.067 61.0577 172.248 60.4265C172.677 60.4265 173.058 60.4265 173.507 60.4265C173.706 61.3142 173.35 61.9659 172.685 62.4306C171.702 63.117 170.622 63.1206 169.576 62.5873C168.754 62.168 168.402 61.4344 168.431 60.4488Z" fill="#1084C7"/>
</svg>
