<svg width="1440" height="682" viewBox="0 0 1440 682" xmlns="http://www.w3.org/2000/svg"><title>bg</title><defs><radialGradient cx="48.666%" cy="94.906%" fx="48.666%" fy="94.906%" r="77.552%" gradientTransform="matrix(0 1 -1.06046 0 1.493 .462)" id="a"><stop stop-color="#FFF" offset="0%"/><stop stop-color="#E2342A" stop-opacity="0" offset="100%"/></radialGradient><linearGradient x1="50%" y1="0%" x2="50%" y2="100%" id="b"><stop stop-color="#FFF" stop-opacity="0" offset="0%"/><stop stop-color="#FFF" offset="96.897%"/></linearGradient></defs><g fill="none" fill-rule="evenodd"><path fill="#E03632" d="M0 0h1440v657H0z"/><path fill="url(#a)" d="M82 0h1440v657H82z" transform="translate(-82)"/><path d="M-82 339.91s49.106-110.657 353.044-14.003c303.937 96.654 489.787 191.221 706.055 83.96 216.268-107.261 177.417-240.22 458.33-260.497 280.911-20.276 90.788 402.64 90.788 402.64l-957.214 99.653-623.238-90.411L-82 339.91z" fill="#D10602" opacity=".4" style="mix-blend-mode:multiply"/><path d="M39 559.986s573.668-400.142 1242.492-351.96c668.823 48.183 187.004 364.778 187.004 364.778l-1107.12 73.168L39 559.986z" fill="#E52929" opacity=".5" style="mix-blend-mode:multiply"/><path d="M0 490.724s219.157 131.169 512.992 131.169c293.834 0 769.528-133.235 927.495-184.855 157.967-51.62 10.986 244.732 0 244.732H.18" fill="#FFF"/><path fill="url(#b)" opacity=".7" style="mix-blend-mode:soft-light" transform="rotate(180 761 311)" d="M82 0h1440v622H82z"/></g></svg>