<svg width="18" height="18" viewBox="0 0 18 18" fill="none" xmlns="http://www.w3.org/2000/svg">
<path d="M9 9.5625V14.0625H3.375V9.5625H9ZM9 8.4375H3.375C3.07663 8.4375 2.79048 8.55603 2.5795 8.767C2.36853 8.97798 2.25 9.26413 2.25 9.5625V14.0625C2.25 14.3609 2.36853 14.647 2.5795 14.858C2.79048 15.069 3.07663 15.1875 3.375 15.1875H9C9.29837 15.1875 9.58452 15.069 9.7955 14.858C10.0065 14.647 10.125 14.3609 10.125 14.0625V9.5625C10.125 9.26413 10.0065 8.97798 9.7955 8.767C9.58452 8.55603 9.29837 8.4375 9 8.4375ZM15.1875 3.375V6.1875H9.5625V3.375H15.1875ZM15.1875 2.25H9.5625C9.26413 2.25 8.97798 2.36853 8.767 2.5795C8.55603 2.79048 8.4375 3.07663 8.4375 3.375V6.1875C8.4375 6.48587 8.55603 6.77202 8.767 6.983C8.97798 7.19397 9.26413 7.3125 9.5625 7.3125H15.1875C15.4859 7.3125 15.772 7.19397 15.983 6.983C16.194 6.77202 16.3125 6.48587 16.3125 6.1875V3.375C16.3125 3.07663 16.194 2.79048 15.983 2.5795C15.772 2.36853 15.4859 2.25 15.1875 2.25ZM15.1875 9.5625V12.375H12.375V9.5625H15.1875ZM15.1875 8.4375H12.375C12.0766 8.4375 11.7905 8.55603 11.5795 8.767C11.3685 8.97798 11.25 9.26413 11.25 9.5625V12.375C11.25 12.6734 11.3685 12.9595 11.5795 13.1705C11.7905 13.3815 12.0766 13.5 12.375 13.5H15.1875C15.4859 13.5 15.772 13.3815 15.983 13.1705C16.194 12.9595 16.3125 12.6734 16.3125 12.375V9.5625C16.3125 9.26413 16.194 8.97798 15.983 8.767C15.772 8.55603 15.4859 8.4375 15.1875 8.4375ZM6.1875 3.375V6.1875H3.375V3.375H6.1875ZM6.1875 2.25H3.375C3.07663 2.25 2.79048 2.36853 2.5795 2.5795C2.36853 2.79048 2.25 3.07663 2.25 3.375V6.1875C2.25 6.48587 2.36853 6.77202 2.5795 6.983C2.79048 7.19397 3.07663 7.3125 3.375 7.3125H6.1875C6.48587 7.3125 6.77202 7.19397 6.983 6.983C7.19397 6.77202 7.3125 6.48587 7.3125 6.1875V3.375C7.3125 3.07663 7.19397 2.79048 6.983 2.5795C6.77202 2.36853 6.48587 2.25 6.1875 2.25Z" fill="#E03632"/>
</svg>