<?xml version="1.0" encoding="utf-8"?><svg xmlns="http://www.w3.org/2000/svg" xmlns:xlink="http://www.w3.org/1999/xlink"><symbol fill="none" viewBox="0 0 16 16" id="icon-chain" xmlns="http://www.w3.org/2000/svg"><rect width="16" height="16" rx="2" fill="#AFBAC1"/><path d="M13.796 3.957a2.626 2.626 0 00-3.718 0l.621.622a1.754 1.754 0 112.48 2.48l-3.5 3.5A1.752 1.752 0 117.2 8.083l.617-.621-.617-.622-.621.622a2.625 2.625 0 000 3.719c.495.488 1.164.76 1.86.756a2.625 2.625 0 001.867-.77l3.5-3.5a2.625 2.625 0 00-.008-3.71z" fill="#fff" stroke="#fff" stroke-width=".3"/><path d="M2.832 11.859a1.75 1.75 0 010-2.48l3.5-3.5a1.75 1.75 0 012.481 0 1.724 1.724 0 01.499 1.246A1.75 1.75 0 018.8 8.372l-.928.94.622.622.927-.928a2.633 2.633 0 00-3.723-3.723l-3.5 3.5a2.625 2.625 0 000 3.723 2.625 2.625 0 001.864.744c.701 0 1.374-.276 1.872-.77l-.62-.621a1.75 1.75 0 01-2.482 0z" fill="#fff" stroke="#fff" stroke-width=".3"/></symbol><symbol fill="none" viewBox="0 0 120 120" id="icon-ellipse-load-speed1" xmlns="http://www.w3.org/2000/svg"><path d="M120 60c0 33.137-26.863 60-60 60S0 93.137 0 60 26.863 0 60 0s60 26.863 60 60zM15 60c0 24.853 20.147 45 45 45s45-20.147 45-45-20.147-45-45-45-45 20.147-45 45z" fill="#F1F1F1"/><path d="M120 60c0 33.137-26.863 60-60 60S0 93.137 0 60 26.863 0 60 0s60 26.863 60 60zM15 60c0 24.853 20.147 45 45 45s45-20.147 45-45-20.147-45-45-45-45 20.147-45 45z" fill="#F1F1F1"/><path d="M60 0a60 60 0 11-43.738 18.927l10.934 10.268A45 45 0 1060 15V0z" fill="#F6CC13"/></symbol><symbol fill="none" viewBox="0 0 120 120" id="icon-ellipse-load-speed2" xmlns="http://www.w3.org/2000/svg"><path d="M120 60c0 33.137-26.863 60-60 60S0 93.137 0 60 26.863 0 60 0s60 26.863 60 60zM15 60c0 24.853 20.147 45 45 45s45-20.147 45-45-20.147-45-45-45-45 20.147-45 45z" fill="#F1F1F1"/></symbol><symbol fill="none" viewBox="0 0 16 16" id="icon-export" xmlns="http://www.w3.org/2000/svg"><rect width="16" height="16" rx="2" fill="#697882"/><path d="M12.375 11.5v1.75h-8.75V11.5H2.75v1.75a.875.875 0 00.875.875h8.75a.875.875 0 00.875-.875V11.5h-.875z" fill="#fff" stroke="#fff" stroke-width=".3"/><path d="M3.625 6.25l.617.612 3.32-3.311v8.386h.875V3.552l3.321 3.311.617-.612L8 1.875 3.625 6.25z" fill="#fff" stroke="#fff" stroke-width=".3"/></symbol><symbol fill="none" viewBox="0 0 16 16" id="icon-heart-line" xmlns="http://www.w3.org/2000/svg"><rect width="16" height="16" rx="2" fill="#AFBAC1"/><path d="M6.25 13.688a.437.437 0 01-.402-.272L3.768 8.437H1.875v-.874h2.188a.437.437 0 01.402.27L6.25 12.06l3.526-9.463a.438.438 0 01.412-.284.438.438 0 01.406.297l1.659 4.953h1.872v.875h-2.188a.438.438 0 01-.415-.298l-1.335-4.078-3.526 9.341a.438.438 0 01-.411.284z" fill="#fff" stroke="#fff" stroke-width=".4"/></symbol><symbol fill="none" viewBox="0 0 16 16" id="icon-lock" xmlns="http://www.w3.org/2000/svg"><path d="M12 7h-1V4a3 3 0 00-6 0v3H4a1 1 0 00-1 1v6a1 1 0 001 1h8a1 1 0 001-1V8a1 1 0 00-1-1zM6 4a2 2 0 114 0v3H6V4zm6 10H4V8h8v6z" fill="#697882"/></symbol><symbol fill="none" viewBox="0 0 16 16" id="icon-mech-tool" xmlns="http://www.w3.org/2000/svg"><rect width="16" height="16" rx="2" fill="#AFBAC1"/><path d="M6.293 1.875a4.288 4.288 0 00-2.362.7l2.8 2.8a.919.919 0 01.087 1.313.919.919 0 01-1.312-.088L2.618 3.8a4.305 4.305 0 00-.743 2.494 4.436 4.436 0 004.418 4.419c.383.002.765-.042 1.138-.132l2.931 2.931a2.196 2.196 0 103.106-3.106l-2.93-2.931c.088-.372.133-.754.13-1.137a4.375 4.375 0 00-4.375-4.463zm3.5 4.419c0 .31-.044.62-.13.919l-.132.48.35.35 2.931 2.932a1.26 1.26 0 01.394.919 1.19 1.19 0 01-.394.918 1.27 1.27 0 01-1.837 0l-2.932-2.93-.35-.35-.48.13a3.33 3.33 0 01-.92.132A3.618 3.618 0 013.8 8.788a3.338 3.338 0 01-1.05-2.494c0-.325.044-.65.13-.963l1.926 1.925a1.811 1.811 0 002.581.088A1.812 1.812 0 007.3 4.763L5.375 2.838c.283-.09.578-.134.875-.132.93.003 1.822.363 2.493 1.007a3.714 3.714 0 011.05 2.58z" fill="#fff" stroke="#fff" stroke-width=".2"/></symbol><symbol fill="none" viewBox="0 0 16 16" id="icon-refresh" xmlns="http://www.w3.org/2000/svg"><path d="M6 5H3.39A5.5 5.5 0 0113.5 8h1A6.5 6.5 0 003 3.84V2H2v4h4V5zm4 6h2.61A5.5 5.5 0 012.5 8h-1A6.5 6.5 0 0013 12.16V14h1v-4h-4v1z" fill="#2E97DF"/></symbol><symbol viewBox="2 2 16 16" fill="none" id="icon-text" xmlns="http://www.w3.org/2000/svg"><rect x="2" y="2" width="16" height="16" rx="2" fill="#AFBAC1"/><path d="M14.675 8.125H11.55v1.25h3.125v1.25h-2.5a1.25 1.25 0 00-1.25 1.25v1.25a1.25 1.25 0 001.25 1.25h3.75v-5a1.25 1.25 0 00-1.25-1.25zm0 5h-2.5v-1.25h2.5v1.25zm-6.25-7.5h-2.5a1.25 1.25 0 00-1.25 1.25v7.5h1.25V11.25h2.5v3.125h1.25v-7.5a1.25 1.25 0 00-1.25-1.25zM5.925 10V6.875h2.5V10h-2.5z" fill="#fff" stroke="#fff" stroke-width=".1"/></symbol></svg>