<svg width="16" height="16" viewBox="0 0 16 16" fill="none" xmlns="http://www.w3.org/2000/svg">
<path d="M10.9629 0C8.17778 0 5.92593 2.25185 5.92593 5.03702C5.92593 5.62961 6.04444 6.22221 6.22221 6.8148L0 13.037V16H2.96296V14.2222H4.74074V12.4444H6.51852L9.18517 9.77779C9.71852 9.95555 10.3111 10.0741 10.9629 10.0741C13.7481 10.0741 16 7.82222 16 5.03705C16 2.25188 13.7481 0 10.9629 0ZM12.4444 5.33333C11.437 5.33333 10.6667 4.56298 10.6667 3.55556C10.6667 2.54813 11.437 1.77778 12.4444 1.77778C13.4519 1.77778 14.2222 2.54813 14.2222 3.55556C14.2222 4.56298 13.4519 5.33333 12.4444 5.33333Z" fill="#697882"/>
</svg>
