<svg width="15" height="15" viewBox="0 0 15 15" fill="none" xmlns="http://www.w3.org/2000/svg">
<path fill-rule="evenodd" clip-rule="evenodd" d="M14.6 3.13846C14.5385 2.95385 14.3231 2.92308 14.1692 3.04615L11.6769 5.53846C11.4923 5.72308 11.1846 5.72308 11 5.53846L9.24615 3.78462C9.06154 3.6 9.06154 3.29231 9.24615 3.10769L11.7692 0.615385C11.8923 0.492308 11.8308 0.276923 11.6769 0.184615C11.2462 0.0615385 10.7846 0 10.3538 0C7.73846 0 5.64615 2.24615 5.95385 4.92308C6.01538 5.35385 6.10769 5.72308 6.26154 6.09231L0.507692 11.8154C-0.169231 12.4923 -0.169231 13.6 0.507692 14.2462C0.846154 14.5846 1.30769 14.7692 1.73846 14.7692C2.16923 14.7692 2.63077 14.5846 2.96923 14.2462L8.69231 8.52308C9.06154 8.67692 9.46154 8.76923 9.86154 8.83077C12.5385 9.13846 14.7846 7.04615 14.7846 4.43077C14.7846 3.96923 14.7231 3.53846 14.6 3.13846Z" fill="#A8AAB7"/>
</svg>
