<svg width="16" height="16" viewBox="0 0 16 16" fill="none" xmlns="http://www.w3.org/2000/svg">
<path fill-rule="evenodd" clip-rule="evenodd" d="M14.3289 0H1.70344C0.768217 0 0 0.766667 0 1.7V14.2667C0 15.2333 0.768217 16 1.70344 16H14.2955C15.2307 16 15.999 15.2333 15.999 14.3V1.7C16.0324 0.766667 15.2641 0 14.3289 0ZM4.57591 12.5667C4.57591 12.8667 4.3087 13.1333 4.0081 13.1333H3.44028C3.13968 13.1333 2.87247 12.8667 2.87247 12.5667V9.43333C2.87247 9.13333 3.13968 8.86667 3.44028 8.86667H4.0081C4.3087 8.86667 4.57591 9.13333 4.57591 9.43333V12.5667ZM7.44836 12.5667C7.44836 12.8667 7.18115 13.1333 6.88055 13.1333H6.31273C6.01213 13.1333 5.74492 12.8667 5.74492 12.5667V5.13333C5.74492 4.83333 6.01213 4.56667 6.31273 4.56667H6.88055C7.18115 4.56667 7.44836 4.83333 7.44836 5.13333V12.5667ZM10.3208 12.5667C10.3208 12.8667 10.0536 13.1333 9.75301 13.1333H9.1852C8.8846 13.1333 8.61739 12.8667 8.61739 12.5667V3.43334C8.61739 3.13334 8.8846 2.86667 9.1852 2.86667H9.75301C10.0536 2.86667 10.3208 3.13334 10.3208 3.43334V12.5667ZM13.1599 12.5667C13.1599 12.8667 12.8927 13.1333 12.5921 13.1333H12.0243C11.7237 13.1333 11.4565 12.8667 11.4565 12.5667V7.13333C11.4565 6.83333 11.7237 6.56667 12.0243 6.56667H12.5921C12.8927 6.56667 13.1599 6.83333 13.1599 7.13333V12.5667Z" fill="#697882"/>
</svg>
