<svg width="15" height="15" viewBox="0 0 15 15" fill="none" xmlns="http://www.w3.org/2000/svg">
<path fill-rule="evenodd" clip-rule="evenodd" d="M7.76493 12.1951L7.11808 12.1025C7.11808 12.1025 6.68685 12.0099 6.47124 11.9173C6.34803 11.8864 6.19402 11.9173 6.10161 12.0099L5.9476 12.1642C5.05433 13.0594 3.60663 13.152 2.68257 12.3494C1.63529 11.4543 1.60449 9.84922 2.55936 8.89236L4.90032 6.5465C5.20834 6.23783 5.57797 6.05263 5.9476 5.92917C6.44043 5.8057 6.96407 5.83657 7.4261 6.02177C7.70332 6.14523 7.98054 6.29957 8.22696 6.5465C8.35017 6.66996 8.44258 6.79343 8.53498 6.94776C8.65819 7.16383 8.93541 7.1947 9.08942 7.0095L9.95188 6.14523C10.0751 6.02177 10.0751 5.83657 9.98269 5.68223C9.85948 5.49703 9.70547 5.3427 9.55145 5.18837C9.33584 4.9723 9.08942 4.75624 8.8122 4.6019C8.38097 4.3241 7.88814 4.1389 7.3645 4.0463C6.40963 3.8611 5.36236 4.01544 4.49989 4.47844C4.16107 4.66364 3.82225 4.91057 3.54503 5.18837L1.29647 7.44163C-0.33605 9.07756 -0.459259 11.7321 1.11165 13.3989C2.74417 15.1891 5.51637 15.22 7.21049 13.5223L7.98054 12.7507C8.19616 12.5964 8.04215 12.226 7.76493 12.1951V12.1951ZM13.4325 1.11398C11.7384 -0.460219 9.08942 -0.336753 7.48771 1.29918L6.77926 1.97824C6.56364 2.19431 6.71765 2.56471 6.99487 2.59557C7.4261 2.62644 7.85733 2.71904 8.28856 2.84251C8.41177 2.87337 8.56578 2.84251 8.65819 2.74991L8.8122 2.59557C9.70546 1.70044 11.1532 1.60784 12.0772 2.41037C13.1245 3.30551 13.1553 4.91057 12.2004 5.86743L9.85948 8.21329C9.55145 8.52196 9.18183 8.70716 8.8122 8.83063C8.31937 8.95409 7.79573 8.92323 7.3337 8.73803C7.05648 8.61456 6.77926 8.46023 6.53284 8.21329C6.40963 8.08983 6.31722 7.96636 6.22482 7.81203C6.10161 7.59596 5.82439 7.5651 5.67038 7.7503L4.80792 8.61456C4.68471 8.73803 4.68471 8.92323 4.77711 9.07756C4.90032 9.26276 5.05433 9.41709 5.20835 9.57143C5.42396 9.78749 5.70118 10.0036 5.9476 10.1579C6.37883 10.4357 6.87166 10.6209 7.3645 10.7135C8.31937 10.8987 9.36664 10.7444 10.2291 10.2814C10.5679 10.0962 10.9067 9.84922 11.184 9.57143L13.5249 7.22556C15.2499 5.5279 15.1883 2.74991 13.4325 1.11398V1.11398Z" fill="#A8AAB7"/>
</svg>
