<svg width="16" height="16" viewBox="0 0 16 16" fill="none" xmlns="http://www.w3.org/2000/svg">
<path fill-rule="evenodd" clip-rule="evenodd" d="M16 0.909089V2C16 2.29091 15.7667 2.54545 15.5 2.54545H6.50001C6.23334 2.54545 6.00001 2.29091 6.00001 2V0.909089C6.00001 0.618179 6.23334 0.363634 6.50001 0.363634H15.5C15.7667 0.363634 16 0.618179 16 0.909089ZM6.50001 6.18182H12.5C12.7667 6.18182 13 5.92728 13 5.63637V4.54546C13 4.25455 12.7667 4.00001 12.5 4.00001H6.50001C6.23334 4.00001 6.00001 4.25455 6.00001 4.54546V5.63637C6.00001 5.92728 6.23334 6.18182 6.50001 6.18182ZM15.5 9.45455H6.50001C6.23334 9.45455 6.00001 9.70909 6.00001 10V11.0909C6.00001 11.3818 6.23334 11.6364 6.50001 11.6364H15.5C15.7667 11.6364 16 11.3818 16 11.0909V10C16 9.70909 15.7667 9.45455 15.5 9.45455ZM12.5 13.0909H6.50001C6.23334 13.0909 6.00001 13.3455 6.00001 13.6364V14.7273C6.00001 15.0182 6.23334 15.2727 6.50001 15.2727H12.5C12.7667 15.2727 13 15.0182 13 14.7273V13.6364C13 13.3455 12.7667 13.0909 12.5 13.0909ZM0.5 1.45455H1.33333V6C1.33333 6.29091 1.56667 6.54546 1.83333 6.54546H2.16667C2.43333 6.54546 2.66667 6.29091 2.66667 6V0.727273C2.66667 0.327273 2.36667 0 2 0H0.5C0.233333 0 0 0.254545 0 0.545455V0.909091C0 1.2 0.233333 1.45455 0.5 1.45455ZM3.33333 8.72728H0.5C0.233333 8.72728 0 8.98183 0 9.27273V9.63637C0 9.92728 0.233333 10.1818 0.5 10.1818H2.66667V11.6364H0.666667C0.3 11.6364 0 11.9636 0 12.3636V15.2727C0 15.6727 0.3 16 0.666667 16H3.5C3.76667 16 4 15.7455 4 15.4546V15.0909C4 14.8 3.76667 14.5455 3.5 14.5455H1.33333V13.0909H3.33333C3.7 13.0909 4 12.7636 4 12.3636V9.45455C4 9.05455 3.7 8.72728 3.33333 8.72728Z" fill="#697882"/>
</svg>
