<svg width="15" height="15" viewBox="0 0 15 15" fill="none" xmlns="http://www.w3.org/2000/svg">
<path fill-rule="evenodd" clip-rule="evenodd" d="M7.3587 4.02797L8.80356 7.38462H5.77943L7.08989 4.02797H7.3587ZM14.7846 1.34266V13.4266C14.7846 14.165 14.1798 14.7692 13.4406 14.7692H1.34406C0.604825 14.7692 0 14.165 0 13.4266V1.34266C0 0.604196 0.604825 0 1.34406 0H13.4406C14.1798 0 14.7846 0.604196 14.7846 1.34266ZM12.9365 12.3189L8.90438 2.34965C8.80357 2.14825 8.63556 2.01398 8.40035 2.01398H6.01465C5.81305 2.01398 5.61144 2.14825 5.54423 2.34965L1.84808 12.3189C1.78088 12.5203 1.91528 12.7552 2.15049 12.7552H3.52815C3.72976 12.7552 3.93137 12.5874 3.99857 12.386L5.07382 9.3986H9.5764L10.7525 12.386C10.8197 12.5874 11.0213 12.7552 11.2229 12.7552H12.6005C12.8357 12.7552 13.0037 12.5203 12.9365 12.3189Z" fill="#A8AAB7"/>
</svg>
