<svg width="6" height="9" viewBox="0 0 6 9" fill="none" xmlns="http://www.w3.org/2000/svg">
<path d="M4.75 8.28613C4.8125 8.28613 4.88281 8.25488 4.92969 8.20801L5.32031 7.81738C5.36719 7.77051 5.39844 7.7002 5.39844 7.6377C5.39844 7.5752 5.36719 7.50488 5.32031 7.45801L2.25 4.3877L5.32031 1.31738C5.36719 1.27051 5.39844 1.2002 5.39844 1.1377C5.39844 1.06738 5.36719 1.00488 5.32031 0.958008L4.92969 0.567383C4.88281 0.520508 4.8125 0.489258 4.75 0.489258C4.6875 0.489258 4.61719 0.520508 4.57031 0.567383L0.929688 4.20801C0.882813 4.25488 0.851563 4.3252 0.851563 4.3877C0.851563 4.4502 0.882813 4.52051 0.929688 4.56738L4.57031 8.20801C4.61719 8.25488 4.6875 8.28613 4.75 8.28613Z" fill="white"/>
</svg>
