<svg width="14" height="14" viewBox="0 0 14 14" fill="none" xmlns="http://www.w3.org/2000/svg">
<path fill-rule="evenodd" clip-rule="evenodd" d="M12.0114 1.6982H10.6193V1.14138C10.6193 0.695925 10.2574 0.306152 9.78409 0.306152C9.33864 0.306152 8.94886 0.668084 8.94886 1.14138V1.6982H5.05114V1.14138C5.05114 0.695925 4.6892 0.306152 4.21591 0.306152C3.77045 0.306152 3.38068 0.668084 3.38068 1.14138V1.6982H1.98864C1.37614 1.6982 0.875 2.19933 0.875 2.81183V3.50786C0.875 3.73058 1.06989 3.92547 1.29261 3.92547H12.7074C12.9301 3.92547 13.125 3.73058 13.125 3.50786V2.81183C13.125 2.19933 12.6239 1.6982 12.0114 1.6982ZM12.7074 5.31763H1.29261C1.06989 5.31763 0.875 5.51252 0.875 5.73524V12.5563C0.875 13.1688 1.37614 13.6699 1.98864 13.6699H12.0114C12.6239 13.6699 13.125 13.1688 13.125 12.5563V5.73524C13.125 5.51252 12.9301 5.31763 12.7074 5.31763ZM8.89306 7.96247L7.13908 11.6932C7.05556 11.888 6.86067 11.9994 6.63795 11.9994C6.3317 11.9994 6.10897 11.7488 6.10897 11.4983C6.10897 11.4426 6.13681 11.3591 6.16465 11.2755L7.64022 8.10168H5.52431C5.27374 8.10168 5.05101 7.93463 5.05101 7.68407C5.05101 7.46134 5.27374 7.26645 5.52431 7.26645H8.41976C8.69817 7.26645 8.94874 7.48918 8.94874 7.76759C8.94874 7.85111 8.9209 7.90679 8.89306 7.96247Z" fill="#2E97DF"/>
</svg>
