<svg width="16" height="16" viewBox="0 0 16 16" fill="none" xmlns="http://www.w3.org/2000/svg"><path d="M13 2.01514H11V1.01514H10V2.01514H6V1.01514H5V2.01514H3C2.73478 2.01514 2.48043 2.12049 2.29289 2.30803C2.10536 2.49557 2 2.74992 2 3.01514V13.0151C2 13.2804 2.10536 13.5347 2.29289 13.7222C2.48043 13.9098 2.73478 14.0151 3 14.0151H13C13.2652 14.0151 13.5196 13.9098 13.7071 13.7222C13.8946 13.5347 14 13.2804 14 13.0151V3.01514C14 2.74992 13.8946 2.49557 13.7071 2.30803C13.5196 2.12049 13.2652 2.01514 13 2.01514ZM13 13.0151H3V6.01514H13V13.0151ZM13 5.01514H3V3.01514H5V4.01514H6V3.01514H10V4.01514H11V3.01514H13V5.01514Z" fill="#2E97DF"/><path d="M8.22 12H7.22L8.5 8H7.5V8.5H6.5V7H9.5V8L8.22 12Z" fill="#2E97DF"/></svg>