<svg width="110" height="110" viewBox="0 0 110 110" fill="none" xmlns="http://www.w3.org/2000/svg">
<circle cx="55" cy="55" r="54.25" fill="white" stroke="#E1E4E6" stroke-width="1.5"/>
<mask id="path-2-inside-1" fill="white">
<path fill-rule="evenodd" clip-rule="evenodd" d="M73.1182 35.5844C72.6294 35.3469 72.1076 35.1144 71.569 34.8852C71.569 34.8852 68.3042 33.5751 66.1233 33.0381C62.9505 32.257 61.0802 32.0862 57.8122 32.0633C55.3229 32.0459 53.9184 32.1829 51.4566 32.5507C48.9323 32.9279 45.0818 33.9892 45.0818 33.9892C44.3039 34.2825 43.5405 34.6075 42.7889 34.956C39.7907 32.2217 35.0884 31.8793 33.0969 31.8682C31.8928 31.8621 30.8626 32.7291 30.6669 33.9134C30.4868 35.0609 30.4141 36.2228 30.4504 37.3837C29.4701 37.4378 28.4947 37.5599 27.5305 37.7489C26.346 37.9786 25.5049 39.0324 25.5468 40.2351C25.5972 42.6204 26.2191 44.9589 27.36 47.0559C27.2207 47.2109 27.0798 47.3642 26.9416 47.5187C26.1615 48.3863 25.3539 49.2829 24.5301 50.112C22.9507 51.3191 21.042 52.0211 19.0544 52.1254C18.0136 52.2664 17.0774 52.8312 16.4695 53.6849C15.861 54.5391 15.6345 55.6057 15.8437 56.6322L17.8301 66.596C17.9806 67.4363 18.7882 68.1015 20.2271 69.0321L20.3983 69.1441C21.4788 69.84 22.6409 70.4003 23.8595 70.8113C24.628 71.0845 25.3779 71.4073 26.105 71.7775C27.7777 72.6791 29.2296 73.9398 30.3554 75.4681C30.5584 75.7519 30.7743 76.0235 31.0125 76.3C33.1718 78.5431 35.9441 80.1043 38.9859 80.7896V83.026C38.9859 85.0439 40.6268 86.6798 42.6507 86.6798H51.203C53.2269 86.6798 54.8684 85.0439 54.8684 83.026V82.871L54.9929 82.8768L54.9935 82.8768C55.974 82.9223 56.954 82.9677 57.9432 83.0004C58.503 83.0199 59.06 83.0282 59.6109 83.0282C60.4906 83.0282 61.3491 82.9965 62.1986 82.9491V83.026C62.1986 85.0439 63.8395 86.6798 65.8634 86.6798H74.4157C76.4402 86.6798 78.0811 85.0439 78.0811 83.026V78.3084C84.5556 74.387 88.6707 67.5311 89.0761 59.9894C89.5465 50.0512 83.2816 40.4699 73.1182 35.5844ZM40.3941 36.1816C38.1778 34.9003 35.651 34.2513 33.0896 34.3042C32.9185 35.3329 32.8525 36.3762 32.8927 37.4177C34.2724 37.5164 35.6231 37.8576 36.8831 38.4264C38.0525 37.6028 39.2286 36.8417 40.3941 36.1816ZM31.7032 39.7868C30.4616 39.7785 29.2223 39.8956 28.0048 40.1364H27.9914C28.2855 46.1716 31.3509 48.921 34.0756 48.921C35.9692 48.9026 37.722 47.9185 38.7191 46.3132C39.2946 44.9645 39.006 43.4038 37.9865 42.3483C36.4508 40.6076 34.1992 39.6653 31.8777 39.7902C31.8396 39.798 31.7848 39.798 31.7641 39.798C31.7539 39.798 31.7443 39.7953 31.7345 39.7925C31.7244 39.7897 31.7142 39.7868 31.7032 39.7868ZM78.0173 75.4057C83.1278 71.8205 86.3039 66.0948 86.6327 59.8734C87.0594 50.9138 81.3354 42.2402 72.0517 37.7723C71.4835 37.4969 70.8705 37.2304 70.2274 36.9633C70.2274 36.9633 67.4565 36.0178 65.6344 35.5844C62.6344 34.8709 60.8954 34.5765 57.8122 34.5004C55.4216 34.4414 54.0648 34.5245 51.701 34.8852C49.5462 35.2141 46.2697 36.1693 46.2697 36.1693C44.6932 36.7358 43.1647 37.4283 41.7005 38.2401C40.8208 38.7347 39.9327 39.3006 39.0441 39.8989C39.3707 40.2 39.6704 40.5284 39.94 40.8808C41.5261 42.6712 41.9058 45.2248 40.9097 47.3971C39.5004 49.8354 36.8982 51.3431 34.0756 51.357C32.0947 51.3124 30.2156 50.4738 28.8627 49.0303L28.7609 49.144C27.9623 50.0306 27.1335 50.95 26.2677 51.8232C24.5569 53.5421 21.5761 54.2475 19.3771 54.5357C19.0102 54.5848 18.6808 54.7839 18.4683 55.0855C18.2462 55.3922 18.164 55.7775 18.2406 56.1477L20.1953 65.9821C20.6136 66.3619 21.07 66.6981 21.5565 66.9858L21.7774 67.1307C22.7013 67.7145 23.6923 68.1851 24.7292 68.5314C25.5949 68.8414 26.4394 69.2071 27.2571 69.6276C29.2559 70.7025 30.9896 72.2074 32.3335 74.0329C32.5057 74.2732 32.6791 74.4896 32.8648 74.7054C34.5258 76.4428 36.6487 77.6716 38.9859 78.2476V76.9356C38.9859 76.2632 39.5328 75.7174 40.2073 75.7174C40.8823 75.7174 41.4293 76.2632 41.4293 76.9356V83.026C41.4293 83.6984 41.9763 84.2437 42.6507 84.2437H51.203C51.8774 84.2437 52.4244 83.6984 52.4244 83.026V79.3717C52.4244 78.6992 52.9713 78.1539 53.6464 78.1539C54.3208 78.1539 54.8684 78.6992 54.8684 79.3717V80.4339C55.9175 80.4824 56.9656 80.5303 58.0237 80.5654C59.4543 80.6201 60.8446 80.5788 62.1986 80.4985V79.3717C62.1986 78.6992 62.7456 78.1539 63.42 78.1539C64.0951 78.1539 64.642 78.6992 64.642 79.3717V83.026C64.642 83.6984 65.189 84.2437 65.8634 84.2437H74.4157C75.0907 84.2437 75.6376 83.6984 75.6376 83.026V75.7174C75.6376 75.0449 76.1846 74.4996 76.8591 74.4996C77.4072 74.5041 77.8831 74.8765 78.0173 75.4057Z"/>
</mask>
<path fill-rule="evenodd" clip-rule="evenodd" d="M73.1182 35.5844C72.6294 35.3469 72.1076 35.1144 71.569 34.8852C71.569 34.8852 68.3042 33.5751 66.1233 33.0381C62.9505 32.257 61.0802 32.0862 57.8122 32.0633C55.3229 32.0459 53.9184 32.1829 51.4566 32.5507C48.9323 32.9279 45.0818 33.9892 45.0818 33.9892C44.3039 34.2825 43.5405 34.6075 42.7889 34.956C39.7907 32.2217 35.0884 31.8793 33.0969 31.8682C31.8928 31.8621 30.8626 32.7291 30.6669 33.9134C30.4868 35.0609 30.4141 36.2228 30.4504 37.3837C29.4701 37.4378 28.4947 37.5599 27.5305 37.7489C26.346 37.9786 25.5049 39.0324 25.5468 40.2351C25.5972 42.6204 26.2191 44.9589 27.36 47.0559C27.2207 47.2109 27.0798 47.3642 26.9416 47.5187C26.1615 48.3863 25.3539 49.2829 24.5301 50.112C22.9507 51.3191 21.042 52.0211 19.0544 52.1254C18.0136 52.2664 17.0774 52.8312 16.4695 53.6849C15.861 54.5391 15.6345 55.6057 15.8437 56.6322L17.8301 66.596C17.9806 67.4363 18.7882 68.1015 20.2271 69.0321L20.3983 69.1441C21.4788 69.84 22.6409 70.4003 23.8595 70.8113C24.628 71.0845 25.3779 71.4073 26.105 71.7775C27.7777 72.6791 29.2296 73.9398 30.3554 75.4681C30.5584 75.7519 30.7743 76.0235 31.0125 76.3C33.1718 78.5431 35.9441 80.1043 38.9859 80.7896V83.026C38.9859 85.0439 40.6268 86.6798 42.6507 86.6798H51.203C53.2269 86.6798 54.8684 85.0439 54.8684 83.026V82.871L54.9929 82.8768L54.9935 82.8768C55.974 82.9223 56.954 82.9677 57.9432 83.0004C58.503 83.0199 59.06 83.0282 59.6109 83.0282C60.4906 83.0282 61.3491 82.9965 62.1986 82.9491V83.026C62.1986 85.0439 63.8395 86.6798 65.8634 86.6798H74.4157C76.4402 86.6798 78.0811 85.0439 78.0811 83.026V78.3084C84.5556 74.387 88.6707 67.5311 89.0761 59.9894C89.5465 50.0512 83.2816 40.4699 73.1182 35.5844ZM40.3941 36.1816C38.1778 34.9003 35.651 34.2513 33.0896 34.3042C32.9185 35.3329 32.8525 36.3762 32.8927 37.4177C34.2724 37.5164 35.6231 37.8576 36.8831 38.4264C38.0525 37.6028 39.2286 36.8417 40.3941 36.1816ZM31.7032 39.7868C30.4616 39.7785 29.2223 39.8956 28.0048 40.1364H27.9914C28.2855 46.1716 31.3509 48.921 34.0756 48.921C35.9692 48.9026 37.722 47.9185 38.7191 46.3132C39.2946 44.9645 39.006 43.4038 37.9865 42.3483C36.4508 40.6076 34.1992 39.6653 31.8777 39.7902C31.8396 39.798 31.7848 39.798 31.7641 39.798C31.7539 39.798 31.7443 39.7953 31.7345 39.7925C31.7244 39.7897 31.7142 39.7868 31.7032 39.7868ZM78.0173 75.4057C83.1278 71.8205 86.3039 66.0948 86.6327 59.8734C87.0594 50.9138 81.3354 42.2402 72.0517 37.7723C71.4835 37.4969 70.8705 37.2304 70.2274 36.9633C70.2274 36.9633 67.4565 36.0178 65.6344 35.5844C62.6344 34.8709 60.8954 34.5765 57.8122 34.5004C55.4216 34.4414 54.0648 34.5245 51.701 34.8852C49.5462 35.2141 46.2697 36.1693 46.2697 36.1693C44.6932 36.7358 43.1647 37.4283 41.7005 38.2401C40.8208 38.7347 39.9327 39.3006 39.0441 39.8989C39.3707 40.2 39.6704 40.5284 39.94 40.8808C41.5261 42.6712 41.9058 45.2248 40.9097 47.3971C39.5004 49.8354 36.8982 51.3431 34.0756 51.357C32.0947 51.3124 30.2156 50.4738 28.8627 49.0303L28.7609 49.144C27.9623 50.0306 27.1335 50.95 26.2677 51.8232C24.5569 53.5421 21.5761 54.2475 19.3771 54.5357C19.0102 54.5848 18.6808 54.7839 18.4683 55.0855C18.2462 55.3922 18.164 55.7775 18.2406 56.1477L20.1953 65.9821C20.6136 66.3619 21.07 66.6981 21.5565 66.9858L21.7774 67.1307C22.7013 67.7145 23.6923 68.1851 24.7292 68.5314C25.5949 68.8414 26.4394 69.2071 27.2571 69.6276C29.2559 70.7025 30.9896 72.2074 32.3335 74.0329C32.5057 74.2732 32.6791 74.4896 32.8648 74.7054C34.5258 76.4428 36.6487 77.6716 38.9859 78.2476V76.9356C38.9859 76.2632 39.5328 75.7174 40.2073 75.7174C40.8823 75.7174 41.4293 76.2632 41.4293 76.9356V83.026C41.4293 83.6984 41.9763 84.2437 42.6507 84.2437H51.203C51.8774 84.2437 52.4244 83.6984 52.4244 83.026V79.3717C52.4244 78.6992 52.9713 78.1539 53.6464 78.1539C54.3208 78.1539 54.8684 78.6992 54.8684 79.3717V80.4339C55.9175 80.4824 56.9656 80.5303 58.0237 80.5654C59.4543 80.6201 60.8446 80.5788 62.1986 80.4985V79.3717C62.1986 78.6992 62.7456 78.1539 63.42 78.1539C64.0951 78.1539 64.642 78.6992 64.642 79.3717V83.026C64.642 83.6984 65.189 84.2437 65.8634 84.2437H74.4157C75.0907 84.2437 75.6376 83.6984 75.6376 83.026V75.7174C75.6376 75.0449 76.1846 74.4996 76.8591 74.4996C77.4072 74.5041 77.8831 74.8765 78.0173 75.4057Z" fill="#AFBAC1"/>
<path d="M54.8591 83.0708C54.9006 83.0727 54.9421 83.0746 54.9836 83.0766L55.0022 82.677C54.9607 82.6751 54.9191 82.6731 54.8776 82.6712L54.8591 83.0708ZM73.1182 35.5844L72.9433 35.9442L72.9449 35.9449L73.1182 35.5844ZM71.569 34.8852L71.7257 34.5171L71.718 34.514L71.569 34.8852ZM45.0818 33.9892L44.9756 33.6036L44.9579 33.6084L44.9407 33.6149L45.0818 33.9892ZM42.7889 34.956L42.5193 35.2516L42.7158 35.4308L42.9571 35.3189L42.7889 34.956ZM33.0969 31.8682L33.0991 31.4682L33.0989 31.4682L33.0969 31.8682ZM30.6669 33.9134L30.2722 33.8481L30.2717 33.8514L30.6669 33.9134ZM30.4504 37.3837L30.4725 37.7831L30.8625 37.7616L30.8502 37.3712L30.4504 37.3837ZM27.5305 37.7489L27.6067 38.1416L27.6075 38.1414L27.5305 37.7489ZM25.5468 40.2351L25.9468 40.2267L25.9466 40.2212L25.5468 40.2351ZM27.36 47.0559L27.6575 47.3232L27.8464 47.113L27.7113 46.8647L27.36 47.0559ZM26.9416 47.5187L27.2391 47.7862L27.2398 47.7854L26.9416 47.5187ZM24.5301 50.112L24.773 50.4298L24.7947 50.4132L24.8139 50.3939L24.5301 50.112ZM19.0544 52.1254L19.0334 51.7259L19.017 51.7268L19.0006 51.729L19.0544 52.1254ZM16.4695 53.6849L16.7953 53.917L16.7953 53.9169L16.4695 53.6849ZM15.8437 56.6322L16.2359 56.554L16.2356 56.5523L15.8437 56.6322ZM17.8301 66.596L18.224 66.5255L18.2224 66.5178L17.8301 66.596ZM20.2271 69.0321L20.4463 68.6974L20.4444 68.6962L20.2271 69.0321ZM20.3983 69.1441L20.1791 69.4788L20.1817 69.4804L20.3983 69.1441ZM23.8595 70.8113L23.9936 70.4343L23.9874 70.4322L23.8595 70.8113ZM26.105 71.7775L26.2948 71.4253L26.2865 71.4211L26.105 71.7775ZM30.3554 75.4681L30.6807 75.2354L30.6774 75.2309L30.3554 75.4681ZM31.0125 76.3L30.7094 76.5611L30.7167 76.5695L30.7243 76.5774L31.0125 76.3ZM38.9859 80.7896H39.3859V80.4697L39.0738 80.3994L38.9859 80.7896ZM54.8684 82.871L54.8869 82.4714L54.4684 82.452V82.871H54.8684ZM57.9432 83.0004L57.9571 82.6006L57.9564 82.6006L57.9432 83.0004ZM62.1986 82.9491H62.5986V82.5261L62.1763 82.5497L62.1986 82.9491ZM78.0811 78.3084L77.8738 77.9662L77.6811 78.083V78.3084H78.0811ZM89.0761 59.9894L89.4756 60.0108L89.4757 60.0083L89.0761 59.9894ZM33.0896 34.3042L33.0813 33.9043L32.7495 33.9112L32.695 34.2386L33.0896 34.3042ZM40.3941 36.1816L40.5913 36.5296L41.1995 36.1851L40.5943 35.8353L40.3941 36.1816ZM36.8831 38.4264L36.7185 38.7909L36.9267 38.8849L37.1134 38.7534L36.8831 38.4264ZM32.8927 37.4177L32.493 37.4332L32.5069 37.7911L32.8642 37.8167L32.8927 37.4177ZM28.0048 40.1364V40.5364H28.044L28.0824 40.5288L28.0048 40.1364ZM31.7032 39.7868L31.7005 40.1868H31.7032V39.7868ZM31.8777 39.7902L31.8562 39.3908L31.8264 39.3924L31.7973 39.3984L31.8777 39.7902ZM37.9865 42.3483L37.6865 42.613L37.6925 42.6197L37.6988 42.6262L37.9865 42.3483ZM38.7191 46.3132L39.0589 46.5243L39.075 46.4983L39.087 46.4702L38.7191 46.3132ZM34.0756 48.921V49.321L34.0795 49.321L34.0756 48.921ZM27.9914 40.1364V39.7364H27.5714L27.5918 40.1559L27.9914 40.1364ZM86.6327 59.8734L87.0322 59.8945L87.0323 59.8924L86.6327 59.8734ZM78.0173 75.4057L77.6296 75.504L77.7722 76.0662L78.247 75.7331L78.0173 75.4057ZM76.8591 74.4996L76.8623 74.0996H76.8591V74.4996ZM62.1986 80.4985L62.2223 80.8978L62.5986 80.8755V80.4985H62.1986ZM58.0237 80.5654L58.039 80.1657L58.037 80.1657L58.0237 80.5654ZM54.8684 80.4339H54.4684V80.8158L54.8499 80.8334L54.8684 80.4339ZM38.9859 78.2476L38.8902 78.636L39.3859 78.7582V78.2476H38.9859ZM32.8648 74.7054L32.5616 74.9663L32.5684 74.9742L32.5756 74.9818L32.8648 74.7054ZM32.3335 74.0329L32.6586 73.7999L32.6556 73.7958L32.3335 74.0329ZM27.2571 69.6276L27.4466 69.2752L27.44 69.2718L27.2571 69.6276ZM24.7292 68.5314L24.8641 68.1547L24.8559 68.152L24.7292 68.5314ZM21.7774 67.1307L21.5579 67.4652L21.5638 67.4689L21.7774 67.1307ZM21.5565 66.9858L21.776 66.6513L21.7681 66.6462L21.7601 66.6415L21.5565 66.9858ZM20.1953 65.9821L19.8029 66.0601L19.8287 66.1896L19.9264 66.2783L20.1953 65.9821ZM18.2406 56.1477L18.633 56.0697L18.6323 56.0666L18.2406 56.1477ZM18.4683 55.0855L18.7923 55.3201L18.7953 55.3159L18.4683 55.0855ZM19.3771 54.5357L19.3251 54.1391L19.324 54.1393L19.3771 54.5357ZM26.2677 51.8232L26.5512 52.1053L26.5518 52.1048L26.2677 51.8232ZM28.7609 49.144L29.0581 49.4117L29.059 49.4108L28.7609 49.144ZM28.8627 49.0303L29.1546 48.7567L28.8559 48.438L28.5646 48.7635L28.8627 49.0303ZM34.0756 51.357L34.0666 51.7571L34.0776 51.757L34.0756 51.357ZM40.9097 47.3971L41.2561 47.5973L41.2655 47.581L41.2733 47.5639L40.9097 47.3971ZM39.94 40.8808L39.6223 41.1238L39.631 41.1353L39.6406 41.146L39.94 40.8808ZM39.0441 39.8989L38.8207 39.5671L38.4007 39.8498L38.7729 40.193L39.0441 39.8989ZM41.7005 38.2401L41.5066 37.8903L41.5045 37.8915L41.7005 38.2401ZM46.2697 36.1693L46.1578 35.7853L46.146 35.7887L46.1345 35.7929L46.2697 36.1693ZM70.2274 36.9633L70.3808 36.5939L70.3688 36.5889L70.3565 36.5847L70.2274 36.9633ZM72.0517 37.7723L71.8772 38.1323L71.8782 38.1328L72.0517 37.7723ZM54.9929 82.8768L54.9744 83.2764L54.977 83.2765L54.9929 82.8768ZM57.8122 32.0633L57.8094 32.4633L57.8122 32.0633ZM51.4566 32.5507L51.3975 32.1551L51.4566 32.5507ZM66.1233 33.0381L66.2189 32.6497L66.1233 33.0381ZM51.701 34.8852L51.6407 34.4898L51.701 34.8852ZM57.8122 34.5004L57.8023 34.9003L57.8122 34.5004ZM65.6344 35.5844L65.5418 35.9736L65.6344 35.5844ZM54.9935 82.8768L55.012 82.4772L55.0094 82.4771L54.9935 82.8768ZM31.7345 39.7925L31.8427 39.4074L31.8426 39.4074L31.7345 39.7925ZM73.293 35.2246C72.7962 34.9832 72.2679 34.7479 71.7256 34.5172L71.4124 35.2533C71.9473 35.4809 72.4625 35.7105 72.9433 35.9442L73.293 35.2246ZM44.9407 33.6149C44.1524 33.9121 43.3799 34.2411 42.6206 34.5931L42.9571 35.3189C43.7012 34.974 44.4554 34.6528 45.2229 34.3635L44.9407 33.6149ZM43.0584 34.6605C41.4908 33.2308 39.4938 32.4393 37.6581 32.0018C35.8194 31.5636 34.1133 31.4739 33.0991 31.4682L33.0946 32.2682C34.072 32.2737 35.7128 32.3606 37.4726 32.78C39.2355 33.2001 41.0887 33.9469 42.5193 35.2516L43.0584 34.6605ZM33.0989 31.4682C31.6992 31.4611 30.5002 32.4691 30.2722 33.8481L31.0615 33.9786C31.2251 32.9891 32.0863 32.2631 33.0948 32.2682L33.0989 31.4682ZM30.2717 33.8514C30.0878 35.0234 30.0135 36.2103 30.0506 37.3962L30.8502 37.3712C30.8147 36.2353 30.8858 35.0983 31.062 33.9754L30.2717 33.8514ZM30.4284 36.9843C29.4295 37.0394 28.4358 37.1638 27.4536 37.3564L27.6075 38.1414C28.5536 37.956 29.5106 37.8362 30.4725 37.7831L30.4284 36.9843ZM27.4544 37.3562C26.0776 37.6232 25.0982 38.8488 25.1471 40.2491L25.9466 40.2212C25.9115 39.2161 26.6145 38.334 27.6067 38.1416L27.4544 37.3562ZM25.1469 40.2436C25.1986 42.6929 25.8372 45.094 27.0086 47.2471L27.7113 46.8647C26.6009 44.8238 25.9957 42.548 25.9467 40.2267L25.1469 40.2436ZM27.0624 46.7886C26.9315 46.9344 26.7778 47.1019 26.6435 47.252L27.2398 47.7854C27.3818 47.6266 27.51 47.4875 27.6575 47.3232L27.0624 46.7886ZM26.6442 47.2512C25.863 48.1199 25.062 49.0091 24.2464 49.83L24.8139 50.3939C25.6458 49.5566 26.4599 48.6526 27.2391 47.7862L26.6442 47.2512ZM24.2872 49.7942C22.772 50.9523 20.9406 51.6259 19.0334 51.7259L19.0753 52.5248C21.1434 52.4163 23.1295 51.6859 24.773 50.4298L24.2872 49.7942ZM19.0006 51.729C17.8506 51.8848 16.8158 52.509 16.1436 53.4528L16.7953 53.9169C17.3389 53.1535 18.1765 52.648 19.1081 52.5217L19.0006 51.729ZM16.1437 53.4528C15.4709 54.3972 15.2204 55.5768 15.4517 56.7121L16.2356 56.5523C16.0486 55.6347 16.251 54.681 16.7953 53.917L16.1437 53.4528ZM15.4514 56.7104L17.4379 66.6742L18.2224 66.5178L16.2359 56.554L15.4514 56.7104ZM17.4364 66.6665C17.5318 67.1991 17.8326 67.6469 18.2673 68.0676C18.6981 68.4846 19.2885 68.9014 20.0099 69.3679L20.4444 68.6962C19.7268 68.2322 19.1939 67.8511 18.8236 67.4927C18.4572 67.1381 18.279 66.8332 18.2239 66.5255L17.4364 66.6665ZM20.008 69.3667L20.1791 69.4788L20.6174 68.8095L20.4463 68.6974L20.008 69.3667ZM20.1817 69.4804C21.2898 70.194 22.4817 70.7688 23.7317 71.1903L23.9874 70.4322C22.8001 70.0319 21.6678 69.4859 20.6149 68.8078L20.1817 69.4804ZM23.7255 71.1882C24.4777 71.4556 25.2118 71.7716 25.9235 72.134L26.2865 71.4211C25.5441 71.0431 24.7783 70.7134 23.9935 70.4344L23.7255 71.1882ZM25.9152 72.1297C27.536 73.0032 28.9426 74.2247 30.0333 75.7054L30.6774 75.2309C29.5165 73.6549 28.0195 72.3551 26.2948 71.4254L25.9152 72.1297ZM30.03 75.7008C30.241 75.9958 30.4645 76.2768 30.7094 76.5611L31.3156 76.0389C31.084 75.7701 30.8757 75.508 30.6807 75.2354L30.03 75.7008ZM30.7243 76.5774C32.938 78.877 35.7799 80.4774 38.898 81.1798L39.0738 80.3994C36.1082 79.7313 33.4056 78.2093 31.3007 76.0226L30.7243 76.5774ZM38.5859 80.7896V83.026H39.3859V80.7896H38.5859ZM38.5859 83.026C38.5859 85.2659 40.407 87.0798 42.6507 87.0798V86.2798C40.8465 86.2798 39.3859 84.8218 39.3859 83.026H38.5859ZM42.6507 87.0798H51.203V86.2798H42.6507V87.0798ZM51.203 87.0798C53.4466 87.0798 55.2684 85.266 55.2684 83.026H54.4684C54.4684 84.8217 53.0072 86.2798 51.203 86.2798V87.0798ZM55.2684 83.026V82.871H54.4684V83.026H55.2684ZM57.9292 83.4001C58.4943 83.4198 59.056 83.4282 59.6109 83.4282V82.6282C59.064 82.6282 58.5117 82.6199 57.9571 82.6006L57.9292 83.4001ZM59.6109 83.4282C60.5002 83.4282 61.3664 83.3961 62.2209 83.3484L62.1763 82.5497C61.3317 82.5968 60.4811 82.6282 59.6109 82.6282V83.4282ZM61.7986 82.9491V83.026H62.5986V82.9491H61.7986ZM61.7986 83.026C61.7986 85.2659 63.6197 87.0798 65.8634 87.0798V86.2798C64.0592 86.2798 62.5986 84.8218 62.5986 83.026H61.7986ZM65.8634 87.0798H74.4157V86.2798H65.8634V87.0798ZM74.4157 87.0798C76.6599 87.0798 78.4811 85.266 78.4811 83.026H77.6811C77.6811 84.8218 76.2205 86.2798 74.4157 86.2798V87.0798ZM78.4811 83.026V78.3084H77.6811V83.026H78.4811ZM78.2883 78.6505C84.8757 74.6608 89.063 67.685 89.4756 60.0108L88.6767 59.9679C88.2784 67.3771 84.2356 74.1132 77.8738 77.9662L78.2883 78.6505ZM89.4757 60.0083C89.9548 49.8841 83.5751 40.1671 73.2915 35.2239L72.9449 35.9449C82.9882 40.7726 89.1381 50.2183 88.6766 59.9704L89.4757 60.0083ZM33.0979 34.7041C35.5863 34.6527 38.0409 35.2832 40.1939 36.5279L40.5943 35.8353C38.3146 34.5173 35.7157 33.8498 33.0813 33.9043L33.0979 34.7041ZM40.197 35.8335C39.0176 36.5016 37.8302 37.2701 36.6528 38.0993L37.1134 38.7534C38.2748 37.9355 39.4397 37.1819 40.5913 36.5296L40.197 35.8335ZM37.0476 38.0618C35.7446 37.4736 34.3479 37.1208 32.9213 37.0187L32.8642 37.8167C34.197 37.912 35.5015 38.2416 36.7185 38.7909L37.0476 38.0618ZM33.2924 37.4023C33.2532 36.3879 33.3175 35.3718 33.4842 34.3699L32.695 34.2386C32.5194 35.2941 32.4517 36.3645 32.493 37.4332L33.2924 37.4023ZM28.0824 40.5288C29.2735 40.2932 30.4859 40.1786 31.7005 40.1868L31.7059 39.3868C30.4374 39.3783 29.1712 39.4979 27.9272 39.744L28.0824 40.5288ZM31.7641 40.198C31.7745 40.198 31.8726 40.1996 31.9581 40.182L31.7973 39.3984C31.8051 39.3967 31.8087 39.3965 31.8064 39.3967C31.8047 39.3969 31.8012 39.3972 31.7959 39.3974C31.7849 39.398 31.7741 39.398 31.7641 39.398V40.198ZM31.8992 40.1896C34.0989 40.0713 36.2319 40.9642 37.6865 42.613L38.2864 42.0837C36.6696 40.251 34.2995 39.2593 31.8562 39.3908L31.8992 40.1896ZM37.6988 42.6262C38.6068 43.5662 38.8635 44.9556 38.3512 46.1562L39.087 46.4702C39.7257 44.9733 39.4053 43.2414 38.2742 42.0704L37.6988 42.6262ZM38.3793 46.1022C37.4546 47.5908 35.8288 48.5039 34.0717 48.521L34.0795 49.321C36.1096 49.3012 37.9893 48.2462 39.0589 46.5243L38.3793 46.1022ZM34.0756 48.521C31.6589 48.521 28.68 46.0485 28.3909 40.117L27.5918 40.1559C27.8911 46.2947 31.0428 49.321 34.0756 49.321V48.521ZM27.9914 40.5364H28.0048V39.7364H27.9914V40.5364ZM86.2333 59.8523C85.9109 65.9506 82.7977 71.5635 77.7876 75.0782L78.247 75.7331C83.458 72.0775 86.6968 66.239 87.0322 59.8945L86.2333 59.8523ZM78.405 75.3073C78.2259 74.6011 77.5913 74.1056 76.8623 74.0996L76.8558 74.8996C77.223 74.9026 77.5403 75.152 77.6296 75.504L78.405 75.3073ZM76.8591 74.0996C75.9648 74.0996 75.2376 74.8229 75.2376 75.7174H76.0377C76.0377 75.267 76.4044 74.8996 76.8591 74.8996V74.0996ZM75.2376 75.7174V83.026H76.0377V75.7174H75.2376ZM75.2376 83.026C75.2376 83.4763 74.871 83.8437 74.4157 83.8437V84.6437C75.3103 84.6437 76.0377 83.9206 76.0377 83.026H75.2376ZM74.4157 83.8437H65.8634V84.6437H74.4157V83.8437ZM65.8634 83.8437C65.4087 83.8437 65.042 83.4764 65.042 83.026H64.242C64.242 83.9205 64.9692 84.6437 65.8634 84.6437V83.8437ZM65.042 83.026V79.3717H64.242V83.026H65.042ZM65.042 79.3717C65.042 78.4771 64.3147 77.7539 63.42 77.7539V78.5539C63.8754 78.5539 64.242 78.9214 64.242 79.3717H65.042ZM63.42 77.7539C62.5258 77.7539 61.7986 78.4772 61.7986 79.3717H62.5986C62.5986 78.9213 62.9653 78.5539 63.42 78.5539V77.7539ZM61.7986 79.3717V80.4985H62.5986V79.3717H61.7986ZM62.1749 80.0992C60.8287 80.1791 59.4523 80.2197 58.039 80.1657L58.0084 80.9651C59.4563 81.0205 60.8605 80.9786 62.2223 80.8978L62.1749 80.0992ZM58.037 80.1657C56.9818 80.1306 55.9362 80.0828 54.8868 80.0343L54.8499 80.8334C55.8988 80.8819 56.9493 80.93 58.0104 80.9652L58.037 80.1657ZM55.2684 80.4339V79.3717H54.4684V80.4339H55.2684ZM55.2684 79.3717C55.2684 78.477 54.5404 77.7539 53.6464 77.7539V78.5539C54.1013 78.5539 54.4684 78.9215 54.4684 79.3717H55.2684ZM53.6464 77.7539C52.7517 77.7539 52.0244 78.4771 52.0244 79.3717H52.8244C52.8244 78.9214 53.191 78.5539 53.6464 78.5539V77.7539ZM52.0244 79.3717V83.026H52.8244V79.3717H52.0244ZM52.0244 83.026C52.0244 83.4764 51.6577 83.8437 51.203 83.8437V84.6437C52.0972 84.6437 52.8244 83.9205 52.8244 83.026H52.0244ZM51.203 83.8437H42.6507V84.6437H51.203V83.8437ZM42.6507 83.8437C42.196 83.8437 41.8293 83.4764 41.8293 83.026H41.0293C41.0293 83.9205 41.7565 84.6437 42.6507 84.6437V83.8437ZM41.8293 83.026V76.9356H41.0293V83.026H41.8293ZM41.8293 76.9356C41.8293 76.0413 41.1022 75.3174 40.2073 75.3174V76.1174C40.6625 76.1174 41.0293 76.4851 41.0293 76.9356H41.8293ZM40.2073 75.3174C39.3128 75.3174 38.5859 76.0414 38.5859 76.9356H39.3859C39.3859 76.485 39.7529 76.1174 40.2073 76.1174V75.3174ZM38.5859 76.9356V78.2476H39.3859V76.9356H38.5859ZM39.0816 77.8592C36.8182 77.3014 34.7623 76.1114 33.1539 74.4289L32.5756 74.9818C34.2892 76.7742 36.4793 78.0419 38.8902 78.636L39.0816 77.8592ZM33.168 74.4445C32.9885 74.2359 32.8227 74.0289 32.6586 73.7999L32.0084 74.266C32.1887 74.5176 32.3697 74.7433 32.5616 74.9663L33.168 74.4445ZM32.6556 73.7958C31.2765 71.9225 29.4975 70.3783 27.4465 69.2753L27.0676 69.9798C29.0142 71.0268 30.7026 72.4923 32.0114 74.2701L32.6556 73.7958ZM27.44 69.2718C26.6066 68.8433 25.7461 68.4706 24.864 68.1548L24.5943 68.9079C25.4438 69.2121 26.2722 69.5709 27.0742 69.9833L27.44 69.2718ZM24.8559 68.152C23.8497 67.8159 22.8879 67.3592 21.9911 66.7926L21.5638 67.4689C22.5148 68.0698 23.535 68.5543 24.6025 68.9108L24.8559 68.152ZM21.9969 66.7963L21.776 66.6513L21.3371 67.3202L21.558 67.4652L21.9969 66.7963ZM21.7601 66.6415C21.2967 66.3675 20.8623 66.0473 20.4641 65.686L19.9264 66.2783C20.3649 66.6764 20.8432 67.0287 21.3529 67.3301L21.7601 66.6415ZM20.5876 65.9042L18.633 56.0697L17.8483 56.2257L19.8029 66.0601L20.5876 65.9042ZM18.6323 56.0666C18.5785 55.8062 18.6363 55.5355 18.7923 55.3201L18.1443 54.8509C17.8562 55.2488 17.7496 55.7487 17.8489 56.2287L18.6323 56.0666ZM18.7953 55.3159C18.9432 55.1059 19.1731 54.9666 19.4301 54.9322L19.324 54.1393C18.8473 54.203 18.4183 54.4618 18.1413 54.8551L18.7953 55.3159ZM19.4291 54.9323C20.5449 54.7861 21.8684 54.533 23.1364 54.094C24.4007 53.6562 25.6365 53.0245 26.5512 52.1053L25.9842 51.541C25.1882 52.3408 24.0781 52.9213 22.8746 53.338C21.6747 53.7535 20.4083 53.9971 19.3251 54.1391L19.4291 54.9323ZM26.5518 52.1048C27.4253 51.2237 28.2604 50.2972 29.0581 49.4117L28.4637 48.8763C27.6641 49.7639 26.8416 50.6763 25.9837 51.5415L26.5518 52.1048ZM29.059 49.4108L29.1608 49.297L28.5646 48.7635L28.4628 48.8773L29.059 49.4108ZM28.5708 49.3038C29.9973 50.8259 31.9784 51.7099 34.0666 51.7569L34.0846 50.9571C32.2109 50.9149 30.4338 50.1217 29.1546 48.7567L28.5708 49.3038ZM34.0776 51.757C37.0419 51.7424 39.7754 50.159 41.2561 47.5973L40.5634 47.197C39.2254 49.5118 36.7545 50.9438 34.0736 50.957L34.0776 51.757ZM41.2733 47.5639C42.3355 45.2475 41.9304 42.5244 40.2394 40.6156L39.6406 41.146C41.1217 42.8179 41.4761 45.2022 40.5462 47.2304L41.2733 47.5639ZM40.2577 40.6378C39.974 40.267 39.6587 39.9215 39.3152 39.6048L38.7729 40.193C39.0826 40.4785 39.3668 40.7899 39.6223 41.1238L40.2577 40.6378ZM39.2674 40.2307C40.1512 39.6358 41.0296 39.0762 41.8966 38.5888L41.5045 37.8915C40.6121 38.3932 39.7143 38.9655 38.8207 39.5671L39.2674 40.2307ZM41.8945 38.59C43.3398 37.7886 44.8486 37.105 46.405 36.5457L46.1345 35.7929C44.5377 36.3666 42.9896 37.068 41.5066 37.8903L41.8945 38.59ZM70.0739 37.3327C70.7138 37.5984 71.3188 37.8616 71.8772 38.1323L72.2261 37.4124C71.6481 37.1322 71.0272 36.8623 70.3808 36.5939L70.0739 37.3327ZM71.8782 38.1328C81.0446 42.5441 86.6509 51.0834 86.2332 59.8544L87.0323 59.8924C87.468 50.7441 81.6262 41.9362 72.2251 37.4119L71.8782 38.1328ZM54.8498 83.2706L54.9744 83.2764L55.0114 82.4772L54.8869 82.4714L54.8498 83.2706ZM57.815 31.6633C55.3001 31.6457 53.8744 31.785 51.3975 32.1551L51.5157 32.9463C53.9625 32.5808 55.3456 32.4461 57.8094 32.4633L57.815 31.6633ZM51.3975 32.1551C50.1163 32.3465 48.508 32.7098 47.2276 33.0228C46.5858 33.1798 46.0233 33.3248 45.6211 33.4307C45.42 33.4836 45.2589 33.5267 45.148 33.5567C45.0925 33.5717 45.0495 33.5833 45.0204 33.5913C45.0058 33.5953 44.9947 33.5983 44.9872 33.6004C44.9834 33.6014 44.9805 33.6022 44.9786 33.6027C44.9776 33.603 44.9769 33.6032 44.9764 33.6034C44.9761 33.6034 44.9759 33.6035 44.9758 33.6035C44.9757 33.6035 44.9757 33.6036 44.9756 33.6036C44.9756 33.6036 44.9756 33.6036 45.0818 33.9892C45.1881 34.3748 45.1881 34.3748 45.1881 34.3748C45.1882 34.3748 45.1882 34.3748 45.1882 34.3748C45.1883 34.3748 45.1885 34.3747 45.1887 34.3747C45.1891 34.3745 45.1898 34.3744 45.1907 34.3741C45.1925 34.3736 45.1952 34.3729 45.1988 34.3719C45.206 34.3699 45.2168 34.367 45.231 34.3631C45.2595 34.3553 45.3017 34.3438 45.3565 34.329C45.466 34.2995 45.6254 34.2568 45.8247 34.2043C46.2234 34.0994 46.7813 33.9555 47.4176 33.8C48.6936 33.488 50.2725 33.1321 51.5157 32.9463L51.3975 32.1551ZM57.8094 32.4633C61.0529 32.486 62.8913 32.6543 66.0277 33.4265L66.2189 32.6497C63.0098 31.8596 61.1074 31.6864 57.815 31.6633L57.8094 32.4633ZM66.0277 33.4265C67.0964 33.6897 68.4413 34.1453 69.5277 34.5391C70.069 34.7353 70.5426 34.9149 70.8809 35.0453C71.0499 35.1105 71.1851 35.1635 71.2778 35.2C71.3241 35.2183 71.3599 35.2325 71.3839 35.242C71.396 35.2468 71.4051 35.2505 71.4112 35.2529C71.4142 35.2541 71.4165 35.255 71.4179 35.2556C71.4187 35.2559 71.4192 35.2561 71.4196 35.2563C71.4198 35.2563 71.4199 35.2564 71.42 35.2564C71.42 35.2564 71.42 35.2564 71.4201 35.2564C71.4201 35.2564 71.4201 35.2564 71.569 34.8852C71.718 34.514 71.718 34.514 71.7179 34.514C71.7179 34.514 71.7178 34.5139 71.7178 34.5139C71.7177 34.5139 71.7175 34.5138 71.7173 34.5137C71.7168 34.5135 71.7162 34.5133 71.7154 34.5129C71.7137 34.5123 71.7112 34.5113 71.708 34.51C71.7016 34.5074 71.6921 34.5037 71.6797 34.4987C71.6549 34.4888 71.6184 34.4743 71.5712 34.4557C71.4768 34.4186 71.3399 34.3649 71.1688 34.2989C70.8267 34.167 70.3478 33.9854 69.8003 33.787C68.709 33.3914 67.331 32.9236 66.2189 32.6497L66.0277 33.4265ZM46.2697 36.1693C46.3817 36.5533 46.3817 36.5533 46.3817 36.5533C46.3817 36.5533 46.3817 36.5533 46.3818 36.5533C46.3818 36.5533 46.382 36.5532 46.3821 36.5532C46.3825 36.5531 46.383 36.5529 46.3838 36.5527C46.3853 36.5523 46.3876 36.5516 46.3906 36.5507C46.3967 36.549 46.4059 36.5463 46.4179 36.5428C46.4421 36.5358 46.478 36.5255 46.5245 36.5123C46.6175 36.4857 46.753 36.4474 46.9224 36.4003C47.2614 36.3061 47.7357 36.1772 48.277 36.038C49.363 35.7587 50.7048 35.4419 51.7614 35.2806L51.6407 34.4898C50.5425 34.6574 49.1686 34.9827 48.0777 35.2632C47.5304 35.4039 47.051 35.5343 46.7083 35.6295C46.5369 35.6771 46.3996 35.716 46.305 35.743C46.2577 35.7565 46.221 35.767 46.1961 35.7742C46.1837 35.7778 46.1742 35.7805 46.1677 35.7824C46.1645 35.7833 46.1621 35.784 46.1604 35.7845C46.1596 35.7848 46.1589 35.785 46.1585 35.7851C46.1583 35.7851 46.1581 35.7852 46.158 35.7852C46.1579 35.7853 46.1579 35.7853 46.1578 35.7853C46.1578 35.7853 46.1578 35.7853 46.2697 36.1693ZM51.7614 35.2806C54.1015 34.9235 55.4348 34.8418 57.8023 34.9003L57.822 34.1005C55.4084 34.0409 54.0281 34.1255 51.6407 34.4898L51.7614 35.2806ZM57.8023 34.9003C60.8506 34.9755 62.5612 35.2646 65.5418 35.9736L65.727 35.1953C62.7077 34.4771 60.9401 34.1775 57.822 34.1005L57.8023 34.9003ZM65.5418 35.9736C66.4381 36.1867 67.575 36.5278 68.4938 36.8178C68.9518 36.9624 69.3533 37.0936 69.6402 37.1885C69.7837 37.236 69.8984 37.2744 69.9771 37.3009C70.0165 37.3142 70.0469 37.3245 70.0674 37.3314C70.0776 37.3349 70.0854 37.3375 70.0905 37.3393C70.0931 37.3401 70.0951 37.3408 70.0963 37.3412C70.097 37.3415 70.0975 37.3416 70.0978 37.3417C70.0979 37.3418 70.098 37.3418 70.0981 37.3418C70.0981 37.3418 70.0981 37.3419 70.0982 37.3419C70.0982 37.3419 70.0982 37.3419 70.2274 36.9633C70.3565 36.5847 70.3565 36.5847 70.3565 36.5847C70.3564 36.5847 70.3564 36.5847 70.3564 36.5847C70.3563 36.5846 70.3561 36.5846 70.3559 36.5845C70.3556 36.5844 70.355 36.5842 70.3543 36.584C70.3529 36.5835 70.3509 36.5828 70.3482 36.5819C70.3427 36.58 70.3347 36.5773 70.3242 36.5737C70.3032 36.5666 70.2723 36.5562 70.2323 36.5427C70.1524 36.5158 70.0364 36.477 69.8916 36.4291C69.6021 36.3332 69.1969 36.2009 68.7346 36.0549C67.8124 35.7638 66.6527 35.4155 65.727 35.1953L65.5418 35.9736ZM54.977 83.2765L54.9775 83.2765L55.0094 82.4771L55.0088 82.4771L54.977 83.2765ZM54.9749 83.2764C55.9551 83.3218 56.9377 83.3674 57.93 83.4001L57.9564 82.6006C56.9703 82.5681 55.993 82.5227 55.012 82.4772L54.9749 83.2764ZM31.7032 40.1868C31.6741 40.1868 31.6514 40.183 31.6385 40.1804C31.6275 40.1781 31.6191 40.1756 31.6263 40.1776L31.8426 39.4074C31.84 39.4067 31.7779 39.3868 31.7032 39.3868V40.1868ZM31.6263 40.1776C31.6273 40.1779 31.6898 40.198 31.7641 40.198V39.398C31.7944 39.398 31.8179 39.402 31.8306 39.4047C31.8415 39.4069 31.8499 39.4095 31.8427 39.4074L31.6263 40.1776Z" fill="white" mask="url(#path-2-inside-1)"/>
<path d="M71.7905 28.2134C71.7905 35.5052 65.8614 41.4173 58.5461 41.4173C51.2308 41.4173 45.3016 35.5052 45.3016 28.2134C45.3016 20.9217 51.2308 15.0096 58.5461 15.0096C65.8614 15.0096 71.7905 20.9217 71.7905 28.2134Z" fill="white" stroke="white" stroke-width="0.4"/>
<mask id="path-5-inside-2" fill="white">
<path d="M54.9782 31.8545C54.9782 31.1838 54.4086 30.6399 53.7069 30.6399C53.0046 30.6399 52.4355 31.1838 52.4355 31.8545C52.4355 34.5496 55.2866 36.7424 58.7911 36.7424C62.2956 36.7424 65.1467 34.5551 65.1467 31.8545C65.1467 29.4953 62.9589 27.521 60.0625 27.0678V22.2082C61.5241 22.5558 62.6046 23.4646 62.6046 24.5095C62.6046 25.1803 63.1736 25.7242 63.8754 25.7242C64.5776 25.7242 65.1467 25.1803 65.1467 24.5095C65.1467 22.1487 62.9589 20.1755 60.0625 19.7212V19.4359C60.0625 18.7646 59.4934 18.2207 58.7911 18.2207C58.0894 18.2207 57.5204 18.7646 57.5204 19.4359V19.724C54.6233 20.1783 52.4355 22.1537 52.4355 24.5118C52.4355 26.8698 54.6233 28.8452 57.5204 29.2996V34.1591C56.0582 33.8082 54.9782 32.8995 54.9782 31.8545ZM62.6046 31.8545C62.6046 32.8995 61.5241 33.8082 60.0625 34.1558V29.5549C61.5241 29.9013 62.6046 30.8101 62.6046 31.8545ZM54.9782 24.5118C54.9782 23.4668 56.0582 22.558 57.5204 22.2105V26.8125C56.0582 26.4655 54.9782 25.5568 54.9782 24.5118Z"/>
</mask>
<path d="M54.9782 31.8545C54.9782 31.1838 54.4086 30.6399 53.7069 30.6399C53.0046 30.6399 52.4355 31.1838 52.4355 31.8545C52.4355 34.5496 55.2866 36.7424 58.7911 36.7424C62.2956 36.7424 65.1467 34.5551 65.1467 31.8545C65.1467 29.4953 62.9589 27.521 60.0625 27.0678V22.2082C61.5241 22.5558 62.6046 23.4646 62.6046 24.5095C62.6046 25.1803 63.1736 25.7242 63.8754 25.7242C64.5776 25.7242 65.1467 25.1803 65.1467 24.5095C65.1467 22.1487 62.9589 20.1755 60.0625 19.7212V19.4359C60.0625 18.7646 59.4934 18.2207 58.7911 18.2207C58.0894 18.2207 57.5204 18.7646 57.5204 19.4359V19.724C54.6233 20.1783 52.4355 22.1537 52.4355 24.5118C52.4355 26.8698 54.6233 28.8452 57.5204 29.2996V34.1591C56.0582 33.8082 54.9782 32.8995 54.9782 31.8545ZM62.6046 31.8545C62.6046 32.8995 61.5241 33.8082 60.0625 34.1558V29.5549C61.5241 29.9013 62.6046 30.8101 62.6046 31.8545ZM54.9782 24.5118C54.9782 23.4668 56.0582 22.558 57.5204 22.2105V26.8125C56.0582 26.4655 54.9782 25.5568 54.9782 24.5118Z" fill="#E03632" stroke="white" stroke-width="0.8" mask="url(#path-5-inside-2)"/>
<mask id="path-6-inside-3" fill="white">
<path d="M73.4575 27.9691C73.4575 36.0448 66.8909 42.5915 58.7907 42.5915C50.6905 42.5915 44.124 36.0448 44.124 27.9691C44.124 19.8934 50.6905 13.3467 58.7907 13.3467C66.8909 13.3467 73.4575 19.8934 73.4575 27.9691ZM46.62 27.9691C46.62 34.6705 52.069 40.1031 58.7907 40.1031C65.5125 40.1031 70.9615 34.6705 70.9615 27.9691C70.9615 21.2677 65.5125 15.8351 58.7907 15.8351C52.069 15.8351 46.62 21.2677 46.62 27.9691Z"/>
</mask>
<path d="M73.4575 27.9691C73.4575 36.0448 66.8909 42.5915 58.7907 42.5915C50.6905 42.5915 44.124 36.0448 44.124 27.9691C44.124 19.8934 50.6905 13.3467 58.7907 13.3467C66.8909 13.3467 73.4575 19.8934 73.4575 27.9691ZM46.62 27.9691C46.62 34.6705 52.069 40.1031 58.7907 40.1031C65.5125 40.1031 70.9615 34.6705 70.9615 27.9691C70.9615 21.2677 65.5125 15.8351 58.7907 15.8351C52.069 15.8351 46.62 21.2677 46.62 27.9691Z" fill="#E03632" stroke="white" stroke-width="0.8" mask="url(#path-6-inside-3)"/>
<path fill-rule="evenodd" clip-rule="evenodd" d="M51.9349 37.8687C55.9537 37.5208 60.0016 37.775 63.9444 38.6242L67.1127 39.5498C69.1394 40.2652 71.0487 41.2755 72.7791 42.5484C73.1902 42.8559 73.3517 43.372 73.2265 43.8386L73.2821 43.8572L71.7172 54.9587L43.6348 51.0239L45.1812 40.0534C45.0843 39.4282 45.4869 38.8258 46.1146 38.6811C46.2611 38.6482 47.1336 38.4536 48.5116 38.2479L51.9349 37.8687Z" fill="white"/>
<mask id="path-8-inside-4" fill="white">
<path d="M63.8791 38.6243C59.9363 37.7751 53.6099 37.7183 51.8695 37.8688C50.1292 38.0193 49.8243 38.0422 48.4463 38.2479C47.0683 38.4537 46.1958 38.6483 46.0493 38.6812C45.3916 38.8328 44.9811 39.4869 45.1332 40.1431C45.2848 40.7988 45.9414 41.2081 46.5991 41.0564C46.7517 41.0202 62.0515 37.6218 71.2474 44.4978C71.7871 44.9009 72.5533 44.7922 72.9582 44.2541C73.3631 43.7155 73.2535 42.9522 72.7138 42.5485C70.9834 41.2756 69.0741 40.2652 67.0473 39.5499C65.0206 38.8345 63.8791 38.6243 63.8791 38.6243Z"/>
</mask>
<path d="M63.8791 38.6243C59.9363 37.7751 53.6099 37.7183 51.8695 37.8688C50.1292 38.0193 49.8243 38.0422 48.4463 38.2479C47.0683 38.4537 46.1958 38.6483 46.0493 38.6812C45.3916 38.8328 44.9811 39.4869 45.1332 40.1431C45.2848 40.7988 45.9414 41.2081 46.5991 41.0564C46.7517 41.0202 62.0515 37.6218 71.2474 44.4978C71.7871 44.9009 72.5533 44.7922 72.9582 44.2541C73.3631 43.7155 73.2535 42.9522 72.7138 42.5485C70.9834 41.2756 69.0741 40.2652 67.0473 39.5499C65.0206 38.8345 63.8791 38.6243 63.8791 38.6243Z" fill="#AFBAC1" stroke="white" stroke-width="0.8" mask="url(#path-8-inside-4)"/>
</svg>
