<svg width="50" height="50" viewBox="0 0 50 50" fill="none" xmlns="http://www.w3.org/2000/svg">
<circle opacity="0.8" cx="25" cy="25" r="25" fill="#229AD6"/>
<path d="M25 11C22.2311 11 19.5243 11.8211 17.222 13.3594C14.9197 14.8978 13.1253 17.0843 12.0657 19.6424C11.0061 22.2006 10.7288 25.0155 11.269 27.7313C11.8092 30.447 13.1426 32.9416 15.1005 34.8995C17.0584 36.8574 19.553 38.1908 22.2687 38.731C24.9845 39.2712 27.7994 38.9939 30.3576 37.9343C32.9157 36.8747 35.1022 35.0803 36.6406 32.778C38.1789 30.4757 39 27.7689 39 25C39 21.287 37.525 17.726 34.8995 15.1005C32.274 12.475 28.713 11 25 11ZM25 37C22.6266 37 20.3066 36.2962 18.3332 34.9776C16.3598 33.6591 14.8217 31.7849 13.9135 29.5922C13.0052 27.3995 12.7676 24.9867 13.2306 22.6589C13.6936 20.3311 14.8365 18.1929 16.5147 16.5147C18.193 14.8365 20.3312 13.6936 22.6589 13.2306C24.9867 12.7676 27.3995 13.0052 29.5922 13.9134C31.7849 14.8217 33.6591 16.3598 34.9776 18.3332C36.2962 20.3065 37 22.6266 37 25C37 28.1826 35.7357 31.2348 33.4853 33.4853C31.2348 35.7357 28.1826 37 25 37Z" fill="white"/>
<path d="M20.5 20.0001C20.0055 20.0001 19.5222 20.1467 19.1111 20.4214C18.7 20.6961 18.3795 21.0866 18.1903 21.5434C18.0011 22.0002 17.9516 22.5029 18.048 22.9878C18.1445 23.4728 18.3826 23.9182 18.7322 24.2678C19.0819 24.6175 19.5273 24.8556 20.0123 24.952C20.4972 25.0485 20.9999 24.999 21.4567 24.8098C21.9135 24.6206 22.304 24.3001 22.5787 23.889C22.8534 23.4779 23 22.9945 23 22.5001C23.0027 22.171 22.9398 21.8447 22.8151 21.5402C22.6904 21.2357 22.5064 20.9591 22.2737 20.7264C22.041 20.4937 21.7644 20.3096 21.4599 20.185C21.1553 20.0603 20.829 19.9974 20.5 20.0001ZM29.5 20.0001C29.0055 20.0001 28.5222 20.1467 28.1111 20.4214C27.7 20.6961 27.3795 21.0866 27.1903 21.5434C27.0011 22.0002 26.9516 22.5029 27.048 22.9878C27.1445 23.4728 27.3826 23.9182 27.7322 24.2678C28.0819 24.6175 28.5273 24.8556 29.0123 24.952C29.4972 25.0485 29.9999 24.999 30.4567 24.8098C30.9135 24.6206 31.304 24.3001 31.5787 23.889C31.8534 23.4779 32 22.9945 32 22.5001C32.0027 22.171 31.9398 21.8447 31.8151 21.5402C31.6904 21.2357 31.5064 20.9591 31.2737 20.7264C31.041 20.4937 30.7644 20.3096 30.4599 20.185C30.1553 20.0603 29.829 19.9974 29.5 20.0001ZM25 33.0001C26.3804 32.9977 27.7367 32.6383 28.937 31.9566C30.1373 31.275 31.1408 30.2944 31.85 29.1101L30.14 28.1101C29.6063 28.9963 28.8526 29.7295 27.952 30.2384C27.0514 30.7474 26.0345 31.0149 25 31.0149C23.9655 31.0149 22.9486 30.7474 22.048 30.2384C21.1474 29.7295 20.3937 28.9963 19.86 28.1101L18.15 29.1101C18.8592 30.2944 19.8627 31.275 21.063 31.9566C22.2634 32.6383 23.6196 32.9977 25 33.0001Z" fill="white"/>
</svg>
