<svg width="110" height="110" viewBox="0 0 110 110" fill="none" xmlns="http://www.w3.org/2000/svg">
<circle cx="55" cy="55" r="54.25" fill="white" stroke="#E1E4E6" stroke-width="1.5"/>
<g clip-path="url(#clip0)">
<mask id="path-2-inside-1" fill="white">
<path fill-rule="evenodd" clip-rule="evenodd" d="M91.659 78.9229C91.6558 78.7801 91.6273 78.6391 91.5748 78.5063C91.5662 78.4857 91.5517 78.4696 91.5421 78.4497C91.5067 78.3687 91.4626 78.2918 91.4103 78.2205L83.1126 67.5751V32.6255C83.1105 30.6058 81.4701 28.9689 79.446 28.9668H62.335V31.406H79.4461C80.1209 31.4067 80.6677 31.9522 80.6683 32.6255V53.3893C79.6166 52.5826 78.3282 52.1432 77.0016 52.1384C77.0131 49.9811 76.0651 47.93 74.4131 46.5382C72.761 45.1465 70.5755 44.5577 68.4461 44.9307L68.4458 47.4307C68.8446 47.3233 69.2551 47.2661 69.668 47.2604C72.3669 47.2632 74.554 49.4456 74.5569 52.1386C74.5561 52.3177 74.5451 52.4966 74.5241 52.6744C72.5332 53.5508 71.1605 55.4185 70.9211 57.5766C70.8465 58.2457 71.3295 58.8487 72.0001 58.9236C72.3231 58.9632 72.6483 58.8713 72.9025 58.6688C73.1568 58.4663 73.3185 58.17 73.3513 57.847C73.5124 56.3772 74.5435 55.1486 75.9652 54.732C76.301 54.6295 76.6501 54.5775 77.0012 54.5778C79.0253 54.5799 80.6657 56.2167 80.6679 58.2364V66.7733H29.3345L29.335 58.2363C29.3371 56.2166 30.9775 54.5798 33.0016 54.5776C33.3561 54.5776 33.7085 54.6306 34.0472 54.7348C35.4647 55.1533 36.4918 56.3804 36.6515 57.8469C36.7266 58.5161 37.3312 58.9981 38.002 58.9235C38.6729 58.8488 39.1562 58.2459 39.0817 57.5765C38.8428 55.4181 37.4699 53.55 35.4788 52.6738C35.4577 52.4962 35.4468 52.3174 35.446 52.1384C35.4488 49.4454 37.636 47.2631 40.3348 47.2602C40.7478 47.2658 41.1584 47.3231 41.557 47.4306L41.5571 44.9307C39.4276 44.5577 37.2421 45.1465 35.5901 46.5382C33.9381 47.93 32.99 49.9812 33.0015 52.1384C31.6749 52.143 30.3866 52.5825 29.3348 53.3893L29.335 32.6255C29.3357 31.9522 29.8824 31.4065 30.5571 31.406H47.6683L47.6684 28.9668H30.5571C28.533 28.9689 26.8926 30.6058 26.8905 32.6255V67.575L18.5928 78.2203C18.5404 78.2919 18.4961 78.369 18.4607 78.4503C18.4513 78.47 18.4369 78.4857 18.4286 78.506C18.3761 78.6389 18.3476 78.78 18.3443 78.9229C18.3437 78.9391 18.335 78.9526 18.335 78.9689V81.4081C18.3371 83.4278 19.9775 85.0647 22.0016 85.0668H88.0016C90.0257 85.0647 91.6661 83.4278 91.6683 81.4081V78.9689C91.6683 78.9525 91.6597 78.9391 91.659 78.9229ZM81.2926 69.2124H28.7108L22.0565 77.7493H87.9468L81.2926 69.2124ZM88.0016 82.6275C88.6764 82.6269 89.2231 82.0812 89.2238 81.408L89.224 80.1884H20.7795V81.408C20.78 82.0812 21.3269 82.6268 22.0016 82.6275H88.0016Z"/>
</mask>
<path fill-rule="evenodd" clip-rule="evenodd" d="M91.659 78.9229C91.6558 78.7801 91.6273 78.6391 91.5748 78.5063C91.5662 78.4857 91.5517 78.4696 91.5421 78.4497C91.5067 78.3687 91.4626 78.2918 91.4103 78.2205L83.1126 67.5751V32.6255C83.1105 30.6058 81.4701 28.9689 79.446 28.9668H62.335V31.406H79.4461C80.1209 31.4067 80.6677 31.9522 80.6683 32.6255V53.3893C79.6166 52.5826 78.3282 52.1432 77.0016 52.1384C77.0131 49.9811 76.0651 47.93 74.4131 46.5382C72.761 45.1465 70.5755 44.5577 68.4461 44.9307L68.4458 47.4307C68.8446 47.3233 69.2551 47.2661 69.668 47.2604C72.3669 47.2632 74.554 49.4456 74.5569 52.1386C74.5561 52.3177 74.5451 52.4966 74.5241 52.6744C72.5332 53.5508 71.1605 55.4185 70.9211 57.5766C70.8465 58.2457 71.3295 58.8487 72.0001 58.9236C72.3231 58.9632 72.6483 58.8713 72.9025 58.6688C73.1568 58.4663 73.3185 58.17 73.3513 57.847C73.5124 56.3772 74.5435 55.1486 75.9652 54.732C76.301 54.6295 76.6501 54.5775 77.0012 54.5778C79.0253 54.5799 80.6657 56.2167 80.6679 58.2364V66.7733H29.3345L29.335 58.2363C29.3371 56.2166 30.9775 54.5798 33.0016 54.5776C33.3561 54.5776 33.7085 54.6306 34.0472 54.7348C35.4647 55.1533 36.4918 56.3804 36.6515 57.8469C36.7266 58.5161 37.3312 58.9981 38.002 58.9235C38.6729 58.8488 39.1562 58.2459 39.0817 57.5765C38.8428 55.4181 37.4699 53.55 35.4788 52.6738C35.4577 52.4962 35.4468 52.3174 35.446 52.1384C35.4488 49.4454 37.636 47.2631 40.3348 47.2602C40.7478 47.2658 41.1584 47.3231 41.557 47.4306L41.5571 44.9307C39.4276 44.5577 37.2421 45.1465 35.5901 46.5382C33.9381 47.93 32.99 49.9812 33.0015 52.1384C31.6749 52.143 30.3866 52.5825 29.3348 53.3893L29.335 32.6255C29.3357 31.9522 29.8824 31.4065 30.5571 31.406H47.6683L47.6684 28.9668H30.5571C28.533 28.9689 26.8926 30.6058 26.8905 32.6255V67.575L18.5928 78.2203C18.5404 78.2919 18.4961 78.369 18.4607 78.4503C18.4513 78.47 18.4369 78.4857 18.4286 78.506C18.3761 78.6389 18.3476 78.78 18.3443 78.9229C18.3437 78.9391 18.335 78.9526 18.335 78.9689V81.4081C18.3371 83.4278 19.9775 85.0647 22.0016 85.0668H88.0016C90.0257 85.0647 91.6661 83.4278 91.6683 81.4081V78.9689C91.6683 78.9525 91.6597 78.9391 91.659 78.9229ZM81.2926 69.2124H28.7108L22.0565 77.7493H87.9468L81.2926 69.2124ZM88.0016 82.6275C88.6764 82.6269 89.2231 82.0812 89.2238 81.408L89.224 80.1884H20.7795V81.408C20.78 82.0812 21.3269 82.6268 22.0016 82.6275H88.0016Z" fill="#AFBAC1" stroke="white" stroke-width="0.8" mask="url(#path-2-inside-1)"/>
<mask id="path-3-inside-2" fill="white">
<path d="M74.5558 72.8438H35.4448C34.7698 72.8438 34.2227 73.3909 34.2227 74.0659C34.2227 74.741 34.7698 75.2881 35.4448 75.2881H74.556C75.231 75.2881 75.7781 74.741 75.7781 74.0659C75.7781 73.3909 75.2309 72.8438 74.5558 72.8438Z"/>
</mask>
<path d="M74.5558 72.8438H35.4448C34.7698 72.8438 34.2227 73.3909 34.2227 74.0659C34.2227 74.741 34.7698 75.2881 35.4448 75.2881H74.556C75.231 75.2881 75.7781 74.741 75.7781 74.0659C75.7781 73.3909 75.2309 72.8438 74.5558 72.8438Z" fill="#E03632" stroke="white" stroke-width="0.8" mask="url(#path-3-inside-2)"/>
<mask id="path-4-inside-3" fill="white">
<path d="M30.5576 72.8438H29.3355C28.6604 72.8438 28.1133 73.3909 28.1133 74.0659C28.1133 74.741 28.6604 75.2881 29.3355 75.2881H30.5576C31.2327 75.2881 31.7798 74.741 31.7798 74.0659C31.7798 73.3909 31.2327 72.8438 30.5576 72.8438Z"/>
</mask>
<path d="M30.5576 72.8438H29.3355C28.6604 72.8438 28.1133 73.3909 28.1133 74.0659C28.1133 74.741 28.6604 75.2881 29.3355 75.2881H30.5576C31.2327 75.2881 31.7798 74.741 31.7798 74.0659C31.7798 73.3909 31.2327 72.8438 30.5576 72.8438Z" fill="#E03632" stroke="white" stroke-width="0.8" mask="url(#path-4-inside-3)"/>
<mask id="path-5-inside-4" fill="white">
<path d="M80.667 72.8438H79.4448C78.7698 72.8438 78.2227 73.3909 78.2227 74.0659C78.2227 74.741 78.7698 75.2881 79.4448 75.2881H80.667C81.342 75.2881 81.8892 74.741 81.8892 74.0659C81.8892 73.3909 81.342 72.8438 80.667 72.8438Z"/>
</mask>
<path d="M80.667 72.8438H79.4448C78.7698 72.8438 78.2227 73.3909 78.2227 74.0659C78.2227 74.741 78.7698 75.2881 79.4448 75.2881H80.667C81.342 75.2881 81.8892 74.741 81.8892 74.0659C81.8892 73.3909 81.342 72.8438 80.667 72.8438Z" fill="#E03632" stroke="white" stroke-width="0.8" mask="url(#path-5-inside-4)"/>
<mask id="path-6-inside-5" fill="white">
<path fill-rule="evenodd" clip-rule="evenodd" d="M62.358 23.8816C62.358 17.8822 56.1061 12.2103 55.84 11.9716C55.3763 11.5551 54.6732 11.5551 54.2096 11.9716C53.9435 12.2103 47.6915 17.8822 47.6915 23.8816L47.6914 35.6609L41.8631 42.6547C41.6803 42.8744 41.5802 43.1513 41.5802 43.4372L41.5801 56.8815C41.5801 57.3757 41.8778 57.8215 42.3345 58.0105C42.7912 58.1997 43.3169 58.095 43.6664 57.7456L48.578 52.8335L50.2645 56.206C50.3723 56.4187 50.5404 56.5951 50.7476 56.7133C50.7526 58.6744 53.2457 62.5361 54.0099 63.6741C54.237 64.0119 54.6174 64.2148 55.0244 64.2148C55.4315 64.2148 55.8119 64.0121 56.0389 63.6741C56.8032 62.536 59.2961 58.6744 59.3013 56.7133C59.5085 56.5951 59.6765 56.4187 59.7844 56.206L61.4705 52.8338L66.3825 57.7457C66.732 58.0953 67.2576 58.1999 67.7144 58.0107C68.1711 57.8215 68.4689 57.3759 68.4689 56.8816L68.4692 43.4372C68.4692 43.1513 68.3691 42.8746 68.1863 42.6547L62.358 35.6609V23.8816ZM66.0247 43.8793L62.358 39.4798V50.2644L66.0247 53.9311V43.8793ZM59.797 22.6593C59.2099 19.31 56.4317 16.0583 55.0247 14.5961C53.6178 16.0584 50.8396 19.31 50.2525 22.6593H59.797ZM59.9137 25.1038H50.1359V43.437H59.9137V25.1038ZM59.9137 45.8815H50.1359V49.5482H59.9137V45.8815ZM50.8914 51.9925L52.1136 54.437H57.936L59.1582 51.9925H50.8914ZM55.0247 60.7045C55.7994 59.5187 56.4083 58.2324 56.8343 56.8815H53.215C53.6405 58.2325 54.2496 59.5189 55.0247 60.7045ZM47.6914 50.2643V39.4798L44.0247 43.8793V53.9309L47.6914 50.2643Z"/>
<path d="M56.2704 27.5479H53.8259C53.1508 27.5479 52.6037 28.0951 52.6037 28.7701C52.6037 29.4452 53.1508 29.9923 53.8259 29.9923H56.2704C56.9454 29.9923 57.4926 29.445 57.4926 28.7701C57.4926 28.0952 56.9454 27.5479 56.2704 27.5479Z"/>
<path d="M56.2704 32.4367H53.8259C53.1508 32.4367 52.6037 32.984 52.6037 33.6589C52.6037 34.3339 53.1508 34.8811 53.8259 34.8811H56.2704C56.9454 34.8811 57.4926 34.3338 57.4926 33.6589C57.4927 32.9839 56.9454 32.4367 56.2704 32.4367Z"/>
<path d="M55.0247 14.5961C56.4317 16.0583 59.2099 19.31 59.797 22.6593H50.2525C50.8396 19.31 53.6178 16.0584 55.0247 14.5961Z"/>
<path fill-rule="evenodd" clip-rule="evenodd" d="M50.1359 25.1038H59.9137V43.437H50.1359V25.1038ZM53.8259 27.5479H56.2704C56.9454 27.5479 57.4926 28.0952 57.4926 28.7701C57.4926 29.445 56.9454 29.9923 56.2704 29.9923H53.8259C53.1508 29.9923 52.6037 29.4452 52.6037 28.7701C52.6037 28.0951 53.1508 27.5479 53.8259 27.5479ZM53.8259 32.4367H56.2704C56.9454 32.4367 57.4927 32.9839 57.4926 33.6589C57.4926 34.3338 56.9454 34.8811 56.2704 34.8811H53.8259C53.1508 34.8811 52.6037 34.3339 52.6037 33.6589C52.6037 32.984 53.1508 32.4367 53.8259 32.4367Z"/>
<path d="M50.1359 45.8815H59.9137V49.5482H50.1359V45.8815Z"/>
<path d="M47.6914 39.4798V50.2643L44.0247 53.9309V43.8793L47.6914 39.4798Z"/>
<path d="M52.1136 54.437L50.8914 51.9925H59.1582L57.936 54.437H52.1136Z"/>
<path d="M56.8343 56.8815C56.4083 58.2324 55.7994 59.5187 55.0247 60.7045C54.2496 59.5189 53.6405 58.2325 53.215 56.8815H56.8343Z"/>
<path d="M62.358 39.4798L66.0247 43.8793V53.9311L62.358 50.2644V39.4798Z"/>
</mask>
<path fill-rule="evenodd" clip-rule="evenodd" d="M62.358 23.8816C62.358 17.8822 56.1061 12.2103 55.84 11.9716C55.3763 11.5551 54.6732 11.5551 54.2096 11.9716C53.9435 12.2103 47.6915 17.8822 47.6915 23.8816L47.6914 35.6609L41.8631 42.6547C41.6803 42.8744 41.5802 43.1513 41.5802 43.4372L41.5801 56.8815C41.5801 57.3757 41.8778 57.8215 42.3345 58.0105C42.7912 58.1997 43.3169 58.095 43.6664 57.7456L48.578 52.8335L50.2645 56.206C50.3723 56.4187 50.5404 56.5951 50.7476 56.7133C50.7526 58.6744 53.2457 62.5361 54.0099 63.6741C54.237 64.0119 54.6174 64.2148 55.0244 64.2148C55.4315 64.2148 55.8119 64.0121 56.0389 63.6741C56.8032 62.536 59.2961 58.6744 59.3013 56.7133C59.5085 56.5951 59.6765 56.4187 59.7844 56.206L61.4705 52.8338L66.3825 57.7457C66.732 58.0953 67.2576 58.1999 67.7144 58.0107C68.1711 57.8215 68.4689 57.3759 68.4689 56.8816L68.4692 43.4372C68.4692 43.1513 68.3691 42.8746 68.1863 42.6547L62.358 35.6609V23.8816ZM66.0247 43.8793L62.358 39.4798V50.2644L66.0247 53.9311V43.8793ZM59.797 22.6593C59.2099 19.31 56.4317 16.0583 55.0247 14.5961C53.6178 16.0584 50.8396 19.31 50.2525 22.6593H59.797ZM59.9137 25.1038H50.1359V43.437H59.9137V25.1038ZM59.9137 45.8815H50.1359V49.5482H59.9137V45.8815ZM50.8914 51.9925L52.1136 54.437H57.936L59.1582 51.9925H50.8914ZM55.0247 60.7045C55.7994 59.5187 56.4083 58.2324 56.8343 56.8815H53.215C53.6405 58.2325 54.2496 59.5189 55.0247 60.7045ZM47.6914 50.2643V39.4798L44.0247 43.8793V53.9309L47.6914 50.2643Z" fill="white"/>
<path d="M56.2704 27.5479H53.8259C53.1508 27.5479 52.6037 28.0951 52.6037 28.7701C52.6037 29.4452 53.1508 29.9923 53.8259 29.9923H56.2704C56.9454 29.9923 57.4926 29.445 57.4926 28.7701C57.4926 28.0952 56.9454 27.5479 56.2704 27.5479Z" fill="white"/>
<path d="M56.2704 32.4367H53.8259C53.1508 32.4367 52.6037 32.984 52.6037 33.6589C52.6037 34.3339 53.1508 34.8811 53.8259 34.8811H56.2704C56.9454 34.8811 57.4926 34.3338 57.4926 33.6589C57.4927 32.9839 56.9454 32.4367 56.2704 32.4367Z" fill="white"/>
<path d="M55.0247 14.5961C56.4317 16.0583 59.2099 19.31 59.797 22.6593H50.2525C50.8396 19.31 53.6178 16.0584 55.0247 14.5961Z" fill="white"/>
<path fill-rule="evenodd" clip-rule="evenodd" d="M50.1359 25.1038H59.9137V43.437H50.1359V25.1038ZM53.8259 27.5479H56.2704C56.9454 27.5479 57.4926 28.0952 57.4926 28.7701C57.4926 29.445 56.9454 29.9923 56.2704 29.9923H53.8259C53.1508 29.9923 52.6037 29.4452 52.6037 28.7701C52.6037 28.0951 53.1508 27.5479 53.8259 27.5479ZM53.8259 32.4367H56.2704C56.9454 32.4367 57.4927 32.9839 57.4926 33.6589C57.4926 34.3338 56.9454 34.8811 56.2704 34.8811H53.8259C53.1508 34.8811 52.6037 34.3339 52.6037 33.6589C52.6037 32.984 53.1508 32.4367 53.8259 32.4367Z" fill="white"/>
<path d="M50.1359 45.8815H59.9137V49.5482H50.1359V45.8815Z" fill="white"/>
<path d="M47.6914 39.4798V50.2643L44.0247 53.9309V43.8793L47.6914 39.4798Z" fill="white"/>
<path d="M52.1136 54.437L50.8914 51.9925H59.1582L57.936 54.437H52.1136Z" fill="white"/>
<path d="M56.8343 56.8815C56.4083 58.2324 55.7994 59.5187 55.0247 60.7045C54.2496 59.5189 53.6405 58.2325 53.215 56.8815H56.8343Z" fill="white"/>
<path d="M62.358 39.4798L66.0247 43.8793V53.9311L62.358 50.2644V39.4798Z" fill="white"/>
<path fill-rule="evenodd" clip-rule="evenodd" d="M62.358 23.8816C62.358 17.8822 56.1061 12.2103 55.84 11.9716C55.3763 11.5551 54.6732 11.5551 54.2096 11.9716C53.9435 12.2103 47.6915 17.8822 47.6915 23.8816L47.6914 35.6609L41.8631 42.6547C41.6803 42.8744 41.5802 43.1513 41.5802 43.4372L41.5801 56.8815C41.5801 57.3757 41.8778 57.8215 42.3345 58.0105C42.7912 58.1997 43.3169 58.095 43.6664 57.7456L48.578 52.8335L50.2645 56.206C50.3723 56.4187 50.5404 56.5951 50.7476 56.7133C50.7526 58.6744 53.2457 62.5361 54.0099 63.6741C54.237 64.0119 54.6174 64.2148 55.0244 64.2148C55.4315 64.2148 55.8119 64.0121 56.0389 63.6741C56.8032 62.536 59.2961 58.6744 59.3013 56.7133C59.5085 56.5951 59.6765 56.4187 59.7844 56.206L61.4705 52.8338L66.3825 57.7457C66.732 58.0953 67.2576 58.1999 67.7144 58.0107C68.1711 57.8215 68.4689 57.3759 68.4689 56.8816L68.4692 43.4372C68.4692 43.1513 68.3691 42.8746 68.1863 42.6547L62.358 35.6609V23.8816ZM66.0247 43.8793L62.358 39.4798V50.2644L66.0247 53.9311V43.8793ZM59.797 22.6593C59.2099 19.31 56.4317 16.0583 55.0247 14.5961C53.6178 16.0584 50.8396 19.31 50.2525 22.6593H59.797ZM59.9137 25.1038H50.1359V43.437H59.9137V25.1038ZM59.9137 45.8815H50.1359V49.5482H59.9137V45.8815ZM50.8914 51.9925L52.1136 54.437H57.936L59.1582 51.9925H50.8914ZM55.0247 60.7045C55.7994 59.5187 56.4083 58.2324 56.8343 56.8815H53.215C53.6405 58.2325 54.2496 59.5189 55.0247 60.7045ZM47.6914 50.2643V39.4798L44.0247 43.8793V53.9309L47.6914 50.2643Z" stroke="white" stroke-width="0.8" mask="url(#path-6-inside-5)"/>
<path d="M56.2704 27.5479H53.8259C53.1508 27.5479 52.6037 28.0951 52.6037 28.7701C52.6037 29.4452 53.1508 29.9923 53.8259 29.9923H56.2704C56.9454 29.9923 57.4926 29.445 57.4926 28.7701C57.4926 28.0952 56.9454 27.5479 56.2704 27.5479Z" stroke="white" stroke-width="0.8" mask="url(#path-6-inside-5)"/>
<path d="M56.2704 32.4367H53.8259C53.1508 32.4367 52.6037 32.984 52.6037 33.6589C52.6037 34.3339 53.1508 34.8811 53.8259 34.8811H56.2704C56.9454 34.8811 57.4926 34.3338 57.4926 33.6589C57.4927 32.9839 56.9454 32.4367 56.2704 32.4367Z" stroke="white" stroke-width="0.8" mask="url(#path-6-inside-5)"/>
<path d="M55.0247 14.5961C56.4317 16.0583 59.2099 19.31 59.797 22.6593H50.2525C50.8396 19.31 53.6178 16.0584 55.0247 14.5961Z" stroke="white" stroke-width="0.8" mask="url(#path-6-inside-5)"/>
<path fill-rule="evenodd" clip-rule="evenodd" d="M50.1359 25.1038H59.9137V43.437H50.1359V25.1038ZM53.8259 27.5479H56.2704C56.9454 27.5479 57.4926 28.0952 57.4926 28.7701C57.4926 29.445 56.9454 29.9923 56.2704 29.9923H53.8259C53.1508 29.9923 52.6037 29.4452 52.6037 28.7701C52.6037 28.0951 53.1508 27.5479 53.8259 27.5479ZM53.8259 32.4367H56.2704C56.9454 32.4367 57.4927 32.9839 57.4926 33.6589C57.4926 34.3338 56.9454 34.8811 56.2704 34.8811H53.8259C53.1508 34.8811 52.6037 34.3339 52.6037 33.6589C52.6037 32.984 53.1508 32.4367 53.8259 32.4367Z" stroke="white" stroke-width="0.8" mask="url(#path-6-inside-5)"/>
<path d="M50.1359 45.8815H59.9137V49.5482H50.1359V45.8815Z" stroke="white" stroke-width="0.8" mask="url(#path-6-inside-5)"/>
<path d="M47.6914 39.4798V50.2643L44.0247 53.9309V43.8793L47.6914 39.4798Z" stroke="white" stroke-width="0.8" mask="url(#path-6-inside-5)"/>
<path d="M52.1136 54.437L50.8914 51.9925H59.1582L57.936 54.437H52.1136Z" stroke="white" stroke-width="0.8" mask="url(#path-6-inside-5)"/>
<path d="M56.8343 56.8815C56.4083 58.2324 55.7994 59.5187 55.0247 60.7045C54.2496 59.5189 53.6405 58.2325 53.215 56.8815H56.8343Z" stroke="white" stroke-width="0.8" mask="url(#path-6-inside-5)"/>
<path d="M62.358 39.4798L66.0247 43.8793V53.9311L62.358 50.2644V39.4798Z" stroke="white" stroke-width="0.8" mask="url(#path-6-inside-5)"/>
<mask id="path-7-inside-6" fill="white">
<path fill-rule="evenodd" clip-rule="evenodd" d="M62.358 28.7704V23.8816C62.358 17.8822 56.1061 12.2103 55.84 11.9716C55.3763 11.5551 54.6732 11.5551 54.2096 11.9716C53.9435 12.2103 47.6915 17.8822 47.6915 23.8816V28.7704L47.6914 31.2149V35.6609L41.8631 42.6547C41.6803 42.8744 41.5802 43.1513 41.5802 43.4372V44.769L41.5801 47.2744V56.8815C41.5801 57.3757 41.8778 57.8215 42.3345 58.0105C42.7912 58.1997 43.3169 58.095 43.6664 57.7456L48.578 52.8335L50.2645 56.206C50.3723 56.4187 50.5404 56.5951 50.7476 56.7133C50.7526 58.6744 53.2457 62.5361 54.0099 63.6741C54.237 64.0119 54.6174 64.2148 55.0244 64.2148C55.4315 64.2148 55.8119 64.0121 56.0389 63.6741C56.8032 62.536 59.2961 58.6744 59.3013 56.7133C59.5085 56.5951 59.6765 56.4187 59.7844 56.206L61.4705 52.8338L66.3825 57.7457C66.732 58.0953 67.2576 58.1999 67.7144 58.0107C68.1711 57.8215 68.4689 57.3759 68.4689 56.8816V47.2745L68.4692 44.769V43.4372C68.4692 43.1513 68.3691 42.8746 68.1863 42.6547L62.358 35.6609V31.2149V28.7704ZM66.0247 43.8793L62.358 39.4798V50.2644L66.0247 53.9311V46.3847V43.8793ZM59.797 22.6593C59.2099 19.31 56.4317 16.0583 55.0247 14.5961C53.6178 16.0584 50.8396 19.31 50.2525 22.6593H59.797ZM59.9137 25.1038H50.1359V43.437H59.9137V25.1038ZM59.9137 45.8815H50.1359V49.5482H59.9137V45.8815ZM50.8914 51.9925L52.1136 54.437H57.936L59.1582 51.9925H50.8914ZM55.0247 60.7045C55.7994 59.5187 56.4083 58.2324 56.8343 56.8815H53.215C53.6405 58.2325 54.2496 59.5189 55.0247 60.7045ZM47.6914 50.2643V39.4798L44.0247 43.8793V53.9309L47.6914 50.2643Z"/>
</mask>
<path fill-rule="evenodd" clip-rule="evenodd" d="M62.358 28.7704V23.8816C62.358 17.8822 56.1061 12.2103 55.84 11.9716C55.3763 11.5551 54.6732 11.5551 54.2096 11.9716C53.9435 12.2103 47.6915 17.8822 47.6915 23.8816V28.7704L47.6914 31.2149V35.6609L41.8631 42.6547C41.6803 42.8744 41.5802 43.1513 41.5802 43.4372V44.769L41.5801 47.2744V56.8815C41.5801 57.3757 41.8778 57.8215 42.3345 58.0105C42.7912 58.1997 43.3169 58.095 43.6664 57.7456L48.578 52.8335L50.2645 56.206C50.3723 56.4187 50.5404 56.5951 50.7476 56.7133C50.7526 58.6744 53.2457 62.5361 54.0099 63.6741C54.237 64.0119 54.6174 64.2148 55.0244 64.2148C55.4315 64.2148 55.8119 64.0121 56.0389 63.6741C56.8032 62.536 59.2961 58.6744 59.3013 56.7133C59.5085 56.5951 59.6765 56.4187 59.7844 56.206L61.4705 52.8338L66.3825 57.7457C66.732 58.0953 67.2576 58.1999 67.7144 58.0107C68.1711 57.8215 68.4689 57.3759 68.4689 56.8816V47.2745L68.4692 44.769V43.4372C68.4692 43.1513 68.3691 42.8746 68.1863 42.6547L62.358 35.6609V31.2149V28.7704ZM66.0247 43.8793L62.358 39.4798V50.2644L66.0247 53.9311V46.3847V43.8793ZM59.797 22.6593C59.2099 19.31 56.4317 16.0583 55.0247 14.5961C53.6178 16.0584 50.8396 19.31 50.2525 22.6593H59.797ZM59.9137 25.1038H50.1359V43.437H59.9137V25.1038ZM59.9137 45.8815H50.1359V49.5482H59.9137V45.8815ZM50.8914 51.9925L52.1136 54.437H57.936L59.1582 51.9925H50.8914ZM55.0247 60.7045C55.7994 59.5187 56.4083 58.2324 56.8343 56.8815H53.215C53.6405 58.2325 54.2496 59.5189 55.0247 60.7045ZM47.6914 50.2643V39.4798L44.0247 43.8793V53.9309L47.6914 50.2643Z" fill="#E03632" stroke="white" stroke-width="0.8" mask="url(#path-7-inside-6)"/>
<mask id="path-8-inside-7" fill="white">
<path d="M56.2702 27.5479H53.8257C53.1506 27.5479 52.6035 28.095 52.6035 28.77C52.6035 29.4451 53.1506 29.9922 53.8257 29.9922H56.2702C56.9452 29.9922 57.4923 29.4449 57.4923 28.77C57.4923 28.0951 56.9452 27.5479 56.2702 27.5479Z"/>
</mask>
<path d="M56.2702 27.5479H53.8257C53.1506 27.5479 52.6035 28.095 52.6035 28.77C52.6035 29.4451 53.1506 29.9922 53.8257 29.9922H56.2702C56.9452 29.9922 57.4923 29.4449 57.4923 28.77C57.4923 28.0951 56.9452 27.5479 56.2702 27.5479Z" fill="#AFBAC1" stroke="white" stroke-width="0.8" mask="url(#path-8-inside-7)"/>
<mask id="path-9-inside-8" fill="white">
<path d="M56.2702 32.4365H53.8257C53.1506 32.4365 52.6035 32.9838 52.6035 33.6587C52.6035 34.3337 53.1506 34.8809 53.8257 34.8809H56.2702C56.9452 34.8809 57.4923 34.3336 57.4923 33.6587C57.4925 32.9837 56.9452 32.4365 56.2702 32.4365Z"/>
</mask>
<path d="M56.2702 32.4365H53.8257C53.1506 32.4365 52.6035 32.9838 52.6035 33.6587C52.6035 34.3337 53.1506 34.8809 53.8257 34.8809H56.2702C56.9452 34.8809 57.4923 34.3336 57.4923 33.6587C57.4925 32.9837 56.9452 32.4365 56.2702 32.4365Z" fill="#AFBAC1" stroke="white" stroke-width="0.8" mask="url(#path-9-inside-8)"/>
</g>
<defs>
<clipPath id="clip0">
<rect width="73.3333" height="73.3333" fill="white" transform="translate(18.335 11.7334)"/>
</clipPath>
</defs>
</svg>
