<svg width="14" height="14" viewBox="0 0 14 14" fill="none" xmlns="http://www.w3.org/2000/svg">
<mask id="mask0" mask-type="alpha" maskUnits="userSpaceOnUse" x="0" y="1" width="14" height="12">
<path fill-rule="evenodd" clip-rule="evenodd" d="M13.5912 6.10433H3.89781C3.63504 6.10433 3.51825 5.77592 3.69343 5.59679L6.49635 2.73064C6.67153 2.55151 6.67153 2.28281 6.49635 2.10367L5.85401 1.44685C5.67883 1.26772 5.41606 1.26772 5.24088 1.44685L0.131387 6.70144C-0.0437956 6.88058 -0.0437956 7.14928 0.131387 7.32841L5.24088 12.5532C5.41606 12.7323 5.67883 12.7323 5.85401 12.5532L6.46715 11.9262C6.64234 11.747 6.64234 11.4783 6.46715 11.2992L3.66423 8.43307C3.48905 8.22408 3.60584 7.89567 3.86861 7.89567H13.562C13.7956 7.89567 14 7.71654 14 7.47769V6.58202C14 6.34318 13.8248 6.10433 13.5912 6.10433Z" fill="#697882"/>
</mask>
<g mask="url(#mask0)">
<rect width="14" height="14" fill="#697882"/>
</g>
</svg>
