<svg width="35" height="34" viewBox="0 0 35 34" fill="none" xmlns="http://www.w3.org/2000/svg">
<rect x="0.5" y="0.5" width="34" height="33" fill="#EEEEEE" stroke="#EEEEEE"/>
<path d="M11.0714 22.0714V19.6607H13.4821V22.0714H11.0714ZM14.0179 22.0714V19.6607H16.6964V22.0714H14.0179ZM11.0714 19.125V16.4464H13.4821V19.125H11.0714ZM14.0179 19.125V16.4464H16.6964V19.125H14.0179ZM11.0714 15.9107V13.5H13.4821V15.9107H11.0714ZM17.2321 22.0714V19.6607H19.9107V22.0714H17.2321ZM14.0179 15.9107V13.5H16.6964V15.9107H14.0179ZM20.4464 22.0714V19.6607H22.8571V22.0714H20.4464ZM17.2321 19.125V16.4464H19.9107V19.125H17.2321ZM14.2857 11.8929C14.2857 12.0352 14.1602 12.1607 14.0179 12.1607H13.4821C13.3398 12.1607 13.2143 12.0352 13.2143 11.8929V9.48214C13.2143 9.33984 13.3398 9.21429 13.4821 9.21429H14.0179C14.1602 9.21429 14.2857 9.33984 14.2857 9.48214V11.8929ZM20.4464 19.125V16.4464H22.8571V19.125H20.4464ZM17.2321 15.9107V13.5H19.9107V15.9107H17.2321ZM20.4464 15.9107V13.5H22.8571V15.9107H20.4464ZM20.7143 11.8929C20.7143 12.0352 20.5887 12.1607 20.4464 12.1607H19.9107C19.7684 12.1607 19.6429 12.0352 19.6429 11.8929V9.48214C19.6429 9.33984 19.7684 9.21429 19.9107 9.21429H20.4464C20.5887 9.21429 20.7143 9.33984 20.7143 9.48214V11.8929ZM23.9286 11.3571C23.9286 10.7712 23.4431 10.2857 22.8571 10.2857H21.7857V9.48214C21.7857 8.74554 21.183 8.14286 20.4464 8.14286H19.9107C19.1741 8.14286 18.5714 8.74554 18.5714 9.48214V10.2857H15.3571V9.48214C15.3571 8.74554 14.7545 8.14286 14.0179 8.14286H13.4821C12.7455 8.14286 12.1429 8.74554 12.1429 9.48214V10.2857H11.0714C10.4855 10.2857 10 10.7712 10 11.3571V22.0714C10 22.6574 10.4855 23.1429 11.0714 23.1429H22.8571C23.4431 23.1429 23.9286 22.6574 23.9286 22.0714V11.3571Z" fill="#C5CDDA"/>
</svg>
