<svg width="16" height="16" viewBox="0 0 16 16" fill="none" xmlns="http://www.w3.org/2000/svg">
<path fill-rule="evenodd" clip-rule="evenodd" d="M14.3289 0H1.70344C0.768217 0 0 0.766667 0 1.7V14.2667C0 15.2333 0.768217 16 1.70344 16H14.2955C15.2307 16 15.999 15.2333 15.999 14.3V1.7C16.0324 0.766667 15.2641 0 14.3289 0ZM13.625 9.25491H12.875C12.675 9.25491 12.5 9.45471 12.5 9.62952V12.1269C12.5 12.3267 12.325 12.5015 12.125 12.5015H3.875C3.675 12.5015 3.5 12.3267 3.5 12.1269V9.62952C3.5 9.45471 3.325 9.25491 3.125 9.25491H2.375C2.175 9.25491 2 9.45471 2 9.62952V13.001C2 13.5504 2.45 14 3 14H13C13.55 14 14 13.5504 14 13.001V9.62952C14 9.45471 13.825 9.25491 13.625 9.25491ZM8.25005 2.11238C8.10005 1.96254 7.87505 1.96254 7.72505 2.11238L4.35005 5.48387C4.20005 5.63372 4.20005 5.85848 4.35005 6.00833L4.87505 6.53278C5.02505 6.68263 5.25005 6.68263 5.40005 6.53278L6.80005 5.13424C6.95005 4.98439 7.25005 5.08429 7.25005 5.30906V10.6035C7.25005 10.8033 7.40005 10.9782 7.60005 10.9782H8.35005C8.55005 10.9782 8.75005 10.7784 8.75005 10.6035V5.33403C8.75005 5.10926 9.00005 5.00937 9.17505 5.15921L10.575 6.55776C10.725 6.7076 10.95 6.7076 11.1 6.55776L11.625 6.0333C11.775 5.88346 11.775 5.65869 11.625 5.50885L8.25005 2.11238Z" fill="#697882"/>
</svg>
