<svg width="9" height="11" viewBox="0 0 9 11" fill="none" xmlns="http://www.w3.org/2000/svg">
<path fill-rule="evenodd" clip-rule="evenodd" d="M1.12441 3.89817H2.02441C2.15941 3.89817 2.24941 3.82944 2.24941 3.69199V3.66908C2.24941 2.36325 3.35191 1.28651 4.65691 1.37815C5.84941 1.46979 6.74941 2.52361 6.74941 3.76071V3.69199C6.74941 3.82944 6.83941 3.89817 6.97441 3.89817H7.87441C8.00941 3.89817 8.09941 3.82944 8.09941 3.69199V3.66908C8.09941 1.58433 6.38941 -0.0880428 4.31941 0.00359432C2.40691 0.0952314 0.944414 1.7447 0.899414 3.69199C0.921914 3.80653 1.01191 3.89817 1.12441 3.89817ZM0.899414 3.69189V3.78353V3.69189ZM9 5.73082C9 5.22682 8.595 4.81445 8.1 4.81445H0.9C0.405 4.81445 0 5.22682 0 5.73082V10.0836C0 10.5876 0.405 11 0.9 11H8.1C8.595 11 9 10.5876 9 10.0836V5.73082Z" fill="#697882"/>
<mask id="mask0" mask-type="alpha" maskUnits="userSpaceOnUse" x="0" y="0" width="9" height="11">
<path fill-rule="evenodd" clip-rule="evenodd" d="M1.12441 3.89817H2.02441C2.15941 3.89817 2.24941 3.82944 2.24941 3.69199V3.66908C2.24941 2.36325 3.35191 1.28651 4.65691 1.37815C5.84941 1.46979 6.74941 2.52361 6.74941 3.76071V3.69199C6.74941 3.82944 6.83941 3.89817 6.97441 3.89817H7.87441C8.00941 3.89817 8.09941 3.82944 8.09941 3.69199V3.66908C8.09941 1.58433 6.38941 -0.0880428 4.31941 0.00359432C2.40691 0.0952314 0.944414 1.7447 0.899414 3.69199C0.921914 3.80653 1.01191 3.89817 1.12441 3.89817ZM0.899414 3.69189V3.78353V3.69189ZM9 5.73082C9 5.22682 8.595 4.81445 8.1 4.81445H0.9C0.405 4.81445 0 5.22682 0 5.73082V10.0836C0 10.5876 0.405 11 0.9 11H8.1C8.595 11 9 10.5876 9 10.0836V5.73082ZM5.53524 9.32749C5.58024 9.46495 5.46774 9.62531 5.31024 9.62531H3.66774C3.51024 9.62531 3.42024 9.48786 3.44274 9.32749L3.84774 7.95294C3.51024 7.72384 3.30774 7.31148 3.37524 6.85329C3.46524 6.41801 3.80274 6.07438 4.25274 5.98274C4.97274 5.84528 5.60274 6.3722 5.60274 7.05947C5.60274 7.42602 5.42274 7.76966 5.13024 7.95294L5.53524 9.32749Z" fill="white"/>
</mask>
<g mask="url(#mask0)">
</g>
</svg>
