<svg width="12" height="12" viewBox="0 0 12 12" fill="none" xmlns="http://www.w3.org/2000/svg">
<circle cx="6" cy="6" r="6" fill="white"/>
<path fill-rule="evenodd" clip-rule="evenodd" d="M6 0C2.675 0 0 2.675 0 6C0 9.325 2.675 12 6 12C9.325 12 12 9.325 12 6C12 2.675 9.325 0 6 0ZM6.00002 10.5C3.50002 10.5 1.50002 8.5 1.50002 6C1.50002 3.5 3.50002 1.5 6.00002 1.5C8.50002 1.5 10.5 3.5 10.5 6C10.5 8.5 8.50002 10.5 6.00002 10.5ZM5.99998 3.02498C6.42498 3.02498 6.74998 3.34998 6.74998 3.77498C6.74998 4.19998 6.42498 4.52498 5.99998 4.52498C5.57498 4.52498 5.24998 4.19998 5.24998 3.77498C5.24998 3.34998 5.57498 3.02498 5.99998 3.02498ZM7.24998 8.27498C7.24998 8.39998 7.14998 8.49998 6.99998 8.49998H4.99998C4.87498 8.49998 4.74998 8.42498 4.74998 8.27498V7.77498C4.74998 7.64998 4.84998 7.49998 4.99998 7.49998C5.12498 7.49998 5.24998 7.42498 5.24998 7.27498V6.27498C5.24998 6.14998 5.14998 5.99998 4.99998 5.99998C4.87498 5.99998 4.74998 5.92498 4.74998 5.77498V5.27498C4.74998 5.14998 4.84998 4.99998 4.99998 4.99998H6.49998C6.62498 4.99998 6.74998 5.12498 6.74998 5.27498V7.27498C6.74998 7.39998 6.84998 7.49998 6.99998 7.49998C7.12498 7.49998 7.24998 7.62498 7.24998 7.77498V8.27498Z" fill="#C2CAD8"/>
<mask id="mask0" mask-type="alpha" maskUnits="userSpaceOnUse" x="0" y="0" width="12" height="12">
<path fill-rule="evenodd" clip-rule="evenodd" d="M6 0C2.675 0 0 2.675 0 6C0 9.325 2.675 12 6 12C9.325 12 12 9.325 12 6C12 2.675 9.325 0 6 0ZM6.00002 10.5C3.50002 10.5 1.50002 8.5 1.50002 6C1.50002 3.5 3.50002 1.5 6.00002 1.5C8.50002 1.5 10.5 3.5 10.5 6C10.5 8.5 8.50002 10.5 6.00002 10.5ZM5.99998 3.02498C6.42498 3.02498 6.74998 3.34998 6.74998 3.77498C6.74998 4.19998 6.42498 4.52498 5.99998 4.52498C5.57498 4.52498 5.24998 4.19998 5.24998 3.77498C5.24998 3.34998 5.57498 3.02498 5.99998 3.02498ZM7.24998 8.27498C7.24998 8.39998 7.14998 8.49998 6.99998 8.49998H4.99998C4.87498 8.49998 4.74998 8.42498 4.74998 8.27498V7.77498C4.74998 7.64998 4.84998 7.49998 4.99998 7.49998C5.12498 7.49998 5.24998 7.42498 5.24998 7.27498V6.27498C5.24998 6.14998 5.14998 5.99998 4.99998 5.99998C4.87498 5.99998 4.74998 5.92498 4.74998 5.77498V5.27498C4.74998 5.14998 4.84998 4.99998 4.99998 4.99998H6.49998C6.62498 4.99998 6.74998 5.12498 6.74998 5.27498V7.27498C6.74998 7.39998 6.84998 7.49998 6.99998 7.49998C7.12498 7.49998 7.24998 7.62498 7.24998 7.77498V8.27498Z" fill="white"/>
</mask>
<g mask="url(#mask0)">
</g>
</svg>