<svg width="16" height="16" viewBox="0 0 16 16" fill="none" xmlns="http://www.w3.org/2000/svg">
<path d="M14 2H5C4.73503 2.00079 4.48113 2.1064 4.29377 2.29377C4.1064 2.48113 4.00079 2.73503 4 3V10C4.00079 10.265 4.1064 10.5189 4.29377 10.7062C4.48113 10.8936 4.73503 10.9992 5 11H14C14.265 10.9992 14.5189 10.8936 14.7062 10.7062C14.8936 10.5189 14.9992 10.265 15 10V3C14.9992 2.73503 14.8936 2.48113 14.7062 2.29377C14.5189 2.1064 14.265 2.00079 14 2ZM14 10H5V3H14V10Z" fill="#697882"/>
<path d="M9 13H2V8H3V7H2C1.73503 7.00079 1.48113 7.1064 1.29377 7.29377C1.1064 7.48113 1.00079 7.73503 1 8V13C1.00079 13.265 1.1064 13.5189 1.29377 13.7062C1.48113 13.8936 1.73503 13.9992 2 14H9C9.26497 13.9992 9.51887 13.8936 9.70623 13.7062C9.8936 13.5189 9.99921 13.265 10 13V12H9V13Z" fill="#697882"/>
</svg>
