<svg width="14" height="14" viewBox="0 0 14 14" fill="none" xmlns="http://www.w3.org/2000/svg">
<mask id="mask0" mask-type="alpha" maskUnits="userSpaceOnUse" x="0" y="0" width="14" height="14">
<rect width="14" height="14" fill="#2E97DF"/>
</mask>
<g mask="url(#mask0)">
<path fill-rule="evenodd" clip-rule="evenodd" d="M6.98139 4.97903C5.83913 4.97903 4.93118 5.88698 4.93118 7.02924C4.93118 8.1715 5.83913 9.07945 6.98139 9.07945C8.12365 9.07945 9.0316 8.1715 9.0316 7.02924C9.0316 5.88698 8.12365 4.97903 6.98139 4.97903ZM13.1316 8.87448L12.0479 7.96653C12.1065 7.64435 12.1358 7.29289 12.1358 6.97071C12.1358 6.64854 12.1065 6.29707 12.0479 5.9749L13.1316 5.06695C13.4831 4.77406 13.6002 4.24686 13.3659 3.83682L12.8973 3.01674C12.7216 2.72385 12.3994 2.54812 12.0479 2.54812C11.9308 2.54812 11.8136 2.57741 11.7257 2.60669L10.3785 3.1046C9.85127 2.63598 9.26549 2.31381 8.65043 2.10879L8.41612 0.732218C8.32826 0.263598 7.91821 0 7.44959 0H6.51236C6.04374 0 5.63369 0.263598 5.54583 0.732218L5.31152 2.0795C4.66717 2.28452 4.08139 2.63598 3.5542 3.07531L2.20692 2.57741C2.08976 2.54812 2.0019 2.51883 1.88474 2.51883C1.53328 2.51883 1.2111 2.69456 1.03537 2.98745L0.56675 3.80753C0.33244 4.21757 0.420306 4.74477 0.801059 5.03766L1.88474 5.94561C1.82616 6.26778 1.79688 6.61925 1.79688 6.94142C1.79688 7.29289 1.82616 7.61506 1.88474 7.93724L0.801059 8.84519C0.449595 9.13808 0.33244 9.66527 0.56675 10.0753L1.03537 10.8954C1.2111 11.1883 1.53328 11.364 1.88474 11.364C2.0019 11.364 2.11905 11.3347 2.20692 11.3054L3.5542 10.8075C4.08139 11.2762 4.66717 11.5983 5.28223 11.8033L5.51654 13.2092C5.60441 13.6778 5.98516 14 6.48307 14H7.42031C7.88892 14 8.29897 13.6485 8.38683 13.1799L8.62114 11.7741C9.29478 11.5397 9.90985 11.1883 10.437 10.6904L11.6965 11.1883C11.8136 11.2176 11.9308 11.2469 12.0479 11.2469C12.3994 11.2469 12.7216 11.0711 12.8973 10.7782L13.3366 10.0167C13.6002 9.69456 13.4831 9.16736 13.1316 8.87448ZM6.98043 10.2511C5.19382 10.2511 3.75867 8.81598 3.75867 7.02937C3.75867 5.24276 5.19382 3.80762 6.98043 3.80762C8.76704 3.80762 10.2022 5.24276 10.2022 7.02937C10.2022 8.81598 8.76704 10.2511 6.98043 10.2511Z" fill="#2E97DF"/>
</g>
</svg>
