<?xml version="1.0" encoding="UTF-8"?>
<svg width="32px" height="32px" viewBox="0 0 32 32" version="1.1" xmlns="http://www.w3.org/2000/svg" xmlns:xlink="http://www.w3.org/1999/xlink">
    <!-- Generator: Sketch 44.1 (41455) - http://www.bohemiancoding.com/sketch -->
    <title>user</title>
    <desc>Created with Sketch.</desc>
    <defs></defs>
    <g id="Symbols" stroke="none" stroke-width="1" fill="none" fill-rule="evenodd">
        <g id="top" transform="translate(-1275.000000, -25.000000)">
            <g id="user">
                <g transform="translate(1187.000000, 25.000000)">
                    <g id="1492012080_user_male2" transform="translate(88.000000, 0.000000)">
                        <g>
                            <circle id="Oval" stroke="#697882" stroke-linecap="round" cx="16" cy="16" r="15.36"></circle>
                            <rect id="Rectangle-path" x="0" y="0" width="32" height="32"></rect>
                            <path d="M19.15712,22.73792 C19.06368,21.70624 19.09952,20.98624 19.09952,20.04352 C19.56672,19.7984 20.40384,18.23552 20.54528,16.9152 C20.91264,16.88512 21.49184,16.52672 21.66144,15.11168 C21.75296,14.352 21.38944,13.92448 21.168,13.79008 C21.76576,11.99232 23.00736,6.43072 18.87168,5.856 C18.44608,5.10848 17.35616,4.73024 15.93984,4.73024 C10.27328,4.83456 9.58976,9.00928 10.832,13.79008 C10.6112,13.92448 10.24768,14.352 10.33856,15.11168 C10.5088,16.52672 11.08736,16.88512 11.45472,16.9152 C11.59552,18.23488 12.46592,19.7984 12.9344,20.04352 C12.9344,20.98624 12.9696,21.70624 12.87616,22.73792 C12.06912,24.90752 7.92448,25.07712 5.53344,27.16928 C8.03328,29.6864 12.08448,31.48672 16.35968,31.48672 C20.63488,31.48672 25.66016,28.11136 26.49664,27.1904 C24.12032,25.07904 19.96608,24.9152 19.15712,22.73792 Z" id="Shape" fill="#697882" fill-rule="nonzero"></path>
                        </g>
                    </g>
                </g>
            </g>
        </g>
    </g>
</svg>