<svg width="94" height="78" viewBox="0 0 94 78" xmlns="http://www.w3.org/2000/svg"><g fill="none"><path d="M11.616 14.46a3.825 3.825 0 0 0 2.698-1.116 3.826 3.826 0 0 0 1.118-2.698 3.83 3.83 0 0 0-1.118-2.698 3.824 3.824 0 0 0-2.697-1.118A3.825 3.825 0 0 0 8.92 7.948a3.827 3.827 0 0 0-1.118 2.697 3.82 3.82 0 0 0 1.117 2.699c.702.708 1.7 1.12 2.697 1.117zm.002-5.93c1.13-.03 2.146.986 2.115 2.116.031 1.13-.987 2.146-2.116 2.115-1.13.03-2.147-.985-2.116-2.116-.03-1.13.985-2.146 2.117-2.116zm9.856 5.93a3.828 3.828 0 0 0 2.697-1.116 3.822 3.822 0 0 0 1.118-2.698 3.83 3.83 0 0 0-1.117-2.698 3.83 3.83 0 0 0-2.698-1.118 3.825 3.825 0 0 0-2.699 1.118 3.827 3.827 0 0 0-1.117 2.697 3.83 3.83 0 0 0 1.117 2.699 3.83 3.83 0 0 0 2.699 1.117zm0-5.93c1.129-.03 2.146.986 2.116 2.116.03 1.13-.987 2.146-2.116 2.115-1.132.032-2.147-.985-2.117-2.116-.03-1.13.987-2.146 2.117-2.116zm9.624 1.266h42.815v1.699H31.098zm8.789 27.044V23.045H13.4V36.84h26.486zM15.1 24.744h23.087V35.14H15.1V24.745zm29.871-1.698h22.826v1.699H44.971zM15.1 42.81h23.937v-1.7H13.4v22.638h14.942V62.05H15.101z" fill="#A2AEB7"/><path d="M93.808 46.364a3.233 3.233 0 0 0-3.16-2.603h-.791l-.023-.094-.21-.745a19.14 19.14 0 0 0-.531-1.473 19.578 19.578 0 0 0-.67-1.416l-.38-.675-.04-.063.591-.594a3.2 3.2 0 0 0 .878-1.782 3.237 3.237 0 0 0-.331-1.956 3.51 3.51 0 0 0-.594-.8l-.526-.526-.524-.525a3.46 3.46 0 0 0-.8-.593 3.23 3.23 0 0 0-3.739.547l-.527.526V6.067c0-.837-.181-1.68-.527-2.447A5.995 5.995 0 0 0 78.242.373C77.466.104 76.511.084 75.849.1H6.634L6.09.102a5.956 5.956 0 0 0-1.86.301A5.998 5.998 0 0 0 .62 3.708 6.014 6.014 0 0 0 .132 6.15v65.429c0 .199.009.416.029.624.04.417.125.832.254 1.232a5.996 5.996 0 0 0 3.27 3.642 5.953 5.953 0 0 0 2.447.512h70.297a5.988 5.988 0 0 0 5.973-5.384c.02-.207.028-.425.029-.623v-9.678l.528.525c.48.467 1.114.788 1.78.878a3.24 3.24 0 0 0 1.958-.33c.295-.157.574-.373.8-.595l.524-.525.526-.525a3.54 3.54 0 0 0 .593-.8 3.238 3.238 0 0 0 .331-1.958 3.2 3.2 0 0 0-.877-1.78l-.531-.535-.06-.059.04-.063.38-.676c.242-.463.466-.934.67-1.415.197-.485.374-.976.532-1.475l.209-.745.023-.093h.63c.178.007.556-.012.822-.068.288-.066.57-.163.834-.3 1.056-.536 1.75-1.721 1.724-2.884v-1.305a4.174 4.174 0 0 0-.06-.812zM80.73 69.96v1.622a4.233 4.233 0 0 1-.567 2.16 4.284 4.284 0 0 1-3.735 2.148H6.133a4.244 4.244 0 0 1-1.758-.366 4.292 4.292 0 0 1-2.522-3.487 5.424 5.424 0 0 1-.021-.457V6.15a4.276 4.276 0 0 1 .349-1.77 4.298 4.298 0 0 1 2.584-2.364 4.278 4.278 0 0 1 1.33-.215h69.753c.776-.012 1.284.002 1.886.193a4.302 4.302 0 0 1 2.62 2.325c.247.548.377 1.146.377 1.75v26.745c-.174-.081-.343-.172-.52-.246a18.857 18.857 0 0 0-1.474-.533l-.745-.21-.093-.021-.001-.82a3.23 3.23 0 0 0-2.254-3.042 3.388 3.388 0 0 0-.882-.14V16.788H7.802v54.063h66.96v-3.157c.29-.01.598-.051.884-.14a3.238 3.238 0 0 0 1.62-1.157 3.215 3.215 0 0 0 .632-1.887v-.82l.095-.022.744-.21c.5-.157.992-.334 1.475-.532.177-.075.346-.165.52-.246v7.279zM58.353 36.92c.09.666.412 1.3.876 1.78l.533.535.06.06-.038.062-.382.676c-.242.463-.466.935-.67 1.416-.198.484-.375.975-.532 1.473l-.21.745-.021.094h-.821a3.222 3.222 0 0 0-3.19 3.242v1.489c.002.319.048.668.148.988a3.22 3.22 0 0 0 1.156 1.619 3.214 3.214 0 0 0 1.886.633l.82.001.022.094.21.745c.157.499.335.99.531 1.474.205.481.427.953.67 1.416l.382.676.038.062-.592.595a3.229 3.229 0 0 0-.546 3.737c.157.296.372.575.594.8l.525.525.525.527c.227.222.506.437.8.592a3.231 3.231 0 0 0 3.739-.547l.593-.592.063.039.676.381c.463.242.935.466 1.416.67.483.198.975.375 1.473.533l.745.21.094.02v.822a3.22 3.22 0 0 0 .634 1.886c.398.547.977.95 1.62 1.157.286.088.593.13.882.14v1.457H9.501V18.488h63.561v9.313c-.29.012-.596.052-.883.141a3.221 3.221 0 0 0-2.253 3.042v.82l-.094.022-.745.21c-.498.157-.99.334-1.473.532-.482.204-.953.427-1.416.67l-.676.38-.063.04-.593-.59a3.21 3.21 0 0 0-1.78-.878 3.245 3.245 0 0 0-1.958.329c-.294.156-.574.37-.8.594l-.526.525-.525.526a3.516 3.516 0 0 0-.594.799 3.23 3.23 0 0 0-.33 1.957zm33.815 11.561a1.531 1.531 0 0 1-.815 1.379c-.273.131-.47.183-.867.174h-1.981l-.313 1.354-.191.685c-.142.447-.3.886-.477 1.32-.183.431-.384.854-.6 1.269l-.349.618c-.229.397-.544.8-.704 1.19l1.506 1.51c.221.231.371.523.413.84a1.52 1.52 0 0 1-.154.924 1.802 1.802 0 0 1-.29.386l-.525.526-.526.525a1.782 1.782 0 0 1-.386.29 1.527 1.527 0 0 1-1.764-.258l-1.509-1.507c-.39.156-.795.474-1.19.702l-.618.35a17.71 17.71 0 0 1-1.27.6c-.434.178-.874.336-1.32.477l-.684.192-1.354.312-.002 2.158a1.525 1.525 0 0 1-1.063 1.436 1.767 1.767 0 0 1-.477.07h-1.489a1.775 1.775 0 0 1-.48-.07 1.533 1.533 0 0 1-1.063-1.435l-.001-2.158-1.355-.311-.683-.193a17.46 17.46 0 0 1-1.321-.477c-.43-.182-.854-.384-1.27-.6l-.616-.35c-.398-.23-.801-.543-1.192-.704l-1.508 1.508a1.525 1.525 0 0 1-1.764.258 1.751 1.751 0 0 1-.387-.29l-.525-.524-.525-.525a1.792 1.792 0 0 1-.29-.388 1.542 1.542 0 0 1-.155-.924 1.51 1.51 0 0 1 .414-.84l1.505-1.51c-.16-.39-.474-.793-.704-1.19l-.349-.618a17.767 17.767 0 0 1-.6-1.269 16.93 16.93 0 0 1-.476-1.32l-.193-.685-.31-1.354h-2.158a1.516 1.516 0 0 1-.89-.3 1.534 1.534 0 0 1-.547-.763 1.765 1.765 0 0 1-.07-.479v-1.489c.005-.177.024-.324.07-.479a1.532 1.532 0 0 1 1.437-1.063h2.158l.31-1.354.193-.685c.14-.447.3-.886.476-1.32.183-.43.383-.854.6-1.269l.35-.617c.23-.397.546-.8.702-1.191l-1.504-1.509a1.516 1.516 0 0 1-.414-.84 1.54 1.54 0 0 1 .154-.924 1.76 1.76 0 0 1 .29-.387l.526-.526.525-.526c.127-.121.244-.21.387-.288a1.534 1.534 0 0 1 1.764.26l1.509 1.507c.39-.165.795-.476 1.19-.706l.618-.35c.415-.216.838-.417 1.269-.6.433-.177.874-.335 1.32-.477l.685-.191 1.354-.312V31a1.524 1.524 0 0 1 1.063-1.436 1.8 1.8 0 0 1 .48-.07h1.488c.178.004.323.024.48.07A1.533 1.533 0 0 1 76.198 31l.001 2.157 1.354.312.685.191c.446.142.886.3 1.319.478.432.182.854.383 1.269.6l.618.349c.397.23.8.546 1.19.705l1.51-1.508a1.534 1.534 0 0 1 1.765-.258c.14.078.258.166.386.29l.525.525.525.525c.124.129.211.244.29.387a1.529 1.529 0 0 1-.258 1.763l-1.505 1.51c.156.39.474.794.702 1.19l.349.618c.216.415.418.838.6 1.27.177.433.336.872.477 1.32l.192.684.312 1.353h2.144a1.531 1.531 0 0 1 1.355.835c.068.122.102.258.135.392.025.152.031.236.03.489v1.305z" fill="#E03632"/><path d="M73.913 39.191a8.56 8.56 0 0 0-8.555 8.557 8.566 8.566 0 0 0 2.505 6.05 8.56 8.56 0 0 0 12.099 0 8.562 8.562 0 0 0 2.506-6.05 8.56 8.56 0 0 0-8.555-8.557zm4.848 13.405a6.856 6.856 0 1 1-9.697-9.697 6.861 6.861 0 0 1 4.849-2.008 6.86 6.86 0 0 1 6.856 6.857 6.863 6.863 0 0 1-2.008 4.848z" fill="#A2AEB7"/><path d="M53.124 49.598l.29-.292a1.944 1.944 0 0 0 .506-1.685 1.941 1.941 0 0 0-.367-.83c-.22-.27-.331-.347-.49-.517-.162-.151-.258-.285-.533-.495a1.947 1.947 0 0 0-2.51.197l-.259.26c-.348-.205-.78-.422-1.185-.591a10.365 10.365 0 0 0-1.226-.411l-.002-.407a1.942 1.942 0 0 0-1.68-1.879c-.346-.035-.479-.012-.712-.019-.22.008-.383-.019-.727.025a1.946 1.946 0 0 0-1.636 1.916v.364l.003-.001c-.393.103-.853.255-1.261.424-.391.162-.873.412-1.153.578l-.291-.29a1.947 1.947 0 0 0-1.686-.506c-.3.054-.587.183-.83.366-.27.221-.347.331-.518.49-.15.162-.283.26-.495.533a1.945 1.945 0 0 0 .199 2.512l.223.224.034.034c-.206.351-.42.78-.59 1.186a10.51 10.51 0 0 0-.41 1.225l-.411.002a1.943 1.943 0 0 0-1.876 1.682c-.033.347-.011.478-.018.712.008.22-.018.385.027.726.046.303.167.593.348.837.354.496.96.8 1.569.798h.361v-.006c.105.402.256.855.424 1.266.092.205.18.413.286.613l.156.3.134.237-.292.296a1.944 1.944 0 0 0-.133 2.516c.22.27.329.344.49.515.16.15.26.286.533.496a1.947 1.947 0 0 0 2.51-.203l.257-.256c-.002-.002.006.002-.005-.003.353.208.783.423 1.191.594.391.166.908.327 1.224.41l.003.412a1.943 1.943 0 0 0 1.681 1.875c.347.035.48.012.713.019.22-.007.383.018.727-.026.301-.047.592-.168.836-.349.495-.354.8-.962.797-1.57v-.36h-.005c.4-.105.854-.256 1.264-.424.39-.163.873-.414 1.151-.578l.293.29a1.945 1.945 0 0 0 1.687.506c.3-.053.586-.183.828-.366.27-.222.348-.33.517-.491.152-.162.285-.259.496-.533a1.945 1.945 0 0 0-.198-2.51l-.224-.226-.034-.033c.205-.35.42-.78.59-1.185.165-.392.326-.907.41-1.226l.41-.002a1.945 1.945 0 0 0 1.877-1.68c.035-.346.012-.48.02-.713-.01-.22.017-.383-.028-.726a1.946 1.946 0 0 0-1.915-1.636h-.364a10.231 10.231 0 0 0-.422-1.257c-.164-.39-.412-.873-.579-1.154zM54.49 53.2a.75.75 0 0 1 .606.31c.155.21.15.36.146.862.004.5.013.676-.134.88a.753.753 0 0 1-.601.324l-.859.002h-.317c-.05.004-.112-.009-.152.008l-.035.154-.143.618c-.127.499-.228.79-.384 1.18a8.77 8.77 0 0 1-.54 1.076l-.338.543c-.224.193.027.33.165.482l.638.638a.75.75 0 0 1 .21.65c-.04.259-.148.36-.506.712-.35.355-.47.488-.718.527a.749.749 0 0 1-.653-.196l-.605-.603-.224-.224c-.037-.036-.075-.079-.113-.11l-.135.085-.538.336a8.714 8.714 0 0 1-1.108.568c-.374.15-.72.27-1.14.379l-.622.145-.154.035c-.024.007-.055.01-.074.02v1.303a.758.758 0 0 1-.31.609c-.212.155-.358.15-.86.145-.5.005-.678.014-.882-.133a.752.752 0 0 1-.324-.6l-.001-.856v-.317c-.003-.051.004-.11-.006-.154l-.155-.037-.616-.143a8.407 8.407 0 0 1-1.183-.385 8.91 8.91 0 0 1-1.074-.539l-.544-.338-.135-.085c-.021-.01-.045-.034-.066-.035l-.056.056-.224.225-.64.64a.754.754 0 0 1-.649.212c-.26-.04-.36-.146-.711-.505-.357-.35-.49-.47-.53-.718a.752.752 0 0 1 .194-.654l.602-.604.223-.224.113-.113-.084-.134-.335-.538-.182-.312-.137-.263c-.092-.174-.168-.356-.25-.535a9.268 9.268 0 0 1-.38-1.138l-.143-.623-.037-.154-.018-.076h-1.304a.755.755 0 0 1-.608-.31c-.155-.212-.15-.36-.146-.861-.004-.5-.012-.679.134-.882a.749.749 0 0 1 .6-.324h1.174c.05-.004.111.006.153-.008l.036-.154.143-.618a8.361 8.361 0 0 1 .924-2.257l.34-.543.082-.135c.01-.022.039-.046.032-.065l-.056-.057-.223-.225-.64-.638a.759.759 0 0 1-.208-.65c.04-.26.148-.361.506-.712.35-.356.469-.488.716-.527a.753.753 0 0 1 .655.196l.606.604.224.224c.038.035.074.081.113.106l.134-.085.538-.335a8.886 8.886 0 0 1 1.108-.567 9.116 9.116 0 0 1 1.142-.38l.621-.144.154-.035c.024-.009.057-.009.073-.023V44.87a.75.75 0 0 1 .31-.607c.212-.155.361-.15.863-.144.5-.004.675-.014.88.133a.75.75 0 0 1 .322.6l.002.86v.317c.005.05-.011.115.01.15l.155.036.618.144c.497.127.788.229 1.178.384.373.16.697.317 1.078.542.36.154.75.703 1.022.17l.638-.638a.758.758 0 0 1 .65-.21c.26.04.362.15.713.508.356.35.488.468.527.717a.752.752 0 0 1-.196.653l-.604.606-.225.224c-.034.039-.082.074-.104.114l.083.134.336.538c.266.447.395.722.566 1.108.15.375.27.716.38 1.143l.143.621.037.154c.008.023.007.059.023.071h1.3z" fill="#E03632"/><path d="M44.972 49.41a4.974 4.974 0 0 0-4.977 4.978 4.98 4.98 0 0 0 4.977 4.976 4.98 4.98 0 0 0 4.977-4.976 4.982 4.982 0 0 0-4.977-4.977zm2.677 7.655a3.786 3.786 0 1 1-5.355-5.356 3.79 3.79 0 0 1 5.355 0 3.787 3.787 0 0 1 0 5.356zM44.973 29.52h9.835v1.699h-9.835z" fill="#A2AEB7"/></g></svg>