<svg width="32" height="12" viewBox="0 0 32 12" xmlns="http://www.w3.org/2000/svg"><title>visa</title><g fill="none" fill-rule="evenodd"><path d="M12.906.905l-1.625 9.989h2.6L15.506.905h-2.6zm-3.813 0l-2.48 6.87-.293-1.48v.001l-.064-.331A8.283 8.283 0 0 0 3.949 3.04c-.388-.31-.78-.574-1.157-.8l2.253 8.654h2.71L11.89.905H9.093zM19.24 3.678c0-1.129 2.533-.984 3.646-.37l.37-2.146S22.113.727 20.92.727c-1.29 0-4.355.564-4.355 3.306 0 2.58 3.597 2.613 3.597 3.968s-3.226 1.113-4.29.258l-.388 2.242s1.161.565 2.936.565c1.774 0 4.451-.92 4.451-3.42 0-2.597-3.629-2.839-3.629-3.968zM29.853.905h-2.091c-.966 0-1.2.745-1.2.745l-3.879 9.244h2.71l.543-1.484h3.306l.305 1.484h2.387L29.853.905zM26.685 7.36l1.367-3.737.769 3.737h-2.136z" fill="#1575CB"/><path d="M5.481 1.846S5.373.944 4.224.944H.05l-.05.17s2.007.409 3.933 1.941c1.84 1.465 2.44 3.291 2.44 3.291l-.892-4.5z" fill="#F6AC1D"/><path opacity=".5" d="M0-10h32v32H0z"/></g></svg>