<svg width="20" height="20" viewBox="0 0 20 20" fill="none" xmlns="http://www.w3.org/2000/svg">
<path fill-rule="evenodd" clip-rule="evenodd" d="M2.91667 0.62435C2.91667 0.291363 2.625 0 2.29167 0H0.625C0.291667 0 0 0.291363 0 0.62435V13.5276C0 13.8606 0.291667 14.1519 0.625 14.1519H2.29167C2.625 14.1519 2.91667 13.8606 2.91667 13.5276V0.62435ZM19.9999 0.62435C19.9999 0.291363 19.7082 0 19.3749 0H17.7082C17.3749 0 17.0832 0.291363 17.0832 0.62435V13.5276C17.0832 13.8606 17.3749 14.1519 17.7082 14.1519H19.3749C19.7082 14.1519 19.9999 13.8606 19.9999 13.5276V0.62435ZM14.7918 0H13.5418C13.2085 0 12.9168 0.332987 12.9168 0.665973V5.82727C12.9168 5.99376 13.0002 6.11863 13.1668 6.20187C13.8752 6.57648 14.5002 7.03434 15.0418 7.57544C15.1668 7.70031 15.4168 7.61707 15.4168 7.45057V0.665973C15.4168 0.332987 15.1252 0 14.7918 0ZM9.20832 5.49428C9.45832 5.45266 9.74999 5.45266 9.99999 5.45266C10.25 5.45266 10.5417 5.45266 10.7917 5.49428C11.0417 5.5359 11.25 5.32779 11.25 5.07805V0.665973C11.25 0.332987 10.9583 0 10.625 0H9.37499C9.04166 0 8.74999 0.332987 8.74999 0.665973V5.07805C8.74999 5.32779 8.95832 5.5359 9.20832 5.49428ZM4.95817 7.57544C5.49984 6.99272 6.1665 6.53486 6.87484 6.20187C6.99984 6.11863 7.08317 5.99376 7.08317 5.82727V0.665973C7.08317 0.332987 6.7915 0 6.45817 0H5.20817C4.87484 0 4.58317 0.332987 4.58317 0.665973V7.45057C4.58317 7.61707 4.7915 7.70031 4.95817 7.57544ZM10 7.11759C7.00001 7.11759 4.58334 9.53174 4.58334 12.5286C4.58334 13.4443 4.83334 14.3601 5.25001 15.1093L2.29168 18.0645C2.04168 18.3143 2.04168 18.6889 2.29168 18.9386L3.16668 19.8127C3.41668 20.0624 3.79168 20.0624 4.04168 19.8127L6.91668 16.9407C7.79168 17.565 8.87501 17.9397 10 17.9397C13 17.9397 15.4167 15.5255 15.4167 12.5286C15.4167 9.53174 13 7.11759 10 7.11759ZM9.99984 15.4422C8.37484 15.4422 7.08317 14.1519 7.08317 12.5286C7.08317 10.9053 8.37484 9.61497 9.99984 9.61497C11.6248 9.61497 12.9165 10.9053 12.9165 12.5286C12.9165 14.1519 11.6248 15.4422 9.99984 15.4422Z" fill="#E03632"/>
<mask id="mask0" mask-type="alpha" maskUnits="userSpaceOnUse" x="0" y="0" width="20" height="21">
<path fill-rule="evenodd" clip-rule="evenodd" d="M2.91667 0.62435C2.91667 0.291363 2.625 0 2.29167 0H0.625C0.291667 0 0 0.291363 0 0.62435V13.5276C0 13.8606 0.291667 14.1519 0.625 14.1519H2.29167C2.625 14.1519 2.91667 13.8606 2.91667 13.5276V0.62435ZM19.9999 0.62435C19.9999 0.291363 19.7082 0 19.3749 0H17.7082C17.3749 0 17.0832 0.291363 17.0832 0.62435V13.5276C17.0832 13.8606 17.3749 14.1519 17.7082 14.1519H19.3749C19.7082 14.1519 19.9999 13.8606 19.9999 13.5276V0.62435ZM14.7918 0H13.5418C13.2085 0 12.9168 0.332987 12.9168 0.665973V5.82727C12.9168 5.99376 13.0002 6.11863 13.1668 6.20187C13.8752 6.57648 14.5002 7.03434 15.0418 7.57544C15.1668 7.70031 15.4168 7.61707 15.4168 7.45057V0.665973C15.4168 0.332987 15.1252 0 14.7918 0ZM9.20832 5.49428C9.45832 5.45266 9.74999 5.45266 9.99999 5.45266C10.25 5.45266 10.5417 5.45266 10.7917 5.49428C11.0417 5.5359 11.25 5.32779 11.25 5.07805V0.665973C11.25 0.332987 10.9583 0 10.625 0H9.37499C9.04166 0 8.74999 0.332987 8.74999 0.665973V5.07805C8.74999 5.32779 8.95832 5.5359 9.20832 5.49428ZM4.95817 7.57544C5.49984 6.99272 6.1665 6.53486 6.87484 6.20187C6.99984 6.11863 7.08317 5.99376 7.08317 5.82727V0.665973C7.08317 0.332987 6.7915 0 6.45817 0H5.20817C4.87484 0 4.58317 0.332987 4.58317 0.665973V7.45057C4.58317 7.61707 4.7915 7.70031 4.95817 7.57544ZM10 7.11759C7.00001 7.11759 4.58334 9.53174 4.58334 12.5286C4.58334 13.4443 4.83334 14.3601 5.25001 15.1093L2.29168 18.0645C2.04168 18.3143 2.04168 18.6889 2.29168 18.9386L3.16668 19.8127C3.41668 20.0624 3.79168 20.0624 4.04168 19.8127L6.91668 16.9407C7.79168 17.565 8.87501 17.9397 10 17.9397C13 17.9397 15.4167 15.5255 15.4167 12.5286C15.4167 9.53174 13 7.11759 10 7.11759ZM9.99984 15.4422C8.37484 15.4422 7.08317 14.1519 7.08317 12.5286C7.08317 10.9053 8.37484 9.61497 9.99984 9.61497C11.6248 9.61497 12.9165 10.9053 12.9165 12.5286C12.9165 14.1519 11.6248 15.4422 9.99984 15.4422Z" fill="white"/>
</mask>
<g mask="url(#mask0)">
</g>
</svg>
