<svg width="20" height="20" viewBox="0 0 20 20" fill="none" xmlns="http://www.w3.org/2000/svg">
<path fill-rule="evenodd" clip-rule="evenodd" d="M3.65382 14.359H8.65382C8.96151 14.359 9.23074 14 9.23074 13.5897V1.53846C9.23074 0.666667 8.53843 0 7.99997 0H3.65382C3.34613 0 3.07689 0.358974 3.07689 0.769231V13.5897C3.07689 14 3.34613 14.359 3.65382 14.359ZM18.9231 2.35899C18.6923 2.25643 18.4615 2.51284 18.4615 2.87181V15.641C18.4615 16.0513 18.1923 16.4103 17.8846 16.4103H2.11538C1.80769 16.4103 1.53846 16.0513 1.53846 15.641V2.92309C1.53846 2.56412 1.23077 2.30771 1 2.46155C0.423077 2.82053 0 3.64104 0 4.6154V16.4103C0 17.5385 0.692308 18.4616 1.53846 18.4616H7.88462C8.19231 18.4616 8.46154 18.8205 8.46154 19.2308C8.46154 19.641 8.73077 20 9.03846 20H10.9615C11.2692 20 11.5385 19.641 11.5385 19.2308C11.5385 18.8205 11.8077 18.4616 12.1154 18.4616H18.4615C19.3077 18.4616 20 17.5385 20 16.4103V4.6154C20 3.53848 19.7308 2.6154 18.9231 2.35899V2.35899ZM11.3462 14.359H16.3462C16.6539 14.359 16.9231 14 16.9231 13.5897V0.769231C16.9231 0.358974 16.6539 0 16.3462 0H12C11.4231 0 10.7693 0.666667 10.7693 1.53846V13.5897C10.7693 14 11.0385 14.359 11.3462 14.359V14.359Z" fill="#E03632"/>
<mask id="mask0" mask-type="alpha" maskUnits="userSpaceOnUse" x="0" y="0" width="20" height="21">
<path fill-rule="evenodd" clip-rule="evenodd" d="M3.65382 14.359H8.65382C8.96151 14.359 9.23074 14 9.23074 13.5897V1.53846C9.23074 0.666667 8.53843 0 7.99997 0H3.65382C3.34613 0 3.07689 0.358974 3.07689 0.769231V13.5897C3.07689 14 3.34613 14.359 3.65382 14.359ZM18.9231 2.35899C18.6923 2.25643 18.4615 2.51284 18.4615 2.87181V15.641C18.4615 16.0513 18.1923 16.4103 17.8846 16.4103H2.11538C1.80769 16.4103 1.53846 16.0513 1.53846 15.641V2.92309C1.53846 2.56412 1.23077 2.30771 1 2.46155C0.423077 2.82053 0 3.64104 0 4.6154V16.4103C0 17.5385 0.692308 18.4616 1.53846 18.4616H7.88462C8.19231 18.4616 8.46154 18.8205 8.46154 19.2308C8.46154 19.641 8.73077 20 9.03846 20H10.9615C11.2692 20 11.5385 19.641 11.5385 19.2308C11.5385 18.8205 11.8077 18.4616 12.1154 18.4616H18.4615C19.3077 18.4616 20 17.5385 20 16.4103V4.6154C20 3.53848 19.7308 2.6154 18.9231 2.35899V2.35899ZM11.3462 14.359H16.3462C16.6539 14.359 16.9231 14 16.9231 13.5897V0.769231C16.9231 0.358974 16.6539 0 16.3462 0H12C11.4231 0 10.7693 0.666667 10.7693 1.53846V13.5897C10.7693 14 11.0385 14.359 11.3462 14.359V14.359Z" fill="white"/>
</mask>
<g mask="url(#mask0)">
</g>
</svg>
