<svg width="18" height="18" viewBox="0 0 18 18" fill="none" xmlns="http://www.w3.org/2000/svg">
<path d="M14.625 2.25V15.75H3.375V2.25H14.625ZM14.625 1.125H3.375C3.07663 1.125 2.79048 1.24353 2.5795 1.4545C2.36853 1.66548 2.25 1.95163 2.25 2.25V15.75C2.25 16.0484 2.36853 16.3345 2.5795 16.5455C2.79048 16.7565 3.07663 16.875 3.375 16.875H14.625C14.9234 16.875 15.2095 16.7565 15.4205 16.5455C15.6315 16.3345 15.75 16.0484 15.75 15.75V2.25C15.75 1.95163 15.6315 1.66548 15.4205 1.4545C15.2095 1.24353 14.9234 1.125 14.625 1.125Z" fill="#E03632"/>
<path d="M5.0625 12.9375H6.1875V14.0625H5.0625V12.9375ZM11.8125 12.9375H12.9375V14.0625H11.8125V12.9375ZM5.0625 10.125H6.1875V11.25H5.0625V10.125ZM11.8125 10.125H12.9375V11.25H11.8125V10.125ZM5.0625 7.3125H6.1875V8.4375H5.0625V7.3125ZM8.4375 12.9375H9.5625V14.0625H8.4375V12.9375ZM8.4375 10.125H9.5625V11.25H8.4375V10.125ZM8.4375 7.3125H9.5625V8.4375H8.4375V7.3125ZM11.8125 7.3125H12.9375V8.4375H11.8125V7.3125ZM5.0625 3.9375H12.9375V5.625H5.0625V3.9375Z" fill="#E03632"/>
</svg>
