<svg width="20" height="20" viewBox="0 0 20 20" fill="none" xmlns="http://www.w3.org/2000/svg">
<path fill-rule="evenodd" clip-rule="evenodd" d="M16.4122 16.5632L16.0373 16.9928C15.6207 17.4702 15.0792 17.7088 14.496 17.7088H13.413C12.4133 17.7088 11.3302 16.8019 11.3302 15.2267V14.0334C11.3302 13.0788 11.7051 12.506 11.9134 12.1718L16.4122 6.92124C16.5371 6.77804 16.6621 6.44391 16.6621 6.25298V2.29117C16.6621 1.05012 15.7457 0 14.6627 0H3.99891C2.91587 0 1.99945 1.14558 1.99945 2.29117H1.33297C0.583174 2.29117 0 3.00716 0 3.86635C0 4.72554 0.583174 5.39379 1.33297 5.39379H1.99945V8.49642H1.33297C0.583174 8.49642 0 9.16468 0 10.0239C0 10.8831 0.583174 11.5513 1.33297 11.5513H1.99945V14.6539H1.33297C0.583174 14.6539 0 15.3699 0 16.1814C0 17.0406 0.583174 17.7088 1.33297 17.7088H1.99945C1.99945 19.2363 2.91587 20 3.99891 20H14.6627C15.7457 20 16.6621 18.9499 16.6621 17.7088V16.7064C16.6621 16.4678 16.5788 16.42 16.4122 16.5632V16.5632ZM12.9965 5.77566C12.9965 6.20525 12.7049 6.53938 12.33 6.53938H5.66514C5.29025 6.53938 4.99866 6.20525 4.99866 5.77566V5.01193C4.99866 4.58234 5.29025 4.24821 5.66514 4.24821H12.33C12.7049 4.24821 12.9965 4.58234 12.9965 5.01193V5.77566ZM9.99729 15.0358C9.99729 15.4654 9.70571 15.7995 9.33081 15.7995H5.66514C5.29025 15.7995 4.99866 15.4654 4.99866 15.0358V14.2721C4.99866 13.8425 5.29025 13.5084 5.66514 13.5084H9.33081C9.70571 13.5084 9.99729 13.8425 9.99729 14.2721V15.0358ZM10.997 10.4057C10.997 10.8353 10.7054 11.1695 10.3305 11.1695H5.66514C5.29025 11.1695 4.99866 10.8353 4.99866 10.4057V9.64201C4.99866 9.21241 5.29025 8.87829 5.66514 8.87829H10.3305C10.7054 8.87829 10.997 9.21241 10.997 9.64201V10.4057ZM19.7863 8.3055L19.3697 7.82818C19.1198 7.54178 18.7032 7.54178 18.4533 7.82818L13.3714 13.8425C13.3297 13.8425 13.3297 13.938 13.3297 13.938V15.2267C13.3297 15.3222 13.3297 15.4177 13.413 15.4177H14.4961C14.5377 15.4177 14.5794 15.3699 14.621 15.3699L19.7446 9.45109C20.0779 9.11696 20.0779 8.63963 19.7863 8.3055V8.3055Z" fill="#E03632"/>
<mask id="mask0" mask-type="alpha" maskUnits="userSpaceOnUse" x="0" y="0" width="21" height="20">
<path fill-rule="evenodd" clip-rule="evenodd" d="M16.4122 16.5632L16.0373 16.9928C15.6207 17.4702 15.0792 17.7088 14.496 17.7088H13.413C12.4133 17.7088 11.3302 16.8019 11.3302 15.2267V14.0334C11.3302 13.0788 11.7051 12.506 11.9134 12.1718L16.4122 6.92124C16.5371 6.77804 16.6621 6.44391 16.6621 6.25298V2.29117C16.6621 1.05012 15.7457 0 14.6627 0H3.99891C2.91587 0 1.99945 1.14558 1.99945 2.29117H1.33297C0.583174 2.29117 0 3.00716 0 3.86635C0 4.72554 0.583174 5.39379 1.33297 5.39379H1.99945V8.49642H1.33297C0.583174 8.49642 0 9.16468 0 10.0239C0 10.8831 0.583174 11.5513 1.33297 11.5513H1.99945V14.6539H1.33297C0.583174 14.6539 0 15.3699 0 16.1814C0 17.0406 0.583174 17.7088 1.33297 17.7088H1.99945C1.99945 19.2363 2.91587 20 3.99891 20H14.6627C15.7457 20 16.6621 18.9499 16.6621 17.7088V16.7064C16.6621 16.4678 16.5788 16.42 16.4122 16.5632V16.5632ZM12.9965 5.77566C12.9965 6.20525 12.7049 6.53938 12.33 6.53938H5.66514C5.29025 6.53938 4.99866 6.20525 4.99866 5.77566V5.01193C4.99866 4.58234 5.29025 4.24821 5.66514 4.24821H12.33C12.7049 4.24821 12.9965 4.58234 12.9965 5.01193V5.77566ZM9.99729 15.0358C9.99729 15.4654 9.70571 15.7995 9.33081 15.7995H5.66514C5.29025 15.7995 4.99866 15.4654 4.99866 15.0358V14.2721C4.99866 13.8425 5.29025 13.5084 5.66514 13.5084H9.33081C9.70571 13.5084 9.99729 13.8425 9.99729 14.2721V15.0358ZM10.997 10.4057C10.997 10.8353 10.7054 11.1695 10.3305 11.1695H5.66514C5.29025 11.1695 4.99866 10.8353 4.99866 10.4057V9.64201C4.99866 9.21241 5.29025 8.87829 5.66514 8.87829H10.3305C10.7054 8.87829 10.997 9.21241 10.997 9.64201V10.4057ZM19.7863 8.3055L19.3697 7.82818C19.1198 7.54178 18.7032 7.54178 18.4533 7.82818L13.3714 13.8425C13.3297 13.8425 13.3297 13.938 13.3297 13.938V15.2267C13.3297 15.3222 13.3297 15.4177 13.413 15.4177H14.4961C14.5377 15.4177 14.5794 15.3699 14.621 15.3699L19.7446 9.45109C20.0779 9.11696 20.0779 8.63963 19.7863 8.3055V8.3055Z" fill="white"/>
</mask>
<g mask="url(#mask0)">
</g>
</svg>
