<svg width="16" height="16" viewBox="0 0 16 16" fill="none" xmlns="http://www.w3.org/2000/svg">
<path d="M11.5 4.50256H14.5C14.7652 4.50256 15.0196 4.39721 15.2071 4.20967C15.3946 4.02213 15.5 3.76778 15.5 3.50256V1.50256C15.5 1.23735 15.3946 0.982993 15.2071 0.795457C15.0196 0.60792 14.7652 0.502563 14.5 0.502563H11.5C11.2348 0.502563 10.9804 0.60792 10.7929 0.795457C10.6054 0.982993 10.5 1.23735 10.5 1.50256V2.00256H5.5V1.50256C5.5 1.23735 5.39464 0.982993 5.20711 0.795457C5.01957 0.60792 4.76522 0.502563 4.5 0.502563H1.5C1.23478 0.502563 0.98043 0.60792 0.792893 0.795457C0.605357 0.982993 0.5 1.23735 0.5 1.50256V3.50256C0.5 3.76778 0.605357 4.02213 0.792893 4.20967C0.98043 4.39721 1.23478 4.50256 1.5 4.50256H4.5C4.76522 4.50256 5.01957 4.39721 5.20711 4.20967C5.39464 4.02213 5.5 3.76778 5.5 3.50256V3.00256H7.5V13.0026C7.50026 13.2677 7.60571 13.5219 7.79319 13.7094C7.98066 13.8969 8.23486 14.0023 8.5 14.0026H10.5V14.5026C10.5 14.7678 10.6054 15.0221 10.7929 15.2097C10.9804 15.3972 11.2348 15.5026 11.5 15.5026H14.5C14.7652 15.5026 15.0196 15.3972 15.2071 15.2097C15.3946 15.0221 15.5 14.7678 15.5 14.5026V12.5026C15.5 12.2373 15.3946 11.983 15.2071 11.7955C15.0196 11.6079 14.7652 11.5026 14.5 11.5026H11.5C11.2348 11.5026 10.9804 11.6079 10.7929 11.7955C10.6054 11.983 10.5 12.2373 10.5 12.5026V13.0026H8.5V8.50256H10.5V9.00256C10.5 9.26778 10.6054 9.52213 10.7929 9.70967C10.9804 9.89721 11.2348 10.0026 11.5 10.0026H14.5C14.7652 10.0026 15.0196 9.89721 15.2071 9.70967C15.3946 9.52213 15.5 9.26778 15.5 9.00256V7.00256C15.5 6.73735 15.3946 6.48299 15.2071 6.29546C15.0196 6.10792 14.7652 6.00256 14.5 6.00256H11.5C11.2348 6.00256 10.9804 6.10792 10.7929 6.29546C10.6054 6.48299 10.5 6.73735 10.5 7.00256V7.50256H8.5V3.00256H10.5V3.50256C10.5 3.76778 10.6054 4.02213 10.7929 4.20967C10.9804 4.39721 11.2348 4.50256 11.5 4.50256ZM11.5 1.50256H14.5V3.50256H11.5V1.50256ZM4.5 3.50256H1.5V1.50256H4.5V3.50256ZM11.5 12.5026H14.5V14.5026H11.5V12.5026ZM11.5 7.00256H14.5V9.00256H11.5V7.00256Z" fill="black"/>
</svg>
