<svg width="14" height="15" viewBox="0 0 14 15" fill="none" xmlns="http://www.w3.org/2000/svg">
<path fill-rule="evenodd" clip-rule="evenodd" d="M12.793 3.22917H9.11458V2.05208C9.11458 1.40469 8.5849 0.875 7.9375 0.875H6.17188C5.52448 0.875 4.99479 1.40469 4.99479 2.05208V3.22917H1.31641C1.08099 3.22917 0.875 3.43516 0.875 3.67057V4.55339C0.875 4.7888 1.08099 4.99479 1.31641 4.99479H12.793C13.0284 4.99479 13.2344 4.7888 13.2344 4.55339V3.67057C13.2344 3.43516 13.0284 3.22917 12.793 3.22917ZM6.17212 2.34636C6.17212 2.16979 6.28982 2.05209 6.46639 2.05209H7.64347C7.82003 2.05209 7.93774 2.16979 7.93774 2.34636V3.22917H6.17212V2.34636ZM11.6158 6.17179H2.49343C2.25801 6.17179 2.05202 6.37778 2.05202 6.61319V13.5286C2.05202 14.3525 2.69942 14.9999 3.52338 14.9999H10.5859C11.4098 14.9999 12.0572 14.3525 12.0572 13.5286V6.61319C12.0572 6.37778 11.8512 6.17179 11.6158 6.17179ZM6.17191 12.6459C6.17191 12.8225 6.0542 12.9402 5.87764 12.9402H5.2891C5.11254 12.9402 4.99483 12.8225 4.99483 12.6459V8.5261C4.99483 8.34954 5.11254 8.23183 5.2891 8.23183H5.87764C6.0542 8.23183 6.17191 8.34954 6.17191 8.5261V12.6459ZM9.11433 12.6459C9.11433 12.8225 8.99662 12.9402 8.82006 12.9402H8.23152C8.05496 12.9402 7.93725 12.8225 7.93725 12.6459V8.5261C7.93725 8.34954 8.05496 8.23183 8.23152 8.23183H8.82006C8.99662 8.23183 9.11433 8.34954 9.11433 8.5261V12.6459Z" fill="#697882"/>
<mask id="mask0" mask-type="alpha" maskUnits="userSpaceOnUse" x="0" y="1" width="14" height="14">
<rect y="1" width="14" height="14" fill="#697882"/>
</mask>
<g mask="url(#mask0)">
</g>
</svg>
