<svg width="14" height="14" viewBox="0 0 14 14" fill="none" xmlns="http://www.w3.org/2000/svg">
<path fill-rule="evenodd" clip-rule="evenodd" d="M13.6208 0H8.04998C7.81665 0 7.58332 0.145833 7.58332 0.379167V1.25417C7.58332 1.4875 7.78748 1.75 8.04998 1.75H10.3542C10.6167 1.75 10.7625 2.04167 10.5583 2.21667L5.59998 7.175C5.42498 7.35 5.42498 7.6125 5.59998 7.7875L6.21248 8.4C6.38748 8.575 6.64998 8.575 6.82498 8.4L11.7833 3.44167C11.9583 3.26667 12.25 3.38333 12.25 3.64583V5.95C12.25 6.18333 12.4833 6.44583 12.7167 6.44583H13.5625C13.7958 6.44583 14 6.18333 14 5.95V0.408333C14 0.145833 13.8542 0 13.6208 0V0ZM10.0042 6.85416L9.0125 7.875C8.8375 8.05 8.75 8.25416 8.75 8.4875V11.8125C8.75 12.0458 8.54583 12.25 8.3125 12.25H2.1875C1.95417 12.25 1.75 12.0458 1.75 11.8125V5.6875C1.75 5.45416 1.95417 5.25 2.1875 5.25H5.54167C5.775 5.25 6.00833 5.1625 6.15417 4.9875L7.14583 3.99583C7.32083 3.82083 7.20417 3.5 6.94167 3.5H1.16667C0.525 3.5 0 4.025 0 4.66666V12.8333C0 13.475 0.525 14 1.16667 14H9.33333C9.975 14 10.5 13.475 10.5 12.8333V7.05833C10.5 6.79583 10.1792 6.67916 10.0042 6.85416Z" fill="#697882"/>
<mask id="mask0" mask-type="alpha" maskUnits="userSpaceOnUse" x="0" y="0" width="14" height="14">
<path fill-rule="evenodd" clip-rule="evenodd" d="M13.6208 0H8.04998C7.81665 0 7.58332 0.145833 7.58332 0.379167V1.25417C7.58332 1.4875 7.78748 1.75 8.04998 1.75H10.3542C10.6167 1.75 10.7625 2.04167 10.5583 2.21667L5.59998 7.175C5.42498 7.35 5.42498 7.6125 5.59998 7.7875L6.21248 8.4C6.38748 8.575 6.64998 8.575 6.82498 8.4L11.7833 3.44167C11.9583 3.26667 12.25 3.38333 12.25 3.64583V5.95C12.25 6.18333 12.4833 6.44583 12.7167 6.44583H13.5625C13.7958 6.44583 14 6.18333 14 5.95V0.408333C14 0.145833 13.8542 0 13.6208 0V0ZM10.0042 6.85416L9.0125 7.875C8.8375 8.05 8.75 8.25416 8.75 8.4875V11.8125C8.75 12.0458 8.54583 12.25 8.3125 12.25H2.1875C1.95417 12.25 1.75 12.0458 1.75 11.8125V5.6875C1.75 5.45416 1.95417 5.25 2.1875 5.25H5.54167C5.775 5.25 6.00833 5.1625 6.15417 4.9875L7.14583 3.99583C7.32083 3.82083 7.20417 3.5 6.94167 3.5H1.16667C0.525 3.5 0 4.025 0 4.66666V12.8333C0 13.475 0.525 14 1.16667 14H9.33333C9.975 14 10.5 13.475 10.5 12.8333V7.05833C10.5 6.79583 10.1792 6.67916 10.0042 6.85416Z" fill="white"/>
</mask>
<g mask="url(#mask0)">
</g>
</svg>
