<svg width="14" height="14" viewBox="0 0 14 14" fill="none" xmlns="http://www.w3.org/2000/svg">
<path fill-rule="evenodd" clip-rule="evenodd" d="M13.4933 0H12.5431C12.2897 0 12.068 0.222222 12.068 0.47619V2.69841C12.068 2.98413 11.9097 3.11111 11.688 2.92063C11.5929 2.79365 11.4979 2.69841 11.3712 2.60317C9.78766 1.01587 7.57063 0.349206 5.29027 0.793651C4.49847 0.952381 3.73835 1.26984 3.07324 1.71429C1.14126 2.98413 0.0327533 5.04762 0.00108159 7.26984C-0.0305902 8.98413 0.634517 10.6984 1.83804 11.9365C3.10491 13.2698 4.81519 14 6.65215 14C8.26741 14 9.78766 13.4286 10.9912 12.4127C11.2129 12.2222 11.2129 11.9048 11.0229 11.7143L10.3577 11.0476C10.1994 10.8889 9.91434 10.8571 9.72431 11.0159C8.58413 11.9683 7.03221 12.3492 5.4803 11.9683C5.06856 11.873 4.65683 11.6825 4.27677 11.4603C2.47148 10.3492 1.61634 8.25397 2.12309 6.15873C2.2181 5.74603 2.40814 5.33333 2.62984 4.95238C3.51665 3.39683 5.06856 2.53968 6.7155 2.53968C7.98237 2.53968 9.18589 3.04762 10.0727 3.93651C10.2311 4.06349 10.3577 4.22222 10.4528 4.38095C10.5478 4.63492 10.3261 4.7619 10.041 4.7619H7.82401C7.57063 4.7619 7.34893 4.98413 7.34893 5.2381V6.22222C7.34893 6.47619 7.53896 6.66667 7.79234 6.66667H13.5883C13.81 6.66667 14 6.47619 14 6.25397V0.47619C13.9683 0.222222 13.7466 0 13.4933 0V0Z" fill="#697882"/>
<mask id="mask0" mask-type="alpha" maskUnits="userSpaceOnUse" x="0" y="0" width="14" height="14">
<path fill-rule="evenodd" clip-rule="evenodd" d="M13.4933 0H12.5431C12.2897 0 12.068 0.222222 12.068 0.47619V2.69841C12.068 2.98413 11.9097 3.11111 11.688 2.92063C11.5929 2.79365 11.4979 2.69841 11.3712 2.60317C9.78766 1.01587 7.57063 0.349206 5.29027 0.793651C4.49847 0.952381 3.73835 1.26984 3.07324 1.71429C1.14126 2.98413 0.0327533 5.04762 0.00108159 7.26984C-0.0305902 8.98413 0.634517 10.6984 1.83804 11.9365C3.10491 13.2698 4.81519 14 6.65215 14C8.26741 14 9.78766 13.4286 10.9912 12.4127C11.2129 12.2222 11.2129 11.9048 11.0229 11.7143L10.3577 11.0476C10.1994 10.8889 9.91434 10.8571 9.72431 11.0159C8.58413 11.9683 7.03221 12.3492 5.4803 11.9683C5.06856 11.873 4.65683 11.6825 4.27677 11.4603C2.47148 10.3492 1.61634 8.25397 2.12309 6.15873C2.2181 5.74603 2.40814 5.33333 2.62984 4.95238C3.51665 3.39683 5.06856 2.53968 6.7155 2.53968C7.98237 2.53968 9.18589 3.04762 10.0727 3.93651C10.2311 4.06349 10.3577 4.22222 10.4528 4.38095C10.5478 4.63492 10.3261 4.7619 10.041 4.7619H7.82401C7.57063 4.7619 7.34893 4.98413 7.34893 5.2381V6.22222C7.34893 6.47619 7.53896 6.66667 7.79234 6.66667H13.5883C13.81 6.66667 14 6.47619 14 6.25397V0.47619C13.9683 0.222222 13.7466 0 13.4933 0V0Z" fill="white"/>
</mask>
<g mask="url(#mask0)">
</g>
</svg>
