<svg width="14" height="14" viewBox="0 0 14 14" fill="none" xmlns="http://www.w3.org/2000/svg">
<path fill-rule="evenodd" clip-rule="evenodd" d="M1.56667 9.94585V2.71251C0.7 2.71251 0 3.32501 0 4.05418V12.6292C0 13.3875 0.7 14 1.56667 14H9.33333C10.2 14 10.9 13.3875 10.9 12.6583H4.66667C2.96667 12.6583 1.56667 12.6583 1.56667 9.94585V9.94585ZM13.4666 4.05417H10.8666C9.99998 4.05417 9.29998 3.44167 9.29998 2.7125V0.4375C9.33331 0.204167 9.09998 0 8.79998 0H4.66665C3.79998 0 3.09998 0.6125 3.09998 1.34167V9.91667C3.09998 10.675 3.79998 11.2583 4.66665 11.2583H12.4333C13.3 11.2583 14 10.6458 14 9.91667V4.52083C14 4.25833 13.7666 4.05417 13.4666 4.05417V4.05417ZM13.9 2.15833L11.5 0.0875C11.4333 0.0291667 11.3667 0 11.2667 0C11.0667 0 10.9 0.145833 10.9 0.320833V1.80833C10.9 2.30417 11.3667 2.7125 11.9333 2.7125H13.6333C13.8333 2.7125 14 2.56667 14 2.39167C14 2.30417 13.9667 2.24583 13.9 2.15833Z" fill="#697882"/>
<mask id="mask0" mask-type="alpha" maskUnits="userSpaceOnUse" x="0" y="0" width="14" height="15">
<path fill-rule="evenodd" clip-rule="evenodd" d="M1.56667 9.94585V2.71251C0.7 2.71251 0 3.32501 0 4.05418V12.6292C0 13.3875 0.7 14 1.56667 14H9.33333C10.2 14 10.9 13.3875 10.9 12.6583H4.66667C2.96667 12.6583 1.56667 12.6583 1.56667 9.94585V9.94585ZM13.4666 4.05417H10.8666C9.99998 4.05417 9.29998 3.44167 9.29998 2.7125V0.4375C9.33331 0.204167 9.09998 0 8.79998 0H4.66665C3.79998 0 3.09998 0.6125 3.09998 1.34167V9.91667C3.09998 10.675 3.79998 11.2583 4.66665 11.2583H12.4333C13.3 11.2583 14 10.6458 14 9.91667V4.52083C14 4.25833 13.7666 4.05417 13.4666 4.05417V4.05417ZM13.9 2.15833L11.5 0.0875C11.4333 0.0291667 11.3667 0 11.2667 0C11.0667 0 10.9 0.145833 10.9 0.320833V1.80833C10.9 2.30417 11.3667 2.7125 11.9333 2.7125H13.6333C13.8333 2.7125 14 2.56667 14 2.39167C14 2.30417 13.9667 2.24583 13.9 2.15833Z" fill="white"/>
</mask>
<g mask="url(#mask0)">
</g>
</svg>
