<svg width="14" height="14" viewBox="0 0 14 14" fill="none" xmlns="http://www.w3.org/2000/svg">
<path fill-rule="evenodd" clip-rule="evenodd" d="M7 0C3.12083 0 0 3.12083 0 7C0 10.8792 3.12083 14 7 14C10.8792 14 14 10.8792 14 7C14 3.12083 10.8792 0 7 0ZM8.42917 7.23333L10.7042 9.50833C10.8208 9.625 10.8208 9.8 10.7042 9.91666L9.8875 10.7333C9.77084 10.85 9.59584 10.85 9.47917 10.7333L7.20417 8.45833C7.0875 8.34167 6.9125 8.34167 6.79584 8.45833L4.52084 10.7333C4.40417 10.85 4.22917 10.85 4.1125 10.7333L3.29584 9.91666C3.17917 9.8 3.17917 9.625 3.29584 9.50833L5.57084 7.23333C5.6875 7.11666 5.6875 6.94167 5.57084 6.825L3.26667 4.52083C3.15 4.40417 3.15 4.22917 3.26667 4.1125L4.08334 3.29583C4.2 3.17917 4.375 3.17917 4.49167 3.29583L6.79584 5.6C6.9125 5.71667 7.0875 5.71667 7.20417 5.6L9.47917 3.325C9.59584 3.20833 9.77084 3.20833 9.8875 3.325L10.7042 4.14167C10.8208 4.25833 10.8208 4.43333 10.7042 4.55L8.42917 6.825C8.34167 6.94167 8.34167 7.11666 8.42917 7.23333Z" fill="#C2CAD8"/>
<mask id="mask0" mask-type="alpha" maskUnits="userSpaceOnUse" x="0" y="0" width="14" height="14">
<path fill-rule="evenodd" clip-rule="evenodd" d="M7 0C3.12083 0 0 3.12083 0 7C0 10.8792 3.12083 14 7 14C10.8792 14 14 10.8792 14 7C14 3.12083 10.8792 0 7 0ZM8.42917 7.23333L10.7042 9.50833C10.8208 9.625 10.8208 9.8 10.7042 9.91666L9.8875 10.7333C9.77084 10.85 9.59584 10.85 9.47917 10.7333L7.20417 8.45833C7.0875 8.34167 6.9125 8.34167 6.79584 8.45833L4.52084 10.7333C4.40417 10.85 4.22917 10.85 4.1125 10.7333L3.29584 9.91666C3.17917 9.8 3.17917 9.625 3.29584 9.50833L5.57084 7.23333C5.6875 7.11666 5.6875 6.94167 5.57084 6.825L3.26667 4.52083C3.15 4.40417 3.15 4.22917 3.26667 4.1125L4.08334 3.29583C4.2 3.17917 4.375 3.17917 4.49167 3.29583L6.79584 5.6C6.9125 5.71667 7.0875 5.71667 7.20417 5.6L9.47917 3.325C9.59584 3.20833 9.77084 3.20833 9.8875 3.325L10.7042 4.14167C10.8208 4.25833 10.8208 4.43333 10.7042 4.55L8.42917 6.825C8.34167 6.94167 8.34167 7.11666 8.42917 7.23333Z" fill="white"/>
</mask>
<g mask="url(#mask0)">
</g>
</svg>
