<svg width="14" height="14" viewBox="0 0 14 14" fill="none" xmlns="http://www.w3.org/2000/svg">
<path d="M6.72383 7.00273C6.58711 6.56523 6.58984 5.72031 6.66914 5.72031C6.89883 5.72031 6.87695 6.7293 6.72383 7.00273ZM6.67734 8.29336C6.4668 8.8457 6.2043 9.47734 5.90078 10.0078C6.40117 9.81641 6.96719 9.5375 7.6207 9.40898C7.27344 9.14648 6.93984 8.76914 6.67734 8.29336ZM4.1043 11.7059C4.1043 11.7277 4.46523 11.5582 5.05859 10.6066C4.87539 10.7789 4.26289 11.2766 4.1043 11.7059ZM8.53125 4.375H12.25V13.3438C12.25 13.7074 11.9574 14 11.5938 14H2.40625C2.04258 14 1.75 13.7074 1.75 13.3438V0.65625C1.75 0.292578 2.04258 0 2.40625 0H7.875V3.71875C7.875 4.07969 8.17031 4.375 8.53125 4.375ZM8.3125 9.07266C7.76562 8.73906 7.40195 8.27969 7.14492 7.60156C7.26797 7.0957 7.46211 6.32734 7.31445 5.84609C7.18594 5.04219 6.15508 5.12148 6.00742 5.66016C5.8707 6.16055 5.99648 6.86602 6.22891 7.76562C5.91172 8.52031 5.44414 9.53203 5.11328 10.1117C5.11055 10.1117 5.11055 10.1145 5.10781 10.1145C4.3668 10.4945 3.09531 11.3312 3.61758 11.9738C3.7707 12.1625 4.05508 12.2473 4.20547 12.2473C4.69492 12.2473 5.18164 11.7551 5.87617 10.5574C6.58164 10.325 7.35547 10.0352 8.03633 9.92305C8.62969 10.2457 9.32422 10.4562 9.78633 10.4562C10.5848 10.4562 10.6395 9.58125 10.325 9.26953C9.94492 8.89766 8.84023 9.0043 8.3125 9.07266V9.07266ZM12.0586 2.87109L9.37891 0.191406C9.25586 0.0683594 9.08906 0 8.91406 0H8.75V3.5H12.25V3.3332C12.25 3.16094 12.1816 2.99414 12.0586 2.87109ZM10.0324 9.85195C10.1445 9.77812 9.96406 9.52656 8.86211 9.60586C9.87656 10.0379 10.0324 9.85195 10.0324 9.85195Z" fill="#697882"/>
<mask id="mask0" mask-type="alpha" maskUnits="userSpaceOnUse" x="0" y="0" width="14" height="14">
<rect width="14" height="14" fill="#697882"/>
</mask>
<g mask="url(#mask0)">
</g>
</svg>
