<svg width="14" height="14" viewBox="0 0 14 14" fill="none" xmlns="http://www.w3.org/2000/svg">
<mask id="mask0" mask-type="alpha" maskUnits="userSpaceOnUse" x="0" y="0" width="14" height="14">
<rect width="14" height="14" fill="#697882"/>
</mask>
<g mask="url(#mask0)">
<path fill-rule="evenodd" clip-rule="evenodd" d="M7.875 0V3.71875C7.875 4.07969 8.17031 4.375 8.53125 4.375H12.25V13.3438C12.25 13.7074 11.9574 14 11.5938 14H2.40625C2.04258 14 1.75 13.7074 1.75 13.3438V0.65625C1.75 0.292578 2.04258 0 2.40625 0H7.875ZM9.38164 0.191406L12.0586 2.87109C12.1816 2.99414 12.25 3.16094 12.25 3.3332V3.5H8.75V0H8.9168C9.0918 0 9.25859 0.0683594 9.38164 0.191406ZM3.5 6.125V7.35H10.5V6.125H3.5ZM3.5 9.8V8.575H10.5V9.8H3.5ZM3.5 12.25V11.025H10.5V12.25H3.5Z" fill="#697882"/>
</g>
</svg>
