<svg width="14" height="14" viewBox="0 0 14 14" fill="none" xmlns="http://www.w3.org/2000/svg">
<path fill-rule="evenodd" clip-rule="evenodd" d="M13.65 0H9.12919C8.83752 0 8.75002 0.2625 8.98335 0.495833L10.4125 1.925L7.78752 4.55C7.64169 4.69583 7.64169 4.92917 7.78752 5.10417L8.86669 6.18333C9.01252 6.32917 9.24585 6.32917 9.42085 6.18333L12.075 3.52917L13.5042 4.95833C13.7375 5.19167 14 5.10417 14 4.8125V0.320833C14 0.145833 13.825 0 13.65 0ZM0.4375 14H4.92917C5.22083 14 5.30833 13.6792 5.075 13.4458L3.64583 11.9875L6.27083 9.33333C6.41667 9.18749 6.41667 8.92499 6.27083 8.77916L5.19167 7.69999C5.04583 7.55416 4.8125 7.55416 4.6375 7.69999L2.0125 10.325L0.554167 8.89583C0.291667 8.66249 0 8.74999 0 9.04166V13.5333C0 13.7375 0.233333 14 0.4375 14ZM14 13.65V9.12916C14 8.83749 13.7375 8.75 13.5042 8.98333L12.075 10.4125L9.45 7.7875C9.30416 7.64166 9.07083 7.64166 8.89583 7.7875L7.81666 8.86666C7.67083 9.0125 7.67083 9.24583 7.81666 9.42083L10.4708 12.075L9.04166 13.5042C8.80833 13.7375 8.89583 14 9.1875 14H13.6792C13.8542 14 14 13.825 14 13.65ZM0 0.4375V4.92917C0 5.22083 0.320833 5.30833 0.554167 5.075L2.0125 3.64583L4.66667 6.27083C4.8125 6.41667 5.075 6.41667 5.22083 6.27083L6.3 5.19167C6.44583 5.04583 6.44583 4.8125 6.3 4.6375L3.675 2.0125L5.10417 0.554167C5.3375 0.291667 5.25 0 4.95833 0H0.466667C0.2625 0 0 0.233333 0 0.4375Z" fill="#697882"/>
<mask id="mask0" mask-type="alpha" maskUnits="userSpaceOnUse" x="0" y="0" width="15" height="14">
<path fill-rule="evenodd" clip-rule="evenodd" d="M13.65 0H9.12919C8.83752 0 8.75002 0.2625 8.98335 0.495833L10.4125 1.925L7.78752 4.55C7.64169 4.69583 7.64169 4.92917 7.78752 5.10417L8.86669 6.18333C9.01252 6.32917 9.24585 6.32917 9.42085 6.18333L12.075 3.52917L13.5042 4.95833C13.7375 5.19167 14 5.10417 14 4.8125V0.320833C14 0.145833 13.825 0 13.65 0ZM0.4375 14H4.92917C5.22083 14 5.30833 13.6792 5.075 13.4458L3.64583 11.9875L6.27083 9.33333C6.41667 9.18749 6.41667 8.92499 6.27083 8.77916L5.19167 7.69999C5.04583 7.55416 4.8125 7.55416 4.6375 7.69999L2.0125 10.325L0.554167 8.89583C0.291667 8.66249 0 8.74999 0 9.04166V13.5333C0 13.7375 0.233333 14 0.4375 14ZM14 13.65V9.12916C14 8.83749 13.7375 8.75 13.5042 8.98333L12.075 10.4125L9.45 7.7875C9.30416 7.64166 9.07083 7.64166 8.89583 7.7875L7.81666 8.86666C7.67083 9.0125 7.67083 9.24583 7.81666 9.42083L10.4708 12.075L9.04166 13.5042C8.80833 13.7375 8.89583 14 9.1875 14H13.6792C13.8542 14 14 13.825 14 13.65ZM0 0.4375V4.92917C0 5.22083 0.320833 5.30833 0.554167 5.075L2.0125 3.64583L4.66667 6.27083C4.8125 6.41667 5.075 6.41667 5.22083 6.27083L6.3 5.19167C6.44583 5.04583 6.44583 4.8125 6.3 4.6375L3.675 2.0125L5.10417 0.554167C5.3375 0.291667 5.25 0 4.95833 0H0.466667C0.2625 0 0 0.233333 0 0.4375Z" fill="white"/>
</mask>
<g mask="url(#mask0)">
</g>
</svg>
