<svg width="20" height="20" viewBox="0 0 20 20" fill="none" xmlns="http://www.w3.org/2000/svg">
<path fill-rule="evenodd" clip-rule="evenodd" d="M13 13.5097V18.4152C13 18.7338 13.3518 18.8294 13.6076 18.5745L15.2066 17.0137L18.1168 19.8805C18.2767 20.0398 18.5646 20.0398 18.7245 19.8805L19.9077 18.7019C20.0356 18.5427 20.0356 18.2878 19.8757 18.0967L16.9975 15.2298L18.5646 13.6052C18.8204 13.3504 18.7245 13 18.4047 13H13.4797C13.2558 13 13 13.2867 13 13.5097Z" fill="#697882"/>
<path fill-rule="evenodd" clip-rule="evenodd" d="M13.5097 7H18.4152C18.7338 7 18.8294 6.64822 18.5745 6.39238L17.0137 4.79337L19.8805 1.88317C20.0398 1.72327 20.0398 1.43545 19.8805 1.27554L18.7019 0.0922769C18.5427 -0.0356439 18.2878 -0.0356439 18.0967 0.124257L15.2298 3.00248L13.6052 1.43545C13.3504 1.1796 13 1.27554 13 1.59535V6.5203C13 6.74416 13.2867 7 13.5097 7Z" fill="#697882"/>
<path fill-rule="evenodd" clip-rule="evenodd" d="M7 6.49033V1.58476C7 1.26621 6.6496 1.17065 6.39477 1.42548L4.80205 2.98635L1.9033 0.119454C1.74403 -0.039818 1.45734 -0.039818 1.29807 0.119454L0.119454 1.29807C-0.039818 1.45734 -0.039818 1.71217 0.119454 1.9033L3.0182 4.80205L1.45734 6.42662C1.17065 6.6496 1.26621 7 1.58476 7H6.45848C6.68146 7 7 6.71331 7 6.49033Z" fill="#697882"/>
<path fill-rule="evenodd" clip-rule="evenodd" d="M6.49033 13H1.58476C1.26621 13 1.17065 13.3504 1.42548 13.6052L2.98635 15.198L0.119454 18.0967C-0.039818 18.256 -0.039818 18.5427 0.119454 18.7019L1.29807 19.8805C1.45734 20.0398 1.71217 20.0398 1.9033 19.8805L4.80205 16.9818L6.42662 18.5427C6.6496 18.8294 7 18.7338 7 18.4152V13.5415C7 13.3185 6.71331 13 6.49033 13Z" fill="#697882"/>
</svg>
