<svg width="16" height="16" viewBox="0 0 16 16" fill="none" xmlns="http://www.w3.org/2000/svg">
<path fill-rule="evenodd" clip-rule="evenodd" d="M14.3289 0H1.70344C0.768217 0 0 0.766667 0 1.7V14.2667C0 15.2333 0.768217 16 1.70344 16H14.2955C15.2307 16 15.999 15.2333 15.999 14.3V1.7C16.0324 0.766667 15.2641 0 14.3289 0ZM7.7526 13.5C7.66528 13.5 7.54886 13.4677 7.43243 13.403C7.2578 13.3059 7.11227 13.0795 7.08316 12.8855L5.42412 5.41436L3.99792 8.97204C3.9106 9.26312 3.67775 9.42484 3.4158 9.42484H1.43659C1.20374 9.42484 1 9.23078 1 8.97204V8.4869C1 8.22816 1.20374 8.00176 1.43659 8.00176H2.9501L4.95842 2.92398C5.07484 2.66524 5.3368 2.47118 5.62786 2.50353C5.91892 2.53587 6.15177 2.72992 6.20998 3.05335L7.92723 10.6215L10.2266 5.09093C10.343 4.79985 10.605 4.63814 10.8669 4.67048C11.0998 4.70282 11.3326 4.89688 11.4491 5.15562L12.5842 8.03411H14.5634C14.7963 8.03411 15 8.2605 15 8.51924V8.97204C15 9.23078 14.7963 9.45718 14.5634 9.45718H12.1767C11.9148 9.45718 11.6819 9.29547 11.5655 9.03673L10.8378 7.1932L8.39293 13.1119C8.2474 13.3383 8.04366 13.5 7.7526 13.5Z" fill="#AFBAC1"/>
</svg>
