<svg width="110" height="110" viewBox="0 0 110 110" fill="none" xmlns="http://www.w3.org/2000/svg">
<circle cx="55" cy="55" r="54.25" fill="white" stroke="#E1E4E6" stroke-width="1.5"/>
<mask id="path-2-inside-1" fill="white">
<path fill-rule="evenodd" clip-rule="evenodd" d="M59.8863 72.0205V37.6401H57.7266V72.0205H53.3901V37.6401L51.2297 37.64V72.0205H50.5706C46.3519 72.0205 42.3716 75.274 42.3716 80.5796C41.0113 80.7736 39.9609 81.943 39.9609 83.356V85.3543C39.9609 86.9025 41.2206 88.162 42.7687 88.162H68.3474C69.8956 88.162 71.1551 86.9025 71.1551 85.3543V83.356C71.1551 81.943 70.1048 80.7736 68.7445 80.5796C68.7445 75.3207 64.8045 72.0205 60.5454 72.0205H59.8863ZM42.1208 85.3544C42.1208 85.7056 42.4175 86.0023 42.7687 86.0023H68.3474C68.6985 86.0023 68.9953 85.7056 68.9953 85.3544V83.3561C68.9953 83.005 68.6985 82.7082 68.3474 82.7082H42.7687C42.4175 82.7082 42.1208 83.005 42.1208 83.3561V85.3544ZM66.5845 80.5484C66.5845 76.5478 63.6417 74.1805 60.5453 74.1805H50.5706C47.4837 74.1805 44.5314 76.5422 44.5314 80.5484H66.5845Z"/>
<path fill-rule="evenodd" clip-rule="evenodd" d="M52.3649 25.7381L54.5245 25.0286V23.6203C54.5245 23.3109 54.7762 23.0592 55.0856 23.0592H56.03C56.3394 23.0592 56.5911 23.3109 56.5911 23.6203V25.0286L58.751 25.7381V23.6203C58.751 22.1199 57.5302 20.8994 56.0301 20.8994H55.0858C53.5854 20.8994 52.3649 22.1202 52.3649 23.6203V25.7381Z"/>
</mask>
<path fill-rule="evenodd" clip-rule="evenodd" d="M59.8863 72.0205V37.6401H57.7266V72.0205H53.3901V37.6401L51.2297 37.64V72.0205H50.5706C46.3519 72.0205 42.3716 75.274 42.3716 80.5796C41.0113 80.7736 39.9609 81.943 39.9609 83.356V85.3543C39.9609 86.9025 41.2206 88.162 42.7687 88.162H68.3474C69.8956 88.162 71.1551 86.9025 71.1551 85.3543V83.356C71.1551 81.943 70.1048 80.7736 68.7445 80.5796C68.7445 75.3207 64.8045 72.0205 60.5454 72.0205H59.8863ZM42.1208 85.3544C42.1208 85.7056 42.4175 86.0023 42.7687 86.0023H68.3474C68.6985 86.0023 68.9953 85.7056 68.9953 85.3544V83.3561C68.9953 83.005 68.6985 82.7082 68.3474 82.7082H42.7687C42.4175 82.7082 42.1208 83.005 42.1208 83.3561V85.3544ZM66.5845 80.5484C66.5845 76.5478 63.6417 74.1805 60.5453 74.1805H50.5706C47.4837 74.1805 44.5314 76.5422 44.5314 80.5484H66.5845Z" fill="#AFBAC1"/>
<path fill-rule="evenodd" clip-rule="evenodd" d="M52.3649 25.7381L54.5245 25.0286V23.6203C54.5245 23.3109 54.7762 23.0592 55.0856 23.0592H56.03C56.3394 23.0592 56.5911 23.3109 56.5911 23.6203V25.0286L58.751 25.7381V23.6203C58.751 22.1199 57.5302 20.8994 56.0301 20.8994H55.0858C53.5854 20.8994 52.3649 22.1202 52.3649 23.6203V25.7381Z" fill="#AFBAC1"/>
<path fill-rule="evenodd" clip-rule="evenodd" d="M59.8863 72.0205V37.6401H57.7266V72.0205H53.3901V37.6401L51.2297 37.64V72.0205H50.5706C46.3519 72.0205 42.3716 75.274 42.3716 80.5796C41.0113 80.7736 39.9609 81.943 39.9609 83.356V85.3543C39.9609 86.9025 41.2206 88.162 42.7687 88.162H68.3474C69.8956 88.162 71.1551 86.9025 71.1551 85.3543V83.356C71.1551 81.943 70.1048 80.7736 68.7445 80.5796C68.7445 75.3207 64.8045 72.0205 60.5454 72.0205H59.8863ZM42.1208 85.3544C42.1208 85.7056 42.4175 86.0023 42.7687 86.0023H68.3474C68.6985 86.0023 68.9953 85.7056 68.9953 85.3544V83.3561C68.9953 83.005 68.6985 82.7082 68.3474 82.7082H42.7687C42.4175 82.7082 42.1208 83.005 42.1208 83.3561V85.3544ZM66.5845 80.5484C66.5845 76.5478 63.6417 74.1805 60.5453 74.1805H50.5706C47.4837 74.1805 44.5314 76.5422 44.5314 80.5484H66.5845Z" stroke="white" stroke-width="0.8" mask="url(#path-2-inside-1)"/>
<path fill-rule="evenodd" clip-rule="evenodd" d="M52.3649 25.7381L54.5245 25.0286V23.6203C54.5245 23.3109 54.7762 23.0592 55.0856 23.0592H56.03C56.3394 23.0592 56.5911 23.3109 56.5911 23.6203V25.0286L58.751 25.7381V23.6203C58.751 22.1199 57.5302 20.8994 56.0301 20.8994H55.0858C53.5854 20.8994 52.3649 22.1202 52.3649 23.6203V25.7381Z" stroke="white" stroke-width="0.8" mask="url(#path-2-inside-1)"/>
<mask id="path-3-inside-2" fill="white">
<path fill-rule="evenodd" clip-rule="evenodd" d="M58.6395 38.7399C57.7052 39.151 56.6722 39.3792 55.5859 39.3792C54.4995 39.3792 53.4665 39.151 52.5321 38.7399L33.8291 38.7398C33.9552 38.3798 34.0238 37.9928 34.0238 37.5899C34.0238 36.626 33.6316 35.7537 32.998 35.1238C37.7992 32.9874 42.8524 31.5489 48.0549 30.8379C48.5229 27.0951 51.7162 24.1992 55.5859 24.1992C59.4485 24.1992 62.6372 27.0846 63.1142 30.8176C68.449 31.5314 73.6249 33.0086 78.5378 35.2197C77.959 35.8408 77.6049 36.674 77.6049 37.5899C77.6049 37.9929 77.6735 38.3799 77.7996 38.7399H58.6395ZM63.0813 32.9904C62.8671 34.338 62.2981 35.5675 61.4731 36.5801H76.2505C72.028 34.8222 67.6148 33.6192 63.0813 32.9904ZM49.6986 36.5801C48.8778 35.5727 48.3104 34.3506 48.0937 33.011C43.6122 33.6453 39.2478 34.8417 35.0714 36.5801H49.6986ZM55.5859 36.8996C52.7635 36.8996 50.4754 34.6116 50.4754 31.7892C50.4754 28.9668 52.7635 26.6788 55.5859 26.6788C58.4083 26.6788 60.6963 28.9668 60.6963 31.7892C60.6963 34.6116 58.4083 36.8996 55.5859 36.8996Z"/>
</mask>
<path fill-rule="evenodd" clip-rule="evenodd" d="M58.6395 38.7399C57.7052 39.151 56.6722 39.3792 55.5859 39.3792C54.4995 39.3792 53.4665 39.151 52.5321 38.7399L33.8291 38.7398C33.9552 38.3798 34.0238 37.9928 34.0238 37.5899C34.0238 36.626 33.6316 35.7537 32.998 35.1238C37.7992 32.9874 42.8524 31.5489 48.0549 30.8379C48.5229 27.0951 51.7162 24.1992 55.5859 24.1992C59.4485 24.1992 62.6372 27.0846 63.1142 30.8176C68.449 31.5314 73.6249 33.0086 78.5378 35.2197C77.959 35.8408 77.6049 36.674 77.6049 37.5899C77.6049 37.9929 77.6735 38.3799 77.7996 38.7399H58.6395ZM63.0813 32.9904C62.8671 34.338 62.2981 35.5675 61.4731 36.5801H76.2505C72.028 34.8222 67.6148 33.6192 63.0813 32.9904ZM49.6986 36.5801C48.8778 35.5727 48.3104 34.3506 48.0937 33.011C43.6122 33.6453 39.2478 34.8417 35.0714 36.5801H49.6986ZM55.5859 36.8996C52.7635 36.8996 50.4754 34.6116 50.4754 31.7892C50.4754 28.9668 52.7635 26.6788 55.5859 26.6788C58.4083 26.6788 60.6963 28.9668 60.6963 31.7892C60.6963 34.6116 58.4083 36.8996 55.5859 36.8996Z" fill="#AFBAC1" stroke="white" stroke-width="0.8" mask="url(#path-3-inside-2)"/>
<mask id="path-4-inside-3" fill="white">
<path d="M58.7374 31.7886C58.7374 33.5504 57.3092 34.9786 55.5474 34.9786C53.7856 34.9786 52.3574 33.5504 52.3574 31.7886C52.3574 30.0268 53.7856 28.5986 55.5474 28.5986C57.3092 28.5986 58.7374 30.0268 58.7374 31.7886ZM54.5585 31.7886C54.5585 32.3348 55.0013 32.7775 55.5474 32.7775C56.0936 32.7775 56.5363 32.3348 56.5363 31.7886C56.5363 31.2425 56.0936 30.7997 55.5474 30.7997C55.0013 30.7997 54.5585 31.2425 54.5585 31.7886Z"/>
</mask>
<path d="M58.7374 31.7886C58.7374 33.5504 57.3092 34.9786 55.5474 34.9786C53.7856 34.9786 52.3574 33.5504 52.3574 31.7886C52.3574 30.0268 53.7856 28.5986 55.5474 28.5986C57.3092 28.5986 58.7374 30.0268 58.7374 31.7886ZM54.5585 31.7886C54.5585 32.3348 55.0013 32.7775 55.5474 32.7775C56.0936 32.7775 56.5363 32.3348 56.5363 31.7886C56.5363 31.2425 56.0936 30.7997 55.5474 30.7997C55.0013 30.7997 54.5585 31.2425 54.5585 31.7886Z" fill="#E03632" stroke="white" stroke-width="0.8" mask="url(#path-4-inside-3)"/>
<mask id="path-5-inside-4" fill="white">
<path fill-rule="evenodd" clip-rule="evenodd" d="M82.868 40.2167C83.6111 39.579 84.0819 38.6329 84.0819 37.5768C84.0819 35.6564 82.5251 34.0996 80.6046 34.0996C78.6842 34.0996 77.1274 35.6564 77.1274 37.5768C77.1274 38.627 77.5929 39.5684 78.3289 40.2059L71.7221 55.46H70.0935C69.497 55.46 69.0137 55.9433 69.0137 56.5398V57.9482C69.0137 62.4691 72.6919 66.1472 77.2127 66.1472H83.979C88.4999 66.1472 92.178 62.469 92.178 57.9482V56.5398C92.1781 55.9432 91.6947 55.4598 91.0983 55.4598H89.47L82.868 40.2167ZM80.8725 41.0439C80.7841 41.0506 80.6948 41.054 80.6046 41.054C80.5087 41.054 80.4136 41.0502 80.3197 41.0425L74.0752 55.4598H87.1163L80.8725 41.0439ZM80.6046 38.9806C79.8294 38.9806 79.2009 38.3521 79.2009 37.5768C79.2009 36.8016 79.8294 36.1731 80.6046 36.1731C81.3799 36.1731 82.0084 36.8016 82.0084 37.5768C82.0084 38.3521 81.3799 38.9806 80.6046 38.9806ZM83.979 63.9872H77.2127C74.1163 63.9872 71.1735 61.62 71.1735 57.6194H90.0185C90.0183 61.6259 87.066 63.9872 83.979 63.9872Z"/>
</mask>
<path fill-rule="evenodd" clip-rule="evenodd" d="M82.868 40.2167C83.6111 39.579 84.0819 38.6329 84.0819 37.5768C84.0819 35.6564 82.5251 34.0996 80.6046 34.0996C78.6842 34.0996 77.1274 35.6564 77.1274 37.5768C77.1274 38.627 77.5929 39.5684 78.3289 40.2059L71.7221 55.46H70.0935C69.497 55.46 69.0137 55.9433 69.0137 56.5398V57.9482C69.0137 62.4691 72.6919 66.1472 77.2127 66.1472H83.979C88.4999 66.1472 92.178 62.469 92.178 57.9482V56.5398C92.1781 55.9432 91.6947 55.4598 91.0983 55.4598H89.47L82.868 40.2167ZM80.8725 41.0439C80.7841 41.0506 80.6948 41.054 80.6046 41.054C80.5087 41.054 80.4136 41.0502 80.3197 41.0425L74.0752 55.4598H87.1163L80.8725 41.0439ZM80.6046 38.9806C79.8294 38.9806 79.2009 38.3521 79.2009 37.5768C79.2009 36.8016 79.8294 36.1731 80.6046 36.1731C81.3799 36.1731 82.0084 36.8016 82.0084 37.5768C82.0084 38.3521 81.3799 38.9806 80.6046 38.9806ZM83.979 63.9872H77.2127C74.1163 63.9872 71.1735 61.62 71.1735 57.6194H90.0185C90.0183 61.6259 87.066 63.9872 83.979 63.9872Z" fill="#E03632" stroke="white" stroke-width="0.8" mask="url(#path-5-inside-4)"/>
<mask id="path-6-inside-5" fill="white">
<path fill-rule="evenodd" clip-rule="evenodd" d="M32.993 40.2167C33.7361 39.579 34.2069 38.6329 34.2069 37.5768C34.2069 35.6564 32.6501 34.0996 30.7296 34.0996C28.8092 34.0996 27.2524 35.6564 27.2524 37.5768C27.2524 38.627 27.7179 39.5684 28.4539 40.2059L21.8471 55.46H20.2185C19.622 55.46 19.1387 55.9433 19.1387 56.5398V57.9482C19.1387 62.4691 22.8169 66.1472 27.3377 66.1472H34.104C38.6249 66.1472 42.303 62.469 42.303 57.9482V56.5398C42.3031 55.9432 41.8197 55.4598 41.2233 55.4598H39.595L32.993 40.2167ZM30.9975 41.0439C30.9091 41.0506 30.8198 41.054 30.7296 41.054C30.6337 41.054 30.5386 41.0502 30.4447 41.0425L24.2002 55.4598H37.2413L30.9975 41.0439ZM30.7296 38.9806C29.9544 38.9806 29.3259 38.3521 29.3259 37.5768C29.3259 36.8016 29.9544 36.1731 30.7296 36.1731C31.5049 36.1731 32.1334 36.8016 32.1334 37.5768C32.1334 38.3521 31.5049 38.9806 30.7296 38.9806ZM34.104 63.9872H27.3377C24.2413 63.9872 21.2985 61.62 21.2985 57.6194H40.1435C40.1433 61.6259 37.191 63.9872 34.104 63.9872Z"/>
</mask>
<path fill-rule="evenodd" clip-rule="evenodd" d="M32.993 40.2167C33.7361 39.579 34.2069 38.6329 34.2069 37.5768C34.2069 35.6564 32.6501 34.0996 30.7296 34.0996C28.8092 34.0996 27.2524 35.6564 27.2524 37.5768C27.2524 38.627 27.7179 39.5684 28.4539 40.2059L21.8471 55.46H20.2185C19.622 55.46 19.1387 55.9433 19.1387 56.5398V57.9482C19.1387 62.4691 22.8169 66.1472 27.3377 66.1472H34.104C38.6249 66.1472 42.303 62.469 42.303 57.9482V56.5398C42.3031 55.9432 41.8197 55.4598 41.2233 55.4598H39.595L32.993 40.2167ZM30.9975 41.0439C30.9091 41.0506 30.8198 41.054 30.7296 41.054C30.6337 41.054 30.5386 41.0502 30.4447 41.0425L24.2002 55.4598H37.2413L30.9975 41.0439ZM30.7296 38.9806C29.9544 38.9806 29.3259 38.3521 29.3259 37.5768C29.3259 36.8016 29.9544 36.1731 30.7296 36.1731C31.5049 36.1731 32.1334 36.8016 32.1334 37.5768C32.1334 38.3521 31.5049 38.9806 30.7296 38.9806ZM34.104 63.9872H27.3377C24.2413 63.9872 21.2985 61.62 21.2985 57.6194H40.1435C40.1433 61.6259 37.191 63.9872 34.104 63.9872Z" fill="#E03632" stroke="white" stroke-width="0.8" mask="url(#path-6-inside-5)"/>
</svg>
