<svg width="14" height="14" viewBox="0 0 14 14" fill="none" xmlns="http://www.w3.org/2000/svg">
<path d="M13.8424 11.5316C14.2911 12.3064 13.7279 13.275 12.8319 13.275H1.16799C0.270212 13.275 -0.290323 12.3049 0.157434 11.5316L5.98945 1.45589C6.4383 0.680669 7.56251 0.682074 8.01056 1.45589L13.8424 11.5316ZM7 9.44843C6.38252 9.44843 5.88195 9.94722 5.88195 10.5625C5.88195 11.1778 6.38252 11.6766 7 11.6766C7.61749 11.6766 8.11806 11.1778 8.11806 10.5625C8.11806 9.94722 7.61749 9.44843 7 9.44843ZM5.93851 5.44396L6.11881 8.73771C6.12724 8.89184 6.25514 9.0125 6.41004 9.0125H7.58997C7.74487 9.0125 7.87277 8.89184 7.8812 8.73771L8.0615 5.44396C8.07062 5.27748 7.93759 5.1375 7.77027 5.1375H6.22971C6.06239 5.1375 5.92939 5.27748 5.93851 5.44396Z" fill="#E03632"/>
<mask id="mask0" mask-type="alpha" maskUnits="userSpaceOnUse" x="0" y="0" width="14" height="14">
<rect width="14" height="14" fill="#C4C4C4"/>
</mask>
<g mask="url(#mask0)">
</g>
</svg>
