<svg width="16" height="16" viewBox="0 0 16 16" fill="none" xmlns="http://www.w3.org/2000/svg">
<path fill-rule="evenodd" clip-rule="evenodd" d="M7.96362 4.36366L9.52725 8.00003H6.25452L7.67271 4.36366H7.96362ZM16 1.45455V14.5455C16 15.3455 15.3455 16 14.5455 16H1.45455C0.654545 16 0 15.3455 0 14.5455V1.45455C0 0.654545 0.654545 0 1.45455 0H14.5455C15.3455 0 16 0.654545 16 1.45455ZM14 13.3455L9.63634 2.54547C9.52725 2.32729 9.34543 2.18183 9.09089 2.18183H6.50907C6.29089 2.18183 6.07271 2.32729 5.99998 2.54547L1.99998 13.3455C1.92725 13.5636 2.07271 13.8182 2.32725 13.8182H3.81816C4.03634 13.8182 4.25452 13.6364 4.32725 13.4182L5.49089 10.1818H10.3636L11.6363 13.4182C11.7091 13.6364 11.9272 13.8182 12.1454 13.8182H13.6363C13.8909 13.8182 14.0727 13.5636 14 13.3455Z" fill="#AFBAC1"/>
<mask id="mask0" mask-type="alpha" maskUnits="userSpaceOnUse" x="0" y="0" width="16" height="16">
<path fill-rule="evenodd" clip-rule="evenodd" d="M7.96362 4.36366L9.52725 8.00003H6.25452L7.67271 4.36366H7.96362ZM16 1.45455V14.5455C16 15.3455 15.3455 16 14.5455 16H1.45455C0.654545 16 0 15.3455 0 14.5455V1.45455C0 0.654545 0.654545 0 1.45455 0H14.5455C15.3455 0 16 0.654545 16 1.45455ZM14 13.3455L9.63634 2.54547C9.52725 2.32729 9.34543 2.18183 9.09089 2.18183H6.50907C6.29089 2.18183 6.07271 2.32729 5.99998 2.54547L1.99998 13.3455C1.92725 13.5636 2.07271 13.8182 2.32725 13.8182H3.81816C4.03634 13.8182 4.25452 13.6364 4.32725 13.4182L5.49089 10.1818H10.3636L11.6363 13.4182C11.7091 13.6364 11.9272 13.8182 12.1454 13.8182H13.6363C13.8909 13.8182 14.0727 13.5636 14 13.3455Z" fill="white"/>
</mask>
<g mask="url(#mask0)">
</g>
</svg>
