<svg width="14" height="14" viewBox="0 0 14 14" fill="none" xmlns="http://www.w3.org/2000/svg">
<path fill-rule="evenodd" clip-rule="evenodd" d="M13.5625 8.45835H12.6875C12.4542 8.45835 12.25 8.66251 12.25 8.89585V11.8125C12.25 12.0458 12.0458 12.25 11.8125 12.25H2.1875C1.95417 12.25 1.75 12.0458 1.75 11.8125V8.89585C1.75 8.66251 1.54583 8.45835 1.3125 8.45835H0.4375C0.204167 8.45835 0 8.66251 0 8.89585V12.8333C0 13.475 0.525 14 1.16667 14H12.8333C13.475 14 14 13.475 14 12.8333V8.89585C14 8.66251 13.7958 8.45835 13.5625 8.45835ZM6.70836 10.3833C6.88336 10.5583 7.14586 10.5583 7.32086 10.3833L11.2584 6.44583C11.4334 6.27083 11.4334 6.00833 11.2584 5.83333L10.6459 5.22083C10.4709 5.04583 10.2084 5.04583 10.0334 5.22083L8.40002 6.85417C8.22502 7.02917 7.90419 6.9125 7.90419 6.65V0.4375C7.87502 0.204167 7.64169 0 7.43752 0H6.56252C6.32919 0 6.12502 0.204167 6.12502 0.4375V6.62083C6.12502 6.88333 5.80419 7 5.62919 6.825L3.99586 5.19167C3.82086 5.01667 3.55836 5.01667 3.38336 5.19167L2.77086 5.83333C2.59586 6.00833 2.59586 6.27083 2.77086 6.44583L6.70836 10.3833Z" fill="#AFBAC1"/>
<mask id="mask0" mask-type="alpha" maskUnits="userSpaceOnUse" x="0" y="0" width="14" height="14">
<path fill-rule="evenodd" clip-rule="evenodd" d="M13.5625 8.45835H12.6875C12.4542 8.45835 12.25 8.66251 12.25 8.89585V11.8125C12.25 12.0458 12.0458 12.25 11.8125 12.25H2.1875C1.95417 12.25 1.75 12.0458 1.75 11.8125V8.89585C1.75 8.66251 1.54583 8.45835 1.3125 8.45835H0.4375C0.204167 8.45835 0 8.66251 0 8.89585V12.8333C0 13.475 0.525 14 1.16667 14H12.8333C13.475 14 14 13.475 14 12.8333V8.89585C14 8.66251 13.7958 8.45835 13.5625 8.45835ZM6.70836 10.3833C6.88336 10.5583 7.14586 10.5583 7.32086 10.3833L11.2584 6.44583C11.4334 6.27083 11.4334 6.00833 11.2584 5.83333L10.6459 5.22083C10.4709 5.04583 10.2084 5.04583 10.0334 5.22083L8.40002 6.85417C8.22502 7.02917 7.90419 6.9125 7.90419 6.65V0.4375C7.87502 0.204167 7.64169 0 7.43752 0H6.56252C6.32919 0 6.12502 0.204167 6.12502 0.4375V6.62083C6.12502 6.88333 5.80419 7 5.62919 6.825L3.99586 5.19167C3.82086 5.01667 3.55836 5.01667 3.38336 5.19167L2.77086 5.83333C2.59586 6.00833 2.59586 6.27083 2.77086 6.44583L6.70836 10.3833Z" fill="white"/>
</mask>
<g mask="url(#mask0)">
</g>
</svg>
