<svg width="16" height="16" viewBox="0 0 16 16" fill="none" xmlns="http://www.w3.org/2000/svg">
<path fill-rule="evenodd" clip-rule="evenodd" d="M14.3289 0H1.70344C0.768217 0 0 0.766667 0 1.7V14.2667C0 15.2333 0.768217 16 1.70344 16H14.2955C15.2307 16 15.999 15.2333 15.999 14.3V1.7C16.0324 0.766667 15.2641 0 14.3289 0ZM8.30244 11.9085L7.77742 11.8333C7.77742 11.8333 7.42741 11.7581 7.25241 11.6828C7.1524 11.6578 7.0274 11.6828 6.9524 11.7581L6.82739 11.8835C6.10237 12.6108 4.92734 12.686 4.17732 12.0339C3.32729 11.3066 3.30229 10.0025 4.07731 9.22508L5.97737 7.31907C6.22738 7.06828 6.52739 6.9178 6.82739 6.81749C7.22741 6.71717 7.65242 6.74225 8.02743 6.89272C8.25244 6.99304 8.47744 7.11844 8.67745 7.31907C8.77745 7.41939 8.85246 7.5197 8.92746 7.6451C9.02746 7.82065 9.25247 7.84573 9.37747 7.69526L10.0775 6.99304C10.1775 6.89272 10.1775 6.74225 10.1025 6.61685C10.0025 6.46638 9.87749 6.34098 9.75248 6.21559C9.57748 6.04004 9.37747 5.86448 9.15246 5.73909C8.80245 5.51337 8.40244 5.3629 7.97743 5.28766C7.20241 5.13719 6.35238 5.26258 5.65236 5.63877C5.37735 5.78924 5.10234 5.98988 4.87734 6.21559L3.05228 8.04636C1.72724 9.37556 1.62724 11.5324 2.90228 12.8866C4.22732 14.3412 6.47738 14.3663 7.85243 12.9869L8.47744 12.36C8.65245 12.2346 8.52744 11.9336 8.30244 11.9085ZM12.9026 2.90511C11.5276 1.62607 9.37754 1.72639 8.0775 3.05558L7.50249 3.60732C7.32748 3.78288 7.45248 4.08382 7.67749 4.1089C8.0275 4.13398 8.37751 4.20922 8.72752 4.30954C8.82752 4.33462 8.95253 4.30954 9.02753 4.2343L9.15253 4.1089C9.87755 3.38161 11.0526 3.30637 11.8026 3.95843C12.6526 4.68572 12.6776 5.98984 11.9026 6.76729L10.0026 8.6733C9.75255 8.92409 9.45254 9.07457 9.15253 9.17488C8.75252 9.2752 8.32751 9.25012 7.9525 9.09965C7.72749 8.99933 7.50249 8.87393 7.30248 8.6733C7.20248 8.57299 7.12747 8.47267 7.05247 8.34727C6.95247 8.17172 6.72746 8.14664 6.60246 8.29712L5.90244 8.99933C5.80243 9.09965 5.80243 9.25012 5.87744 9.37552C5.97744 9.52599 6.10244 9.65139 6.22745 9.77678C6.40245 9.95234 6.62746 10.1279 6.82747 10.2533C7.17748 10.479 7.57749 10.6295 7.9775 10.7047C8.75252 10.8552 9.60255 10.7298 10.3026 10.3536C10.5776 10.2031 10.8526 10.0025 11.0776 9.77678L12.9776 7.87077C14.3777 6.49142 14.3277 4.2343 12.9026 2.90511Z" fill="#AFBAC1"/>
</svg>
