<svg width="16" height="16" viewBox="0 0 16 16" fill="none" xmlns="http://www.w3.org/2000/svg">
<path fill-rule="evenodd" clip-rule="evenodd" d="M14.3289 0H1.70344C0.768217 0 0 0.766667 0 1.7V14.2667C0 15.2333 0.768217 16 1.70344 16H14.2955C15.2307 16 15.999 15.2333 15.999 14.3V1.7C16.0324 0.766667 15.2641 0 14.3289 0ZM13.8502 4.55C13.8002 4.4 13.6254 4.375 13.5005 4.475L11.4776 6.5C11.3278 6.65 11.078 6.65 10.9282 6.5L9.50468 5.075C9.35484 4.925 9.35484 4.675 9.50468 4.525L11.5525 2.5C11.6524 2.4 11.6025 2.225 11.4776 2.15C11.128 2.05 10.7534 2 10.4037 2C8.28096 2 6.58273 3.825 6.83247 6C6.88241 6.35 6.95734 6.65 7.08221 6.95L2.41207 11.6C1.86264 12.15 1.86264 13.05 2.41207 13.575C2.68678 13.85 3.06139 14 3.41103 14C3.76067 14 4.13528 13.85 4.40999 13.575L9.05515 8.925C9.35484 9.05 9.6795 9.125 10.0042 9.175C12.1769 9.425 14 7.725 14 5.6C14 5.225 13.9501 4.875 13.8502 4.55Z" fill="#AFBAC1"/>
</svg>
