<svg width="383" height="316" viewBox="0 0 383 316" fill="none" xmlns="http://www.w3.org/2000/svg">
<path opacity="0.7" fill-rule="evenodd" clip-rule="evenodd" d="M24.2568 0C10.8601 0 0 10.8601 0 24.2568V291.464C0 304.861 10.8601 315.721 24.2568 315.721H311.891C325.288 315.721 336.148 304.861 336.148 291.464V24.2568C336.148 10.8601 325.288 0 311.891 0H24.2568ZM25.5335 7.66004C15.6622 7.66004 7.66004 15.6622 7.66004 25.5335V290.188C7.66004 300.059 15.6622 308.061 25.5335 308.061H310.615C320.486 308.061 328.488 300.059 328.488 290.188V25.5335C328.488 15.6622 320.486 7.66004 310.615 7.66004H25.5335Z" fill="#AFBAC1"/>
<rect opacity="0.7" x="126.646" y="39.1938" width="174.649" height="7.66004" fill="#AFBAC1"/>
<path opacity="0.7" fill-rule="evenodd" clip-rule="evenodd" d="M47.3006 59.3653C56.1494 59.3653 63.3228 52.1919 63.3228 43.343C63.3228 34.4942 56.1494 27.3208 47.3006 27.3208C38.4517 27.3208 31.2783 34.4942 31.2783 43.343C31.2783 52.1919 38.4517 59.3653 47.3006 59.3653ZM47.3639 52.0879C52.229 52.0879 56.173 48.144 56.173 43.2789C56.173 38.4138 52.229 34.4699 47.3639 34.4699C42.4988 34.4699 38.5549 38.4138 38.5549 43.2789C38.5549 48.144 42.4988 52.0879 47.3639 52.0879Z" fill="#AFBAC1"/>
<path opacity="0.7" fill-rule="evenodd" clip-rule="evenodd" d="M87.2615 59.3653C96.1103 59.3653 103.284 52.1919 103.284 43.343C103.284 34.4942 96.1103 27.3208 87.2615 27.3208C78.4127 27.3208 71.2393 34.4942 71.2393 43.343C71.2393 52.1919 78.4127 59.3653 87.2615 59.3653ZM87.3243 52.0879C92.1894 52.0879 96.1334 48.144 96.1334 43.2789C96.1334 38.4138 92.1894 34.4699 87.3243 34.4699C82.4592 34.4699 78.5153 38.4138 78.5153 43.2789C78.5153 48.144 82.4592 52.0879 87.3243 52.0879Z" fill="#AFBAC1"/>
<rect x="182.82" y="93.1968" width="94.2185" height="7.66004" fill="#AFBAC1"/>
<rect x="182.82" y="119.624" width="41.2365" height="7.66004" fill="#AFBAC1"/>
<path fill-rule="evenodd" clip-rule="evenodd" d="M162.774 93.1968H54.3848V150.264H162.774V93.1968ZM155.115 100.856H62.046V142.604H155.115V100.856Z" fill="#AFBAC1"/>
<path fill-rule="evenodd" clip-rule="evenodd" d="M54.3848 166.733H159.71V174.394H62.1743V251.633H115.667V259.292H54.3848V166.733Z" fill="#AFBAC1"/>
<path fill-rule="evenodd" clip-rule="evenodd" d="M31.2783 68.1748H304.742V158.818H297.083V75.8344H38.9395V280.613H297.083V229.929H304.742V288.273H31.2783V68.1748Z" fill="#E03632"/>
<path fill-rule="evenodd" clip-rule="evenodd" d="M301.229 229.929C320.866 229.929 336.784 214.01 336.784 194.373C336.784 174.737 320.866 158.818 301.229 158.818C281.592 158.818 265.674 174.737 265.674 194.373C265.674 214.01 281.592 229.929 301.229 229.929ZM301.229 221.751C286.109 221.751 273.851 209.494 273.851 194.373C273.851 179.253 286.109 166.996 301.229 166.996C316.349 166.996 328.607 179.253 328.607 194.373C328.607 209.494 316.349 221.751 301.229 221.751Z" fill="#F6F8FA"/>
<path fill-rule="evenodd" clip-rule="evenodd" d="M284.313 125.369C284.313 118.318 290.029 112.603 297.08 112.603H305.378C312.429 112.603 318.145 118.318 318.145 125.369V129.171C324.277 130.758 330.07 133.186 335.394 136.326L338.09 133.631C343.075 128.645 351.159 128.645 356.145 133.631L362.012 139.499C366.998 144.484 366.998 152.568 362.012 157.553L359.306 160.26C362.432 165.569 364.85 171.345 366.431 177.458H370.233C377.284 177.458 383 183.173 383 190.224V198.523C383 205.574 377.284 211.289 370.233 211.289H366.431C364.847 217.412 362.424 223.196 359.291 228.513L362.012 231.234C366.998 236.22 366.998 244.303 362.012 249.289L356.145 255.157C351.159 260.143 343.075 260.143 338.09 255.157L335.368 252.436C330.052 255.568 324.267 257.992 318.145 259.576V263.378C318.145 270.428 312.429 276.144 305.378 276.144H297.08C290.029 276.144 284.313 270.428 284.313 263.378V259.576C278.2 257.994 272.425 255.576 267.115 252.451L264.409 255.157C259.423 260.143 251.34 260.143 246.354 255.157L240.486 249.289C235.5 244.303 235.5 236.22 240.486 231.234L243.182 228.539C240.042 223.215 237.613 217.422 236.027 211.289H232.225C225.174 211.289 219.458 205.574 219.458 198.523V190.224C219.458 183.173 225.174 177.458 232.225 177.458H236.027C237.611 171.335 240.034 165.551 243.167 160.234L240.486 157.553C235.5 152.568 235.5 144.484 240.486 139.499L246.354 133.631C251.34 128.645 259.423 128.645 264.409 133.631L267.089 136.311C272.406 133.178 278.191 130.755 284.313 129.171V125.369ZM310.485 126.646L310.485 135.147C320.139 136.644 329.032 140.444 336.584 145.97L342.603 139.95C345.096 137.457 349.138 137.457 351.631 139.95L355.693 144.012C358.186 146.505 358.186 150.547 355.693 153.04L349.667 159.066C355.174 166.607 358.962 175.483 360.455 185.118H368.956C372.482 185.118 375.34 187.975 375.34 191.501V197.246C375.34 200.771 372.482 203.629 368.956 203.629H360.455C358.96 213.274 355.166 222.158 349.65 229.705L355.693 235.748C358.186 238.241 358.186 242.283 355.693 244.775L351.631 248.838C349.138 251.331 345.096 251.331 342.603 248.838L336.56 242.794C329.014 248.31 320.129 252.105 310.485 253.6L310.485 262.101C310.485 265.626 307.627 268.484 304.101 268.484H298.356C294.831 268.484 291.973 265.626 291.973 262.101L291.973 253.6C282.339 252.106 273.463 248.318 265.921 242.812L259.895 248.838C257.402 251.331 253.361 251.331 250.868 248.838L246.805 244.775C244.313 242.283 244.313 238.241 246.805 235.748L252.825 229.728C247.3 222.177 243.499 213.284 242.003 203.629L233.501 203.629C229.976 203.629 227.118 200.771 227.118 197.246V191.501C227.118 187.975 229.976 185.118 233.501 185.118L242.003 185.118C243.498 175.473 247.292 166.589 252.808 159.042L246.805 153.04C244.313 150.547 244.313 146.505 246.805 144.012L250.868 139.95C253.361 137.457 257.402 137.457 259.895 139.95L265.898 145.952C273.444 140.437 282.329 136.642 291.973 135.147L291.973 126.646C291.973 123.121 294.831 120.263 298.356 120.263H304.101C307.627 120.263 310.485 123.121 310.485 126.646Z" fill="#F6F8FA"/>
<path fill-rule="evenodd" clip-rule="evenodd" d="M336.584 145.97C329.032 140.444 320.139 136.644 310.485 135.147L310.485 126.646C310.485 123.121 307.627 120.263 304.101 120.263H298.356C294.831 120.263 291.973 123.121 291.973 126.646L291.973 135.147C282.329 136.642 273.444 140.437 265.898 145.952L259.895 139.95C257.402 137.457 253.361 137.457 250.868 139.95L246.805 144.012C244.313 146.505 244.313 150.547 246.805 153.04L252.808 159.042C247.292 166.589 243.498 175.473 242.003 185.118L233.501 185.118C229.976 185.118 227.118 187.975 227.118 191.501V197.246C227.118 200.771 229.976 203.629 233.501 203.629L242.003 203.629C243.499 213.284 247.3 222.177 252.825 229.728L246.805 235.748C244.313 238.241 244.313 242.283 246.805 244.775L250.868 248.838C253.361 251.331 257.402 251.331 259.895 248.838L265.921 242.812C273.463 248.318 282.339 252.106 291.973 253.6L291.973 262.101C291.973 265.626 294.831 268.484 298.356 268.484H304.101C307.627 268.484 310.485 265.626 310.485 262.101L310.485 253.6C320.129 252.105 329.014 248.31 336.56 242.794L342.603 248.838C345.096 251.331 349.138 251.331 351.631 248.838L355.693 244.775C358.186 242.283 358.186 238.241 355.693 235.748L349.65 229.705C355.166 222.158 358.96 213.274 360.455 203.629H368.956C372.482 203.629 375.34 200.771 375.34 197.246V191.501C375.34 187.975 372.482 185.118 368.956 185.118H360.455C358.962 175.483 355.174 166.607 349.667 159.066L355.693 153.04C358.186 150.547 358.186 146.505 355.693 144.012L351.631 139.95C349.138 137.457 345.096 137.457 342.603 139.95L336.584 145.97ZM301.229 229.929C320.866 229.929 336.784 214.01 336.784 194.373C336.784 174.737 320.866 158.818 301.229 158.818C281.592 158.818 265.674 174.737 265.674 194.373C265.674 214.01 281.592 229.929 301.229 229.929Z" fill="#F6F8FA"/>
<path d="M336.784 194.372C336.784 214.008 320.865 229.927 301.228 229.927C281.592 229.927 265.673 214.008 265.673 194.372C265.673 174.735 281.592 158.816 301.228 158.816C320.865 158.816 336.784 174.735 336.784 194.372ZM273.851 194.372C273.851 209.492 286.108 221.749 301.228 221.749C316.348 221.749 328.606 209.492 328.606 194.372C328.606 179.252 316.348 166.994 301.228 166.994C286.108 166.994 273.851 179.252 273.851 194.372Z" fill="#AFBAC1"/>
<path fill-rule="evenodd" clip-rule="evenodd" d="M297.081 112.602C290.03 112.602 284.314 118.317 284.314 125.368V129.169C278.191 130.753 272.406 133.176 267.089 136.309L264.409 133.63C259.423 128.644 251.34 128.644 246.354 133.63L240.486 139.497C235.501 144.483 235.501 152.567 240.486 157.552L243.166 160.232C240.033 165.549 237.609 171.334 236.025 177.457H232.225C225.174 177.457 219.458 183.172 219.458 190.223V198.522C219.458 205.573 225.174 211.288 232.225 211.288H236.026C237.612 217.421 240.041 223.215 243.181 228.538L240.486 231.233C235.501 236.219 235.501 244.303 240.486 249.288L246.354 255.156C251.34 260.142 259.423 260.142 264.409 255.156L267.115 252.45C272.425 255.575 278.201 257.994 284.314 259.575V263.376C284.314 270.427 290.03 276.143 297.081 276.143H305.379C312.43 276.143 318.146 270.427 318.146 263.376V259.573C324.268 257.99 330.052 255.566 335.368 252.434L338.09 255.156C343.076 260.142 351.16 260.142 356.145 255.156L362.013 249.288C366.999 244.303 366.999 236.219 362.013 231.233L359.29 228.511C362.423 223.194 364.846 217.41 366.43 211.288H370.233C377.284 211.288 383 205.573 383 198.522V190.223C383 183.172 377.284 177.457 370.233 177.457H366.43C364.849 171.344 362.431 165.569 359.306 160.26L362.013 157.552C366.999 152.567 366.999 144.483 362.013 139.497L356.145 133.63C351.16 128.644 343.076 128.644 338.09 133.63L335.394 136.326C330.071 133.186 324.278 130.757 318.146 129.17V125.368C318.146 118.317 312.43 112.602 305.379 112.602H297.081ZM310.486 127.658V126.645C310.486 123.12 307.628 120.262 304.103 120.262H298.358C294.832 120.262 291.974 123.12 291.974 126.645V134.816L291.972 134.816V135.146C282.327 136.641 273.443 140.435 265.896 145.951L260.602 140.656C260.602 140.656 260.602 140.656 260.603 140.656L259.895 139.949C257.403 137.456 253.361 137.456 250.868 139.949L246.806 144.011C244.313 146.504 244.313 150.546 246.806 153.039L252.583 158.816L252.583 158.817L252.807 159.041C247.291 166.587 243.496 175.471 242.001 185.116H241.672L241.672 185.117H233.501C229.976 185.117 227.118 187.975 227.118 191.5V197.245C227.118 200.77 229.976 203.628 233.501 203.628H234.514C234.514 203.628 234.514 203.628 234.514 203.628H242.001C243.498 213.282 247.299 222.175 252.824 229.726L252.582 229.968L252.583 229.97L246.806 235.747C244.313 238.24 244.313 242.282 246.806 244.775L250.868 248.837C253.361 251.33 257.403 251.33 259.895 248.837L260.627 248.106C260.626 248.105 260.626 248.105 260.625 248.105L265.92 242.81C273.461 248.317 282.337 252.105 291.972 253.598V253.928L291.974 253.929V262.1C291.974 265.625 294.832 268.483 298.358 268.483H304.103C307.628 268.483 310.486 265.625 310.486 262.1V261.085C310.485 261.085 310.484 261.085 310.484 261.085V253.598C320.128 252.103 329.013 248.309 336.559 242.793L336.826 243.06L336.827 243.059L342.604 248.837C345.097 251.33 349.139 251.33 351.632 248.837L355.694 244.775C358.187 242.282 358.187 238.24 355.694 235.747L354.944 234.997C354.943 234.997 354.943 234.997 354.943 234.997L349.649 229.703C355.165 222.156 358.959 213.272 360.454 203.628H367.941C367.941 203.628 367.941 203.628 367.941 203.628H368.956C372.482 203.628 375.34 200.77 375.34 197.245V191.5C375.34 187.975 372.482 185.117 368.956 185.117H360.785L360.785 185.116H360.454C358.96 175.482 355.172 166.606 349.666 159.064L354.961 153.769C354.961 153.77 354.961 153.77 354.962 153.771L355.694 153.039C358.187 150.546 358.187 146.504 355.694 144.011L351.632 139.949C349.139 137.456 345.097 137.456 342.604 139.949L336.827 145.726L336.825 145.725L336.583 145.968C329.031 140.443 320.138 136.642 310.484 135.146V127.658C310.484 127.658 310.485 127.658 310.486 127.658Z" fill="#E03632"/>
<path fill-rule="evenodd" clip-rule="evenodd" d="M184.652 241.392C195.919 240.802 204.574 231.19 203.983 219.923C203.393 208.656 193.781 200.001 182.514 200.592C171.247 201.182 162.592 210.794 163.183 222.061C163.773 233.328 173.385 241.983 184.652 241.392ZM184.406 236.7C175.731 237.155 168.329 230.491 167.875 221.815C167.42 213.14 174.084 205.738 182.76 205.284C191.435 204.829 198.837 211.493 199.291 220.169C199.746 228.844 193.082 236.246 184.406 236.7Z" fill="#F6F8FA"/>
<path fill-rule="evenodd" clip-rule="evenodd" d="M171.802 181.909C171.59 177.863 174.698 174.412 178.744 174.2L183.505 173.95C187.55 173.738 191.002 176.846 191.214 180.891L191.328 183.073C194.894 183.799 198.291 185.018 201.44 186.659L202.906 185.032C205.617 182.021 210.255 181.778 213.265 184.489L216.808 187.679C219.819 190.39 220.062 195.028 217.351 198.038L215.88 199.672C217.833 202.625 219.394 205.866 220.485 209.326L222.666 209.211C226.712 208.999 230.163 212.107 230.375 216.153L230.625 220.914C230.837 224.959 227.729 228.411 223.684 228.623L221.502 228.737C220.778 232.298 219.561 235.689 217.924 238.834L219.567 240.314C222.577 243.024 222.82 247.662 220.11 250.673L216.919 254.216C214.209 257.227 209.571 257.47 206.56 254.759L204.917 253.279C201.961 255.237 198.715 256.801 195.249 257.894L195.364 260.075C195.576 264.121 192.468 267.572 188.423 267.784L183.661 268.034C179.616 268.246 176.164 265.138 175.952 261.093L175.838 258.911C172.283 258.188 168.897 256.974 165.756 255.34L164.285 256.975C161.574 259.985 156.936 260.228 153.926 257.517L150.382 254.327C147.372 251.616 147.129 246.978 149.839 243.968L151.305 242.34C149.343 239.38 147.776 236.129 146.681 232.658L144.5 232.773C140.454 232.985 137.003 229.877 136.791 225.832L136.541 221.07C136.329 217.025 139.437 213.573 143.482 213.361L145.664 213.247C146.388 209.686 147.605 206.295 149.242 203.15L147.624 201.693C144.613 198.982 144.37 194.344 147.081 191.333L150.271 187.79C152.982 184.78 157.62 184.537 160.631 187.247L162.249 188.705C165.205 186.747 168.451 185.183 171.917 184.09L171.802 181.909ZM186.857 181.854L187.113 186.732C192.697 187.3 197.914 189.214 202.413 192.157L205.686 188.522C207.041 187.016 209.36 186.895 210.865 188.25L213.318 190.459C214.824 191.814 214.945 194.133 213.59 195.639L210.313 199.277C213.7 203.439 216.14 208.417 217.287 213.9L222.164 213.645C224.187 213.539 225.913 215.093 226.019 217.115L226.192 220.412C226.298 222.434 224.744 224.16 222.721 224.266L217.843 224.522C217.275 230.1 215.366 235.312 212.428 239.808L216.077 243.094C217.582 244.449 217.704 246.768 216.348 248.273L214.14 250.726C212.784 252.231 210.465 252.353 208.96 250.998L205.311 247.712C201.147 251.104 196.163 253.548 190.675 254.696L190.93 259.573C191.036 261.596 189.482 263.322 187.46 263.428L184.163 263.601C182.141 263.707 180.415 262.153 180.309 260.13L180.053 255.252C174.48 254.685 169.274 252.779 164.781 249.846L161.505 253.485C160.15 254.99 157.831 255.111 156.325 253.756L153.872 251.547C152.367 250.192 152.246 247.873 153.601 246.368L156.874 242.733C153.477 238.566 151.028 233.578 149.879 228.084L145.002 228.339C142.979 228.445 141.253 226.891 141.147 224.869L140.975 221.572C140.869 219.55 142.422 217.824 144.445 217.718L149.323 217.462C149.891 211.884 151.801 206.672 154.738 202.176L151.114 198.913C149.609 197.557 149.487 195.238 150.842 193.733L153.051 191.28C154.406 189.775 156.725 189.653 158.231 191.009L161.855 194.272C166.019 190.881 171.003 188.436 176.491 187.288L176.236 182.411C176.13 180.388 177.684 178.662 179.706 178.556L183.003 178.384C185.025 178.278 186.751 179.831 186.857 181.854Z" fill="#F6F8FA"/>
<path fill-rule="evenodd" clip-rule="evenodd" d="M202.413 192.157C197.914 189.214 192.697 187.3 187.113 186.732L186.857 181.854C186.751 179.831 185.025 178.278 183.003 178.384L179.706 178.556C177.684 178.662 176.13 180.388 176.236 182.411L176.491 187.288C171.003 188.436 166.019 190.881 161.855 194.272L158.231 191.009C156.725 189.653 154.406 189.775 153.051 191.28L150.842 193.733C149.487 195.238 149.609 197.557 151.114 198.913L154.738 202.176C151.801 206.672 149.891 211.884 149.323 217.462L144.445 217.718C142.422 217.824 140.869 219.55 140.975 221.572L141.147 224.869C141.253 226.891 142.979 228.445 145.002 228.339L149.879 228.084C151.028 233.578 153.477 238.566 156.874 242.733L153.601 246.368C152.246 247.873 152.367 250.192 153.872 251.547L156.325 253.756C157.831 255.111 160.15 254.99 161.505 253.485L164.781 249.846C169.274 252.779 174.48 254.685 180.053 255.252L180.309 260.13C180.415 262.153 182.141 263.707 184.163 263.601L187.46 263.428C189.482 263.322 191.036 261.596 190.93 259.573L190.675 254.696C196.163 253.548 201.147 251.104 205.311 247.712L208.96 250.998C210.465 252.353 212.784 252.231 214.14 250.726L216.348 248.273C217.704 246.768 217.582 244.449 216.077 243.094L212.428 239.808C215.366 235.312 217.275 230.1 217.843 224.522L222.721 224.266C224.744 224.16 226.298 222.434 226.192 220.412L226.019 217.115C225.913 215.093 224.187 213.539 222.164 213.645L217.287 213.9C216.14 208.417 213.7 203.439 210.313 199.277L213.59 195.639C214.945 194.133 214.824 191.814 213.318 190.459L210.865 188.25C209.36 186.895 207.041 187.016 205.686 188.522L202.413 192.157ZM184.652 241.392C195.919 240.802 204.574 231.19 203.983 219.923C203.393 208.656 193.781 200.001 182.514 200.592C171.247 201.182 162.592 210.794 163.183 222.061C163.773 233.328 173.385 241.983 184.652 241.392Z" fill="#F6F8FA"/>
<path d="M203.981 219.922C204.572 231.189 195.917 240.801 184.65 241.391C173.383 241.982 163.771 233.327 163.18 222.06C162.59 210.793 171.245 201.181 182.512 200.591C193.779 200 203.391 208.655 203.981 219.922ZM167.873 221.814C168.327 230.49 175.729 237.154 184.404 236.699C193.08 236.245 199.744 228.843 199.289 220.168C198.834 211.492 191.433 204.828 182.758 205.283C174.082 205.737 167.418 213.139 167.873 221.814Z" fill="#AFBAC1"/>
<path fill-rule="evenodd" clip-rule="evenodd" d="M178.744 174.198C174.698 174.41 171.591 177.862 171.803 181.907L171.917 184.092C168.453 185.184 165.207 186.748 162.251 188.705L160.63 187.245C157.619 184.535 152.981 184.778 150.271 187.788L147.08 191.332C144.37 194.342 144.613 198.98 147.623 201.691L149.245 203.151C147.607 206.295 146.391 209.686 145.666 213.245L143.482 213.36C139.437 213.572 136.329 217.023 136.541 221.069L136.791 225.83C137.003 229.876 140.454 232.983 144.5 232.771L146.682 232.657C147.776 236.128 149.343 239.378 151.305 242.338L149.839 243.966C147.128 246.977 147.371 251.615 150.382 254.326L153.925 257.516C156.935 260.227 161.573 259.984 164.284 256.973L165.755 255.34C168.895 256.974 172.282 258.188 175.837 258.912L175.951 261.091C176.163 265.137 179.615 268.245 183.66 268.033L188.422 267.783C192.467 267.571 195.575 264.12 195.363 260.074L195.249 257.896C198.715 256.803 201.962 255.238 204.919 253.28L206.559 254.757C209.57 257.468 214.208 257.225 216.918 254.214L220.109 250.671C222.819 247.661 222.576 243.023 219.566 240.312L217.926 238.835C219.563 235.69 220.78 232.297 221.505 228.736L223.684 228.622C227.729 228.41 230.837 224.958 230.625 220.913L230.376 216.151C230.164 212.106 226.712 208.998 222.667 209.21L220.486 209.325C219.395 205.864 217.833 202.622 215.879 199.67L217.349 198.037C220.06 195.026 219.817 190.388 216.806 187.677L213.263 184.487C210.253 181.776 205.615 182.019 202.904 185.03L201.438 186.658C198.29 185.018 194.894 183.799 191.329 183.074L191.214 180.89C191.002 176.844 187.551 173.737 183.505 173.949L178.744 174.198ZM186.888 182.437L186.857 181.853C186.751 179.83 185.026 178.276 183.003 178.382L179.707 178.555C177.684 178.661 176.13 180.387 176.236 182.409L176.482 187.097L176.481 187.097L176.491 187.29C171.003 188.438 166.021 190.882 161.857 194.273L158.66 191.395C158.66 191.395 158.66 191.395 158.661 191.394L158.23 191.007C156.725 189.652 154.406 189.773 153.051 191.278L150.842 193.731C149.487 195.237 149.608 197.556 151.113 198.911L154.602 202.052L154.602 202.053L154.74 202.177C151.803 206.673 149.893 211.884 149.325 217.462L145.029 217.687C145.029 217.686 145.029 217.686 145.029 217.686L144.445 217.717C142.422 217.823 140.869 219.548 140.975 221.571L141.147 224.867C141.253 226.89 142.979 228.444 145.002 228.338L149.69 228.092L149.69 228.093L149.881 228.083C151.029 233.577 153.477 238.565 156.873 242.731L153.995 245.928C153.995 245.928 153.995 245.928 153.995 245.928L153.6 246.366C152.245 247.872 152.366 250.191 153.872 251.546L156.325 253.755C157.83 255.11 160.149 254.988 161.504 253.483L164.645 249.994L164.646 249.995L164.78 249.845C169.273 252.779 174.48 254.686 180.054 255.253L180.279 259.549C180.279 259.549 180.278 259.549 180.278 259.549L180.308 260.129C180.414 262.151 182.14 263.705 184.163 263.599L187.459 263.426C189.482 263.32 191.035 261.595 190.929 259.572L190.684 254.884L190.685 254.884L190.675 254.697C196.165 253.549 201.149 251.105 205.313 247.713L208.51 250.591C208.51 250.591 208.51 250.591 208.51 250.591L208.959 250.996C210.464 252.351 212.783 252.23 214.138 250.724L216.347 248.271C217.703 246.766 217.581 244.447 216.076 243.092L212.587 239.95L212.587 239.95L212.43 239.808C215.368 235.312 217.278 230.1 217.845 224.521L218.033 224.511L218.033 224.511L222.721 224.265C224.744 224.159 226.298 222.433 226.192 220.411L226.019 217.114C225.913 215.092 224.187 213.538 222.164 213.644L221.584 213.674C221.584 213.674 221.584 213.674 221.584 213.675L217.288 213.9C216.141 208.417 213.701 203.438 210.314 199.277L210.448 199.128L210.447 199.126L213.588 195.637C214.943 194.132 214.822 191.813 213.316 190.457L210.863 188.249C209.358 186.893 207.039 187.015 205.684 188.52L205.289 188.958C205.29 188.959 205.291 188.96 205.292 188.96L202.413 192.157C197.914 189.214 192.697 187.301 187.113 186.733L186.888 182.437C186.888 182.437 186.888 182.437 186.888 182.437Z" fill="#E03632"/>
</svg>
