<svg width="12" height="12" viewBox="0 0 12 12" fill="none" xmlns="http://www.w3.org/2000/svg">
<path fill-rule="evenodd" clip-rule="evenodd" d="M6 0C2.675 0 0 2.675 0 6C0 9.325 2.675 12 6 12C9.325 12 12 9.325 12 6C12 2.675 9.325 0 6 0ZM6.00008 10.5C3.50008 10.5 1.50008 8.49999 1.50008 5.99999C1.50008 3.49999 3.50008 1.49999 6.00008 1.49999C8.50008 1.49999 10.5001 3.49999 10.5001 5.99999C10.5001 8.49999 8.50008 10.5 6.00008 10.5ZM5.99993 3.02499C6.42493 3.02499 6.74993 3.34999 6.74993 3.77499C6.74993 4.19999 6.42493 4.52499 5.99993 4.52499C5.57493 4.52499 5.24993 4.19999 5.24993 3.77499C5.24993 3.34999 5.57493 3.02499 5.99993 3.02499ZM7.25008 8.27501C7.25008 8.40001 7.15008 8.50001 7.00008 8.50001H5.00008C4.87508 8.50001 4.75008 8.42501 4.75008 8.27501V7.77501C4.75008 7.65001 4.85008 7.50001 5.00008 7.50001C5.12508 7.50001 5.25008 7.42501 5.25008 7.27501V6.27501C5.25008 6.15001 5.15008 6.00001 5.00008 6.00001C4.87508 6.00001 4.75008 5.92501 4.75008 5.77501V5.27501C4.75008 5.15001 4.85008 5.00001 5.00008 5.00001H6.50008C6.62508 5.00001 6.75008 5.12501 6.75008 5.27501V7.27501C6.75008 7.40001 6.85008 7.50001 7.00008 7.50001C7.12508 7.50001 7.25008 7.62501 7.25008 7.77501V8.27501Z" fill="#697882"/>
<mask id="mask0" mask-type="alpha" maskUnits="userSpaceOnUse" x="0" y="0" width="12" height="12">
<path fill-rule="evenodd" clip-rule="evenodd" d="M6 0C2.675 0 0 2.675 0 6C0 9.325 2.675 12 6 12C9.325 12 12 9.325 12 6C12 2.675 9.325 0 6 0ZM6.00008 10.5C3.50008 10.5 1.50008 8.49999 1.50008 5.99999C1.50008 3.49999 3.50008 1.49999 6.00008 1.49999C8.50008 1.49999 10.5001 3.49999 10.5001 5.99999C10.5001 8.49999 8.50008 10.5 6.00008 10.5ZM5.99993 3.02499C6.42493 3.02499 6.74993 3.34999 6.74993 3.77499C6.74993 4.19999 6.42493 4.52499 5.99993 4.52499C5.57493 4.52499 5.24993 4.19999 5.24993 3.77499C5.24993 3.34999 5.57493 3.02499 5.99993 3.02499ZM7.25008 8.27501C7.25008 8.40001 7.15008 8.50001 7.00008 8.50001H5.00008C4.87508 8.50001 4.75008 8.42501 4.75008 8.27501V7.77501C4.75008 7.65001 4.85008 7.50001 5.00008 7.50001C5.12508 7.50001 5.25008 7.42501 5.25008 7.27501V6.27501C5.25008 6.15001 5.15008 6.00001 5.00008 6.00001C4.87508 6.00001 4.75008 5.92501 4.75008 5.77501V5.27501C4.75008 5.15001 4.85008 5.00001 5.00008 5.00001H6.50008C6.62508 5.00001 6.75008 5.12501 6.75008 5.27501V7.27501C6.75008 7.40001 6.85008 7.50001 7.00008 7.50001C7.12508 7.50001 7.25008 7.62501 7.25008 7.77501V8.27501Z" fill="white"/>
</mask>
<g mask="url(#mask0)">
</g>
</svg>
