<svg width="20" height="20" viewBox="0 0 20 20" fill="none" xmlns="http://www.w3.org/2000/svg">
<path d="M19.5 10C19.5 15.2467 15.2467 19.5 10 19.5C4.75329 19.5 0.5 15.2467 0.5 10C0.5 4.75329 4.75329 0.5 10 0.5C15.2467 0.5 19.5 4.75329 19.5 10Z" fill="white" stroke="#F1F1F1"/>
<path d="M12.2109 12.8572C12.2109 12.6489 12.0383 12.4763 11.8299 12.4763H11.449V9.04771C11.449 8.83938 11.2764 8.66676 11.068 8.66676H8.78232C8.57399 8.66676 8.40137 8.83938 8.40137 9.04771V9.80962C8.40137 10.018 8.57399 10.1906 8.78232 10.1906H9.16327V12.4763H8.78232C8.57399 12.4763 8.40137 12.6489 8.40137 12.8572V13.6191C8.40137 13.8275 8.57399 14.0001 8.78232 14.0001H11.8299C12.0383 14.0001 12.2109 13.8275 12.2109 13.6191V12.8572ZM11.449 6.00009C11.449 5.79176 11.2764 5.61914 11.068 5.61914H9.54422C9.33589 5.61914 9.16327 5.79176 9.16327 6.00009V7.14295C9.16327 7.35128 9.33589 7.5239 9.54422 7.5239H11.068C11.2764 7.5239 11.449 7.35128 11.449 7.14295V6.00009Z" fill="#AFBAC1"/>
</svg>
