<svg width="28" height="17" viewBox="0 0 28 17" xmlns="http://www.w3.org/2000/svg"><title>master</title><g fill="none" fill-rule="evenodd"><path d="M27.333 8.095a8.095 8.095 0 0 1-8.095 8.095 8.095 8.095 0 0 1-8.095-8.095A8.09 8.09 0 0 1 19.233 0c4.47 0 8.1 3.623 8.1 8.095z" fill="#F79F1A"/><path d="M16.857 8.095a8.095 8.095 0 0 1-8.095 8.095A8.095 8.095 0 0 1 .667 8.095 8.095 8.095 0 0 1 8.762 0a8.095 8.095 0 0 1 8.095 8.095z" fill="#EA001B"/><path d="M14.476 1.905c-2.03 1.437-3.333 3.677-3.333 6.19 0 2.514 1.303 4.754 3.333 6.19 2.03-1.436 3.334-3.676 3.334-6.19 0-2.513-1.304-4.748-3.334-6.19z" fill="#FF5F01"/><path opacity=".5" d="M-2-8h32v32H-2z"/></g></svg>