<svg width="14" height="14" viewBox="0 0 14 14" fill="none" xmlns="http://www.w3.org/2000/svg">
<path fill-rule="evenodd" clip-rule="evenodd" d="M7 0C3.12083 0 0 3.12083 0 7C0 10.8792 3.12083 14 7 14C10.8792 14 14 10.8792 14 7C14 3.12083 10.8792 0 7 0ZM8.42918 7.23333L10.7042 9.50833C10.8209 9.625 10.8209 9.8 10.7042 9.91666L9.88752 10.7333C9.77085 10.85 9.59585 10.85 9.47919 10.7333L7.20418 8.45833C7.08752 8.34167 6.91252 8.34167 6.79585 8.45833L4.52085 10.7333C4.40418 10.85 4.22918 10.85 4.11252 10.7333L3.29585 9.91666C3.17918 9.8 3.17918 9.625 3.29585 9.50833L5.57085 7.23333C5.68752 7.11666 5.68752 6.94166 5.57085 6.825L3.26668 4.52083C3.15002 4.40417 3.15002 4.22917 3.26668 4.1125L4.08335 3.29583C4.20002 3.17917 4.37502 3.17917 4.49168 3.29583L6.79585 5.6C6.91252 5.71667 7.08752 5.71667 7.20418 5.6L9.47919 3.325C9.59585 3.20833 9.77085 3.20833 9.88752 3.325L10.7042 4.14167C10.8209 4.25833 10.8209 4.43333 10.7042 4.55L8.42918 6.825C8.34168 6.94166 8.34168 7.11666 8.42918 7.23333Z" fill="#E03632"/>
<mask id="mask0" mask-type="alpha" maskUnits="userSpaceOnUse" x="0" y="0" width="14" height="14">
<path fill-rule="evenodd" clip-rule="evenodd" d="M7 0C3.12083 0 0 3.12083 0 7C0 10.8792 3.12083 14 7 14C10.8792 14 14 10.8792 14 7C14 3.12083 10.8792 0 7 0ZM8.42918 7.23333L10.7042 9.50833C10.8209 9.625 10.8209 9.8 10.7042 9.91666L9.88752 10.7333C9.77085 10.85 9.59585 10.85 9.47919 10.7333L7.20418 8.45833C7.08752 8.34167 6.91252 8.34167 6.79585 8.45833L4.52085 10.7333C4.40418 10.85 4.22918 10.85 4.11252 10.7333L3.29585 9.91666C3.17918 9.8 3.17918 9.625 3.29585 9.50833L5.57085 7.23333C5.68752 7.11666 5.68752 6.94166 5.57085 6.825L3.26668 4.52083C3.15002 4.40417 3.15002 4.22917 3.26668 4.1125L4.08335 3.29583C4.20002 3.17917 4.37502 3.17917 4.49168 3.29583L6.79585 5.6C6.91252 5.71667 7.08752 5.71667 7.20418 5.6L9.47919 3.325C9.59585 3.20833 9.77085 3.20833 9.88752 3.325L10.7042 4.14167C10.8209 4.25833 10.8209 4.43333 10.7042 4.55L8.42918 6.825C8.34168 6.94166 8.34168 7.11666 8.42918 7.23333Z" fill="white"/>
</mask>
<g mask="url(#mask0)">
</g>
</svg>
