<svg width="14" height="14" viewBox="0 0 14 14" fill="none" xmlns="http://www.w3.org/2000/svg">
<path fill-rule="evenodd" clip-rule="evenodd" d="M12.6816 0.875H11.8502C11.6285 0.875 11.4345 1.06944 11.4345 1.29167V3.23611C11.4345 3.48611 11.296 3.59722 11.102 3.43056C11.0188 3.31944 10.9357 3.23611 10.8248 3.15278C9.4392 1.76389 7.4993 1.18056 5.50398 1.56944C4.81116 1.70833 4.14606 1.98611 3.56409 2.375C1.87361 3.48611 0.903659 5.29167 0.875946 7.23611C0.848234 8.73611 1.4302 10.2361 2.48329 11.3194C3.5918 12.4861 5.08829 13.125 6.69563 13.125C8.10899 13.125 9.4392 12.625 10.4923 11.7361C10.6863 11.5694 10.6863 11.2917 10.52 11.125L9.93803 10.5417C9.79947 10.4028 9.55005 10.375 9.38377 10.5139C8.38611 11.3472 7.02819 11.6806 5.67026 11.3472C5.30999 11.2639 4.94973 11.0972 4.61717 10.9028C3.03754 9.93056 2.2893 8.09722 2.7327 6.26389C2.81584 5.90278 2.98212 5.54167 3.17611 5.20833C3.95207 3.84722 5.30999 3.09722 6.75106 3.09722C7.85957 3.09722 8.91266 3.54167 9.68861 4.31944C9.82718 4.43056 9.93803 4.56944 10.0212 4.70833C10.1043 4.93056 9.91032 5.04167 9.6609 5.04167H7.72101C7.4993 5.04167 7.30531 5.23611 7.30531 5.45833V6.31944C7.30531 6.54167 7.47159 6.70833 7.69329 6.70833H12.7647C12.9587 6.70833 13.125 6.54167 13.125 6.34722V1.29167C13.0973 1.06944 12.9033 0.875 12.6816 0.875V0.875Z" fill="#2E97DF"/>
</svg>
