<svg width="25" height="23" viewBox="0 0 25 23" fill="none" xmlns="http://www.w3.org/2000/svg">
<path d="M12 13V21H2V13H12ZM12 11H2C1.46957 11 0.960859 11.2107 0.585786 11.5858C0.210714 11.9609 0 12.4696 0 13V21C0 21.5304 0.210714 22.0391 0.585786 22.4142C0.960859 22.7893 1.46957 23 2 23H12C12.5304 23 13.0391 22.7893 13.4142 22.4142C13.7893 22.0391 14 21.5304 14 21V13C14 12.4696 13.7893 11.9609 13.4142 11.5858C13.0391 11.2107 12.5304 11 12 11V11ZM23 2V7H13V2H23ZM23 0H13C12.4696 0 11.9609 0.210714 11.5858 0.585786C11.2107 0.960859 11 1.46957 11 2V7C11 7.53043 11.2107 8.03914 11.5858 8.41421C11.9609 8.78929 12.4696 9 13 9H23C23.5304 9 24.0391 8.78929 24.4142 8.41421C24.7893 8.03914 25 7.53043 25 7V2C25 1.46957 24.7893 0.960859 24.4142 0.585786C24.0391 0.210714 23.5304 0 23 0V0ZM23 13V18H18V13H23ZM23 11H18C17.4696 11 16.9609 11.2107 16.5858 11.5858C16.2107 11.9609 16 12.4696 16 13V18C16 18.5304 16.2107 19.0391 16.5858 19.4142C16.9609 19.7893 17.4696 20 18 20H23C23.5304 20 24.0391 19.7893 24.4142 19.4142C24.7893 19.0391 25 18.5304 25 18V13C25 12.4696 24.7893 11.9609 24.4142 11.5858C24.0391 11.2107 23.5304 11 23 11ZM7 2V7H2V2H7ZM7 0H2C1.46957 0 0.960859 0.210714 0.585786 0.585786C0.210714 0.960859 0 1.46957 0 2V7C0 7.53043 0.210714 8.03914 0.585786 8.41421C0.960859 8.78929 1.46957 9 2 9H7C7.53043 9 8.03914 8.78929 8.41421 8.41421C8.78929 8.03914 9 7.53043 9 7V2C9 1.46957 8.78929 0.960859 8.41421 0.585786C8.03914 0.210714 7.53043 0 7 0V0Z" fill="white"/>
</svg>
