<svg width="16" height="16" viewBox="0 0 16 16" fill="none" xmlns="http://www.w3.org/2000/svg"><path d="M13.5006 8.3802V7.6152L14.4606 6.7752C14.6376 6.61923 14.7537 6.40572 14.7885 6.1724C14.8232 5.93909 14.7744 5.701 14.6506 5.5002L13.4706 3.5002C13.3829 3.34833 13.2569 3.22219 13.105 3.13443C12.9532 3.04668 12.781 3.00038 12.6056 3.0002C12.4969 2.99937 12.3889 3.01626 12.2856 3.0502L11.0706 3.4602C10.8608 3.32081 10.642 3.19553 10.4156 3.0852L10.1606 1.8252C10.1149 1.59501 9.98966 1.38822 9.80684 1.24105C9.62402 1.09389 9.39527 1.01571 9.16062 1.0202H6.82062C6.58596 1.01571 6.35721 1.09389 6.17439 1.24105C5.99157 1.38822 5.86634 1.59501 5.82062 1.8252L5.56562 3.0852C5.33758 3.1955 5.1171 3.32078 4.90562 3.4602L3.71561 3.0302C3.61126 3.00302 3.5032 2.99288 3.39561 3.0002C3.22025 3.00038 3.04802 3.04668 2.8962 3.13443C2.74437 3.22219 2.6183 3.34833 2.53061 3.5002L1.35061 5.5002C1.23391 5.7007 1.19054 5.93553 1.22794 6.16449C1.26534 6.39344 1.38118 6.60227 1.55561 6.7552L2.50061 7.6202V8.3852L1.55561 9.2252C1.37625 9.3792 1.25724 9.59177 1.21971 9.82518C1.18219 10.0586 1.22856 10.2977 1.35061 10.5002L2.53061 12.5002C2.6183 12.6521 2.74437 12.7782 2.8962 12.866C3.04802 12.9537 3.22025 13 3.39561 13.0002C3.50429 13.001 3.61237 12.9841 3.71561 12.9502L4.93061 12.5402C5.14038 12.6796 5.3592 12.8049 5.58562 12.9152L5.84062 14.1752C5.88634 14.4054 6.01157 14.6122 6.19439 14.7594C6.37721 14.9065 6.60596 14.9847 6.84062 14.9802H9.20062C9.43527 14.9847 9.66402 14.9065 9.84684 14.7594C10.0297 14.6122 10.1549 14.4054 10.2006 14.1752L10.4556 12.9152C10.6836 12.8049 10.9041 12.6796 11.1156 12.5402L12.3256 12.9502C12.4289 12.9841 12.5369 13.001 12.6456 13.0002C12.821 13 12.9932 12.9537 13.145 12.866C13.2969 12.7782 13.4229 12.6521 13.5106 12.5002L14.6506 10.5002C14.7673 10.2997 14.8107 10.0649 14.7733 9.83592C14.7359 9.60697 14.6201 9.39814 14.4456 9.2452L13.5006 8.3802ZM12.6056 12.0002L10.8906 11.4202C10.4891 11.7603 10.0303 12.0261 9.53561 12.2052L9.18062 14.0002H6.82062L6.46562 12.2252C5.97483 12.041 5.51847 11.7756 5.11561 11.4402L3.39561 12.0002L2.21561 10.0002L3.57561 8.8002C3.48316 8.28263 3.48316 7.75277 3.57561 7.2352L2.21561 6.0002L3.39561 4.0002L5.11062 4.5802C5.51208 4.24015 5.97092 3.97433 6.46562 3.7952L6.82062 2.0002H9.18062L9.53561 3.7752C10.0264 3.95941 10.4828 4.22478 10.8856 4.5602L12.6056 4.0002L13.7856 6.0002L12.4256 7.2002C12.5181 7.71777 12.5181 8.24763 12.4256 8.7652L13.7856 10.0002L12.6056 12.0002Z" fill="#2E97DF"/><path d="M8 11C7.40666 11 6.82664 10.8241 6.33329 10.4944C5.83994 10.1648 5.45543 9.69623 5.22836 9.14805C5.0013 8.59987 4.94189 7.99667 5.05765 7.41473C5.1734 6.83279 5.45912 6.29824 5.87868 5.87868C6.29824 5.45912 6.83279 5.1734 7.41473 5.05765C7.99667 4.94189 8.59987 5.0013 9.14805 5.22836C9.69623 5.45543 10.1648 5.83994 10.4944 6.33329C10.8241 6.82664 11 7.40666 11 8C11.004 8.39508 10.9292 8.78699 10.7798 9.15278C10.6305 9.51857 10.4096 9.85088 10.1303 10.1303C9.85088 10.4096 9.51857 10.6305 9.15278 10.7798C8.78699 10.9292 8.39508 11.004 8 11ZM8 6C7.73567 5.99384 7.47284 6.04137 7.22741 6.1397C6.98197 6.23803 6.75904 6.38512 6.57208 6.57208C6.38512 6.75904 6.23803 6.98197 6.1397 7.22741C6.04137 7.47284 5.99384 7.73567 6 8C5.99384 8.26433 6.04137 8.52716 6.1397 8.77259C6.23803 9.01803 6.38512 9.24097 6.57208 9.42792C6.75904 9.61488 6.98197 9.76198 7.22741 9.86031C7.47284 9.95864 7.73567 10.0062 8 10C8.26433 10.0062 8.52716 9.95864 8.77259 9.86031C9.01803 9.76198 9.24097 9.61488 9.42792 9.42792C9.61488 9.24097 9.76198 9.01803 9.86031 8.77259C9.95864 8.52716 10.0062 8.26433 10 8C10.0062 7.73567 9.95864 7.47284 9.86031 7.22741C9.76198 6.98197 9.61488 6.75904 9.42792 6.57208C9.24097 6.38512 9.01803 6.23803 8.77259 6.1397C8.52716 6.04137 8.26433 5.99384 8 6Z" fill="#2E97DF"/></svg>