<svg width="7" height="10" viewBox="0 0 7 10" fill="none" xmlns="http://www.w3.org/2000/svg">
<path fill-rule="evenodd" clip-rule="evenodd" d="M0.123167 6.08696C-0.0410557 6.26087 -0.0410557 6.5 0.123167 6.67391L3.20235 9.86957C3.36657 10.0435 3.6129 10.0435 3.77713 9.86957L6.87683 6.67391C7.04106 6.5 7.04106 6.26087 6.87683 6.08696L6.30205 5.5C6.13783 5.32609 5.8915 5.32609 5.72727 5.5L4.76246 6.5C4.59824 6.67391 4.31085 6.56522 4.31085 6.30435V0.434783C4.31085 0.217391 4.1261 0 3.90029 0H3.07918C2.85337 0 2.66862 0.23913 2.66862 0.434783V6.30435C2.66862 6.56522 2.38123 6.67391 2.21701 6.5L1.2522 5.5C1.08798 5.32609 0.841642 5.32609 0.677419 5.5L0.123167 6.08696Z" fill="#697882"/>
<mask id="mask0" mask-type="alpha" maskUnits="userSpaceOnUse" x="0" y="0" width="8" height="10">
<path fill-rule="evenodd" clip-rule="evenodd" d="M0.123167 6.08696C-0.0410557 6.26087 -0.0410557 6.5 0.123167 6.67391L3.20235 9.86957C3.36657 10.0435 3.6129 10.0435 3.77713 9.86957L6.87683 6.67391C7.04106 6.5 7.04106 6.26087 6.87683 6.08696L6.30205 5.5C6.13783 5.32609 5.8915 5.32609 5.72727 5.5L4.76246 6.5C4.59824 6.67391 4.31085 6.56522 4.31085 6.30435V0.434783C4.31085 0.217391 4.1261 0 3.90029 0H3.07918C2.85337 0 2.66862 0.23913 2.66862 0.434783V6.30435C2.66862 6.56522 2.38123 6.67391 2.21701 6.5L1.2522 5.5C1.08798 5.32609 0.841642 5.32609 0.677419 5.5L0.123167 6.08696Z" fill="white"/>
</mask>
<g mask="url(#mask0)">
</g>
</svg>
