<svg width="13" height="13" viewBox="0 0 13 13" fill="none" xmlns="http://www.w3.org/2000/svg">
<path fill-rule="evenodd" clip-rule="evenodd" d="M6.5 0C2.89792 0 0 2.89792 0 6.5C0 10.1021 2.89792 13 6.5 13C10.1021 13 13 10.1021 13 6.5C13 2.89792 10.1021 0 6.5 0ZM10.1291 4.87497L5.98537 9.07289C5.82287 9.23539 5.55204 9.23539 5.38954 9.07289L3.11454 6.7708C2.95204 6.6083 2.95204 6.33747 3.11454 6.17497L3.71037 5.57914C3.87287 5.41664 4.1437 5.41664 4.3062 5.57914L5.49787 6.79789C5.6062 6.90622 5.79579 6.90622 5.90412 6.79789L8.93745 3.65622C9.09995 3.49372 9.37079 3.49372 9.53329 3.65622L10.1291 4.25205C10.3187 4.41455 10.3187 4.68539 10.1291 4.87497V4.87497Z" fill="#28A745"/>
<mask id="mask0" mask-type="alpha" maskUnits="userSpaceOnUse" x="0" y="0" width="13" height="13">
<path fill-rule="evenodd" clip-rule="evenodd" d="M6.5 0C2.89792 0 0 2.89792 0 6.5C0 10.1021 2.89792 13 6.5 13C10.1021 13 13 10.1021 13 6.5C13 2.89792 10.1021 0 6.5 0ZM10.1291 4.87497L5.98537 9.07289C5.82287 9.23539 5.55204 9.23539 5.38954 9.07289L3.11454 6.7708C2.95204 6.6083 2.95204 6.33747 3.11454 6.17497L3.71037 5.57914C3.87287 5.41664 4.1437 5.41664 4.3062 5.57914L5.49787 6.79789C5.6062 6.90622 5.79579 6.90622 5.90412 6.79789L8.93745 3.65622C9.09995 3.49372 9.37079 3.49372 9.53329 3.65622L10.1291 4.25205C10.3187 4.41455 10.3187 4.68539 10.1291 4.87497V4.87497Z" fill="white"/>
</mask>
<g mask="url(#mask0)">
</g>
</svg>
