<svg xmlns="http://www.w3.org/2000/svg" class="main-svg-sprite" xmlns:xlink="http://www.w3.org/1999/xlink">
	<symbol viewBox="0 0 6 9" id="arrow_button" xmlns="http://www.w3.org/2000/svg"><path d="M4.75 8.286a.27.27 0 0 0 .18-.078l.39-.39a.27.27 0 0 0 .078-.18.27.27 0 0 0-.078-.18l-3.07-3.07 3.07-3.07a.27.27 0 0 0 .078-.18.254.254 0 0 0-.078-.18l-.39-.39a.27.27 0 0 0-.18-.079.27.27 0 0 0-.18.078L.93 4.208a.27.27 0 0 0-.078.18.27.27 0 0 0 .078.18l3.64 3.64a.27.27 0 0 0 .18.078z"></path></symbol>
	<symbol viewBox="0 0 20 20" id="chevron-down" xmlns="http://www.w3.org/2000/svg"><path d="M17.418 6.109c.272-.268.709-.268.979 0s.271.701 0 .969l-7.908 7.83a.697.697 0 0 1-.979 0l-7.908-7.83c-.27-.268-.27-.701 0-.969s.709-.268.979 0L10 13.25l7.418-7.141z"></path></symbol>
	<symbol viewBox="0 0 20 20" id="chevron-left" xmlns="http://www.w3.org/2000/svg"><path d="M13.891 17.418c.268.272.268.709 0 .979s-.701.271-.969 0l-7.83-7.908a.697.697 0 0 1 0-.979l7.83-7.908c.268-.27.701-.27.969 0s.268.709 0 .979L6.75 10l7.141 7.418z"></path></symbol>
	<symbol viewBox="0 0 20 20" id="chevron-right" xmlns="http://www.w3.org/2000/svg"><path d="M13.25 10L6.109 2.58a.697.697 0 0 1 0-.979.68.68 0 0 1 .969 0l7.83 7.908a.697.697 0 0 1 0 .979l-7.83 7.908c-.268.271-.701.27-.969 0s-.268-.707 0-.979L13.25 10z"></path></symbol>
	<symbol viewBox="0 0 20 20" id="chevron-up" xmlns="http://www.w3.org/2000/svg"><path d="M2.582 13.891c-.272.268-.709.268-.979 0s-.271-.701 0-.969l7.908-7.83a.697.697 0 0 1 .979 0l7.908 7.83c.27.268.27.701 0 .969s-.709.268-.978 0L10 6.75l-7.418 7.141z"></path></symbol>
	<symbol viewBox="0 0 24 24" id="close" xmlns="http://www.w3.org/2000/svg"><path d="M18.984 6.422L13.406 12l5.578 5.578-1.406 1.406L12 13.406l-5.578 5.578-1.406-1.406L10.594 12 5.016 6.422l1.406-1.406L12 10.594l5.578-5.578z"></path></symbol>
	<symbol viewBox="-467 269 24 24" id="favorite" xmlns="http://www.w3.org/2000/svg"><path d="M-455 290.4l-1.5-1.3c-5.1-4.7-8.5-7.8-8.5-11.5 0-3.1 2.4-5.5 5.5-5.5 1.7 0 3.4.8 4.5 2.1 1.1-1.3 2.8-2.1 4.5-2.1 3.1 0 5.5 2.4 5.5 5.5 0 3.8-3.4 6.9-8.5 11.5l-1.5 1.3z"></path></symbol>
	<symbol viewBox="-467 269 24 24" id="favorite_border" xmlns="http://www.w3.org/2000/svg"><path d="M-450.5 272c-1.7 0-3.4.8-4.5 2.1-1.1-1.3-2.8-2.1-4.5-2.1-3.1 0-5.5 2.4-5.5 5.5 0 3.8 3.4 6.9 8.5 11.5l1.5 1.3 1.5-1.3c5.1-4.7 8.5-7.8 8.5-11.5 0-3.1-2.4-5.5-5.5-5.5zm-4.4 15.5l-.1.1-.1-.1c-4.8-4.3-7.9-7.2-7.9-10 0-2 1.5-3.5 3.5-3.5 1.5 0 3 1 3.6 2.4h1.9c.5-1.4 2-2.4 3.6-2.4 2 0 3.5 1.5 3.5 3.5-.1 2.9-3.2 5.7-8 10z"></path></symbol>
	<symbol viewBox="0 0 16 16" id="icon1" xmlns="http://www.w3.org/2000/svg"><path clip-rule="evenodd" d="M14.329 0H1.703C.768 0 0 .767 0 1.7v12.567C0 15.233.768 16 1.703 16h12.592c.936 0 1.704-.767 1.704-1.7V1.7c.033-.933-.735-1.7-1.67-1.7zM4.576 12.567c0 .3-.267.566-.568.566H3.44a.585.585 0 0 1-.568-.566V9.433c0-.3.268-.566.568-.566h.568c.3 0 .568.266.568.566v3.134zm2.872 0c0 .3-.267.566-.567.566h-.568a.585.585 0 0 1-.568-.566V5.133c0-.3.267-.566.568-.566h.568c.3 0 .567.266.567.566v7.434zm2.873 0c0 .3-.267.566-.568.566h-.568a.585.585 0 0 1-.568-.566V3.433c0-.3.268-.566.568-.566h.568c.3 0 .568.266.568.566v9.134zm2.839 0c0 .3-.267.566-.568.566h-.568a.585.585 0 0 1-.567-.566V7.133c0-.3.267-.566.567-.566h.568c.3 0 .568.266.568.566v5.434z"></path></symbol>
	<symbol viewBox="0 0 15 15" id="icon2" xmlns="http://www.w3.org/2000/svg"><path clip-rule="evenodd" d="M14.6 3.138c-.061-.184-.277-.215-.43-.092l-2.493 2.492a.483.483 0 0 1-.677 0L9.246 3.785a.483.483 0 0 1 0-.677L11.77.615c.123-.123.062-.338-.092-.43A4.902 4.902 0 0 0 10.354 0c-2.616 0-4.708 2.246-4.4 4.923.061.43.154.8.308 1.17L.508 11.814c-.677.677-.677 1.785 0 2.431.338.339.8.523 1.23.523.431 0 .893-.184 1.231-.523l5.723-5.723c.37.154.77.246 1.17.308 2.677.307 4.923-1.785 4.923-4.4 0-.462-.062-.893-.185-1.293z"></path></symbol>
	<symbol viewBox="0 0 15 15" id="icon3" xmlns="http://www.w3.org/2000/svg"><path clip-rule="evenodd" d="M7.359 4.028l1.445 3.357H5.779l1.31-3.357h.27zm7.426-2.685v12.084c0 .738-.605 1.342-1.344 1.342H1.344C.604 14.77 0 14.165 0 13.427V1.343C0 .604.605 0 1.344 0h12.097c.739 0 1.344.604 1.344 1.343zm-1.848 10.976l-4.033-9.97c-.1-.2-.268-.335-.504-.335H6.015a.505.505 0 0 0-.47.336l-3.697 9.969c-.067.201.067.436.302.436h1.378c.202 0 .403-.168.47-.369l1.076-2.987h4.502l1.176 2.987c.068.201.27.37.47.37h1.379c.235 0 .403-.236.335-.437z"></path></symbol>
	<symbol viewBox="0 0 15 15" id="icon4" xmlns="http://www.w3.org/2000/svg"><path clip-rule="evenodd" d="M7.765 12.195l-.647-.093s-.431-.092-.647-.185a.404.404 0 0 0-.37.093l-.153.154c-.894.895-2.341.988-3.265.185-1.048-.895-1.079-2.5-.124-3.457L4.9 6.547c.308-.31.678-.494 1.048-.618a2.418 2.418 0 0 1 1.478.093c.277.123.555.278.801.524.123.124.216.247.308.402.123.216.4.247.554.061l.863-.864c.123-.123.123-.308.03-.463a3.301 3.301 0 0 0-.43-.494 3.441 3.441 0 0 0-.74-.586 3.929 3.929 0 0 0-1.447-.556 4.396 4.396 0 0 0-2.865.432 4.27 4.27 0 0 0-.955.71L1.296 7.442c-1.632 1.636-1.755 4.29-.184 5.957 1.632 1.79 4.404 1.821 6.098.123l.77-.771c.216-.155.062-.525-.215-.556zm5.667-11.081C11.738-.46 9.09-.336 7.488 1.299l-.709.68c-.215.215-.061.586.216.617.431.03.862.123 1.294.247.123.03.277 0 .37-.093l.153-.154c.893-.896 2.341-.988 3.265-.186 1.047.896 1.078 2.5.123 3.457L9.86 8.213c-.309.309-.678.494-1.048.618a2.418 2.418 0 0 1-1.478-.093 2.563 2.563 0 0 1-.801-.525 1.98 1.98 0 0 1-.308-.401c-.123-.216-.4-.247-.555-.062l-.862.865c-.123.123-.123.308-.03.463.122.185.276.34.43.493.216.216.493.433.74.587.43.278.924.463 1.416.556.955.185 2.003.03 2.865-.433.339-.185.678-.432.955-.71l2.34-2.345c1.726-1.698 1.664-4.476-.091-6.112z"></path></symbol>
	<symbol viewBox="0 0 16 16" id="icon5" xmlns="http://www.w3.org/2000/svg"><path clip-rule="evenodd" d="M16 .91V2c0 .29-.233.545-.5.545h-9c-.267 0-.5-.254-.5-.545V.91c0-.292.233-.546.5-.546h9c.267 0 .5.254.5.545zM6.5 6.181h6c.267 0 .5-.255.5-.546v-1.09c0-.291-.233-.546-.5-.546h-6c-.267 0-.5.255-.5.545v1.091c0 .291.233.546.5.546zm9 3.273h-9c-.267 0-.5.254-.5.545v1.09c0 .292.233.546.5.546h9c.267 0 .5-.254.5-.545V10c0-.29-.233-.545-.5-.545zm-3 3.636h-6c-.267 0-.5.255-.5.545v1.091c0 .291.233.546.5.546h6c.267 0 .5-.255.5-.546v-1.09c0-.292-.233-.546-.5-.546zM.5 1.455h.833V6c0 .29.234.545.5.545h.334c.266 0 .5-.254.5-.545V.727C2.667.327 2.367 0 2 0H.5C.233 0 0 .255 0 .545V.91c0 .291.233.546.5.546zm2.833 7.272H.5c-.267 0-.5.255-.5.546v.363c0 .291.233.546.5.546h2.167v1.454h-2c-.367 0-.667.328-.667.728v2.909c0 .4.3.727.667.727H3.5c.267 0 .5-.255.5-.545v-.364c0-.291-.233-.545-.5-.545H1.333V13.09h2c.367 0 .667-.327.667-.727v-2.91c0-.4-.3-.727-.667-.727z"></path></symbol>
	<symbol viewBox="0 0 16 16" id="icon6" xmlns="http://www.w3.org/2000/svg"><path d="M10.963 0a5.033 5.033 0 0 0-5.037 5.037c0 .593.118 1.185.296 1.778L0 13.037V16h2.963v-1.778h1.778v-1.778h1.778l2.666-2.666a5.587 5.587 0 0 0 1.778.296A5.033 5.033 0 0 0 16 5.037 5.033 5.033 0 0 0 10.963 0zm1.481 5.333a1.746 1.746 0 0 1-1.777-1.777c0-1.008.77-1.778 1.777-1.778 1.008 0 1.778.77 1.778 1.778 0 1.007-.77 1.777-1.778 1.777z"></path></symbol>
	<symbol viewBox="0 0 24 24" id="menu" xmlns="http://www.w3.org/2000/svg"><path d="M3 18h18v-2H3v2zm0-5h18v-2H3v2zm0-7v2h18V6H3z"></path></symbol>
	<symbol viewBox="0 0 24 24" id="more_horiz" xmlns="http://www.w3.org/2000/svg"><path d="M12 9.984c1.078 0 2.016.938 2.016 2.016s-.938 2.016-2.016 2.016S9.984 13.078 9.984 12 10.922 9.984 12 9.984zm6 0c1.078 0 2.016.938 2.016 2.016s-.938 2.016-2.016 2.016-2.016-.938-2.016-2.016.938-2.016 2.016-2.016zm-12 0c1.078 0 2.016.938 2.016 2.016S7.078 14.016 6 14.016 3.984 13.078 3.984 12 4.922 9.984 6 9.984z"></path></symbol>
	<symbol viewBox="0 0 24 24" id="more_vert" xmlns="http://www.w3.org/2000/svg"><path d="M12 15.984c1.078 0 2.016.938 2.016 2.016s-.938 2.016-2.016 2.016S9.984 19.078 9.984 18s.938-2.016 2.016-2.016zm0-6c1.078 0 2.016.938 2.016 2.016s-.938 2.016-2.016 2.016S9.984 13.078 9.984 12 10.922 9.984 12 9.984zm0-1.968c-1.078 0-2.016-.938-2.016-2.016S10.922 3.984 12 3.984s2.016.938 2.016 2.016S13.078 8.016 12 8.016z"></path></symbol>
	<symbol viewBox="0 0 12 12" id="romb" xmlns="http://www.w3.org/2000/svg"><path d="M0 0h12v12H0z"></path></symbol>
	<symbol viewBox="0 0 32 32" id="search" xmlns="http://www.w3.org/2000/svg"><path d="M19.427 20.427a8.5 8.5 0 1 1 2-2l5.585 5.585c.55.55.546 1.431 0 1.976l-.023.023a1.398 1.398 0 0 1-1.976 0l-5.585-5.585zM14.5 20a6.5 6.5 0 1 0 0-13 6.5 6.5 0 0 0 0 13z"></path></symbol>
	<symbol viewBox="0 0 32 32" id="spinner" xmlns="http://www.w3.org/2000/svg"><path d="M16 0C7.163 0 0 7.163 0 16s7.163 16 16 16 16-7.163 16-16S24.837 0 16 0zm0 8a8 8 0 1 1 0 16 8 8 0 0 1 0-16zm9.546 17.546c-2.55 2.55-5.94 3.954-9.546 3.954s-6.996-1.404-9.546-3.954S2.5 19.606 2.5 16c0-3.606 1.404-6.996 3.954-9.546l2.121 2.121c-4.094 4.094-4.094 10.755 0 14.849 1.983 1.983 4.62 3.075 7.425 3.075s5.441-1.092 7.425-3.075c4.094-4.094 4.094-10.755 0-14.849l2.121-2.121c2.55 2.55 3.954 5.94 3.954 9.546s-1.404 6.996-3.954 9.546z"></path></symbol>
	<symbol viewBox="0 0 14 14" id="icon-alert" xmlns="http://www.w3.org/2000/svg"><path d="M13.8424 11.5316C14.2911 12.3064 13.7279 13.275 12.8319 13.275H1.16799C0.270212 13.275 -0.290323 12.3049 0.157434 11.5316L5.98945 1.45589C6.4383 0.680669 7.56251 0.682074 8.01056 1.45589L13.8424 11.5316ZM7 9.44843C6.38252 9.44843 5.88195 9.94722 5.88195 10.5625C5.88195 11.1778 6.38252 11.6766 7 11.6766C7.61749 11.6766 8.11806 11.1778 8.11806 10.5625C8.11806 9.94722 7.61749 9.44843 7 9.44843ZM5.93851 5.44396L6.11881 8.73771C6.12724 8.89184 6.25514 9.0125 6.41004 9.0125H7.58997C7.74487 9.0125 7.87277 8.89184 7.8812 8.73771L8.0615 5.44396C8.07062 5.27748 7.93759 5.1375 7.77027 5.1375H6.22971C6.06239 5.1375 5.92939 5.27748 5.93851 5.44396Z"/></symbol>
	<symbol xmlns="http://www.w3.org/2000/svg" viewBox="0 0 14 14" id="icon-desc"><path fill-rule="evenodd" clip-rule="evenodd" d="M12.7273 0H1.27273C0.572727 0 0 0.572727 0 1.27273V12.7273C0 13.4273 0.572727 14 1.27273 14H12.7273C13.4273 14 14 13.4273 14 12.7273V1.27273C14 0.572727 13.4273 0 12.7273 0ZM2.54547 3.18181C2.54547 2.9909 2.67274 2.86363 2.86365 2.86363H6.04547C6.23638 2.86363 6.36365 2.9909 6.36365 3.18181V6.36363C6.36365 6.55454 6.23638 6.68181 6.04547 6.68181H2.86365C2.67274 6.68181 2.54547 6.55454 2.54547 6.36363V3.18181ZM10.1818 11.4545C10.1818 11.6455 10.0546 11.7727 9.86365 11.7727H2.86365C2.67274 11.7727 2.54547 11.6455 2.54547 11.4545V10.8182C2.54547 10.6273 2.67274 10.5 2.86365 10.5H9.86365C10.0546 10.5 10.1818 10.6273 10.1818 10.8182V11.4545ZM11.4546 8.90909C11.4546 9.1 11.3273 9.22727 11.1364 9.22727H2.86365C2.67274 9.22727 2.54547 9.1 2.54547 8.90909V8.27273C2.54547 8.08182 2.67274 7.95455 2.86365 7.95455H11.1364C11.3273 7.95455 11.4546 8.08182 11.4546 8.27273V8.90909ZM11.4546 6.36364C11.4546 6.55455 11.3273 6.68182 11.1364 6.68182H7.95455C7.76364 6.68182 7.63637 6.55455 7.63637 6.36364V5.72728C7.63637 5.53637 7.76364 5.4091 7.95455 5.4091H11.1364C11.3273 5.4091 11.4546 5.53637 11.4546 5.72728V6.36364ZM11.4546 3.81818C11.4546 4.00908 11.3273 4.13636 11.1364 4.13636H7.95455C7.76364 4.13636 7.63637 4.00908 7.63637 3.81818V3.18181C7.63637 2.9909 7.76364 2.86363 7.95455 2.86363H11.1364C11.3273 2.86363 11.4546 2.9909 11.4546 3.18181V3.81818Z" fill="transparent"/><path class="inner" fill-rule="evenodd" clip-rule="evenodd" d="M12.7273 0H1.27273C0.572727 0 0 0.572727 0 1.27273V12.7273C0 13.4273 0.572727 14 1.27273 14H12.7273C13.4273 14 14 13.4273 14 12.7273V1.27273C14 0.572727 13.4273 0 12.7273 0ZM2.54547 3.18181C2.54547 2.9909 2.67274 2.86363 2.86365 2.86363H6.04547C6.23638 2.86363 6.36365 2.9909 6.36365 3.18181V6.36363C6.36365 6.55454 6.23638 6.68181 6.04547 6.68181H2.86365C2.67274 6.68181 2.54547 6.55454 2.54547 6.36363V3.18181ZM10.1818 11.4545C10.1818 11.6455 10.0546 11.7727 9.86365 11.7727H2.86365C2.67274 11.7727 2.54547 11.6455 2.54547 11.4545V10.8182C2.54547 10.6273 2.67274 10.5 2.86365 10.5H9.86365C10.0546 10.5 10.1818 10.6273 10.1818 10.8182V11.4545ZM11.4546 8.90909C11.4546 9.1 11.3273 9.22727 11.1364 9.22727H2.86365C2.67274 9.22727 2.54547 9.1 2.54547 8.90909V8.27273C2.54547 8.08182 2.67274 7.95455 2.86365 7.95455H11.1364C11.3273 7.95455 11.4546 8.08182 11.4546 8.27273V8.90909ZM11.4546 6.36364C11.4546 6.55455 11.3273 6.68182 11.1364 6.68182H7.95455C7.76364 6.68182 7.63637 6.55455 7.63637 6.36364V5.72728C7.63637 5.53637 7.76364 5.4091 7.95455 5.4091H11.1364C11.3273 5.4091 11.4546 5.53637 11.4546 5.72728V6.36364ZM11.4546 3.81818C11.4546 4.00908 11.3273 4.13636 11.1364 4.13636H7.95455C7.76364 4.13636 7.63637 4.00908 7.63637 3.81818V3.18181C7.63637 2.9909 7.76364 2.86363 7.95455 2.86363H11.1364C11.3273 2.86363 11.4546 2.9909 11.4546 3.18181V3.81818Z"/></symbol>
	<symbol id="icon-history" viewBox="0 0 14 14" xmlns="http://www.w3.org/2000/svg"><path d="M14 6.98678C14.0071 10.8436 10.8618 13.9973 7.00507 14C5.33933 14.0012 3.80927 13.4205 2.60688 12.4501C2.29422 12.1977 2.27085 11.7292 2.55497 11.445L2.87299 11.127C3.11599 10.884 3.50392 10.8574 3.77314 11.071C4.659 11.774 5.7801 12.1936 6.99999 12.1936C9.8707 12.1936 12.1935 9.87027 12.1935 7.00001C12.1935 4.1293 9.87024 1.80646 6.99999 1.80646C5.62218 1.80646 4.37079 2.34187 3.44163 3.21583L4.8742 4.6484C5.15871 4.93292 4.95721 5.41936 4.55488 5.41936H0.451613C0.202181 5.41936 0 5.21718 0 4.96775V0.864473C0 0.462142 0.486443 0.260638 0.770959 0.545126L2.16452 1.93869C3.42122 0.737711 5.12445 0 6.99999 0C10.8616 0 13.9928 3.12686 14 6.98678ZM8.89361 9.21052L9.17087 8.85403C9.40057 8.5587 9.34736 8.13308 9.05204 7.90341L7.90322 7.00986V4.06452C7.90322 3.69039 7.59993 3.3871 7.2258 3.3871H6.77419C6.40005 3.3871 6.09677 3.69039 6.09677 4.06452V7.89339L7.94299 9.32935C8.23832 9.55903 8.6639 9.50585 8.89361 9.21052Z"/></symbol>
	<symbol id="icon-pdf" viewBox="0 0 12 14" xmlns="http://www.w3.org/2000/svg"><path fill-rule="evenodd" clip-rule="evenodd" d="M11.2325 4.95833H8.0475C7.30813 4.95833 6.85312 4.49167 6.85312 3.73333V0.466667C6.85312 0.204167 6.65406 0 6.39812 0H1.6775C0.938125 0 0.3125 0.641667 0.3125 1.4V12.6C0.3125 13.3583 0.938125 14 1.6775 14H10.3225C11.0619 14 11.6875 13.3583 11.6875 12.6V5.425C11.6875 5.1625 11.4884 4.95833 11.2325 4.95833ZM11.6023 3.17917L8.58795 0.0875C8.53107 0.0291667 8.41732 0 8.33201 0C8.16138 0 7.99076 0.145833 7.99076 0.320833V2.8C7.99076 3.325 8.44576 3.79167 8.95763 3.79167H11.3748C11.5454 3.79167 11.6876 3.61667 11.6876 3.44167C11.6876 3.35417 11.6592 3.2375 11.6023 3.17917Z"/></symbol>
	<symbol id="optirank-icon" viewBox="0 0 50 50" xmlns="http://www.w3.org/2000/svg" fill="none"><path d="M25 11C22.2311 11 19.5243 11.8211 17.222 13.3594C14.9197 14.8978 13.1253 17.0843 12.0657 19.6424C11.0061 22.2006 10.7288 25.0155 11.269 27.7313C11.8092 30.447 13.1426 32.9416 15.1005 34.8995C17.0584 36.8574 19.553 38.1908 22.2687 38.731C24.9845 39.2712 27.7994 38.9939 30.3576 37.9343C32.9157 36.8747 35.1022 35.0803 36.6406 32.778C38.1789 30.4757 39 27.7689 39 25C39 21.287 37.525 17.726 34.8995 15.1005C32.274 12.475 28.713 11 25 11ZM25 37C22.6266 37 20.3066 36.2962 18.3332 34.9776C16.3598 33.6591 14.8217 31.7849 13.9135 29.5922C13.0052 27.3995 12.7676 24.9867 13.2306 22.6589C13.6936 20.3311 14.8365 18.1929 16.5147 16.5147C18.193 14.8365 20.3312 13.6936 22.6589 13.2306C24.9867 12.7676 27.3995 13.0052 29.5922 13.9134C31.7849 14.8217 33.6591 16.3598 34.9776 18.3332C36.2962 20.3065 37 22.6266 37 25C37 28.1826 35.7357 31.2348 33.4853 33.4853C31.2348 35.7357 28.1826 37 25 37Z" fill="white"/><path d="M20.5 20.0001C20.0055 20.0001 19.5222 20.1467 19.1111 20.4214C18.7 20.6961 18.3795 21.0866 18.1903 21.5434C18.0011 22.0002 17.9516 22.5029 18.048 22.9878C18.1445 23.4728 18.3826 23.9182 18.7322 24.2678C19.0819 24.6175 19.5273 24.8556 20.0123 24.952C20.4972 25.0485 20.9999 24.999 21.4567 24.8098C21.9135 24.6206 22.304 24.3001 22.5787 23.889C22.8534 23.4779 23 22.9945 23 22.5001C23.0027 22.171 22.9398 21.8447 22.8151 21.5402C22.6904 21.2357 22.5064 20.9591 22.2737 20.7264C22.041 20.4937 21.7644 20.3096 21.4599 20.185C21.1553 20.0603 20.829 19.9974 20.5 20.0001ZM29.5 20.0001C29.0055 20.0001 28.5222 20.1467 28.1111 20.4214C27.7 20.6961 27.3795 21.0866 27.1903 21.5434C27.0011 22.0002 26.9516 22.5029 27.048 22.9878C27.1445 23.4728 27.3826 23.9182 27.7322 24.2678C28.0819 24.6175 28.5273 24.8556 29.0123 24.952C29.4972 25.0485 29.9999 24.999 30.4567 24.8098C30.9135 24.6206 31.304 24.3001 31.5787 23.889C31.8534 23.4779 32 22.9945 32 22.5001C32.0027 22.171 31.9398 21.8447 31.8151 21.5402C31.6904 21.2357 31.5064 20.9591 31.2737 20.7264C31.041 20.4937 30.7644 20.3096 30.4599 20.185C30.1553 20.0603 29.829 19.9974 29.5 20.0001ZM25 33.0001C26.3804 32.9977 27.7367 32.6383 28.937 31.9566C30.1373 31.275 31.1408 30.2944 31.85 29.1101L30.14 28.1101C29.6063 28.9963 28.8526 29.7295 27.952 30.2384C27.0514 30.7474 26.0345 31.0149 25 31.0149C23.9655 31.0149 22.9486 30.7474 22.048 30.2384C21.1474 29.7295 20.3937 28.9963 19.86 28.1101L18.15 29.1101C18.8592 30.2944 19.8627 31.275 21.063 31.9566C22.2634 32.6383 23.6196 32.9977 25 33.0001Z" fill="white"/></symbol>
	<symbol id="icon-flag-rus" viewBox="0 0 17 17" fill="none" xmlns="http://www.w3.org/2000/svg"><path d="M15.7268 2.93115H1.27317C0.569998 2.93115 0 3.50115 0 4.20433V6.64379H17V4.20433C17 3.50115 16.43 2.93115 15.7268 2.93115Z" fill="#F5F5F5"/><path d="M0 12.7959C0 13.4991 0.569998 14.0691 1.27317 14.0691H15.7268C16.43 14.0691 17 13.4991 17 12.7959V10.3564H0V12.7959Z" fill="#FF4B55"/><path d="M17 6.64355H0V10.356H17V6.64355Z" fill="#41479B"/></symbol>
	<symbol id="icon-popular-site" viewBox="0 0 50 50" xmlns="http://www.w3.org/2000/svg"><path fill-rule="evenodd" clip-rule="evenodd" d="M25 50C38.8071 50 50 38.8071 50 25C50 11.1929 38.8071 0 25 0C11.1929 0 0 11.1929 0 25C0 38.8071 11.1929 50 25 50ZM21.875 40.625C18.75 37.5 18.75 31.25 21.875 28.125C22.7172 31.6812 23.7594 33.7695 25 34.3906C26.2406 35.0109 27.2828 33.9641 28.125 31.25C31.25 34.375 31.25 37.5 28.125 40.625C33.5914 39.1555 37.5 34.375 37.5 28.125C37.5 21.875 35.1766 17.9844 29.6875 14.0625C29.9203 15.5922 27.7711 19.1836 26.5625 20.3125C25.4086 12.375 21.875 9.39844 18.75 9.375C19.6294 15.5309 17.5391 18.2221 15.5433 20.7916C13.9931 22.7873 12.5 24.7096 12.5 28.125C12.5 34.375 16.4352 39.2758 21.875 40.625Z"/></symbol>
	<symbol id="icon-user-select" viewBox="0 0 50 50" xmlns="http://www.w3.org/2000/svg"><path fill-rule="evenodd" clip-rule="evenodd" d="M25 50C38.8071 50 50 38.8071 50 25C50 11.1929 38.8071 0 25 0C11.1929 0 0 11.1929 0 25C0 38.8071 11.1929 50 25 50ZM17.7777 24.1336L10.9418 17.9187C10.7977 17.788 10.6166 17.7052 10.4235 17.682C10.2304 17.6587 10.0348 17.6962 9.86386 17.789C9.69294 17.8819 9.55514 18.0257 9.46958 18.2004C9.38401 18.3751 9.3549 18.5721 9.38629 18.764L12.0308 34.8812C12.1509 35.6125 12.5269 36.2772 13.0917 36.7569C13.6565 37.2366 14.3734 37.5 15.1144 37.5H34.8847C35.6257 37.5 36.3426 37.2366 36.9075 36.7569C37.4723 36.2772 37.8483 35.6125 37.9683 34.8812L40.6129 18.764C40.6442 18.5721 40.6151 18.3751 40.5296 18.2004C40.444 18.0257 40.3062 17.8819 40.1353 17.789C39.9644 17.6962 39.7688 17.6587 39.5756 17.682C39.3825 17.7052 39.2014 17.788 39.0574 17.9187L32.2214 24.1336C32.1121 24.233 31.9808 24.3051 31.8383 24.3441C31.6958 24.3832 31.5461 24.3879 31.4013 24.3581C31.2566 24.3282 31.121 24.2646 31.0056 24.1723C30.8901 24.0801 30.7981 23.9619 30.7371 23.8273L25.8535 13.0539C25.7791 12.8898 25.659 12.7506 25.5076 12.6529C25.3561 12.5553 25.1798 12.5034 24.9996 12.5034C24.8194 12.5034 24.643 12.5553 24.4916 12.6529C24.3401 12.7506 24.22 12.8898 24.1457 13.0539L19.2621 23.8273C19.201 23.9619 19.109 24.0801 18.9936 24.1723C18.8781 24.2646 18.7425 24.3282 18.5978 24.3581C18.4531 24.3879 18.3034 24.3832 18.1608 24.3441C18.0183 24.3051 17.887 24.233 17.7777 24.1336Z"/></symbol>
	<symbol id="star" viewBox="0 0 12 12" xmlns="http://www.w3.org/2000/svg"><path fill-rule="evenodd" clip-rule="evenodd" d="M6.35973 0.275262L7.51089 4.02427C7.56094 4.17423 7.71109 4.24921 7.86125 4.24921H11.615C11.9904 4.24921 12.1405 4.74908 11.8402 4.97402L8.78718 7.22342C8.66205 7.32339 8.612 7.49835 8.66205 7.64831L10.1135 11.4973C10.2136 11.8472 9.83823 12.1471 9.53793 11.9222L6.25963 9.47282C6.13451 9.37285 5.95933 9.37285 5.80918 9.47282L2.50586 11.9222C2.20556 12.1471 1.80515 11.8472 1.93028 11.4973L3.33169 7.64831C3.38174 7.49835 3.33169 7.32339 3.20656 7.22342L0.153491 4.97402C-0.146811 4.74908 0.0283652 4.24921 0.378718 4.24921H4.13249C4.30767 4.24921 4.4328 4.19922 4.48285 4.02427L5.65903 0.250268C5.75913 -0.0996391 6.25963 -0.0746457 6.35973 0.275262Z"/></symbol>
	<symbol id="check" viewBox="0 0 14 14" xmlns="http://www.w3.org/2000/svg"><path fill-rule="evenodd" clip-rule="evenodd" d="M7 0C3.12083 0 0 3.12083 0 7C0 10.8792 3.12083 14 7 14C10.8792 14 14 10.8792 14 7C14 3.12083 10.8792 0 7 0ZM10.9083 5.24999L6.44581 9.77082C6.27081 9.94582 5.97915 9.94582 5.80415 9.77082L3.35415 7.29165C3.17915 7.11665 3.17915 6.82499 3.35415 6.64999L3.99581 6.00832C4.17081 5.83332 4.46248 5.83332 4.63748 6.00832L5.92081 7.32082C6.03748 7.43749 6.24165 7.43749 6.35831 7.32082L9.62498 3.93749C9.79998 3.76249 10.0916 3.76249 10.2666 3.93749L10.9083 4.57915C11.1125 4.75415 11.1125 5.04582 10.9083 5.24999Z"/></symbol>
	<symbol id="sitemap" viewBox="0 0 14 14" xmlns="http://www.w3.org/2000/svg"><path d="M2.8 9.08921H0.7C0.313469 9.08921 0 9.40224 0 9.78823V11.8853C0 12.2713 0.313469 12.5843 0.7 12.5843H2.8C3.18653 12.5843 3.5 12.2713 3.5 11.8853V9.78823C3.5 9.40224 3.18653 9.08921 2.8 9.08921ZM2.275 7.34165H6.475V8.39019H7.525V7.34165H11.725V8.39019H12.775V7.13216C12.775 6.66972 12.3981 6.29312 11.9348 6.29312H7.525V4.89508H8.4C8.78653 4.89508 9.1 4.58204 9.1 4.19605V2.09899C9.1 1.71299 8.78653 1.39996 8.4 1.39996H5.6C5.21347 1.39996 4.9 1.71299 4.9 2.09899V4.19605C4.9 4.58204 5.21347 4.89508 5.6 4.89508H6.475V6.29312H2.06522C1.60191 6.29312 1.225 6.6695 1.225 7.13216V8.39019H2.275V7.34165ZM8.05 9.08921H5.95C5.56347 9.08921 5.25 9.40224 5.25 9.78823V11.8853C5.25 12.2713 5.56347 12.5843 5.95 12.5843H8.05C8.43653 12.5843 8.75 12.2713 8.75 11.8853V9.78823C8.75 9.40224 8.43653 9.08921 8.05 9.08921ZM13.3 9.08921H11.2C10.8135 9.08921 10.5 9.40224 10.5 9.78823V11.8853C10.5 12.2713 10.8135 12.5843 11.2 12.5843H13.3C13.6865 12.5843 14 12.2713 14 11.8853V9.78823C14 9.40224 13.6865 9.08921 13.3 9.08921Z"/></symbol>
	<symbol id="post" viewBox="0 0 14 14" xmlns="http://www.w3.org/2000/svg"><path fill-rule="evenodd" clip-rule="evenodd" d="M4.45 2H9.55C9.79 2 10 1.86 10 1.7V0.8C10 0.36 9.46 0 8.8 0H5.2C4.54 0 4 0.36 4 0.8V1.7C4 1.86 4.21 2 4.45 2ZM11.2955 0.875C11.1045 0.875 11 1.08381 11 1.32244V2.30682C11 2.96307 10.025 3 9.5 3H4.72727C4.20227 3 3.02579 2.96307 3.02579 2.30682V1.32244C3.02579 1.08381 2.89545 0.875 2.70455 0.875C2.17955 0.875 1 1.41193 1 2.06818V12.8068C1 13.4631 2.17955 14 2.70455 14H11.2955C11.8205 14 13 13.4631 13 12.8068V2.06818C13 1.41193 11.8205 0.875 11.2955 0.875ZM11 9.75C11 9.9 10.8667 10 10.6667 10H3.33333C3.13333 10 3 9.9 3 9.75V9.25C3 9.1 3.13333 9 3.33333 9H10.6667C10.8667 9 11 9.1 11 9.25V9.75ZM11 11.75C11 11.9 10.8667 12 10.6667 12H3.33333C3.13333 12 3 11.9 3 11.75V11.25C3 11.1 3.13333 11 3.33333 11H10.6667C10.8667 11 11 11.1 11 11.25V11.75ZM11 7.75C11 7.9 10.8667 8 10.6667 8H3.33333C3.13333 8 3 7.9 3 7.75V7.25C3 7.1 3.13333 7 3.33333 7H10.6667C10.8667 7 11 7.1 11 7.25V7.75ZM11 5.75C11 5.9 10.8667 6 10.6667 6H3.33333C3.13333 6 3 5.9 3 5.75V5.25C3 5.1 3.13333 5 3.33333 5H10.6667C10.8667 5 11 5.1 11 5.25V5.75Z" fill="#AFBAC1"/></symbol>
	<symbol id="info" viewBox="0 0 18 18" xmlns="http://www.w3.org/2000/svg"><path fill-rule="evenodd" clip-rule="evenodd" d="M9.00078 16.1998C12.9772 16.1998 16.2008 12.9763 16.2008 8.9998C16.2008 5.02335 12.9772 1.7998 9.00078 1.7998C5.02433 1.7998 1.80078 5.02335 1.80078 8.9998C1.80078 12.9763 5.02433 16.1998 9.00078 16.1998Z" fill="white"/><path d="M9.5625 12.375V7.3125H7.3125V8.4375H8.4375V12.375H6.75V13.5H11.25V12.375H9.5625ZM9 3.9375C8.83312 3.9375 8.66999 3.98699 8.53124 4.0797C8.39248 4.17241 8.28434 4.30419 8.22048 4.45836C8.15662 4.61254 8.13991 4.78219 8.17246 4.94586C8.20502 5.10953 8.28538 5.25987 8.40338 5.37787C8.52138 5.49587 8.67172 5.57623 8.83539 5.60879C8.99906 5.64134 9.16871 5.62463 9.32289 5.56077C9.47706 5.49691 9.60884 5.38877 9.70155 5.25001C9.79426 5.11126 9.84375 4.94813 9.84375 4.78125C9.84375 4.55747 9.75485 4.34286 9.59662 4.18463C9.43839 4.02639 9.22378 3.9375 9 3.9375Z" fill="currentColor"/><path d="M9.00001 16.875C7.44248 16.875 5.91993 16.4131 4.62489 15.5478C3.32985 14.6825 2.32049 13.4526 1.72445 12.0136C1.12841 10.5747 0.972461 8.99127 1.27632 7.46367C1.58018 5.93607 2.3302 4.53288 3.43154 3.43154C4.53288 2.3302 5.93607 1.58018 7.46367 1.27632C8.99127 0.972461 10.5747 1.12841 12.0136 1.72445C13.4526 2.32049 14.6825 3.32985 15.5478 4.62489C16.4131 5.91993 16.875 7.44248 16.875 9.00001C16.875 11.0886 16.0453 13.0916 14.5685 14.5685C13.0916 16.0453 11.0886 16.875 9.00001 16.875ZM9.00001 2.25C7.66498 2.25 6.35994 2.64588 5.24991 3.38758C4.13987 4.12928 3.27471 5.18349 2.76382 6.41689C2.25293 7.65029 2.11925 9.00749 2.3797 10.3169C2.64015 11.6262 3.28303 12.829 4.22703 13.773C5.17104 14.717 6.37377 15.3599 7.68315 15.6203C8.99252 15.8808 10.3497 15.7471 11.5831 15.2362C12.8165 14.7253 13.8707 13.8601 14.6124 12.7501C15.3541 11.6401 15.75 10.335 15.75 9.00001C15.75 7.20979 15.0388 5.4929 13.773 4.22703C12.5071 2.96116 10.7902 2.25 9.00001 2.25Z"/></symbol>
</svg>