<svg width="16" height="17" viewBox="0 0 16 17" fill="none" xmlns="http://www.w3.org/2000/svg">
<path fill-rule="evenodd" clip-rule="evenodd" d="M15.9636 9.70901C15.9636 9.41591 15.7091 9.15944 15.4182 9.15944H14.1455C13.8545 9.15944 13.6364 9.37927 13.6364 9.67238C13.6364 9.74565 13.6364 9.85557 13.6 9.92884C13.4909 10.4051 13.3091 10.8448 13.0545 11.2844C12.0364 13.0797 10.2545 14.0689 8.36364 14.0689C6.90909 14.0689 5.52727 13.4827 4.50909 12.4569C4.32727 12.3103 4.18182 12.1271 4.07273 11.9439C3.96364 11.6508 4.21818 11.5043 4.54545 11.5043H7.09091C7.38182 11.5043 7.63636 11.2478 7.63636 10.9547V9.81893C7.63636 9.52582 7.41818 9.306 7.12727 9.306H0.472727C0.218182 9.306 0 9.52582 0 9.78229V16.4504C0.0363636 16.7435 0.290909 17 0.581818 17H1.67273C1.96364 17 2.21818 16.7435 2.21818 16.4504V13.8857C2.21818 13.556 2.4 13.4094 2.65455 13.6293C2.76364 13.7758 2.87273 13.8857 3.01818 13.9956C4.83636 15.8275 7.38182 16.5969 10 16.084C10.9091 15.9008 11.7818 15.5344 12.5455 15.0215C14.4364 13.7758 15.6364 11.8706 15.9636 9.78229V9.70901ZM0.0364384 7.29094C0.0364384 7.58404 0.290984 7.84051 0.581893 7.84051H1.85462C2.14553 7.84051 2.36371 7.62068 2.36371 7.32758C2.36371 7.2543 2.36371 7.14439 2.40007 7.07111C2.50917 6.59482 2.69098 6.15517 2.94553 5.71551C3.96371 3.92025 5.74553 2.93103 7.63644 2.93103C9.09098 2.93103 10.4728 3.51724 11.491 4.5431C11.6728 4.68965 11.8183 4.87284 11.9273 5.05603C12.0364 5.34913 11.7819 5.49568 11.4546 5.49568H8.90917C8.61826 5.49568 8.36371 5.75215 8.36371 6.04525V7.18103C8.36371 7.47413 8.58189 7.69396 8.8728 7.69396H15.5273C15.7819 7.69396 16.0001 7.47413 16.0001 7.21767V0.549568C15.9637 0.256465 15.7092 0 15.4183 0H14.3273C14.0364 0 13.7819 0.256465 13.7819 0.549568V3.11422C13.7819 3.44396 13.6001 3.59051 13.3455 3.37069C13.2364 3.22413 13.1273 3.11422 12.9819 3.00431C11.1637 1.17241 8.61826 0.403017 6.00007 0.915947C5.09098 1.09914 4.21826 1.46552 3.45462 1.97845C1.56371 3.22413 0.363711 5.12931 0.0364384 7.21767V7.29094Z" fill="#2E97DF"/>
<mask id="mask0" mask-type="alpha" maskUnits="userSpaceOnUse" x="0" y="0" width="16" height="17">
<path fill-rule="evenodd" clip-rule="evenodd" d="M15.9636 9.70901C15.9636 9.41591 15.7091 9.15944 15.4182 9.15944H14.1455C13.8545 9.15944 13.6364 9.37927 13.6364 9.67238C13.6364 9.74565 13.6364 9.85557 13.6 9.92884C13.4909 10.4051 13.3091 10.8448 13.0545 11.2844C12.0364 13.0797 10.2545 14.0689 8.36364 14.0689C6.90909 14.0689 5.52727 13.4827 4.50909 12.4569C4.32727 12.3103 4.18182 12.1271 4.07273 11.9439C3.96364 11.6508 4.21818 11.5043 4.54545 11.5043H7.09091C7.38182 11.5043 7.63636 11.2478 7.63636 10.9547V9.81893C7.63636 9.52582 7.41818 9.306 7.12727 9.306H0.472727C0.218182 9.306 0 9.52582 0 9.78229V16.4504C0.0363636 16.7435 0.290909 17 0.581818 17H1.67273C1.96364 17 2.21818 16.7435 2.21818 16.4504V13.8857C2.21818 13.556 2.4 13.4094 2.65455 13.6293C2.76364 13.7758 2.87273 13.8857 3.01818 13.9956C4.83636 15.8275 7.38182 16.5969 10 16.084C10.9091 15.9008 11.7818 15.5344 12.5455 15.0215C14.4364 13.7758 15.6364 11.8706 15.9636 9.78229V9.70901ZM0.0364384 7.29094C0.0364384 7.58404 0.290984 7.84051 0.581893 7.84051H1.85462C2.14553 7.84051 2.36371 7.62068 2.36371 7.32758C2.36371 7.2543 2.36371 7.14439 2.40007 7.07111C2.50917 6.59482 2.69098 6.15517 2.94553 5.71551C3.96371 3.92025 5.74553 2.93103 7.63644 2.93103C9.09098 2.93103 10.4728 3.51724 11.491 4.5431C11.6728 4.68965 11.8183 4.87284 11.9273 5.05603C12.0364 5.34913 11.7819 5.49568 11.4546 5.49568H8.90917C8.61826 5.49568 8.36371 5.75215 8.36371 6.04525V7.18103C8.36371 7.47413 8.58189 7.69396 8.8728 7.69396H15.5273C15.7819 7.69396 16.0001 7.47413 16.0001 7.21767V0.549568C15.9637 0.256465 15.7092 0 15.4183 0H14.3273C14.0364 0 13.7819 0.256465 13.7819 0.549568V3.11422C13.7819 3.44396 13.6001 3.59051 13.3455 3.37069C13.2364 3.22413 13.1273 3.11422 12.9819 3.00431C11.1637 1.17241 8.61826 0.403017 6.00007 0.915947C5.09098 1.09914 4.21826 1.46552 3.45462 1.97845C1.56371 3.22413 0.363711 5.12931 0.0364384 7.21767V7.29094Z" fill="white"/>
</mask>
<g mask="url(#mask0)">
</g>
</svg>
