<svg width="12" height="12" viewBox="0 0 12 12" fill="none" xmlns="http://www.w3.org/2000/svg">
<path fill-rule="evenodd" clip-rule="evenodd" d="M11.625 6.67828H10.875C10.675 6.67828 10.5 6.86219 10.5 7.02312V9.32201C10.5 9.50592 10.325 9.66685 10.125 9.66685H1.875C1.675 9.66685 1.5 9.50592 1.5 9.32201V7.02312C1.5 6.86219 1.325 6.67828 1.125 6.67828H0.375C0.175 6.67828 0 6.86219 0 7.02312V10.1266C0 10.6324 0.45 11.0462 1 11.0462H11C11.55 11.0462 12 10.6324 12 10.1266V7.02312C12 6.86219 11.825 6.67828 11.625 6.67828ZM6.24999 0.10345C6.09999 -0.0344834 5.87499 -0.0344834 5.72499 0.10345L2.34999 3.20696C2.19999 3.34489 2.19999 3.55179 2.34999 3.68972L2.87499 4.17249C3.02499 4.31043 3.24999 4.31043 3.39999 4.17249L4.79999 2.88511C4.94999 2.74718 5.24999 2.83913 5.24999 3.04603V7.91969C5.24999 8.1036 5.39999 8.26452 5.59999 8.26452H6.34999C6.54999 8.26452 6.74999 8.08061 6.74999 7.91969V3.06902C6.74999 2.86212 6.99999 2.77017 7.17499 2.9081L8.57499 4.19548C8.72499 4.33342 8.94999 4.33342 9.09999 4.19548L9.62499 3.71271C9.77499 3.57478 9.77499 3.36788 9.62499 3.22995L6.24999 0.10345V0.10345Z" fill="#697882"/>
<mask id="mask0" mask-type="alpha" maskUnits="userSpaceOnUse" x="0" y="0" width="12" height="12">
<path fill-rule="evenodd" clip-rule="evenodd" d="M11.625 6.67828H10.875C10.675 6.67828 10.5 6.86219 10.5 7.02312V9.32201C10.5 9.50592 10.325 9.66685 10.125 9.66685H1.875C1.675 9.66685 1.5 9.50592 1.5 9.32201V7.02312C1.5 6.86219 1.325 6.67828 1.125 6.67828H0.375C0.175 6.67828 0 6.86219 0 7.02312V10.1266C0 10.6324 0.45 11.0462 1 11.0462H11C11.55 11.0462 12 10.6324 12 10.1266V7.02312C12 6.86219 11.825 6.67828 11.625 6.67828ZM6.24999 0.10345C6.09999 -0.0344834 5.87499 -0.0344834 5.72499 0.10345L2.34999 3.20696C2.19999 3.34489 2.19999 3.55179 2.34999 3.68972L2.87499 4.17249C3.02499 4.31043 3.24999 4.31043 3.39999 4.17249L4.79999 2.88511C4.94999 2.74718 5.24999 2.83913 5.24999 3.04603V7.91969C5.24999 8.1036 5.39999 8.26452 5.59999 8.26452H6.34999C6.54999 8.26452 6.74999 8.08061 6.74999 7.91969V3.06902C6.74999 2.86212 6.99999 2.77017 7.17499 2.9081L8.57499 4.19548C8.72499 4.33342 8.94999 4.33342 9.09999 4.19548L9.62499 3.71271C9.77499 3.57478 9.77499 3.36788 9.62499 3.22995L6.24999 0.10345V0.10345Z" fill="white"/>
</mask>
<g mask="url(#mask0)">
</g>
</svg>
