<svg width="18" height="18" viewBox="0 0 18 18" fill="none" xmlns="http://www.w3.org/2000/svg">
<path d="M3.375 11.8125V11.25H2.25V11.8125C2.25 12.8568 2.66484 13.8583 3.40327 14.5967C4.14169 15.3352 5.14321 15.75 6.1875 15.75H7.875V14.625H6.1875C5.44158 14.625 4.72621 14.3287 4.19876 13.8012C3.67132 13.2738 3.375 12.5584 3.375 11.8125ZM13.5 6.1875V6.75H14.625V6.1875C14.625 5.14321 14.2102 4.14169 13.4717 3.40327C12.7333 2.66484 11.7318 2.25 10.6875 2.25H9V3.375H10.6875C11.0568 3.375 11.4226 3.44775 11.7638 3.58909C12.105 3.73043 12.4151 3.9376 12.6762 4.19876C12.9374 4.45993 13.1446 4.76998 13.2859 5.1112C13.4273 5.45243 13.5 5.81816 13.5 6.1875ZM6.1875 6.1875H2.8125C2.36495 6.1875 1.93572 6.36529 1.61926 6.68176C1.30279 6.99823 1.125 7.42745 1.125 7.875V9H2.25V7.875C2.25 7.72582 2.30926 7.58274 2.41475 7.47725C2.52024 7.37176 2.66332 7.3125 2.8125 7.3125H6.1875C6.33668 7.3125 6.47976 7.37176 6.58525 7.47725C6.69074 7.58274 6.75 7.72582 6.75 7.875V9H7.875V7.875C7.875 7.42745 7.69721 6.99823 7.38074 6.68176C7.06428 6.36529 6.63505 6.1875 6.1875 6.1875ZM4.5 5.625C4.94501 5.625 5.38002 5.49304 5.75003 5.24581C6.12004 4.99857 6.40843 4.64717 6.57873 4.23604C6.74903 3.8249 6.79358 3.3725 6.70677 2.93605C6.61995 2.49959 6.40566 2.09868 6.09099 1.78401C5.77632 1.46934 5.37541 1.25505 4.93895 1.16823C4.5025 1.08142 4.0501 1.12597 3.63896 1.29627C3.22783 1.46657 2.87643 1.75496 2.62919 2.12497C2.38196 2.49498 2.25 2.92999 2.25 3.375C2.25 3.97174 2.48705 4.54403 2.90901 4.96599C3.33097 5.38795 3.90326 5.625 4.5 5.625ZM4.5 2.25C4.7225 2.25 4.94001 2.31598 5.12502 2.4396C5.31002 2.56321 5.45422 2.73892 5.53936 2.94448C5.62451 3.15005 5.64679 3.37625 5.60338 3.59448C5.55998 3.81271 5.45283 4.01316 5.2955 4.1705C5.13816 4.32783 4.93771 4.43498 4.71948 4.47838C4.50125 4.52179 4.27505 4.49951 4.06948 4.41437C3.86391 4.32922 3.68821 4.18502 3.5646 4.00002C3.44098 3.81501 3.375 3.59751 3.375 3.375C3.375 3.07663 3.49353 2.79048 3.7045 2.57951C3.91548 2.36853 4.20163 2.25 4.5 2.25ZM15.1875 14.0625H11.8125C11.3649 14.0625 10.9357 14.2403 10.6193 14.5568C10.3028 14.8732 10.125 15.3024 10.125 15.75V16.875H11.25V15.75C11.25 15.6008 11.3093 15.4577 11.4148 15.3523C11.5202 15.2468 11.6633 15.1875 11.8125 15.1875H15.1875C15.3367 15.1875 15.4798 15.2468 15.5852 15.3523C15.6907 15.4577 15.75 15.6008 15.75 15.75V16.875H16.875V15.75C16.875 15.3024 16.6972 14.8732 16.3807 14.5568C16.0643 14.2403 15.6351 14.0625 15.1875 14.0625ZM11.25 11.25C11.25 11.695 11.382 12.13 11.6292 12.5C11.8764 12.87 12.2278 13.1584 12.639 13.3287C13.0501 13.499 13.5025 13.5436 13.939 13.4568C14.3754 13.37 14.7763 13.1557 15.091 12.841C15.4057 12.5263 15.62 12.1254 15.7068 11.689C15.7936 11.2525 15.749 10.8001 15.5787 10.389C15.4084 9.97783 15.12 9.62643 14.75 9.37919C14.38 9.13196 13.945 9 13.5 9C12.9033 9 12.331 9.23705 11.909 9.65901C11.4871 10.081 11.25 10.6533 11.25 11.25ZM14.625 11.25C14.625 11.4725 14.559 11.69 14.4354 11.875C14.3118 12.06 14.1361 12.2042 13.9305 12.2894C13.725 12.3745 13.4988 12.3968 13.2805 12.3534C13.0623 12.31 12.8618 12.2028 12.7045 12.0455C12.5472 11.8882 12.44 11.6877 12.3966 11.4695C12.3532 11.2512 12.3755 11.025 12.4606 10.8195C12.5458 10.6139 12.69 10.4382 12.875 10.3146C13.06 10.191 13.2775 10.125 13.5 10.125C13.7984 10.125 14.0845 10.2435 14.2955 10.4545C14.5065 10.6655 14.625 10.9516 14.625 11.25Z" fill="white"/>
</svg>
