<svg width="18" height="18" viewBox="0 0 18 18" fill="none" xmlns="http://www.w3.org/2000/svg">
<path d="M15.75 3.375C15.75 3.07663 15.6315 2.79048 15.4205 2.5795C15.2095 2.36853 14.9234 2.25 14.625 2.25H12.375H11.25H6.75H5.625H3.375C3.07663 2.25 2.79048 2.36853 2.5795 2.5795C2.36853 2.79048 2.25 3.07663 2.25 3.375V14.625C2.25 14.9234 2.36853 15.2095 2.5795 15.4205C2.79048 15.6315 3.07663 15.75 3.375 15.75H5.625V14.625H3.375V3.375H5.625H6.75H11.25H12.375H14.625V6.75H15.75V3.375Z" fill="white"/>
<path d="M11.8125 8.4375L13.2469 11.2163L16.3125 11.6606L14.0625 13.8206L14.6194 16.875L11.8744 15.435L9 16.875L9.5625 13.8206L7.3125 11.6606L10.4625 11.2163L11.8125 8.4375Z" fill="white"/>
</svg>
