<svg width="16" height="16" viewBox="0 0 16 16" fill="none" xmlns="http://www.w3.org/2000/svg">
<path fill-rule="evenodd" clip-rule="evenodd" d="M13.1297 13.2506L12.8298 13.5943C12.4966 13.9761 12.0634 14.1671 11.5968 14.1671H10.7304C9.93062 14.1671 9.06419 13.4415 9.06419 12.1814V11.2267C9.06419 10.463 9.36411 10.0048 9.53073 9.73747L13.1297 5.53699C13.2297 5.42243 13.3297 5.15513 13.3297 5.00239V1.83294C13.3297 0.840095 12.5966 0 11.7301 0H3.19913C2.3327 0 1.59956 0.916468 1.59956 1.83294H1.06638C0.466539 1.83294 0 2.40573 0 3.09308C0 3.78043 0.466539 4.31504 1.06638 4.31504H1.59956V6.79714H1.06638C0.466539 6.79714 0 7.33174 0 8.01909C0 8.70644 0.466539 9.24105 1.06638 9.24105H1.59956V11.7232H1.06638C0.466539 11.7232 0 12.2959 0 12.9451C0 13.6325 0.466539 14.1671 1.06638 14.1671H1.59956C1.59956 15.389 2.3327 16 3.19913 16H11.7301C12.5966 16 13.3297 15.1599 13.3297 14.1671V13.3652C13.3297 13.1742 13.263 13.136 13.1297 13.2506V13.2506ZM10.3972 4.62053C10.3972 4.9642 10.1639 5.2315 9.86398 5.2315H4.5321C4.23218 5.2315 3.99891 4.9642 3.99891 4.62053V4.00955C3.99891 3.66587 4.23218 3.39857 4.5321 3.39857H9.86398C10.1639 3.39857 10.3972 3.66587 10.3972 4.00955V4.62053ZM7.99782 12.0286C7.99782 12.3723 7.76455 12.6396 7.46463 12.6396H4.5321C4.23218 12.6396 3.99891 12.3723 3.99891 12.0286V11.4177C3.99891 11.074 4.23218 10.8067 4.5321 10.8067H7.46463C7.76455 10.8067 7.99782 11.074 7.99782 11.4177V12.0286ZM8.7976 8.32458C8.7976 8.66826 8.56433 8.93556 8.26441 8.93556H4.5321C4.23218 8.93556 3.99891 8.66826 3.99891 8.32458V7.71361C3.99891 7.36993 4.23218 7.10263 4.5321 7.10263H8.26441C8.56433 7.10263 8.7976 7.36993 8.7976 7.71361V8.32458ZM15.829 6.6444L15.4958 6.26254C15.2958 6.03342 14.9626 6.03342 14.7626 6.26254L10.6971 11.074C10.6638 11.074 10.6638 11.1504 10.6638 11.1504V12.1814C10.6638 12.2578 10.6638 12.3341 10.7304 12.3341H11.5968C11.6302 12.3341 11.6635 12.2959 11.6968 12.2959L15.7957 7.56086C16.0623 7.29356 16.0623 6.9117 15.829 6.6444V6.6444Z" fill="white"/>
<mask id="mask0" mask-type="alpha" maskUnits="userSpaceOnUse" x="0" y="0" width="17" height="16">
<path fill-rule="evenodd" clip-rule="evenodd" d="M13.1297 13.2506L12.8298 13.5943C12.4966 13.9761 12.0634 14.1671 11.5968 14.1671H10.7304C9.93062 14.1671 9.06419 13.4415 9.06419 12.1814V11.2267C9.06419 10.463 9.36411 10.0048 9.53073 9.73747L13.1297 5.53699C13.2297 5.42243 13.3297 5.15513 13.3297 5.00239V1.83294C13.3297 0.840095 12.5966 0 11.7301 0H3.19913C2.3327 0 1.59956 0.916468 1.59956 1.83294H1.06638C0.466539 1.83294 0 2.40573 0 3.09308C0 3.78043 0.466539 4.31504 1.06638 4.31504H1.59956V6.79714H1.06638C0.466539 6.79714 0 7.33174 0 8.01909C0 8.70644 0.466539 9.24105 1.06638 9.24105H1.59956V11.7232H1.06638C0.466539 11.7232 0 12.2959 0 12.9451C0 13.6325 0.466539 14.1671 1.06638 14.1671H1.59956C1.59956 15.389 2.3327 16 3.19913 16H11.7301C12.5966 16 13.3297 15.1599 13.3297 14.1671V13.3652C13.3297 13.1742 13.263 13.136 13.1297 13.2506V13.2506ZM10.3972 4.62053C10.3972 4.9642 10.1639 5.2315 9.86398 5.2315H4.5321C4.23218 5.2315 3.99891 4.9642 3.99891 4.62053V4.00955C3.99891 3.66587 4.23218 3.39857 4.5321 3.39857H9.86398C10.1639 3.39857 10.3972 3.66587 10.3972 4.00955V4.62053ZM7.99782 12.0286C7.99782 12.3723 7.76455 12.6396 7.46463 12.6396H4.5321C4.23218 12.6396 3.99891 12.3723 3.99891 12.0286V11.4177C3.99891 11.074 4.23218 10.8067 4.5321 10.8067H7.46463C7.76455 10.8067 7.99782 11.074 7.99782 11.4177V12.0286ZM8.7976 8.32458C8.7976 8.66826 8.56433 8.93556 8.26441 8.93556H4.5321C4.23218 8.93556 3.99891 8.66826 3.99891 8.32458V7.71361C3.99891 7.36993 4.23218 7.10263 4.5321 7.10263H8.26441C8.56433 7.10263 8.7976 7.36993 8.7976 7.71361V8.32458ZM15.829 6.6444L15.4958 6.26254C15.2958 6.03342 14.9626 6.03342 14.7626 6.26254L10.6971 11.074C10.6638 11.074 10.6638 11.1504 10.6638 11.1504V12.1814C10.6638 12.2578 10.6638 12.3341 10.7304 12.3341H11.5968C11.6302 12.3341 11.6635 12.2959 11.6968 12.2959L15.7957 7.56086C16.0623 7.29356 16.0623 6.9117 15.829 6.6444V6.6444Z" fill="white"/>
</mask>
<g mask="url(#mask0)">
</g>
</svg>
