<svg width="18" height="18" viewBox="0 0 18 18" fill="none" xmlns="http://www.w3.org/2000/svg">
<path d="M8.99973 3.6675L10.5522 6.80625L10.811 7.36875L11.3735 7.45312L14.8385 7.95375L12.3747 10.3725L11.9529 10.7831L12.0541 11.3456L12.6447 14.7937L9.54535 13.1681L8.99973 12.9375L8.4766 13.2131L5.37723 14.8162L5.93973 11.3681L6.04098 10.8056L5.62473 10.3725L3.13848 7.92562L6.60348 7.425L7.16598 7.34063L7.42473 6.77813L8.99973 3.6675ZM8.99973 1.125L6.44035 6.31125L0.719727 7.13812L4.85973 11.1769L3.88098 16.875L8.99973 14.1862L14.1185 16.875L13.1397 11.1769L17.2797 7.14375L11.5591 6.31125L8.99973 1.125Z" fill="white"/>
</svg>
