<svg width="16" height="16" viewBox="0 0 16 16" fill="none" xmlns="http://www.w3.org/2000/svg">
<path fill-rule="evenodd" clip-rule="evenodd" d="M8 0C3.56667 0 0 3.56667 0 8C0 12.4333 3.56667 16 8 16C12.4333 16 16 12.4333 16 8C16 3.56667 12.4333 0 8 0ZM8 14C4.66667 14 2 11.3333 2 8C2 4.66666 4.66667 2 8 2C11.3333 2 14 4.66666 14 8C14 11.3333 11.3333 14 8 14ZM7.99999 4.03333C8.56666 4.03333 8.99999 4.46667 8.99999 5.03333C8.99999 5.6 8.56666 6.03333 7.99999 6.03333C7.43332 6.03333 6.99999 5.6 6.99999 5.03333C6.99999 4.46667 7.43332 4.03333 7.99999 4.03333ZM9.66667 11.0333C9.66667 11.2 9.53334 11.3333 9.33334 11.3333H6.66667C6.5 11.3333 6.33334 11.2333 6.33334 11.0333V10.3667C6.33334 10.2 6.46667 10 6.66667 10C6.83334 10 7 9.9 7 9.7V8.36667C7 8.2 6.86667 8 6.66667 8C6.5 8 6.33334 7.9 6.33334 7.7V7.03334C6.33334 6.86667 6.46667 6.66667 6.66667 6.66667H8.66667C8.83334 6.66667 9 6.83334 9 7.03334V9.7C9 9.86667 9.13334 10 9.33334 10C9.5 10 9.66667 10.1667 9.66667 10.3667V11.0333Z" fill="white"/>
<mask id="mask0" mask-type="alpha" maskUnits="userSpaceOnUse" x="0" y="0" width="16" height="16">
<path fill-rule="evenodd" clip-rule="evenodd" d="M8 0C3.56667 0 0 3.56667 0 8C0 12.4333 3.56667 16 8 16C12.4333 16 16 12.4333 16 8C16 3.56667 12.4333 0 8 0ZM8 14C4.66667 14 2 11.3333 2 8C2 4.66666 4.66667 2 8 2C11.3333 2 14 4.66666 14 8C14 11.3333 11.3333 14 8 14ZM7.99999 4.03333C8.56666 4.03333 8.99999 4.46667 8.99999 5.03333C8.99999 5.6 8.56666 6.03333 7.99999 6.03333C7.43332 6.03333 6.99999 5.6 6.99999 5.03333C6.99999 4.46667 7.43332 4.03333 7.99999 4.03333ZM9.66667 11.0333C9.66667 11.2 9.53334 11.3333 9.33334 11.3333H6.66667C6.5 11.3333 6.33334 11.2333 6.33334 11.0333V10.3667C6.33334 10.2 6.46667 10 6.66667 10C6.83334 10 7 9.9 7 9.7V8.36667C7 8.2 6.86667 8 6.66667 8C6.5 8 6.33334 7.9 6.33334 7.7V7.03334C6.33334 6.86667 6.46667 6.66667 6.66667 6.66667H8.66667C8.83334 6.66667 9 6.83334 9 7.03334V9.7C9 9.86667 9.13334 10 9.33334 10C9.5 10 9.66667 10.1667 9.66667 10.3667V11.0333Z" fill="white"/>
</mask>
<g mask="url(#mask0)">
</g>
</svg>
