<svg width="18" height="18" viewBox="0 0 18 18" fill="none" xmlns="http://www.w3.org/2000/svg">
<path d="M10.4175 16.875C9.9701 16.8746 9.54116 16.6966 9.225 16.38L1.62 8.78062C1.30344 8.46446 1.12539 8.03553 1.125 7.58812V2.8125C1.125 2.36495 1.30279 1.93572 1.61926 1.61926C1.93573 1.30279 2.36495 1.125 2.8125 1.125H7.58813C8.03553 1.12539 8.46446 1.30344 8.78063 1.62L16.38 9.21937C16.5373 9.37615 16.6621 9.56244 16.7473 9.76756C16.8325 9.97267 16.8763 10.1926 16.8763 10.4147C16.8763 10.6368 16.8325 10.8567 16.7473 11.0618C16.6621 11.2669 16.5373 11.4532 16.38 11.61L11.61 16.38C11.2938 16.6966 10.8649 16.8746 10.4175 16.875ZM2.8125 2.25C2.66332 2.25 2.52024 2.30926 2.41475 2.41475C2.30926 2.52024 2.25 2.66332 2.25 2.8125V7.58812C2.25031 7.66255 2.26538 7.73617 2.29435 7.80472C2.32332 7.87328 2.3656 7.9354 2.41875 7.9875L10.0181 15.5869C10.1235 15.6916 10.2661 15.7504 10.4147 15.7504C10.5633 15.7504 10.7059 15.6916 10.8113 15.5869L15.5869 10.8112C15.6916 10.7059 15.7504 10.5633 15.7504 10.4147C15.7504 10.2661 15.6916 10.1235 15.5869 10.0181L7.9875 2.41875C7.9354 2.3656 7.87328 2.32332 7.80473 2.29435C7.73617 2.26538 7.66255 2.25031 7.58813 2.25H2.8125Z" fill="white"/>
<path d="M5.625 7.875C5.17999 7.875 4.74498 7.74304 4.37497 7.49581C4.00496 7.24857 3.71657 6.89717 3.54627 6.48604C3.37597 6.07491 3.33142 5.6225 3.41823 5.18605C3.50505 4.74959 3.71934 4.34868 4.03401 4.03401C4.34868 3.71934 4.74959 3.50505 5.18605 3.41823C5.6225 3.33142 6.07491 3.37597 6.48604 3.54627C6.89717 3.71657 7.24857 4.00496 7.49581 4.37497C7.74304 4.74498 7.875 5.17999 7.875 5.625C7.875 6.22174 7.63795 6.79403 7.21599 7.21599C6.79403 7.63795 6.22174 7.875 5.625 7.875ZM5.625 4.5C5.4025 4.5 5.18499 4.56598 4.99998 4.6896C4.81498 4.81321 4.67078 4.98892 4.58564 5.19448C4.50049 5.40005 4.47821 5.62625 4.52162 5.84448C4.56503 6.06271 4.67217 6.26316 4.82951 6.4205C4.98684 6.57783 5.1873 6.68498 5.40552 6.72838C5.62375 6.77179 5.84995 6.74951 6.05552 6.66437C6.26109 6.57922 6.43679 6.43502 6.5604 6.25002C6.68402 6.06501 6.75 5.84751 6.75 5.625C6.75 5.32663 6.63147 5.04048 6.4205 4.82951C6.20952 4.61853 5.92337 4.5 5.625 4.5Z" fill="white"/>
</svg>
