<svg width="18" height="18" viewBox="0 0 18 18" fill="none" xmlns="http://www.w3.org/2000/svg">
<path d="M11.25 12.375H12.375L9.5625 5.625H8.4375L5.625 12.375H6.75L7.4475 10.6875H10.5581L11.25 12.375ZM7.91437 9.5625L8.93813 7.07625H9.07875L10.125 9.5625H7.91437Z" fill="white"/>
<path d="M6.75 15.75H3.375C3.07663 15.75 2.79048 15.6315 2.5795 15.4205C2.36853 15.2095 2.25 14.9234 2.25 14.625V3.375C2.25 3.07663 2.36853 2.79048 2.5795 2.5795C2.79048 2.36853 3.07663 2.25 3.375 2.25H14.625C14.9234 2.25 15.2095 2.36853 15.4205 2.5795C15.6315 2.79048 15.75 3.07663 15.75 3.375V9.5625H14.625V3.375H3.375V14.625H6.75V15.75ZM12.9375 15.2887L11.4806 13.8319L10.6875 14.625L12.9375 16.875L16.875 12.9375L16.0819 12.1444L12.9375 15.2887Z" fill="white"/>
</svg>
