<svg width="20" height="20" viewBox="0 0 20 20" fill="none" xmlns="http://www.w3.org/2000/svg">
<path d="M6.87535 15H13.1253V16.25H6.87535V15ZM8.12535 17.5H11.8753V18.75H8.12535V17.5ZM10.0003 1.25C8.34275 1.25 6.75303 1.90848 5.58093 3.08058C4.40883 4.25269 3.75035 5.8424 3.75035 7.5C3.70808 8.40834 3.88208 9.31373 4.25803 10.1417C4.63398 10.9696 5.20114 11.6965 5.91285 12.2625C6.53785 12.8438 6.87535 13.175 6.87535 13.75H8.12535C8.12535 12.6 7.4316 11.9562 6.7566 11.3375C6.17245 10.8902 5.70689 10.3064 5.40071 9.6374C5.09453 8.96838 4.95706 8.23448 5.00035 7.5C5.00035 6.17392 5.52713 4.90215 6.46481 3.96447C7.4025 3.02678 8.67427 2.5 10.0003 2.5C11.3264 2.5 12.5982 3.02678 13.5359 3.96447C14.4736 4.90215 15.0003 6.17392 15.0003 7.5C15.0429 8.23502 14.9045 8.96927 14.5972 9.63833C14.2899 10.3074 13.8231 10.8908 13.2378 11.3375C12.5691 11.9625 11.8753 12.5875 11.8753 13.75H13.1253C13.1253 13.175 13.4566 12.8438 14.0878 12.2563C14.7991 11.6912 15.366 10.9654 15.7419 10.1386C16.1179 9.31169 16.2921 8.40737 16.2503 7.5C16.2503 6.67924 16.0887 5.86651 15.7746 5.10823C15.4605 4.34994 15.0001 3.66095 14.4198 3.08058C13.8394 2.50022 13.1504 2.03984 12.3921 1.72575C11.6338 1.41166 10.8211 1.25 10.0003 1.25Z" fill="#697882"/>
</svg>
