<?xml version="1.0" encoding="UTF-8" standalone="no"?>
<svg
   xmlns:dc="http://purl.org/dc/elements/1.1/"
   xmlns:cc="http://creativecommons.org/ns#"
   xmlns:rdf="http://www.w3.org/1999/02/22-rdf-syntax-ns#"
   xmlns:svg="http://www.w3.org/2000/svg"
   xmlns="http://www.w3.org/2000/svg"
   xmlns:sodipodi="http://sodipodi.sourceforge.net/DTD/sodipodi-0.dtd"
   xmlns:inkscape="http://www.inkscape.org/namespaces/inkscape"
   width="18px"
   height="18px"
   viewBox="0 0 18 18"
   version="1.1"
   id="svg14"
   sodipodi:docname="back.svg"
   inkscape:version="0.92.3 (2405546, 2018-03-11)">
  <metadata
     id="metadata18">
    <rdf:RDF>
      <cc:Work
         rdf:about="">
        <dc:format>image/svg+xml</dc:format>
        <dc:type
           rdf:resource="http://purl.org/dc/dcmitype/StillImage" />
      </cc:Work>
    </rdf:RDF>
  </metadata>
  <sodipodi:namedview
     pagecolor="#ffffff"
     bordercolor="#666666"
     borderopacity="1"
     objecttolerance="10"
     gridtolerance="10"
     guidetolerance="10"
     inkscape:pageopacity="0"
     inkscape:pageshadow="2"
     inkscape:window-width="1920"
     inkscape:window-height="1027"
     id="namedview16"
     showgrid="false"
     inkscape:zoom="13.111111"
     inkscape:cx="-3.3940678"
     inkscape:cy="9"
     inkscape:window-x="-8"
     inkscape:window-y="-8"
     inkscape:window-maximized="1"
     inkscape:current-layer="Group-4" />
  <!-- Generator: Sketch 47.1 (45422) - http://www.bohemiancoding.com/sketch -->
  <title
     id="title2">back</title>
  <desc
     id="desc4">Created with Sketch.</desc>
  <defs
     id="defs6" />
  <g
     id="Index"
     stroke="none"
     stroke-width="1"
     fill="none"
     fill-rule="evenodd">
    <g
       id="index-sign_in"
       transform="translate(-1395.000000, -27.000000)">
      <g
         id="Group-4">
        <g
           id="back"
           transform="translate(1388.000000, 20.000000)"
           style="fill:#aa0000">
          <rect
             id="Rectangle-9"
             fill="#D8D8D8"
             opacity="0"
             x="0"
             y="0"
             width="32"
             height="32"
             style="fill:#aa0000" />
          <path
             d="M24.7515,23.297 L17.4835,16.028 L24.7215,8.833 C25.1165,8.442 25.1165,7.809 24.7215,7.419 C24.3275,7.029 23.6875,7.029 23.2935,7.419 L16.0625,14.607 L8.7535,7.297 C8.3595,6.901 7.7195,6.901 7.3255,7.297 C6.9315,7.692 6.9315,8.334 7.3255,8.729 L14.6265,16.031 L7.2955,23.318 C6.9015,23.709 6.9015,24.342 7.2955,24.732 C7.6895,25.123 8.3295,25.123 8.7245,24.732 L16.0485,17.452 L23.3245,24.728 C23.7185,25.124 24.3585,25.124 24.7525,24.728 C25.1455,24.334 25.1455,23.693 24.7515,23.297 Z"
             id="Shape"
             fill="#000000"
             style="fill:#aa0000" />
        </g>
        <path
           style="fill:#e03632;stroke-width:0.07627118;fill-opacity:1"
           d="M 0.52575782,17.85532 C 0.09122148,17.619138 -0.08078612,16.962077 0.18552254,16.555639 0.25549607,16.448845 1.9670612,14.717306 3.9890007,12.707774 L 7.6652542,9.0540786 3.9954238,5.369836 C 1.977017,3.3435024 0.26949584,1.6007318 0.20093225,1.4970123 -0.06242313,1.0986215 0.11002725,0.46755069 0.55666895,0.19521728 0.83028272,0.02838517 1.1064119,0.00658405 1.4251195,0.12665085 1.5432106,0.17113932 3.3133212,1.8781472 5.3586988,3.9200016 L 9.077567,7.6324637 11.269716,5.4588849 c 1.205681,-1.1954684 2.89766,-2.8681542 3.759952,-3.7170794 L 16.597473,0.19830508 H 16.9878 c 0.308053,0 0.439499,0.0413763 0.623614,0.19629883 0.315681,0.26562761 0.444954,0.70286009 0.30724,1.03915799 -0.06423,0.1568382 -1.494475,1.6328015 -3.791659,3.9128483 l -3.688534,3.6610169 3.518898,3.5084749 c 1.935395,1.929661 3.62816,3.644374 3.761702,3.810475 0.205221,0.255253 0.242803,0.365365 0.242803,0.711368 0,0.375318 -0.0237,0.431087 -0.284896,0.670458 -0.38149,0.349608 -0.813014,0.363429 -1.248151,0.03997 -0.163604,-0.121613 -1.893273,-1.82053 -3.84371,-3.775371 L 9.0388579,10.418751 6.4834119,12.956023 C 1.2405127,18.161636 1.447934,17.969919 1.0625701,17.966438 0.87667353,17.96476 0.63510796,17.914756 0.52575782,17.85532 Z"
           id="path828"
           inkscape:connector-curvature="0"
           transform="translate(1395,27)" />
      </g>
    </g>
  </g>
</svg>
