<svg width="1440" height="290" viewBox="0 0 1440 290" xmlns="http://www.w3.org/2000/svg" xmlns:xlink="http://www.w3.org/1999/xlink"><title>small-bg</title><defs><path id="a" d="M0 0h1440v290H0z"/><radialGradient cx="48.666%" cy="94.906%" fx="48.666%" fy="94.906%" r="77.552%" gradientTransform="matrix(0 1 -1.06046 0 1.493 .462)" id="b"><stop stop-color="#FFF" offset="0%"/><stop stop-color="#E2342A" stop-opacity="0" offset="100%"/></radialGradient><linearGradient x1="50%" y1="0%" x2="50%" y2="100%" id="d"><stop stop-color="#FFF" stop-opacity="0" offset="0%"/><stop stop-color="#FFF" offset="96.897%"/></linearGradient></defs><g fill="none" fill-rule="evenodd"><mask id="c" fill="#fff"><use xlink:href="#a"/></mask><use fill="#E03632" xlink:href="#a"/><path fill="url(#b)" mask="url(#c)" d="M0-119h1440v657H0z"/><path d="M-640.525 197.95s51.258-19.02 483.437-14.003c432.178 5.017 589.504 128.462 885.648 21.2 296.144-107.26 410.48-237.245 795.144-257.522 384.664-20.276 37.967 462.426 37.967 462.426L250.92 509.704l-853.424-90.412-38.02-221.341z" fill="#D10602" opacity=".4" style="mix-blend-mode:multiply" mask="url(#c)" transform="scale(-1 1) rotate(9 0 -6534.976)"/><path d="M-394.569 153.257s48.135-36.746 453.977-27.053c405.841 9.692 553.58 248.18 831.677 40.958 278.097-207.223 385.465-458.344 746.688-497.517 361.222-39.173 35.654 893.377 35.654 893.377L442.55 755.545l-801.416-174.67-35.704-427.618z" fill="#D10602" opacity=".4" style="mix-blend-mode:multiply" mask="url(#c)" transform="rotate(9 706.771 211.995)"/><path fill="url(#d)" opacity=".7" style="mix-blend-mode:soft-light" mask="url(#c)" transform="rotate(180 720 193)" d="M0-118h1440v622H0z"/></g></svg>