<?xml version="1.0" encoding="UTF-8"?>
<svg width="41px" height="34px" viewBox="0 0 41 34" version="1.1" xmlns="http://www.w3.org/2000/svg" xmlns:xlink="http://www.w3.org/1999/xlink">
    <!-- Generator: Sketch 44.1 (41455) - http://www.bohemiancoding.com/sketch -->
    <title>1</title>
    <desc>Created with Sketch.</desc>
    <defs></defs>
    <g id="New-form" stroke="none" stroke-width="1" fill="none" fill-rule="evenodd">
        <g id="new-form" transform="translate(-1020.000000, -406.000000)" fill-rule="nonzero">
            <g id="1" transform="translate(1020.000000, 406.000000)">
                <path d="M5.06646488,6.30730785 C5.50179339,6.30959504 5.9371219,6.12916116 6.24343595,5.82022107 C6.55246074,5.51441529 6.73280992,5.07900207 6.73103099,4.64367355 C6.73280992,4.20834504 6.55246074,3.77301653 6.24343595,3.46678719 C5.93763017,3.15784711 5.50272521,2.97732851 5.06697314,2.97919215 C4.63206818,2.97732851 4.19682438,3.15733884 3.89042562,3.46678719 C3.58148554,3.77259298 3.40105165,4.20792149 3.40283058,4.64325 C3.40054339,5.07857851 3.58055372,5.51390702 3.89000207,5.82022107 C4.1962314,6.12916116 4.63155992,6.30908678 5.06646488,6.30730785 Z M5.06731198,3.72024174 C5.55990496,3.70711157 6.00345041,4.15057231 5.98981198,4.64358884 C6.00345041,5.13618182 5.5594814,5.57964256 5.06688843,5.56608884 C4.5738719,5.57930372 4.13032645,5.13626653 4.14396488,4.64316529 C4.13075,4.15014876 4.5738719,3.70711157 5.06731198,3.72024174 Z" id="Shape" fill="#A2AEB7"></path>
                <path d="M9.3661281,6.30730785 C9.8013719,6.30908678 10.2362769,6.12916116 10.5425909,5.82022107 C10.8520393,5.51441529 11.0319649,5.07900207 11.030186,4.64367355 C11.0319649,4.20834504 10.8520393,3.77301653 10.5430992,3.46678719 C10.2367851,3.15784711 9.80145661,2.97732851 9.3661281,2.97919215 C8.93071488,2.97732851 8.49538636,3.15733884 8.18915702,3.46678719 C7.88021694,3.77301653 7.70020661,4.20792149 7.70198554,4.64325 C7.70020661,5.07857851 7.88021694,5.51390702 8.18915702,5.82022107 C8.49538636,6.12916116 8.93071488,6.30908678 9.3661281,6.30730785 Z M9.3661281,3.72024174 C9.85863636,3.70711157 10.3021818,4.15057231 10.2890517,4.64358884 C10.3022665,5.13618182 9.85872107,5.57964256 9.3661281,5.56608884 C8.87260331,5.57972727 8.42998967,5.13626653 8.44311983,4.64316529 C8.42998967,4.15014876 8.87353512,3.70711157 9.3661281,3.72024174 Z" id="Shape" fill="#A2AEB7"></path>
                <rect id="Rectangle-path" fill="#A2AEB7" x="13.563969" y="4.27280992" width="18.6746529" height="1"></rect>
                <path d="M17.397469,16.0681033 L17.397469,10.0521157 L5.84529545,10.0521157 L5.84529545,16.0681033 L14.9199339,16.0681033 L17.397469,16.0681033 Z M6.58642975,10.79325 L16.65625,10.79325 L16.65625,15.326969 L14.9199339,15.326969 L6.58642975,15.326969 L6.58642975,10.79325 Z" id="Shape" fill="#A2AEB7"></path>
                <rect id="Rectangle-path" fill="#A2AEB7" x="19.6149421" y="10.0521157" width="9.95613843" height="1"></rect>
                <polygon id="Shape" fill="#A2AEB7" points="6.58642975 18.672281 17.0266054 18.672281 17.0266054 17.9312314 5.84529545 17.9312314 5.84529545 27.8051157 12.3625165 27.8051157 12.3625165 27.0639814 6.58642975 27.0639814"></polygon>
                <path d="M40.9160517,20.2224029 C40.8887748,20.097031 40.850655,19.9715744 40.7897479,19.8573843 C40.5606901,19.393 40.0563223,19.0830434 39.5383161,19.0871942 L39.1929504,19.0871942 L39.1830393,19.0462789 L39.0917211,18.7214132 C39.0230207,18.5042149 38.9457645,18.2897273 38.8595289,18.0788822 C38.7703285,17.8688843 38.67325,17.6631219 38.5677851,17.4613409 L38.4014979,17.1668017 L38.3842169,17.1395248 L38.6422459,16.8800558 C38.8459752,16.6706508 38.9859174,16.3938161 39.024969,16.1030888 C39.0694421,15.8132087 39.0149731,15.5109607 38.8804525,15.2496281 C38.812345,15.1210372 38.7187397,14.9992231 38.621407,14.9006198 L38.3923492,14.671562 L38.163376,14.4425041 C38.065281,14.3456798 37.9434669,14.2516508 37.8143678,14.1839669 C37.5526963,14.0494463 37.2510413,13.9949773 36.9610764,14.039874 C36.6701798,14.0794339 36.393938,14.2189525 36.1839401,14.4225124 L35.9541198,14.6519938 L35.9541198,7.36407438 L35.9541198,3.59021074 L35.9541198,2.64644835 C35.9541198,2.28109091 35.8749153,1.91353099 35.7240455,1.57900826 C35.4251012,0.907336777 34.8293306,0.380266529 34.1268244,0.162559917 C33.7883202,0.0454049587 33.3717128,0.0367644628 33.0831033,0.043964876 L32.1397645,0.043964876 L30.2530868,0.043964876 L26.4788843,0.043964876 L18.9314959,0.043964876 L3.83671901,0.043964876 L2.89338017,0.043964876 L2.65619008,0.0444731405 C2.56529545,0.0454049587 2.47355372,0.0498099174 2.38265909,0.0593822314 C2.20053099,0.0789504132 2.0200124,0.118086777 1.84550826,0.175774793 C1.14579752,0.403392562 0.560530992,0.941475207 0.270566116,1.61721281 C0.123762397,1.95114256 0.054214876,2.32785124 0.057857438,2.6823657 L0.057857438,3.62570455 L0.057857438,5.5128905 L0.057857438,13.0602789 L0.057857438,28.1549711 L0.057857438,30.0416488 L0.057857438,30.9849876 L0.057857438,31.2208223 C0.0582809917,31.3072273 0.0619235537,31.4022727 0.0705640496,31.4926591 C0.0877603306,31.6747872 0.125117769,31.8556446 0.181450413,32.0302335 C0.40322314,32.7318079 0.934867769,33.3238512 1.60789463,33.618814 C1.94233264,33.7684132 2.31268802,33.8442293 2.67482645,33.8420269 L3.61816529,33.8420269 L11.1655537,33.8420269 L26.2603306,33.8420269 L30.0337707,33.8420269 L31.9208719,33.8420269 L32.8642955,33.8420269 L33.3359649,33.8420269 C33.5145351,33.8425351 33.7008988,33.8256777 33.8798926,33.7874731 C34.6006116,33.6402459 35.2449215,33.1725579 35.6076529,32.5335847 C35.7907128,32.2160041 35.9060888,31.8584401 35.9412438,31.4935062 C35.9498843,31.4035434 35.9535269,31.3084979 35.9539504,31.2218388 L35.9539504,30.9860041 L35.9539504,30.51425 L35.9539504,27.0007872 L36.1842789,27.2297603 C36.3937686,27.4333202 36.6700103,27.5733471 36.960907,27.6128223 C37.2508719,27.6572955 37.5534587,27.6028264 37.8147066,27.4683058 C37.9433822,27.4001136 38.0651116,27.3060847 38.1632066,27.2092603 L38.3921798,26.9802025 L38.6217459,26.7512293 C38.7185702,26.652626 38.8121756,26.530812 38.8802831,26.4022211 C39.0148037,26.1409731 39.0692727,25.8388099 39.0247996,25.5484215 C38.9857479,25.2579483 38.8458905,24.9813678 38.6420764,24.7717934 L38.4104773,24.5386694 L38.3840475,24.5127479 L38.4013285,24.4854711 L38.5676157,24.190593 C38.6730806,23.9883884 38.7706674,23.7829649 38.8593595,23.5730517 C38.9456798,23.3617831 39.022936,23.147719 39.0915517,22.9300971 L39.1828698,22.6051467 L39.192781,22.5643161 L39.4673285,22.5643161 C39.5455165,22.5674504 39.7103636,22.5593182 39.8262479,22.5347521 C39.9520434,22.5060351 40.0752128,22.4638492 40.1898264,22.403874 C40.6505682,22.1702417 40.9532397,21.6531674 40.9418037,21.1460041 L40.9418037,20.5765785 C40.9432438,20.4972893 40.9406178,20.3428616 40.9160517,20.2224029 Z M35.2126467,30.5143347 L35.2126467,30.9860888 L35.2126467,31.2219236 C35.2123079,31.2928264 35.2095971,31.3550041 35.2036674,31.4213326 C35.1786777,31.6825806 35.096,31.9370517 34.9651219,32.1643306 C34.7061612,32.6218533 34.242624,32.9573079 33.7290227,33.0618409 C33.600093,33.0890331 33.4719256,33.1008926 33.3360496,33.1008926 L32.8643802,33.1008926 L31.9209566,33.1008926 L30.0338554,33.1008926 L26.2603306,33.1008926 L11.1655537,33.1008926 L3.61816529,33.1008926 L2.67482645,33.1008926 C2.4071405,33.1023326 2.14860331,33.0482872 1.90827893,32.9413822 C1.42746074,32.7309607 1.04490702,32.3052045 0.887599174,31.8049029 C0.847615702,31.6802934 0.820338843,31.5513636 0.808140496,31.4204855 C0.802295455,31.354157 0.7995,31.2918099 0.799076446,31.2209917 L0.799076446,30.985157 L0.799076446,30.0418182 L0.799076446,28.1551405 L0.799076446,13.0603636 L0.799076446,5.51297521 L0.799076446,3.62578926 L0.799076446,2.68245041 C0.796789256,2.40841116 0.845836777,2.15343182 0.951301653,1.91082025 C1.15757231,1.4287314 1.5792624,1.04109504 2.07820868,0.879297521 C2.20273347,0.838382231 2.33090083,0.810597107 2.46169421,0.796535124 C2.52717562,0.789673554 2.59257231,0.786115702 2.65847727,0.785607438 L2.89338017,0.785183884 L3.83671901,0.785183884 L18.9314959,0.785183884 L26.4788843,0.785183884 L30.2528326,0.785183884 L32.1395103,0.785183884 L33.0828492,0.785183884 C33.4209298,0.78010124 33.6427025,0.786539256 33.9053905,0.869725207 C34.406031,1.02508471 34.8350909,1.40416529 35.0482231,1.88396694 C35.1558905,2.12293595 35.2123079,2.38384504 35.212562,2.64738017 L35.212562,3.59029545 L35.212562,7.36415909 L35.212562,14.3126426 C35.1367459,14.2771488 35.0627087,14.2376736 34.9857913,14.2049752 C34.7746074,14.1185702 34.5605434,14.0413988 34.3428368,13.9727831 L34.0179711,13.8814649 L33.9770558,13.8718926 L33.9766322,13.5143285 C33.9734132,13.2212293 33.8776054,12.925843 33.6997975,12.6913636 C33.5267335,12.4536653 33.2744649,12.2778058 32.9936488,12.1874194 C32.8692087,12.1483678 32.7355351,12.1305785 32.6088079,12.1260041 L32.6088079,7.32282025 L3.40274587,7.32282025 L3.40274587,30.9033264 L32.6088926,30.9033264 L32.6088926,29.5263533 C32.7356198,29.5219483 32.8696322,29.5041591 32.9946653,29.4651074 C33.2751426,29.3747211 33.5272417,29.1986921 33.7008988,28.9607397 C33.8781983,28.7260909 33.9734979,28.4307893 33.9767169,28.1376901 L33.9771405,27.7800413 L34.0180558,27.7705537 L34.3429215,27.6787273 C34.5606281,27.6105351 34.7752004,27.5333636 34.985876,27.4470434 C35.0632169,27.4142603 35.1368306,27.3747004 35.2126467,27.3397149 L35.2126467,30.5143347 L35.2126467,30.5143347 Z M25.4518512,16.1035124 C25.4914959,16.3939008 25.6313533,16.6706508 25.8340661,16.8797169 L26.0662583,17.1132645 L26.0921798,17.1396095 L26.0759153,17.1664628 L25.9095434,17.4613409 C25.803655,17.6631219 25.7059835,17.868969 25.6168678,18.0788822 C25.5309711,18.2897273 25.4537996,18.5042149 25.3850992,18.7214132 L25.2933574,19.0462789 L25.2842934,19.0871942 L24.9262211,19.0876178 C24.6335455,19.0912603 24.3381591,19.1867293 24.1036798,19.3639442 C23.8654731,19.537093 23.6891901,19.7897004 23.599312,20.070093 C23.555686,20.2096116 23.5356095,20.3618368 23.5347624,20.5014401 L23.5347624,20.8258822 L23.5347624,21.1507479 C23.5356095,21.289843 23.555686,21.4419835 23.599312,21.5815868 C23.6892748,21.8623182 23.8655579,22.1145868 24.1036798,22.2876508 C24.3381591,22.4649504 24.6335455,22.560843 24.9262211,22.564062 L25.2842934,22.5644855 L25.2933574,22.6053161 L25.3850992,22.9302665 C25.453376,23.1478884 25.5310558,23.3619525 25.6168678,23.5732211 C25.7059835,23.783219 25.8031467,23.9889814 25.9090351,24.1907624 L26.075407,24.4856405 L26.0921798,24.5129174 L25.8340661,24.7723864 C25.6313533,24.981876 25.4914959,25.2580331 25.4518512,25.5489298 C25.4069545,25.8388946 25.4614236,26.1410579 25.5959442,26.4023058 C25.6640517,26.5313202 25.7581653,26.653219 25.8549897,26.751314 L26.0840475,26.9802872 L26.3130207,27.2098533 C26.4119628,27.3070165 26.533438,27.4006219 26.6620289,27.4683905 C26.9237004,27.6029112 27.2253554,27.6573802 27.5157438,27.6124835 C27.8066405,27.5733471 28.0827975,27.433405 28.2924566,27.2297603 L28.5514174,26.9716467 L28.5786095,26.9884194 L28.8735723,27.1547913 C29.0753533,27.2601715 29.2812004,27.357843 29.4911136,27.4469587 C29.7019587,27.5333636 29.9164463,27.6105351 30.1335599,27.6791508 L30.458595,27.7709773 L30.4994256,27.7799566 L30.4998492,28.1381136 C30.5034917,28.4312128 30.5989607,28.7265145 30.7762603,28.9609938 C30.9498326,29.1992004 31.2024401,29.3749752 31.4827479,29.4653616 C31.6073574,29.5040744 31.7413698,29.5218636 31.8676736,29.5262686 L31.8676736,30.1621074 L4.14396488,30.1621074 L4.14396488,8.06403926 L31.8676736,8.06403926 L31.8676736,12.1260888 C31.7413698,12.1310868 31.6073574,12.1487913 31.4824091,12.1875041 C31.2024401,12.2778905 30.9498326,12.45375 30.7762603,12.6914483 C30.5989607,12.9259277 30.5034917,13.221314 30.4998492,13.5144132 L30.4994256,13.8719773 L30.458595,13.8815496 L30.1335599,13.9728678 C29.9164463,14.0414835 29.7019587,14.1187397 29.4911136,14.2050599 C29.2811157,14.2940909 29.0753533,14.3914236 28.8735723,14.4972273 L28.5786095,14.6635145 L28.5514174,14.6807955 L28.2924566,14.4231901 C28.0827975,14.2195455 27.8066405,14.079688 27.5162521,14.0401281 C27.2258636,13.995655 26.9237004,14.0497004 26.6623678,14.1837975 C26.5338616,14.251905 26.4119628,14.3450868 26.3130207,14.4427583 L26.0840475,14.6718161 L25.8549897,14.9012975 C25.7581653,14.9994773 25.6640517,15.1212066 25.5959442,15.2497975 C25.4614236,15.5109607 25.4069545,15.8132087 25.4518512,16.1035124 Z M40.2008388,21.1461736 C40.204905,21.402 40.0635227,21.6323285 39.8454773,21.7474504 C39.726374,21.8046302 39.6404773,21.8273326 39.4674132,21.8232665 L38.6031095,21.8232665 L38.4668099,22.4140393 L38.3832004,22.7126446 C38.3214463,22.907564 38.2523223,23.0992645 38.1751508,23.2883388 C38.0956074,23.4764814 38.0077624,23.6609814 37.9133099,23.8418388 L37.7615083,24.1113037 C37.6615496,24.2844525 37.5243182,24.460312 37.4544318,24.63075 L38.1114483,25.2891219 C38.2077645,25.3900124 38.2732459,25.5172479 38.291374,25.6553264 C38.3142459,25.7926426 38.2860372,25.9358037 38.2241136,26.0584649 C38.1896364,26.120219 38.1515165,26.1711302 38.0978099,26.2270393 L37.8687521,26.4565207 L37.6393554,26.6854938 C37.5834463,26.7392004 37.5324504,26.7777438 37.470781,26.8118822 C37.3480351,26.8736364 37.2053822,26.901845 37.067219,26.8791426 C36.9291405,26.8609298 36.8018202,26.7950248 36.701438,26.6991322 L36.043405,26.042031 C35.8729669,26.1102231 35.6966839,26.2487252 35.5239587,26.348345 L35.2545785,26.5009938 C35.0732128,26.5954463 34.8887975,26.6827831 34.7010785,26.76275 C34.5115806,26.8400062 34.3197955,26.9091302 34.1252996,26.9704607 L33.8267789,27.0544938 L33.2360062,27.1903698 L33.2354979,28.1315062 C33.2328719,28.2713636 33.190093,28.4081715 33.1051281,28.5194814 C33.0238058,28.6330785 32.9029236,28.7149938 32.7720455,28.7580269 C32.7042769,28.7780186 32.6406591,28.7866591 32.5634029,28.7885227 L32.2385372,28.7885227 L31.914095,28.7885227 C31.8363306,28.7866591 31.772374,28.7780186 31.7046054,28.7580269 C31.5741508,28.7149091 31.452845,28.6329938 31.371438,28.5194814 C31.2869814,28.408595 31.2442025,28.2713636 31.2409835,28.1319298 L31.2406446,27.1908781 L30.6498719,27.0550021 L30.3516901,26.970969 C30.156686,26.9092149 29.964562,26.8400909 29.7754876,26.7628347 C29.5877686,26.683376 29.4032686,26.595531 29.2219876,26.5010785 L28.9529463,26.3488533 C28.779374,26.2483864 28.6035992,26.1116632 28.4331612,26.0416921 L27.7751281,26.6992169 C27.6742376,26.7951095 27.5469174,26.8610145 27.4088388,26.8792273 C27.2715227,26.9019298 27.1288698,26.8738058 27.0057851,26.8119669 C26.9439463,26.7778285 26.8926116,26.7392851 26.837126,26.6855785 L26.6081529,26.4566054 L26.379095,26.2276322 C26.3250496,26.1712149 26.2864215,26.1203037 26.2522831,26.0585496 C26.1910372,25.9358884 26.1628285,25.7931508 26.1850227,25.6554112 C26.2033202,25.5173326 26.2691405,25.3900971 26.3655413,25.2892066 L27.0221343,24.6308347 C26.9525868,24.4603967 26.8153554,24.2845372 26.7148884,24.1113884 L26.5627479,23.8419236 C26.4682955,23.6610661 26.3809587,23.4765661 26.300907,23.2884236 C26.2237355,23.0994339 26.1546116,22.9076488 26.093281,22.7127293 L26.0092479,22.414124 L25.8738802,21.8233512 L24.9327438,21.8229277 C24.7933099,21.8203017 24.6559938,21.7770992 24.5446839,21.6925579 C24.4310868,21.6111508 24.3497645,21.4903533 24.3062231,21.3598988 C24.2861467,21.2917066 24.2775062,21.2280888 24.2757273,21.1508326 L24.2757273,20.8259669 L24.2757273,20.5015248 C24.2775062,20.4241839 24.2861467,20.3601426 24.3062231,20.2924587 C24.3498492,20.1620041 24.4311715,20.0406136 24.5451921,19.9597996 C24.6560785,19.87475 24.7933099,19.8320558 24.9327438,19.8289215 L25.8738802,19.8284132 L26.0092479,19.238064 L26.093281,18.9395434 C26.1546963,18.744624 26.2242438,18.5529236 26.300907,18.3638492 C26.380874,18.1757066 26.4682955,17.9912913 26.5627479,17.8103492 L26.7153967,17.5408843 C26.8153554,17.3677355 26.9536033,17.191876 27.021626,17.0215227 L26.3655413,16.3634897 C26.2691405,16.2621756 26.2033202,16.1349401 26.1850227,15.9967769 C26.1628285,15.8595455 26.1910372,15.7168079 26.2522831,15.5941467 C26.2864215,15.5318843 26.3250496,15.4813967 26.379095,15.425064 L26.6081529,15.1955826 L26.837126,14.9665248 C26.8926116,14.9134112 26.943438,14.8747831 27.0057851,14.8407293 C27.1288698,14.7789752 27.2715227,14.7511901 27.4088388,14.773469 C27.5474256,14.7915971 27.6742376,14.8575021 27.7751281,14.9539029 L28.4334153,15.6114277 C28.6038533,15.539593 28.7801364,15.4037169 28.9528616,15.3033347 L29.2219029,15.1511095 C29.4032686,15.0565723 29.5876839,14.9688967 29.7754029,14.8893533 C29.9643926,14.8120971 30.1566012,14.7430579 30.3516054,14.681219 L30.650126,14.5976095 L31.2404752,14.4617335 L31.240814,13.5206818 C31.2440331,13.3811632 31.286812,13.2443554 31.3712686,13.1330455 C31.4526756,13.0194483 31.5739814,12.9380413 31.704436,12.8945 C31.7722045,12.8749318 31.8361612,12.8658678 31.9134174,12.8640888 L32.2383678,12.8640888 L32.5627252,12.8640888 C32.6404897,12.8658678 32.7035992,12.874593 32.771876,12.8945 C32.9027541,12.938126 33.0236364,13.0194483 33.1049587,13.1330455 C33.1899236,13.2443554 33.2327025,13.3810785 33.2353285,13.5206818 L33.2358368,14.4617335 L33.8261012,14.5976095 L34.1251302,14.681219 C34.319626,14.7429731 34.5114112,14.8120124 34.7004008,14.8893533 C34.8886281,14.9688967 35.0730434,15.056657 35.2539008,15.1511095 L35.5234504,15.3033347 C35.6965145,15.4037169 35.8722893,15.5414566 36.0427273,15.6109194 L36.7007603,14.9533946 C36.8016508,14.8575021 36.9289711,14.7915971 37.0670496,14.7733843 C37.2047045,14.7511054 37.347781,14.7788058 37.4706116,14.8406446 C37.5323657,14.8746983 37.5832769,14.9129029 37.639186,14.9669483 L37.8682438,15.1960062 L38.0972169,15.425064 C38.1513471,15.4813967 38.1894669,15.5317996 38.2239442,15.5941467 C38.2857831,15.7168079 38.3135682,15.8595455 38.2912045,15.9972004 C38.2730764,16.1352789 38.207595,16.2620909 38.1112789,16.3629814 L37.4546012,17.021438 C37.5228781,17.1917913 37.6613802,17.3676508 37.7609153,17.540376 L37.9131405,17.8102645 C38.007593,17.9912066 38.0953533,18.1756219 38.1749814,18.3637645 C38.2521529,18.5527541 38.3212769,18.7445393 38.383031,18.9394587 L38.4666405,19.2379793 L38.6029401,19.8283285 L39.538062,19.8283285 C39.7829607,19.8268884 40.0193884,19.972845 40.1288347,20.1923306 C40.1588223,20.2455289 40.1733926,20.3049959 40.1879628,20.3636157 C40.1988905,20.4299442 40.2015165,20.4662851 40.2006694,20.5767479 L40.2006694,21.1461736 L40.2008388,21.1461736 Z" id="Shape" fill="#E03632"></path>
                <path d="M32.2385372,17.0941198 C31.2606364,17.0891219 30.2872252,17.4931074 29.5997128,18.1874814 C28.9059318,18.8754174 28.5019463,19.8488285 28.5070289,20.8262211 C28.5019463,21.8036136 28.9059318,22.7770248 29.5997128,23.4649607 C30.2872252,24.15925 31.2606364,24.562812 32.2385372,24.557814 C33.2160145,24.562812 34.1892562,24.15925 34.8768533,23.4649607 C35.5712273,22.7770248 35.9752975,21.8036136 35.9702149,20.8262211 C35.9752975,19.8488285 35.5712273,18.8749938 34.8768533,18.1874814 C34.1893409,17.4931074 33.2160145,17.0895455 32.2385372,17.0941198 Z M34.3533409,22.940686 C33.7999256,23.4982521 33.0238058,23.8204917 32.2385372,23.8168492 C31.4531839,23.8204917 30.6771488,23.4982521 30.1236488,22.940686 C29.5665062,22.3876942 29.2447748,21.6115744 29.2479938,20.8263058 C29.2447748,20.0406136 29.5665062,19.2648326 30.1236488,18.7114174 C30.6771488,18.1538512 31.4531839,17.8321198 32.2385372,17.8352541 C33.0238058,17.8321198 33.7999256,18.1538512 34.3533409,18.7114174 C34.9104835,19.2648326 35.2322149,20.0405289 35.2290806,20.8263058 C35.2322149,21.6114897 34.9104835,22.387186 34.3533409,22.940686 Z" id="Shape" fill="#A2AEB7"></path>
                <path d="M23.1711839,21.6332603 L23.2974876,21.5060248 C23.4832583,21.3147479 23.567376,21.0316446 23.5183285,20.7708202 C23.4952025,20.6399421 23.4387004,20.5149091 23.3583099,20.4090207 C23.2623326,20.2912727 23.2137087,20.2573037 23.1442459,20.1831818 C23.0738512,20.1173616 23.0320888,20.0590806 22.9120537,19.9673388 C22.8048099,19.8887273 22.6785062,19.8360372 22.5472045,19.816469 C22.2848554,19.7723347 22.004124,19.8646694 21.8169132,20.0532355 L21.7042479,20.1664091 C21.5524463,20.0772934 21.3643884,19.9828409 21.1875971,19.9088037 C21.0166508,19.836969 20.7926756,19.7664897 20.6527335,19.7297252 L20.6518864,19.5520021 C20.6481591,19.2848244 20.5073698,19.0252707 20.2878843,18.8754174 C20.1792004,18.7995165 20.0511178,18.7508926 19.9193079,18.7326798 C19.7679298,18.7172624 19.7102417,18.7272583 19.6085041,18.7245475 C19.512188,18.7276818 19.4412004,18.7162459 19.2912624,18.7353905 C19.160469,18.7558058 19.0332335,18.8080723 18.9268368,18.8871921 C18.710062,19.0411963 18.5768967,19.3052397 18.5778285,19.571062 L18.5778285,19.7296405 L18.5792686,19.7291322 C18.4074752,19.7741983 18.2070496,19.8404421 18.0289876,19.9141405 C17.8585496,19.9850434 17.6481281,20.0940661 17.5263988,20.1664091 L17.3991632,20.0401054 C17.2074628,19.85425 16.9247831,19.7705558 16.6639587,19.8192645 C16.5330806,19.8424752 16.4077087,19.8988079 16.3022438,19.9787748 C16.1840723,20.0751756 16.1504421,20.1232913 16.0758967,20.1927541 C16.0105,20.2632335 15.9523884,20.3055041 15.8601384,20.4249463 C15.7815269,20.5326983 15.7288368,20.6590868 15.7096921,20.7903037 C15.6656426,21.0524835 15.7578079,21.3332996 15.9468822,21.520595 L16.0441302,21.6182665 C16.0577686,21.6318202 16.0595475,21.6331756 16.059124,21.6331756 C15.9691612,21.7864174 15.8755558,21.9736281 15.8015186,22.1503347 C15.7296839,22.3211963 15.6597128,22.5461033 15.6229483,22.6846901 L15.4434463,22.6857066 C15.1771157,22.6897727 14.9176467,22.8306467 14.7677087,23.0505558 C14.6918079,23.159155 14.6436074,23.2878306 14.6253946,23.4192169 C14.6109091,23.5705103 14.6203967,23.6277748 14.6172624,23.7300207 C14.6208202,23.8258285 14.6095537,23.8976632 14.6291219,24.0466694 C14.6491136,24.1784793 14.7018037,24.3052913 14.7808388,24.4116033 C14.9353512,24.6279545 15.1998182,24.7606116 15.4652169,24.7596798 L15.6228636,24.7596798 L15.6224401,24.756969 C15.6683533,24.9323202 15.7342583,25.1299504 15.8078719,25.3091136 C15.8478554,25.3986529 15.8859752,25.4895475 15.932312,25.5767149 L16.0005041,25.7071694 L16.059124,25.8107707 L15.9314649,25.9398698 C15.7460331,26.1315702 15.6633554,26.4146736 15.7129112,26.6759215 C15.7365455,26.806376 15.7928781,26.9313244 15.8733533,27.0372128 C15.9697541,27.1549607 16.016938,27.1875744 16.0869091,27.2621198 C16.1568802,27.3275165 16.2005062,27.3866446 16.3196095,27.4784711 C16.4272769,27.5570826 16.5540888,27.6088409 16.6853905,27.6284091 C16.9475702,27.6721198 17.2284711,27.5784298 17.41475,27.3898636 L17.5265682,27.2781302 C17.5256364,27.2772831 17.5292789,27.279062 17.524281,27.2767748 C17.6783698,27.3676694 17.8660041,27.4612748 18.0440661,27.5358202 C18.2145041,27.6080785 18.4399194,27.6785579 18.5779979,27.714814 L18.5789298,27.8943161 C18.5825723,28.1609855 18.7243781,28.4205393 18.9433554,28.5700537 C19.0524628,28.6459545 19.1806302,28.6945785 19.3123554,28.7122831 C19.4636488,28.7273616 19.5213368,28.7173657 19.6231591,28.7205 C19.7190517,28.7173657 19.7903781,28.7282087 19.9404008,28.709064 C20.0717025,28.6886488 20.1985145,28.6360434 20.3048264,28.5569236 C20.521093,28.4024112 20.65375,28.1375207 20.6528182,27.8725455 L20.6528182,27.7148988 L20.650531,27.715407 C20.8246116,27.6694091 21.0231736,27.6035888 21.2018285,27.5299752 C21.3722665,27.459157 21.5826033,27.349626 21.7039091,27.2782149 L21.8316529,27.4046033 C22.0229298,27.590374 22.3062025,27.6744917 22.5673657,27.6253595 C22.6982438,27.6021488 22.8231921,27.5454773 22.928657,27.4654256 C23.046405,27.3690248 23.0804587,27.3213326 23.1540723,27.2513616 C23.2203161,27.1808822 23.2785971,27.1386963 23.3703388,27.0191694 C23.4490351,26.9119256 23.5018099,26.7856219 23.5212087,26.6543202 C23.5656818,26.3920558 23.4725847,26.1108161 23.2840186,25.9240289 L23.1863471,25.8258492 C23.1727087,25.8122955 23.1713533,25.8108554 23.1713533,25.8113636 C23.2608079,25.6586302 23.3548368,25.4709112 23.4289587,25.2942893 C23.5007934,25.123343 23.571188,24.8988595 23.6075289,24.7598492 L23.7865227,24.7589174 C24.0528533,24.7547665 24.3128306,24.6139773 24.4622603,24.3949153 C24.5381612,24.2858926 24.5872934,24.1577252 24.6053368,24.0259153 C24.6204153,23.8751302 24.6104194,23.8169339 24.6135537,23.7151116 C24.6099112,23.619219 24.6213471,23.5478926 24.6017789,23.3983781 C24.5818719,23.2670764 24.529436,23.1402645 24.4504008,23.0335289 C24.2963967,22.8166694 24.0319298,22.6840124 23.766531,22.6849442 L23.6075289,22.6849442 C23.5629711,22.5140826 23.4966426,22.3137417 23.4235372,22.1364421 C23.3520413,21.9660041 23.2438657,21.7559215 23.1711839,21.6332603 Z M23.7664463,23.2037975 C23.8701322,23.2042211 23.970938,23.2542851 24.0309979,23.33925 C24.0985971,23.4309917 24.0963099,23.4963884 24.094531,23.7150269 C24.0963099,23.933157 24.1000372,24.009905 24.0359112,24.0990207 C23.9765289,24.1849174 23.8779256,24.2384545 23.7737314,24.2403182 L23.3993099,24.2408264 L23.2611467,24.2408264 C23.2392913,24.2426054 23.2120145,24.2371839 23.1947335,24.244469 L23.1794008,24.3117293 L23.1172231,24.5811942 C23.0617376,24.7989008 23.0176033,24.9256281 22.9494112,25.0960661 C22.8804566,25.2582025 22.8113326,25.4005165 22.7140847,25.5654483 L22.5665186,25.8022149 C22.4687624,25.8862479 22.5782934,25.9462231 22.6386921,26.0122128 L22.9168822,26.2907417 C22.9904959,26.3647789 23.025905,26.4706674 23.008624,26.573845 C22.991343,26.6870186 22.9440744,26.7310682 22.7877831,26.8846488 C22.6351343,27.0395847 22.5828678,27.0973574 22.4746921,27.1146384 C22.372531,27.1332748 22.2643554,27.1019318 22.1898946,27.0291653 L21.9257665,26.7660537 L21.8281798,26.6683822 C21.8119153,26.6524566 21.7954814,26.633905 21.7790475,26.6206901 L21.7200041,26.6575393 L21.4855248,26.8038347 C21.2900971,26.9211591 21.170655,26.9770682 21.0020806,27.0516136 C20.8389277,27.1174339 20.6881426,27.1692769 20.5050826,27.216969 L20.2336694,27.2800785 L20.1664091,27.2955806 C20.1559897,27.2987149 20.1423512,27.300155 20.1341343,27.3046446 L20.1341343,27.3391219 L20.1341343,27.4772851 L20.1341343,27.8726302 C20.1332872,27.9767397 20.0837314,28.0771219 19.9987665,28.1380289 C19.9065165,28.2057975 19.8424752,28.2039339 19.6234132,28.2016467 C19.4052831,28.2034256 19.3281116,28.2074917 19.2389959,28.1434504 C19.1536074,28.084407 19.0990537,27.9853802 19.0976983,27.8816942 L19.0971901,27.5082045 L19.0971901,27.3700413 C19.0958347,27.3477624 19.0990537,27.3223492 19.0944793,27.302781 L19.027219,27.2868554 L18.7581777,27.224593 C18.5386921,27.1686839 18.4132355,27.1246343 18.2424587,27.0565269 C18.0810847,26.9874876 17.9375,26.9178554 17.7740083,26.821624 L17.5367335,26.6738884 L17.4776901,26.637124 C17.4685413,26.6324649 17.4581219,26.6220455 17.4490579,26.6216219 L17.4244917,26.6461033 L17.3268202,26.7442831 L17.0478678,27.0232355 C16.9742541,27.0968492 16.8678574,27.1327665 16.7647645,27.1159938 C16.6515909,27.0982893 16.6079649,27.0519525 16.4543843,26.8955764 C16.2990248,26.742843 16.2408285,26.6906612 16.2234628,26.5824855 C16.2044029,26.4798161 16.2361694,26.3717252 16.3080041,26.2971798 L16.5706921,26.0335599 L16.6678554,25.9359731 L16.7169876,25.8868409 L16.680562,25.8283058 L16.5342665,25.5937417 L16.4551467,25.4575269 L16.3951715,25.3429979 C16.355188,25.2670971 16.3219814,25.1875537 16.2865723,25.1093657 C16.2207521,24.9466364 16.1689091,24.7944112 16.1207087,24.6131302 L16.0580227,24.3414628 L16.0420971,24.2742025 L16.0339649,24.2409959 L15.9994029,24.2409959 L15.8608161,24.2409959 L15.4654711,24.2409959 C15.3613616,24.2404876 15.2608946,24.1905083 15.2000723,24.1054587 C15.1323884,24.0132087 15.1346756,23.9491674 15.1365393,23.7301901 C15.1347603,23.5124835 15.1311178,23.4342955 15.1947355,23.3457727 C15.2537789,23.2597913 15.3528058,23.2058306 15.456407,23.2043905 L15.8299814,23.2039669 L15.9685682,23.2039669 C15.9903388,23.2025269 16.0171921,23.2066777 16.035405,23.2007479 L16.050907,23.1334876 L16.113593,22.8640227 C16.1689938,22.6458926 16.2135517,22.5195888 16.2817438,22.3487273 C16.3507831,22.1869298 16.419907,22.0437686 16.5166467,21.8797686 L16.6643822,21.6425785 L16.7007231,21.5839587 C16.7047893,21.5744711 16.7174959,21.5639669 16.7143616,21.5553264 L16.6898802,21.5307603 L16.5926322,21.4325806 L16.3140186,21.1541364 C16.2414215,21.0805227 16.2055041,20.9736178 16.2227004,20.8704401 C16.2399814,20.7573512 16.28725,20.7133017 16.4435413,20.5601446 C16.5962748,20.4047851 16.6480331,20.347436 16.756124,20.3302397 C16.8587934,20.3115186 16.966969,20.3433698 17.0415145,20.4156281 L17.3059814,20.6792479 L17.4036529,20.7769194 C17.4200021,20.7923368 17.4359277,20.8123285 17.4527004,20.8231715 L17.511405,20.7863223 L17.7458843,20.6400269 C17.941312,20.5236343 18.0611777,20.4668781 18.2293285,20.3928409 C18.3929897,20.326936 18.5424194,20.2756012 18.727343,20.2269773 L18.9982479,20.1642913 L19.0655083,20.1487893 C19.0760124,20.1451467 19.0904979,20.1451467 19.0972748,20.1387934 L19.0972748,20.1043161 L19.0972748,19.9661529 L19.0972748,19.5712314 C19.0972748,19.4680537 19.1473388,19.3671632 19.2327273,19.3067645 C19.3249773,19.2389959 19.3899504,19.2413678 19.6090124,19.243655 C19.8266343,19.241876 19.9034669,19.2377252 19.9924979,19.3017665 C20.0779711,19.3613182 20.1324401,19.460345 20.1333719,19.5635227 L20.134219,19.9389607 L20.134219,20.077124 C20.1360826,20.0984711 20.1292211,20.1271033 20.1387934,20.1425207 L20.2060537,20.1580227 L20.4755186,20.2207087 C20.6922934,20.2761095 20.8194442,20.3206674 20.989374,20.3883512 C21.1521033,20.4578988 21.2934008,20.5265992 21.459688,20.6246942 C21.6165723,20.6919545 21.7864174,20.9314318 21.9055207,20.6987314 L22.183626,20.4207107 C22.2572397,20.3480289 22.3644835,20.3121116 22.4671529,20.3293926 C22.5803264,20.3465888 22.6248843,20.3943657 22.7779566,20.550657 C22.9334008,20.7033905 22.99075,20.7546405 23.008031,20.8632397 C23.0266674,20.9654855 22.9948161,21.0735764 22.9224731,21.1481219 L22.6590227,21.4125888 L22.5607583,21.5102603 C22.5462727,21.5270331 22.5253492,21.5425351 22.515438,21.5597314 L22.5517789,21.618436 L22.6981591,21.8528306 C22.8144669,22.0478347 22.8707996,22.1678698 22.9452603,22.3363595 C23.0107417,22.5000207 23.0626694,22.6486033 23.1107851,22.8348822 L23.1734711,23.1057025 L23.189312,23.1729628 C23.1930393,23.1829587 23.192531,23.1984607 23.1993926,23.2038822 L23.2338698,23.2038822 L23.3724566,23.2038822 L23.7664463,23.2038822 L23.7664463,23.2037975 Z" id="Shape" fill="#E03632"></path>
                <path d="M19.6154504,21.5515145 C19.0469566,21.5482955 18.48075,21.7832831 18.0808306,22.1872686 C17.676845,22.5871033 17.4419421,23.1537335 17.4446529,23.7222273 C17.4419421,24.2907211 17.676845,24.8569277 18.0808306,25.2568471 C18.48075,25.6607479 19.0469566,25.8956508 19.6154504,25.8929401 C20.1839442,25.8956508 20.7501508,25.6607479 21.1499855,25.2568471 C21.5538864,24.856843 21.788874,24.2907211 21.7861632,23.7222273 C21.788874,23.1537335 21.5538864,22.5871033 21.1499855,22.1872686 C20.7500661,21.7837066 20.1839442,21.5488037 19.6154504,21.5515145 Z M20.783188,24.8901343 C20.4774669,25.1981426 20.0494236,25.375781 19.6154504,25.3740021 C19.1814773,25.375781 18.7534339,25.1981426 18.4475434,24.8901343 C18.1395351,24.5843285 17.961812,24.1562004 17.9635909,23.7222273 C17.961812,23.2882541 18.1395351,22.8597025 18.4475434,22.5538967 C18.7533492,22.246312 19.1814773,22.0685888 19.6154504,22.0704525 C20.0494236,22.0686736 20.4774669,22.246312 20.783188,22.5538967 C21.0914504,22.8597025 21.2690041,23.2882541 21.2672252,23.7222273 C21.2690041,24.1562004 21.0913657,24.5843285 20.783188,24.8901343 Z" id="Shape" fill="#A2AEB7"></path>
                <rect id="Rectangle-path" fill="#A2AEB7" x="19.615874" y="12.8757789" width="4.28966736" height="1"></rect>
            </g>
        </g>
    </g>
</svg>