<svg width="182" height="43" viewBox="0 0 182 43" fill="none" xmlns="http://www.w3.org/2000/svg">
<path fill-rule="evenodd" clip-rule="evenodd" d="M19.1524 39C28.56 38.3852 35.9999 30.57 35.9999 21.0195C35.9999 11.0676 27.9215 3 17.9564 3C8.59343 3 0.896125 10.122 0 19.2373C2.09806 13.2274 7.82268 8.91523 14.5558 8.91523C23.0671 8.91523 29.9668 15.8058 29.9668 24.3057C29.9668 31.2069 25.4186 37.0471 19.1524 39Z" fill="white"/>
<path d="M12.3945 20.5265L23.4181 15.5972L18.4273 26.5513L17.1659 23.5389L14.5883 26.1131L12.8881 24.4152L15.4109 21.8958L12.3945 20.5265Z" fill="white"/>
<path fill-rule="evenodd" clip-rule="evenodd" d="M28.139 25.4723C26.6887 30.3354 22.1773 33.8813 16.8366 33.8813C10.3244 33.8813 5.0452 28.6092 5.0452 22.1057C5.0452 16.5718 8.86757 11.9295 14.0195 10.6682C6.71539 10.9379 0.876953 16.9363 0.876953 24.2966C0.876953 31.8286 6.99097 37.9344 14.533 37.9344C21.6784 37.9344 27.5421 32.4538 28.139 25.4723Z" fill="white"/>
<path d="M49.125 14.2C49.125 10.2 50.575 7.625 53.275 7.625C55.45 7.625 56.75 8.525 57.625 9.15L58.025 6.025C56.225 5.15 54.4 4.9 52.975 4.9C48.6 4.9 45.25 7.9 45.25 14.15C45.25 19.7 47.5 23.35 52.775 23.35C55.25 23.35 56.575 22.925 58.1 22.225L57.65 19.2C56.225 20.15 54.7 20.625 53.425 20.625C50.55 20.625 49.125 18.65 49.125 14.2ZM70.9688 23V14.5C70.9688 11.725 69.9688 10.2 66.2938 10.2C64.8438 10.2 62.5438 10.575 60.5438 11.55L61.1688 14C62.3688 13.2 63.8188 12.6 65.1688 12.6C66.6688 12.6 67.2938 13.05 67.2938 14.725V15.4H66.2688C61.2938 15.4 59.8438 17.6 59.8438 19.9C59.8438 21.775 61.2188 23.3 63.2688 23.3C65.0188 23.3 65.9938 22.95 67.3688 21.8L67.5188 23H70.9688ZM67.3188 17.35V19.625C66.8688 20.125 66.0688 20.875 64.9188 20.875C63.9188 20.875 63.4438 20.35 63.4438 19.475C63.4438 18.5 64.1688 17.35 66.6938 17.35H67.3188ZM81.8139 5.275C81.8139 6.8 80.7889 7.025 80.0639 7.025C79.3389 7.025 78.3389 6.8 78.3389 5.275L75.8389 5.7C76.0389 8.025 77.6389 9.3 80.0639 9.3C82.5139 9.3 84.1139 8 84.2889 5.675L81.8139 5.275ZM78.2889 10.625H77.1139C75.8139 10.625 73.5889 10.75 73.5889 12.375C73.5889 12.9 73.9389 13.375 74.6139 13.825V23H78.0639L82.1139 15.975H82.2389V23H85.9139V10.625H82.4639L78.4139 17.675H78.2889V10.625ZM88.0273 13.25H91.5273V23H95.2023V13.25H98.7023V10.625H88.0273V13.25ZM105.153 16.95H106.778C111.478 16.95 113.828 14.4 113.828 11.1C113.828 5.525 109.078 5.275 106.228 5.275H103.628C102.103 5.275 100.328 5.55 100.328 6.975C100.328 7.575 100.703 8.15 101.403 8.525V23H105.153V16.95ZM105.103 14.35V7.85H106.828C109.303 7.85 110.078 9.25 110.078 11.05C110.078 13.375 108.778 14.35 106.903 14.35H105.103ZM121.768 20.9C119.743 20.9 118.818 19.525 118.818 17.15H126.468V16.4C126.468 12.5 124.518 10.2 121.143 10.2C117.193 10.2 115.218 13 115.218 16.775C115.218 20.875 117.218 23.3 121.343 23.3C123.393 23.3 124.868 22.725 126.068 22.025L125.843 19.35C124.468 20.325 123.193 20.9 121.768 20.9ZM121.143 12.55C122.168 12.55 123.043 13.35 123.143 15.25H118.943C119.068 13.725 119.793 12.55 121.143 12.55ZM132.119 10.625C130.819 10.625 128.594 10.75 128.594 12.375C128.594 12.9 128.944 13.375 129.619 13.825V23H133.294V13.25H136.969V23H140.644V10.625H132.119ZM149.439 23.3C152.989 23.3 155.364 21.15 155.364 16.775C155.364 12.275 152.889 10.2 149.439 10.2C145.989 10.2 143.514 12.275 143.514 16.775C143.514 21.15 145.889 23.3 149.439 23.3ZM149.439 20.9C148.039 20.9 147.189 19.625 147.189 16.775C147.189 13.925 148.064 12.6 149.439 12.6C150.814 12.6 151.689 13.925 151.689 16.775C151.689 19.625 150.839 20.9 149.439 20.9ZM158.4 28H162.075V22.425C162.75 22.825 163.6 23.175 164.95 23.175C167.95 23.175 169.7 20.825 169.7 16.5C169.7 12.15 167.675 10.2 164.275 10.2C162.875 10.2 161.075 10.425 159.525 11.15C158.5 11.625 157.375 12.4 157.375 13.3C157.375 13.8 157.7 14.35 158.4 14.85V28ZM162.05 13.125C162.6 12.75 163.3 12.6 163.75 12.6C165.275 12.6 166.025 13.775 166.025 16.45C166.025 19.7 165.325 20.75 164.025 20.75C163.375 20.75 162.675 20.55 162.05 20.025V13.125ZM170.864 13.25H174.364V23H178.039V13.25H181.539V10.625H170.864V13.25Z" fill="white"/>
<path d="M48.772 30.06C48.148 30.06 47.08 30.12 47.08 30.9C47.08 31.152 47.248 31.38 47.572 31.596C47.488 33.324 47.212 34.212 46.816 34.74H46.204V37.596H47.692V36H50.98V37.596H52.468V34.74H51.82V30.06H48.772ZM50.092 34.8H48.388C48.856 33.996 48.988 32.34 48.988 31.272H50.092V34.8ZM55.6266 30.06H55.0626C54.4386 30.06 53.3706 30.12 53.3706 30.9C53.3706 31.152 53.5386 31.38 53.8626 31.596V36H55.5186L57.4626 32.628H57.5226V36H59.2866V30.06H57.6306L55.6866 33.444H55.6266V30.06ZM65.9411 36V31.92C65.9411 30.588 65.4611 29.856 63.6971 29.856C63.0011 29.856 61.8971 30.036 60.9371 30.504L61.2371 31.68C61.8131 31.296 62.5091 31.008 63.1571 31.008C63.8771 31.008 64.1771 31.224 64.1771 32.028V32.352H63.6851C61.2971 32.352 60.6011 33.408 60.6011 34.512C60.6011 35.412 61.2611 36.144 62.2451 36.144C63.0851 36.144 63.5531 35.976 64.2131 35.424L64.2851 36H65.9411ZM64.1891 33.288V34.38C63.9731 34.62 63.5891 34.98 63.0371 34.98C62.5571 34.98 62.3291 34.728 62.3291 34.308C62.3291 33.84 62.6771 33.288 63.8891 33.288H64.1891ZM68.8908 30.06C68.2668 30.06 67.1988 30.12 67.1988 30.9C67.1988 31.152 67.3668 31.38 67.6908 31.596V36H69.4548V31.32H71.6628V30.06H68.8908ZM74.5641 30.06H74.0001C73.3761 30.06 72.3081 30.12 72.3081 30.9C72.3081 31.152 72.4761 31.38 72.8001 31.596V36H74.5641V33.672H76.3881V36H78.1521V30.06H76.3881V32.412H74.5641V30.06ZM82.3723 36.144C84.0763 36.144 85.2163 35.112 85.2163 33.012C85.2163 30.852 84.0283 29.856 82.3723 29.856C80.7163 29.856 79.5283 30.852 79.5283 33.012C79.5283 35.112 80.6683 36.144 82.3723 36.144ZM82.3723 34.992C81.7003 34.992 81.2923 34.38 81.2923 33.012C81.2923 31.644 81.7123 31.008 82.3723 31.008C83.0323 31.008 83.4523 31.644 83.4523 33.012C83.4523 34.38 83.0443 34.992 82.3723 34.992ZM89.4697 34.992C88.5457 34.992 88.0657 34.38 88.0657 33.012C88.0657 31.644 88.5457 31.008 89.3857 31.008C89.8897 31.008 90.3817 31.188 91.0297 31.656L91.1737 30.36C90.6577 30.096 90.0577 29.856 89.2057 29.856C87.6457 29.856 86.3017 30.696 86.3017 33.012C86.3017 35.328 87.5257 36.144 89.2417 36.144C89.9857 36.144 90.7777 35.916 91.2697 35.64L91.1137 34.392C90.5257 34.812 89.9737 34.992 89.4697 34.992ZM91.8128 31.32H93.4928V36H95.2568V31.32H96.9368V30.06H91.8128V31.32ZM99.8532 30.06H99.2892C98.6652 30.06 97.5972 30.12 97.5972 30.9C97.5972 31.152 97.7652 31.38 98.0892 31.596V36H99.7452L101.689 32.628H101.749V36H103.513V30.06H101.857L99.9132 33.444H99.8532V30.06ZM107.084 30.06H106.52C105.896 30.06 104.828 30.12 104.828 30.9C104.828 31.152 104.996 31.38 105.32 31.596V36H107.084V33.588H107.336C108.344 33.588 107.852 36.144 109.808 36.144C110.156 36.144 110.66 36.036 110.9 35.916L110.78 34.728C110.684 34.788 110.504 34.86 110.264 34.86C109.46 34.86 109.58 33.216 108.776 33.012V32.904C109.532 32.628 109.436 31.236 110.252 31.236C110.396 31.236 110.588 31.296 110.72 31.356L110.816 30.132C110.624 30.024 110.18 29.928 109.904 29.928C108.044 29.928 108.272 32.364 107.336 32.364H107.084V30.06ZM116.965 36V31.92C116.965 30.588 116.485 29.856 114.721 29.856C114.025 29.856 112.921 30.036 111.961 30.504L112.261 31.68C112.837 31.296 113.533 31.008 114.181 31.008C114.901 31.008 115.201 31.224 115.201 32.028V32.352H114.709C112.321 32.352 111.625 33.408 111.625 34.512C111.625 35.412 112.285 36.144 113.269 36.144C114.109 36.144 114.577 35.976 115.237 35.424L115.309 36H116.965ZM115.213 33.288V34.38C114.997 34.62 114.613 34.98 114.061 34.98C113.581 34.98 113.353 34.728 113.353 34.308C113.353 33.84 113.701 33.288 114.913 33.288H115.213ZM123.279 30.06H122.715C122.091 30.06 121.023 30.12 121.023 30.9C121.023 31.152 121.191 31.38 121.515 31.596V36H123.171L125.115 32.628H125.175V36H126.939V30.06H125.283L123.339 33.444H123.279V30.06ZM136.394 36V31.92C136.394 30.588 135.914 29.856 134.15 29.856C133.454 29.856 132.35 30.036 131.39 30.504L131.69 31.68C132.266 31.296 132.962 31.008 133.61 31.008C134.33 31.008 134.63 31.224 134.63 32.028V32.352H134.138C131.75 32.352 131.054 33.408 131.054 34.512C131.054 35.412 131.714 36.144 132.698 36.144C133.538 36.144 134.006 35.976 134.666 35.424L134.738 36H136.394ZM134.642 33.288V34.38C134.426 34.62 134.042 34.98 133.49 34.98C133.01 34.98 132.782 34.728 132.782 34.308C132.782 33.84 133.13 33.288 134.342 33.288H134.642ZM139.848 30.06H139.512C138.888 30.06 137.592 30.12 137.592 30.9C137.592 31.152 137.76 31.38 138.084 31.596V33.984C138.084 35.508 138.756 36.108 139.896 36.108C140.76 36.108 141.36 35.64 141.6 35.412V35.964C141.6 37.044 140.952 37.44 140.028 37.44C139.512 37.44 139.056 37.296 138.576 37.104L138.384 38.304C138.924 38.472 139.596 38.58 140.22 38.58C141.792 38.58 143.364 37.956 143.364 35.796V30.06H141.6V34.392C141.432 34.572 141.156 34.8 140.652 34.8C140.148 34.8 139.848 34.56 139.848 33.708V30.06ZM147.092 30.06C146.468 30.06 145.4 30.12 145.4 30.9C145.4 31.152 145.568 31.38 145.892 31.596C145.808 33.324 145.532 34.212 145.136 34.74H144.524V37.596H146.012V36H149.3V37.596H150.788V34.74H150.14V30.06H147.092ZM148.412 34.8H146.708C147.176 33.996 147.308 32.34 147.308 31.272H148.412V34.8ZM153.947 30.06H153.383C152.759 30.06 151.691 30.12 151.691 30.9C151.691 31.152 151.859 31.38 152.183 31.596V36H153.839L155.783 32.628H155.843V36H157.607V30.06H155.951L154.007 33.444H153.947V30.06ZM158.621 31.32H160.301V36H162.065V31.32H163.745V30.06H158.621V31.32Z" fill="white"/>
</svg>
